G04 #@! TF.GenerationSoftware,KiCad,Pcbnew,6.99.0-unknown-455e330f3b~148~ubuntu20.04.1*
G04 #@! TF.CreationDate,2022-04-22T09:43:24+05:30*
G04 #@! TF.ProjectId,aptx_headset,61707478-5f68-4656-9164-7365742e6b69,rev?*
G04 #@! TF.SameCoordinates,Original*
G04 #@! TF.FileFunction,Legend,Top*
G04 #@! TF.FilePolarity,Positive*
%FSLAX46Y46*%
G04 Gerber Fmt 4.6, Leading zero omitted, Abs format (unit mm)*
G04 Created by KiCad (PCBNEW 6.99.0-unknown-455e330f3b~148~ubuntu20.04.1) date 2022-04-22 09:43:24*
%MOMM*%
%LPD*%
G01*
G04 APERTURE LIST*
G04 Aperture macros list*
%AMRoundRect*
0 Rectangle with rounded corners*
0 $1 Rounding radius*
0 $2 $3 $4 $5 $6 $7 $8 $9 X,Y pos of 4 corners*
0 Add a 4 corners polygon primitive as box body*
4,1,4,$2,$3,$4,$5,$6,$7,$8,$9,$2,$3,0*
0 Add four circle primitives for the rounded corners*
1,1,$1+$1,$2,$3*
1,1,$1+$1,$4,$5*
1,1,$1+$1,$6,$7*
1,1,$1+$1,$8,$9*
0 Add four rect primitives between the rounded corners*
20,1,$1+$1,$2,$3,$4,$5,0*
20,1,$1+$1,$4,$5,$6,$7,0*
20,1,$1+$1,$6,$7,$8,$9,0*
20,1,$1+$1,$8,$9,$2,$3,0*%
G04 Aperture macros list end*
%ADD10C,0.150000*%
%ADD11C,0.300000*%
%ADD12C,0.120000*%
%ADD13C,1.500000*%
%ADD14R,2.500000X1.200000*%
%ADD15RoundRect,0.237500X-0.300000X-0.237500X0.300000X-0.237500X0.300000X0.237500X-0.300000X0.237500X0*%
%ADD16RoundRect,0.250000X-0.325000X-0.450000X0.325000X-0.450000X0.325000X0.450000X-0.325000X0.450000X0*%
%ADD17RoundRect,0.250000X-1.500000X-1.000000X1.500000X-1.000000X1.500000X1.000000X-1.500000X1.000000X0*%
%ADD18RoundRect,0.237500X0.237500X-0.250000X0.237500X0.250000X-0.237500X0.250000X-0.237500X-0.250000X0*%
%ADD19RoundRect,0.237500X-0.237500X0.287500X-0.237500X-0.287500X0.237500X-0.287500X0.237500X0.287500X0*%
%ADD20C,1.600000*%
%ADD21RoundRect,0.200000X-0.650000X-0.200000X0.650000X-0.200000X0.650000X0.200000X-0.650000X0.200000X0*%
%ADD22RoundRect,0.200000X0.200000X-0.650000X0.200000X0.650000X-0.200000X0.650000X-0.200000X-0.650000X0*%
%ADD23RoundRect,0.200000X0.650000X0.200000X-0.650000X0.200000X-0.650000X-0.200000X0.650000X-0.200000X0*%
%ADD24RoundRect,0.237500X-0.250000X-0.237500X0.250000X-0.237500X0.250000X0.237500X-0.250000X0.237500X0*%
%ADD25RoundRect,0.237500X0.237500X-0.300000X0.237500X0.300000X-0.237500X0.300000X-0.237500X-0.300000X0*%
%ADD26RoundRect,0.237500X0.300000X0.237500X-0.300000X0.237500X-0.300000X-0.237500X0.300000X-0.237500X0*%
%ADD27RoundRect,0.237500X-0.237500X0.250000X-0.237500X-0.250000X0.237500X-0.250000X0.237500X0.250000X0*%
%ADD28RoundRect,0.250000X-0.412500X-0.650000X0.412500X-0.650000X0.412500X0.650000X-0.412500X0.650000X0*%
%ADD29R,1.700000X1.700000*%
%ADD30O,1.700000X1.700000*%
%ADD31RoundRect,0.237500X0.250000X0.237500X-0.250000X0.237500X-0.250000X-0.237500X0.250000X-0.237500X0*%
G04 APERTURE END LIST*
D10*
X89666667Y-99952380D02*
X90000000Y-100952380D01*
X90000000Y-100952380D02*
X90333333Y-99952380D01*
X91000000Y-100428571D02*
X91142857Y-100476190D01*
X91142857Y-100476190D02*
X91190476Y-100523809D01*
X91190476Y-100523809D02*
X91238095Y-100619047D01*
X91238095Y-100619047D02*
X91238095Y-100761904D01*
X91238095Y-100761904D02*
X91190476Y-100857142D01*
X91190476Y-100857142D02*
X91142857Y-100904761D01*
X91142857Y-100904761D02*
X91047619Y-100952380D01*
X91047619Y-100952380D02*
X90666667Y-100952380D01*
X90666667Y-100952380D02*
X90666667Y-99952380D01*
X90666667Y-99952380D02*
X91000000Y-99952380D01*
X91000000Y-99952380D02*
X91095238Y-100000000D01*
X91095238Y-100000000D02*
X91142857Y-100047619D01*
X91142857Y-100047619D02*
X91190476Y-100142857D01*
X91190476Y-100142857D02*
X91190476Y-100238095D01*
X91190476Y-100238095D02*
X91142857Y-100333333D01*
X91142857Y-100333333D02*
X91095238Y-100380952D01*
X91095238Y-100380952D02*
X91000000Y-100428571D01*
X91000000Y-100428571D02*
X90666667Y-100428571D01*
X141359523Y-87602380D02*
X140883333Y-87602380D01*
X140883333Y-87602380D02*
X140883333Y-86602380D01*
X92288095Y-99950000D02*
X92192857Y-99902380D01*
X92192857Y-99902380D02*
X92050000Y-99902380D01*
X92050000Y-99902380D02*
X91907143Y-99950000D01*
X91907143Y-99950000D02*
X91811905Y-100045238D01*
X91811905Y-100045238D02*
X91764286Y-100140476D01*
X91764286Y-100140476D02*
X91716667Y-100330952D01*
X91716667Y-100330952D02*
X91716667Y-100473809D01*
X91716667Y-100473809D02*
X91764286Y-100664285D01*
X91764286Y-100664285D02*
X91811905Y-100759523D01*
X91811905Y-100759523D02*
X91907143Y-100854761D01*
X91907143Y-100854761D02*
X92050000Y-100902380D01*
X92050000Y-100902380D02*
X92145238Y-100902380D01*
X92145238Y-100902380D02*
X92288095Y-100854761D01*
X92288095Y-100854761D02*
X92335714Y-100807142D01*
X92335714Y-100807142D02*
X92335714Y-100473809D01*
X92335714Y-100473809D02*
X92145238Y-100473809D01*
X92764286Y-100902380D02*
X92764286Y-99902380D01*
X92764286Y-99902380D02*
X93335714Y-100902380D01*
X93335714Y-100902380D02*
X93335714Y-99902380D01*
X93811905Y-100902380D02*
X93811905Y-99902380D01*
X93811905Y-99902380D02*
X94050000Y-99902380D01*
X94050000Y-99902380D02*
X94192857Y-99950000D01*
X94192857Y-99950000D02*
X94288095Y-100045238D01*
X94288095Y-100045238D02*
X94335714Y-100140476D01*
X94335714Y-100140476D02*
X94383333Y-100330952D01*
X94383333Y-100330952D02*
X94383333Y-100473809D01*
X94383333Y-100473809D02*
X94335714Y-100664285D01*
X94335714Y-100664285D02*
X94288095Y-100759523D01*
X94288095Y-100759523D02*
X94192857Y-100854761D01*
X94192857Y-100854761D02*
X94050000Y-100902380D01*
X94050000Y-100902380D02*
X93811905Y-100902380D01*
X140457142Y-97050000D02*
X140361904Y-97002380D01*
X140361904Y-97002380D02*
X140219047Y-97002380D01*
X140219047Y-97002380D02*
X140076190Y-97050000D01*
X140076190Y-97050000D02*
X139980952Y-97145238D01*
X139980952Y-97145238D02*
X139933333Y-97240476D01*
X139933333Y-97240476D02*
X139885714Y-97430952D01*
X139885714Y-97430952D02*
X139885714Y-97573809D01*
X139885714Y-97573809D02*
X139933333Y-97764285D01*
X139933333Y-97764285D02*
X139980952Y-97859523D01*
X139980952Y-97859523D02*
X140076190Y-97954761D01*
X140076190Y-97954761D02*
X140219047Y-98002380D01*
X140219047Y-98002380D02*
X140314285Y-98002380D01*
X140314285Y-98002380D02*
X140457142Y-97954761D01*
X140457142Y-97954761D02*
X140504761Y-97907142D01*
X140504761Y-97907142D02*
X140504761Y-97573809D01*
X140504761Y-97573809D02*
X140314285Y-97573809D01*
X140933333Y-97335714D02*
X140933333Y-98002380D01*
X140933333Y-97430952D02*
X140980952Y-97383333D01*
X140980952Y-97383333D02*
X141076190Y-97335714D01*
X141076190Y-97335714D02*
X141219047Y-97335714D01*
X141219047Y-97335714D02*
X141314285Y-97383333D01*
X141314285Y-97383333D02*
X141361904Y-97478571D01*
X141361904Y-97478571D02*
X141361904Y-98002380D01*
X142266666Y-98002380D02*
X142266666Y-97002380D01*
X142266666Y-97954761D02*
X142171428Y-98002380D01*
X142171428Y-98002380D02*
X141980952Y-98002380D01*
X141980952Y-98002380D02*
X141885714Y-97954761D01*
X141885714Y-97954761D02*
X141838095Y-97907142D01*
X141838095Y-97907142D02*
X141790476Y-97811904D01*
X141790476Y-97811904D02*
X141790476Y-97526190D01*
X141790476Y-97526190D02*
X141838095Y-97430952D01*
X141838095Y-97430952D02*
X141885714Y-97383333D01*
X141885714Y-97383333D02*
X141980952Y-97335714D01*
X141980952Y-97335714D02*
X142171428Y-97335714D01*
X142171428Y-97335714D02*
X142266666Y-97383333D01*
D11*
X143557143Y-70800000D02*
X144271429Y-70800000D01*
X143414286Y-71228571D02*
X143914286Y-69728571D01*
X143914286Y-69728571D02*
X144414286Y-71228571D01*
X144914285Y-71228571D02*
X144914285Y-69728571D01*
X144914285Y-69728571D02*
X145485714Y-69728571D01*
X145485714Y-69728571D02*
X145628571Y-69800000D01*
X145628571Y-69800000D02*
X145700000Y-69871428D01*
X145700000Y-69871428D02*
X145771428Y-70014285D01*
X145771428Y-70014285D02*
X145771428Y-70228571D01*
X145771428Y-70228571D02*
X145700000Y-70371428D01*
X145700000Y-70371428D02*
X145628571Y-70442857D01*
X145628571Y-70442857D02*
X145485714Y-70514285D01*
X145485714Y-70514285D02*
X144914285Y-70514285D01*
X146200000Y-69728571D02*
X147057143Y-69728571D01*
X146628571Y-71228571D02*
X146628571Y-69728571D01*
X147414285Y-69728571D02*
X148414285Y-71228571D01*
X148414285Y-69728571D02*
X147414285Y-71228571D01*
X141185714Y-73878571D02*
X141185714Y-72378571D01*
X141185714Y-73092857D02*
X142042857Y-73092857D01*
X142042857Y-73878571D02*
X142042857Y-72378571D01*
X142757143Y-73092857D02*
X143257143Y-73092857D01*
X143471429Y-73878571D02*
X142757143Y-73878571D01*
X142757143Y-73878571D02*
X142757143Y-72378571D01*
X142757143Y-72378571D02*
X143471429Y-72378571D01*
X144042858Y-73450000D02*
X144757144Y-73450000D01*
X143900001Y-73878571D02*
X144400001Y-72378571D01*
X144400001Y-72378571D02*
X144900001Y-73878571D01*
X145400000Y-73878571D02*
X145400000Y-72378571D01*
X145400000Y-72378571D02*
X145757143Y-72378571D01*
X145757143Y-72378571D02*
X145971429Y-72450000D01*
X145971429Y-72450000D02*
X146114286Y-72592857D01*
X146114286Y-72592857D02*
X146185715Y-72735714D01*
X146185715Y-72735714D02*
X146257143Y-73021428D01*
X146257143Y-73021428D02*
X146257143Y-73235714D01*
X146257143Y-73235714D02*
X146185715Y-73521428D01*
X146185715Y-73521428D02*
X146114286Y-73664285D01*
X146114286Y-73664285D02*
X145971429Y-73807142D01*
X145971429Y-73807142D02*
X145757143Y-73878571D01*
X145757143Y-73878571D02*
X145400000Y-73878571D01*
X146828572Y-73807142D02*
X147042858Y-73878571D01*
X147042858Y-73878571D02*
X147400000Y-73878571D01*
X147400000Y-73878571D02*
X147542858Y-73807142D01*
X147542858Y-73807142D02*
X147614286Y-73735714D01*
X147614286Y-73735714D02*
X147685715Y-73592857D01*
X147685715Y-73592857D02*
X147685715Y-73450000D01*
X147685715Y-73450000D02*
X147614286Y-73307142D01*
X147614286Y-73307142D02*
X147542858Y-73235714D01*
X147542858Y-73235714D02*
X147400000Y-73164285D01*
X147400000Y-73164285D02*
X147114286Y-73092857D01*
X147114286Y-73092857D02*
X146971429Y-73021428D01*
X146971429Y-73021428D02*
X146900000Y-72950000D01*
X146900000Y-72950000D02*
X146828572Y-72807142D01*
X146828572Y-72807142D02*
X146828572Y-72664285D01*
X146828572Y-72664285D02*
X146900000Y-72521428D01*
X146900000Y-72521428D02*
X146971429Y-72450000D01*
X146971429Y-72450000D02*
X147114286Y-72378571D01*
X147114286Y-72378571D02*
X147471429Y-72378571D01*
X147471429Y-72378571D02*
X147685715Y-72450000D01*
X148328571Y-73092857D02*
X148828571Y-73092857D01*
X149042857Y-73878571D02*
X148328571Y-73878571D01*
X148328571Y-73878571D02*
X148328571Y-72378571D01*
X148328571Y-72378571D02*
X149042857Y-72378571D01*
X149471429Y-72378571D02*
X150328572Y-72378571D01*
X149900000Y-73878571D02*
X149900000Y-72378571D01*
D10*
X141409523Y-91352380D02*
X141076190Y-90876190D01*
X140838095Y-91352380D02*
X140838095Y-90352380D01*
X140838095Y-90352380D02*
X141219047Y-90352380D01*
X141219047Y-90352380D02*
X141314285Y-90400000D01*
X141314285Y-90400000D02*
X141361904Y-90447619D01*
X141361904Y-90447619D02*
X141409523Y-90542857D01*
X141409523Y-90542857D02*
X141409523Y-90685714D01*
X141409523Y-90685714D02*
X141361904Y-90780952D01*
X141361904Y-90780952D02*
X141314285Y-90828571D01*
X141314285Y-90828571D02*
X141219047Y-90876190D01*
X141219047Y-90876190D02*
X140838095Y-90876190D01*
X94988095Y-99902380D02*
X95321428Y-100902380D01*
X95321428Y-100902380D02*
X95654761Y-99902380D01*
X95940476Y-100616666D02*
X96416666Y-100616666D01*
X95845238Y-100902380D02*
X96178571Y-99902380D01*
X96178571Y-99902380D02*
X96511904Y-100902380D01*
X146450000Y-86652380D02*
X146450000Y-85652380D01*
X146450000Y-85652380D02*
X146783333Y-86366666D01*
X146783333Y-86366666D02*
X147116666Y-85652380D01*
X147116666Y-85652380D02*
X147116666Y-86652380D01*
X147592857Y-86652380D02*
X147592857Y-85985714D01*
X147592857Y-85652380D02*
X147545238Y-85700000D01*
X147545238Y-85700000D02*
X147592857Y-85747619D01*
X147592857Y-85747619D02*
X147640476Y-85700000D01*
X147640476Y-85700000D02*
X147592857Y-85652380D01*
X147592857Y-85652380D02*
X147592857Y-85747619D01*
X148497618Y-86604761D02*
X148402380Y-86652380D01*
X148402380Y-86652380D02*
X148211904Y-86652380D01*
X148211904Y-86652380D02*
X148116666Y-86604761D01*
X148116666Y-86604761D02*
X148069047Y-86557142D01*
X148069047Y-86557142D02*
X148021428Y-86461904D01*
X148021428Y-86461904D02*
X148021428Y-86176190D01*
X148021428Y-86176190D02*
X148069047Y-86080952D01*
X148069047Y-86080952D02*
X148116666Y-86033333D01*
X148116666Y-86033333D02*
X148211904Y-85985714D01*
X148211904Y-85985714D02*
X148402380Y-85985714D01*
X148402380Y-85985714D02*
X148497618Y-86033333D01*
X149366666Y-99352380D02*
X149366666Y-100066666D01*
X149366666Y-100066666D02*
X149319047Y-100209523D01*
X149319047Y-100209523D02*
X149223809Y-100304761D01*
X149223809Y-100304761D02*
X149080952Y-100352380D01*
X149080952Y-100352380D02*
X148985714Y-100352380D01*
X150366666Y-100352380D02*
X149795238Y-100352380D01*
X150080952Y-100352380D02*
X150080952Y-99352380D01*
X150080952Y-99352380D02*
X149985714Y-99495238D01*
X149985714Y-99495238D02*
X149890476Y-99590476D01*
X149890476Y-99590476D02*
X149795238Y-99638095D01*
X121607142Y-85427142D02*
X121559523Y-85474761D01*
X121559523Y-85474761D02*
X121416666Y-85522380D01*
X121416666Y-85522380D02*
X121321428Y-85522380D01*
X121321428Y-85522380D02*
X121178571Y-85474761D01*
X121178571Y-85474761D02*
X121083333Y-85379523D01*
X121083333Y-85379523D02*
X121035714Y-85284285D01*
X121035714Y-85284285D02*
X120988095Y-85093809D01*
X120988095Y-85093809D02*
X120988095Y-84950952D01*
X120988095Y-84950952D02*
X121035714Y-84760476D01*
X121035714Y-84760476D02*
X121083333Y-84665238D01*
X121083333Y-84665238D02*
X121178571Y-84570000D01*
X121178571Y-84570000D02*
X121321428Y-84522380D01*
X121321428Y-84522380D02*
X121416666Y-84522380D01*
X121416666Y-84522380D02*
X121559523Y-84570000D01*
X121559523Y-84570000D02*
X121607142Y-84617619D01*
X122559523Y-85522380D02*
X121988095Y-85522380D01*
X122273809Y-85522380D02*
X122273809Y-84522380D01*
X122273809Y-84522380D02*
X122178571Y-84665238D01*
X122178571Y-84665238D02*
X122083333Y-84760476D01*
X122083333Y-84760476D02*
X121988095Y-84808095D01*
X123035714Y-85522380D02*
X123226190Y-85522380D01*
X123226190Y-85522380D02*
X123321428Y-85474761D01*
X123321428Y-85474761D02*
X123369047Y-85427142D01*
X123369047Y-85427142D02*
X123464285Y-85284285D01*
X123464285Y-85284285D02*
X123511904Y-85093809D01*
X123511904Y-85093809D02*
X123511904Y-84712857D01*
X123511904Y-84712857D02*
X123464285Y-84617619D01*
X123464285Y-84617619D02*
X123416666Y-84570000D01*
X123416666Y-84570000D02*
X123321428Y-84522380D01*
X123321428Y-84522380D02*
X123130952Y-84522380D01*
X123130952Y-84522380D02*
X123035714Y-84570000D01*
X123035714Y-84570000D02*
X122988095Y-84617619D01*
X122988095Y-84617619D02*
X122940476Y-84712857D01*
X122940476Y-84712857D02*
X122940476Y-84950952D01*
X122940476Y-84950952D02*
X122988095Y-85046190D01*
X122988095Y-85046190D02*
X123035714Y-85093809D01*
X123035714Y-85093809D02*
X123130952Y-85141428D01*
X123130952Y-85141428D02*
X123321428Y-85141428D01*
X123321428Y-85141428D02*
X123416666Y-85093809D01*
X123416666Y-85093809D02*
X123464285Y-85046190D01*
X123464285Y-85046190D02*
X123511904Y-84950952D01*
X145333333Y-84952380D02*
X144857143Y-84952380D01*
X144857143Y-84952380D02*
X144857143Y-83952380D01*
X146190476Y-84952380D02*
X145619048Y-84952380D01*
X145904762Y-84952380D02*
X145904762Y-83952380D01*
X145904762Y-83952380D02*
X145809524Y-84095238D01*
X145809524Y-84095238D02*
X145714286Y-84190476D01*
X145714286Y-84190476D02*
X145619048Y-84238095D01*
X135775833Y-71357142D02*
X135728214Y-71404761D01*
X135728214Y-71404761D02*
X135585357Y-71452380D01*
X135585357Y-71452380D02*
X135490119Y-71452380D01*
X135490119Y-71452380D02*
X135347262Y-71404761D01*
X135347262Y-71404761D02*
X135252024Y-71309523D01*
X135252024Y-71309523D02*
X135204405Y-71214285D01*
X135204405Y-71214285D02*
X135156786Y-71023809D01*
X135156786Y-71023809D02*
X135156786Y-70880952D01*
X135156786Y-70880952D02*
X135204405Y-70690476D01*
X135204405Y-70690476D02*
X135252024Y-70595238D01*
X135252024Y-70595238D02*
X135347262Y-70500000D01*
X135347262Y-70500000D02*
X135490119Y-70452380D01*
X135490119Y-70452380D02*
X135585357Y-70452380D01*
X135585357Y-70452380D02*
X135728214Y-70500000D01*
X135728214Y-70500000D02*
X135775833Y-70547619D01*
X136632976Y-70452380D02*
X136442500Y-70452380D01*
X136442500Y-70452380D02*
X136347262Y-70500000D01*
X136347262Y-70500000D02*
X136299643Y-70547619D01*
X136299643Y-70547619D02*
X136204405Y-70690476D01*
X136204405Y-70690476D02*
X136156786Y-70880952D01*
X136156786Y-70880952D02*
X136156786Y-71261904D01*
X136156786Y-71261904D02*
X136204405Y-71357142D01*
X136204405Y-71357142D02*
X136252024Y-71404761D01*
X136252024Y-71404761D02*
X136347262Y-71452380D01*
X136347262Y-71452380D02*
X136537738Y-71452380D01*
X136537738Y-71452380D02*
X136632976Y-71404761D01*
X136632976Y-71404761D02*
X136680595Y-71357142D01*
X136680595Y-71357142D02*
X136728214Y-71261904D01*
X136728214Y-71261904D02*
X136728214Y-71023809D01*
X136728214Y-71023809D02*
X136680595Y-70928571D01*
X136680595Y-70928571D02*
X136632976Y-70880952D01*
X136632976Y-70880952D02*
X136537738Y-70833333D01*
X136537738Y-70833333D02*
X136347262Y-70833333D01*
X136347262Y-70833333D02*
X136252024Y-70880952D01*
X136252024Y-70880952D02*
X136204405Y-70928571D01*
X136204405Y-70928571D02*
X136156786Y-71023809D01*
X89633333Y-76952380D02*
X89300000Y-76476190D01*
X89061905Y-76952380D02*
X89061905Y-75952380D01*
X89061905Y-75952380D02*
X89442857Y-75952380D01*
X89442857Y-75952380D02*
X89538095Y-76000000D01*
X89538095Y-76000000D02*
X89585714Y-76047619D01*
X89585714Y-76047619D02*
X89633333Y-76142857D01*
X89633333Y-76142857D02*
X89633333Y-76285714D01*
X89633333Y-76285714D02*
X89585714Y-76380952D01*
X89585714Y-76380952D02*
X89538095Y-76428571D01*
X89538095Y-76428571D02*
X89442857Y-76476190D01*
X89442857Y-76476190D02*
X89061905Y-76476190D01*
X90490476Y-76285714D02*
X90490476Y-76952380D01*
X90252381Y-75904761D02*
X90014286Y-76619047D01*
X90014286Y-76619047D02*
X90633333Y-76619047D01*
X86961905Y-86102380D02*
X86961905Y-85102380D01*
X86961905Y-85102380D02*
X87200000Y-85102380D01*
X87200000Y-85102380D02*
X87342857Y-85150000D01*
X87342857Y-85150000D02*
X87438095Y-85245238D01*
X87438095Y-85245238D02*
X87485714Y-85340476D01*
X87485714Y-85340476D02*
X87533333Y-85530952D01*
X87533333Y-85530952D02*
X87533333Y-85673809D01*
X87533333Y-85673809D02*
X87485714Y-85864285D01*
X87485714Y-85864285D02*
X87438095Y-85959523D01*
X87438095Y-85959523D02*
X87342857Y-86054761D01*
X87342857Y-86054761D02*
X87200000Y-86102380D01*
X87200000Y-86102380D02*
X86961905Y-86102380D01*
X88485714Y-86102380D02*
X87914286Y-86102380D01*
X88200000Y-86102380D02*
X88200000Y-85102380D01*
X88200000Y-85102380D02*
X88104762Y-85245238D01*
X88104762Y-85245238D02*
X88009524Y-85340476D01*
X88009524Y-85340476D02*
X87914286Y-85388095D01*
X121983333Y-82557142D02*
X121935714Y-82604761D01*
X121935714Y-82604761D02*
X121792857Y-82652380D01*
X121792857Y-82652380D02*
X121697619Y-82652380D01*
X121697619Y-82652380D02*
X121554762Y-82604761D01*
X121554762Y-82604761D02*
X121459524Y-82509523D01*
X121459524Y-82509523D02*
X121411905Y-82414285D01*
X121411905Y-82414285D02*
X121364286Y-82223809D01*
X121364286Y-82223809D02*
X121364286Y-82080952D01*
X121364286Y-82080952D02*
X121411905Y-81890476D01*
X121411905Y-81890476D02*
X121459524Y-81795238D01*
X121459524Y-81795238D02*
X121554762Y-81700000D01*
X121554762Y-81700000D02*
X121697619Y-81652380D01*
X121697619Y-81652380D02*
X121792857Y-81652380D01*
X121792857Y-81652380D02*
X121935714Y-81700000D01*
X121935714Y-81700000D02*
X121983333Y-81747619D01*
X122364286Y-81747619D02*
X122411905Y-81700000D01*
X122411905Y-81700000D02*
X122507143Y-81652380D01*
X122507143Y-81652380D02*
X122745238Y-81652380D01*
X122745238Y-81652380D02*
X122840476Y-81700000D01*
X122840476Y-81700000D02*
X122888095Y-81747619D01*
X122888095Y-81747619D02*
X122935714Y-81842857D01*
X122935714Y-81842857D02*
X122935714Y-81938095D01*
X122935714Y-81938095D02*
X122888095Y-82080952D01*
X122888095Y-82080952D02*
X122316667Y-82652380D01*
X122316667Y-82652380D02*
X122935714Y-82652380D01*
X117483333Y-70157142D02*
X117435714Y-70204761D01*
X117435714Y-70204761D02*
X117292857Y-70252380D01*
X117292857Y-70252380D02*
X117197619Y-70252380D01*
X117197619Y-70252380D02*
X117054762Y-70204761D01*
X117054762Y-70204761D02*
X116959524Y-70109523D01*
X116959524Y-70109523D02*
X116911905Y-70014285D01*
X116911905Y-70014285D02*
X116864286Y-69823809D01*
X116864286Y-69823809D02*
X116864286Y-69680952D01*
X116864286Y-69680952D02*
X116911905Y-69490476D01*
X116911905Y-69490476D02*
X116959524Y-69395238D01*
X116959524Y-69395238D02*
X117054762Y-69300000D01*
X117054762Y-69300000D02*
X117197619Y-69252380D01*
X117197619Y-69252380D02*
X117292857Y-69252380D01*
X117292857Y-69252380D02*
X117435714Y-69300000D01*
X117435714Y-69300000D02*
X117483333Y-69347619D01*
X118340476Y-69585714D02*
X118340476Y-70252380D01*
X118102381Y-69204761D02*
X117864286Y-69919047D01*
X117864286Y-69919047D02*
X118483333Y-69919047D01*
X122733333Y-70307142D02*
X122685714Y-70354761D01*
X122685714Y-70354761D02*
X122542857Y-70402380D01*
X122542857Y-70402380D02*
X122447619Y-70402380D01*
X122447619Y-70402380D02*
X122304762Y-70354761D01*
X122304762Y-70354761D02*
X122209524Y-70259523D01*
X122209524Y-70259523D02*
X122161905Y-70164285D01*
X122161905Y-70164285D02*
X122114286Y-69973809D01*
X122114286Y-69973809D02*
X122114286Y-69830952D01*
X122114286Y-69830952D02*
X122161905Y-69640476D01*
X122161905Y-69640476D02*
X122209524Y-69545238D01*
X122209524Y-69545238D02*
X122304762Y-69450000D01*
X122304762Y-69450000D02*
X122447619Y-69402380D01*
X122447619Y-69402380D02*
X122542857Y-69402380D01*
X122542857Y-69402380D02*
X122685714Y-69450000D01*
X122685714Y-69450000D02*
X122733333Y-69497619D01*
X123685714Y-70402380D02*
X123114286Y-70402380D01*
X123400000Y-70402380D02*
X123400000Y-69402380D01*
X123400000Y-69402380D02*
X123304762Y-69545238D01*
X123304762Y-69545238D02*
X123209524Y-69640476D01*
X123209524Y-69640476D02*
X123114286Y-69688095D01*
X134807142Y-88957142D02*
X134759523Y-89004761D01*
X134759523Y-89004761D02*
X134616666Y-89052380D01*
X134616666Y-89052380D02*
X134521428Y-89052380D01*
X134521428Y-89052380D02*
X134378571Y-89004761D01*
X134378571Y-89004761D02*
X134283333Y-88909523D01*
X134283333Y-88909523D02*
X134235714Y-88814285D01*
X134235714Y-88814285D02*
X134188095Y-88623809D01*
X134188095Y-88623809D02*
X134188095Y-88480952D01*
X134188095Y-88480952D02*
X134235714Y-88290476D01*
X134235714Y-88290476D02*
X134283333Y-88195238D01*
X134283333Y-88195238D02*
X134378571Y-88100000D01*
X134378571Y-88100000D02*
X134521428Y-88052380D01*
X134521428Y-88052380D02*
X134616666Y-88052380D01*
X134616666Y-88052380D02*
X134759523Y-88100000D01*
X134759523Y-88100000D02*
X134807142Y-88147619D01*
X135759523Y-89052380D02*
X135188095Y-89052380D01*
X135473809Y-89052380D02*
X135473809Y-88052380D01*
X135473809Y-88052380D02*
X135378571Y-88195238D01*
X135378571Y-88195238D02*
X135283333Y-88290476D01*
X135283333Y-88290476D02*
X135188095Y-88338095D01*
X136092857Y-88052380D02*
X136711904Y-88052380D01*
X136711904Y-88052380D02*
X136378571Y-88433333D01*
X136378571Y-88433333D02*
X136521428Y-88433333D01*
X136521428Y-88433333D02*
X136616666Y-88480952D01*
X136616666Y-88480952D02*
X136664285Y-88528571D01*
X136664285Y-88528571D02*
X136711904Y-88623809D01*
X136711904Y-88623809D02*
X136711904Y-88861904D01*
X136711904Y-88861904D02*
X136664285Y-88957142D01*
X136664285Y-88957142D02*
X136616666Y-89004761D01*
X136616666Y-89004761D02*
X136521428Y-89052380D01*
X136521428Y-89052380D02*
X136235714Y-89052380D01*
X136235714Y-89052380D02*
X136140476Y-89004761D01*
X136140476Y-89004761D02*
X136092857Y-88957142D01*
X87383333Y-75452380D02*
X87050000Y-74976190D01*
X86811905Y-75452380D02*
X86811905Y-74452380D01*
X86811905Y-74452380D02*
X87192857Y-74452380D01*
X87192857Y-74452380D02*
X87288095Y-74500000D01*
X87288095Y-74500000D02*
X87335714Y-74547619D01*
X87335714Y-74547619D02*
X87383333Y-74642857D01*
X87383333Y-74642857D02*
X87383333Y-74785714D01*
X87383333Y-74785714D02*
X87335714Y-74880952D01*
X87335714Y-74880952D02*
X87288095Y-74928571D01*
X87288095Y-74928571D02*
X87192857Y-74976190D01*
X87192857Y-74976190D02*
X86811905Y-74976190D01*
X87764286Y-74547619D02*
X87811905Y-74500000D01*
X87811905Y-74500000D02*
X87907143Y-74452380D01*
X87907143Y-74452380D02*
X88145238Y-74452380D01*
X88145238Y-74452380D02*
X88240476Y-74500000D01*
X88240476Y-74500000D02*
X88288095Y-74547619D01*
X88288095Y-74547619D02*
X88335714Y-74642857D01*
X88335714Y-74642857D02*
X88335714Y-74738095D01*
X88335714Y-74738095D02*
X88288095Y-74880952D01*
X88288095Y-74880952D02*
X87716667Y-75452380D01*
X87716667Y-75452380D02*
X88335714Y-75452380D01*
X98638095Y-75902380D02*
X98638095Y-76711904D01*
X98638095Y-76711904D02*
X98685714Y-76807142D01*
X98685714Y-76807142D02*
X98733333Y-76854761D01*
X98733333Y-76854761D02*
X98828571Y-76902380D01*
X98828571Y-76902380D02*
X99019047Y-76902380D01*
X99019047Y-76902380D02*
X99114285Y-76854761D01*
X99114285Y-76854761D02*
X99161904Y-76807142D01*
X99161904Y-76807142D02*
X99209523Y-76711904D01*
X99209523Y-76711904D02*
X99209523Y-75902380D01*
X99638095Y-75997619D02*
X99685714Y-75950000D01*
X99685714Y-75950000D02*
X99780952Y-75902380D01*
X99780952Y-75902380D02*
X100019047Y-75902380D01*
X100019047Y-75902380D02*
X100114285Y-75950000D01*
X100114285Y-75950000D02*
X100161904Y-75997619D01*
X100161904Y-75997619D02*
X100209523Y-76092857D01*
X100209523Y-76092857D02*
X100209523Y-76188095D01*
X100209523Y-76188095D02*
X100161904Y-76330952D01*
X100161904Y-76330952D02*
X99590476Y-76902380D01*
X99590476Y-76902380D02*
X100209523Y-76902380D01*
X148557142Y-79002380D02*
X148223809Y-78526190D01*
X147985714Y-79002380D02*
X147985714Y-78002380D01*
X147985714Y-78002380D02*
X148366666Y-78002380D01*
X148366666Y-78002380D02*
X148461904Y-78050000D01*
X148461904Y-78050000D02*
X148509523Y-78097619D01*
X148509523Y-78097619D02*
X148557142Y-78192857D01*
X148557142Y-78192857D02*
X148557142Y-78335714D01*
X148557142Y-78335714D02*
X148509523Y-78430952D01*
X148509523Y-78430952D02*
X148461904Y-78478571D01*
X148461904Y-78478571D02*
X148366666Y-78526190D01*
X148366666Y-78526190D02*
X147985714Y-78526190D01*
X149509523Y-79002380D02*
X148938095Y-79002380D01*
X149223809Y-79002380D02*
X149223809Y-78002380D01*
X149223809Y-78002380D02*
X149128571Y-78145238D01*
X149128571Y-78145238D02*
X149033333Y-78240476D01*
X149033333Y-78240476D02*
X148938095Y-78288095D01*
X149985714Y-79002380D02*
X150176190Y-79002380D01*
X150176190Y-79002380D02*
X150271428Y-78954761D01*
X150271428Y-78954761D02*
X150319047Y-78907142D01*
X150319047Y-78907142D02*
X150414285Y-78764285D01*
X150414285Y-78764285D02*
X150461904Y-78573809D01*
X150461904Y-78573809D02*
X150461904Y-78192857D01*
X150461904Y-78192857D02*
X150414285Y-78097619D01*
X150414285Y-78097619D02*
X150366666Y-78050000D01*
X150366666Y-78050000D02*
X150271428Y-78002380D01*
X150271428Y-78002380D02*
X150080952Y-78002380D01*
X150080952Y-78002380D02*
X149985714Y-78050000D01*
X149985714Y-78050000D02*
X149938095Y-78097619D01*
X149938095Y-78097619D02*
X149890476Y-78192857D01*
X149890476Y-78192857D02*
X149890476Y-78430952D01*
X149890476Y-78430952D02*
X149938095Y-78526190D01*
X149938095Y-78526190D02*
X149985714Y-78573809D01*
X149985714Y-78573809D02*
X150080952Y-78621428D01*
X150080952Y-78621428D02*
X150271428Y-78621428D01*
X150271428Y-78621428D02*
X150366666Y-78573809D01*
X150366666Y-78573809D02*
X150414285Y-78526190D01*
X150414285Y-78526190D02*
X150461904Y-78430952D01*
X87583333Y-88257142D02*
X87535714Y-88304761D01*
X87535714Y-88304761D02*
X87392857Y-88352380D01*
X87392857Y-88352380D02*
X87297619Y-88352380D01*
X87297619Y-88352380D02*
X87154762Y-88304761D01*
X87154762Y-88304761D02*
X87059524Y-88209523D01*
X87059524Y-88209523D02*
X87011905Y-88114285D01*
X87011905Y-88114285D02*
X86964286Y-87923809D01*
X86964286Y-87923809D02*
X86964286Y-87780952D01*
X86964286Y-87780952D02*
X87011905Y-87590476D01*
X87011905Y-87590476D02*
X87059524Y-87495238D01*
X87059524Y-87495238D02*
X87154762Y-87400000D01*
X87154762Y-87400000D02*
X87297619Y-87352380D01*
X87297619Y-87352380D02*
X87392857Y-87352380D01*
X87392857Y-87352380D02*
X87535714Y-87400000D01*
X87535714Y-87400000D02*
X87583333Y-87447619D01*
X88059524Y-88352380D02*
X88250000Y-88352380D01*
X88250000Y-88352380D02*
X88345238Y-88304761D01*
X88345238Y-88304761D02*
X88392857Y-88257142D01*
X88392857Y-88257142D02*
X88488095Y-88114285D01*
X88488095Y-88114285D02*
X88535714Y-87923809D01*
X88535714Y-87923809D02*
X88535714Y-87542857D01*
X88535714Y-87542857D02*
X88488095Y-87447619D01*
X88488095Y-87447619D02*
X88440476Y-87400000D01*
X88440476Y-87400000D02*
X88345238Y-87352380D01*
X88345238Y-87352380D02*
X88154762Y-87352380D01*
X88154762Y-87352380D02*
X88059524Y-87400000D01*
X88059524Y-87400000D02*
X88011905Y-87447619D01*
X88011905Y-87447619D02*
X87964286Y-87542857D01*
X87964286Y-87542857D02*
X87964286Y-87780952D01*
X87964286Y-87780952D02*
X88011905Y-87876190D01*
X88011905Y-87876190D02*
X88059524Y-87923809D01*
X88059524Y-87923809D02*
X88154762Y-87971428D01*
X88154762Y-87971428D02*
X88345238Y-87971428D01*
X88345238Y-87971428D02*
X88440476Y-87923809D01*
X88440476Y-87923809D02*
X88488095Y-87876190D01*
X88488095Y-87876190D02*
X88535714Y-87780952D01*
X117333333Y-82457142D02*
X117285714Y-82504761D01*
X117285714Y-82504761D02*
X117142857Y-82552380D01*
X117142857Y-82552380D02*
X117047619Y-82552380D01*
X117047619Y-82552380D02*
X116904762Y-82504761D01*
X116904762Y-82504761D02*
X116809524Y-82409523D01*
X116809524Y-82409523D02*
X116761905Y-82314285D01*
X116761905Y-82314285D02*
X116714286Y-82123809D01*
X116714286Y-82123809D02*
X116714286Y-81980952D01*
X116714286Y-81980952D02*
X116761905Y-81790476D01*
X116761905Y-81790476D02*
X116809524Y-81695238D01*
X116809524Y-81695238D02*
X116904762Y-81600000D01*
X116904762Y-81600000D02*
X117047619Y-81552380D01*
X117047619Y-81552380D02*
X117142857Y-81552380D01*
X117142857Y-81552380D02*
X117285714Y-81600000D01*
X117285714Y-81600000D02*
X117333333Y-81647619D01*
X118238095Y-81552380D02*
X117761905Y-81552380D01*
X117761905Y-81552380D02*
X117714286Y-82028571D01*
X117714286Y-82028571D02*
X117761905Y-81980952D01*
X117761905Y-81980952D02*
X117857143Y-81933333D01*
X117857143Y-81933333D02*
X118095238Y-81933333D01*
X118095238Y-81933333D02*
X118190476Y-81980952D01*
X118190476Y-81980952D02*
X118238095Y-82028571D01*
X118238095Y-82028571D02*
X118285714Y-82123809D01*
X118285714Y-82123809D02*
X118285714Y-82361904D01*
X118285714Y-82361904D02*
X118238095Y-82457142D01*
X118238095Y-82457142D02*
X118190476Y-82504761D01*
X118190476Y-82504761D02*
X118095238Y-82552380D01*
X118095238Y-82552380D02*
X117857143Y-82552380D01*
X117857143Y-82552380D02*
X117761905Y-82504761D01*
X117761905Y-82504761D02*
X117714286Y-82457142D01*
X146857142Y-76957142D02*
X146809523Y-77004761D01*
X146809523Y-77004761D02*
X146666666Y-77052380D01*
X146666666Y-77052380D02*
X146571428Y-77052380D01*
X146571428Y-77052380D02*
X146428571Y-77004761D01*
X146428571Y-77004761D02*
X146333333Y-76909523D01*
X146333333Y-76909523D02*
X146285714Y-76814285D01*
X146285714Y-76814285D02*
X146238095Y-76623809D01*
X146238095Y-76623809D02*
X146238095Y-76480952D01*
X146238095Y-76480952D02*
X146285714Y-76290476D01*
X146285714Y-76290476D02*
X146333333Y-76195238D01*
X146333333Y-76195238D02*
X146428571Y-76100000D01*
X146428571Y-76100000D02*
X146571428Y-76052380D01*
X146571428Y-76052380D02*
X146666666Y-76052380D01*
X146666666Y-76052380D02*
X146809523Y-76100000D01*
X146809523Y-76100000D02*
X146857142Y-76147619D01*
X147809523Y-77052380D02*
X147238095Y-77052380D01*
X147523809Y-77052380D02*
X147523809Y-76052380D01*
X147523809Y-76052380D02*
X147428571Y-76195238D01*
X147428571Y-76195238D02*
X147333333Y-76290476D01*
X147333333Y-76290476D02*
X147238095Y-76338095D01*
X148666666Y-76385714D02*
X148666666Y-77052380D01*
X148428571Y-76004761D02*
X148190476Y-76719047D01*
X148190476Y-76719047D02*
X148809523Y-76719047D01*
X148507142Y-80757142D02*
X148459523Y-80804761D01*
X148459523Y-80804761D02*
X148316666Y-80852380D01*
X148316666Y-80852380D02*
X148221428Y-80852380D01*
X148221428Y-80852380D02*
X148078571Y-80804761D01*
X148078571Y-80804761D02*
X147983333Y-80709523D01*
X147983333Y-80709523D02*
X147935714Y-80614285D01*
X147935714Y-80614285D02*
X147888095Y-80423809D01*
X147888095Y-80423809D02*
X147888095Y-80280952D01*
X147888095Y-80280952D02*
X147935714Y-80090476D01*
X147935714Y-80090476D02*
X147983333Y-79995238D01*
X147983333Y-79995238D02*
X148078571Y-79900000D01*
X148078571Y-79900000D02*
X148221428Y-79852380D01*
X148221428Y-79852380D02*
X148316666Y-79852380D01*
X148316666Y-79852380D02*
X148459523Y-79900000D01*
X148459523Y-79900000D02*
X148507142Y-79947619D01*
X149459523Y-80852380D02*
X148888095Y-80852380D01*
X149173809Y-80852380D02*
X149173809Y-79852380D01*
X149173809Y-79852380D02*
X149078571Y-79995238D01*
X149078571Y-79995238D02*
X148983333Y-80090476D01*
X148983333Y-80090476D02*
X148888095Y-80138095D01*
X150316666Y-79852380D02*
X150126190Y-79852380D01*
X150126190Y-79852380D02*
X150030952Y-79900000D01*
X150030952Y-79900000D02*
X149983333Y-79947619D01*
X149983333Y-79947619D02*
X149888095Y-80090476D01*
X149888095Y-80090476D02*
X149840476Y-80280952D01*
X149840476Y-80280952D02*
X149840476Y-80661904D01*
X149840476Y-80661904D02*
X149888095Y-80757142D01*
X149888095Y-80757142D02*
X149935714Y-80804761D01*
X149935714Y-80804761D02*
X150030952Y-80852380D01*
X150030952Y-80852380D02*
X150221428Y-80852380D01*
X150221428Y-80852380D02*
X150316666Y-80804761D01*
X150316666Y-80804761D02*
X150364285Y-80757142D01*
X150364285Y-80757142D02*
X150411904Y-80661904D01*
X150411904Y-80661904D02*
X150411904Y-80423809D01*
X150411904Y-80423809D02*
X150364285Y-80328571D01*
X150364285Y-80328571D02*
X150316666Y-80280952D01*
X150316666Y-80280952D02*
X150221428Y-80233333D01*
X150221428Y-80233333D02*
X150030952Y-80233333D01*
X150030952Y-80233333D02*
X149935714Y-80280952D01*
X149935714Y-80280952D02*
X149888095Y-80328571D01*
X149888095Y-80328571D02*
X149840476Y-80423809D01*
X89557142Y-88352380D02*
X89223809Y-87876190D01*
X88985714Y-88352380D02*
X88985714Y-87352380D01*
X88985714Y-87352380D02*
X89366666Y-87352380D01*
X89366666Y-87352380D02*
X89461904Y-87400000D01*
X89461904Y-87400000D02*
X89509523Y-87447619D01*
X89509523Y-87447619D02*
X89557142Y-87542857D01*
X89557142Y-87542857D02*
X89557142Y-87685714D01*
X89557142Y-87685714D02*
X89509523Y-87780952D01*
X89509523Y-87780952D02*
X89461904Y-87828571D01*
X89461904Y-87828571D02*
X89366666Y-87876190D01*
X89366666Y-87876190D02*
X88985714Y-87876190D01*
X90509523Y-88352380D02*
X89938095Y-88352380D01*
X90223809Y-88352380D02*
X90223809Y-87352380D01*
X90223809Y-87352380D02*
X90128571Y-87495238D01*
X90128571Y-87495238D02*
X90033333Y-87590476D01*
X90033333Y-87590476D02*
X89938095Y-87638095D01*
X91461904Y-88352380D02*
X90890476Y-88352380D01*
X91176190Y-88352380D02*
X91176190Y-87352380D01*
X91176190Y-87352380D02*
X91080952Y-87495238D01*
X91080952Y-87495238D02*
X90985714Y-87590476D01*
X90985714Y-87590476D02*
X90890476Y-87638095D01*
X89011905Y-86102380D02*
X89011905Y-85102380D01*
X89011905Y-85102380D02*
X89250000Y-85102380D01*
X89250000Y-85102380D02*
X89392857Y-85150000D01*
X89392857Y-85150000D02*
X89488095Y-85245238D01*
X89488095Y-85245238D02*
X89535714Y-85340476D01*
X89535714Y-85340476D02*
X89583333Y-85530952D01*
X89583333Y-85530952D02*
X89583333Y-85673809D01*
X89583333Y-85673809D02*
X89535714Y-85864285D01*
X89535714Y-85864285D02*
X89488095Y-85959523D01*
X89488095Y-85959523D02*
X89392857Y-86054761D01*
X89392857Y-86054761D02*
X89250000Y-86102380D01*
X89250000Y-86102380D02*
X89011905Y-86102380D01*
X89964286Y-85197619D02*
X90011905Y-85150000D01*
X90011905Y-85150000D02*
X90107143Y-85102380D01*
X90107143Y-85102380D02*
X90345238Y-85102380D01*
X90345238Y-85102380D02*
X90440476Y-85150000D01*
X90440476Y-85150000D02*
X90488095Y-85197619D01*
X90488095Y-85197619D02*
X90535714Y-85292857D01*
X90535714Y-85292857D02*
X90535714Y-85388095D01*
X90535714Y-85388095D02*
X90488095Y-85530952D01*
X90488095Y-85530952D02*
X89916667Y-86102380D01*
X89916667Y-86102380D02*
X90535714Y-86102380D01*
X137657142Y-86722380D02*
X137323809Y-86246190D01*
X137085714Y-86722380D02*
X137085714Y-85722380D01*
X137085714Y-85722380D02*
X137466666Y-85722380D01*
X137466666Y-85722380D02*
X137561904Y-85770000D01*
X137561904Y-85770000D02*
X137609523Y-85817619D01*
X137609523Y-85817619D02*
X137657142Y-85912857D01*
X137657142Y-85912857D02*
X137657142Y-86055714D01*
X137657142Y-86055714D02*
X137609523Y-86150952D01*
X137609523Y-86150952D02*
X137561904Y-86198571D01*
X137561904Y-86198571D02*
X137466666Y-86246190D01*
X137466666Y-86246190D02*
X137085714Y-86246190D01*
X138609523Y-86722380D02*
X138038095Y-86722380D01*
X138323809Y-86722380D02*
X138323809Y-85722380D01*
X138323809Y-85722380D02*
X138228571Y-85865238D01*
X138228571Y-85865238D02*
X138133333Y-85960476D01*
X138133333Y-85960476D02*
X138038095Y-86008095D01*
X139466666Y-85722380D02*
X139276190Y-85722380D01*
X139276190Y-85722380D02*
X139180952Y-85770000D01*
X139180952Y-85770000D02*
X139133333Y-85817619D01*
X139133333Y-85817619D02*
X139038095Y-85960476D01*
X139038095Y-85960476D02*
X138990476Y-86150952D01*
X138990476Y-86150952D02*
X138990476Y-86531904D01*
X138990476Y-86531904D02*
X139038095Y-86627142D01*
X139038095Y-86627142D02*
X139085714Y-86674761D01*
X139085714Y-86674761D02*
X139180952Y-86722380D01*
X139180952Y-86722380D02*
X139371428Y-86722380D01*
X139371428Y-86722380D02*
X139466666Y-86674761D01*
X139466666Y-86674761D02*
X139514285Y-86627142D01*
X139514285Y-86627142D02*
X139561904Y-86531904D01*
X139561904Y-86531904D02*
X139561904Y-86293809D01*
X139561904Y-86293809D02*
X139514285Y-86198571D01*
X139514285Y-86198571D02*
X139466666Y-86150952D01*
X139466666Y-86150952D02*
X139371428Y-86103333D01*
X139371428Y-86103333D02*
X139180952Y-86103333D01*
X139180952Y-86103333D02*
X139085714Y-86150952D01*
X139085714Y-86150952D02*
X139038095Y-86198571D01*
X139038095Y-86198571D02*
X138990476Y-86293809D01*
X148507142Y-82807142D02*
X148459523Y-82854761D01*
X148459523Y-82854761D02*
X148316666Y-82902380D01*
X148316666Y-82902380D02*
X148221428Y-82902380D01*
X148221428Y-82902380D02*
X148078571Y-82854761D01*
X148078571Y-82854761D02*
X147983333Y-82759523D01*
X147983333Y-82759523D02*
X147935714Y-82664285D01*
X147935714Y-82664285D02*
X147888095Y-82473809D01*
X147888095Y-82473809D02*
X147888095Y-82330952D01*
X147888095Y-82330952D02*
X147935714Y-82140476D01*
X147935714Y-82140476D02*
X147983333Y-82045238D01*
X147983333Y-82045238D02*
X148078571Y-81950000D01*
X148078571Y-81950000D02*
X148221428Y-81902380D01*
X148221428Y-81902380D02*
X148316666Y-81902380D01*
X148316666Y-81902380D02*
X148459523Y-81950000D01*
X148459523Y-81950000D02*
X148507142Y-81997619D01*
X149459523Y-82902380D02*
X148888095Y-82902380D01*
X149173809Y-82902380D02*
X149173809Y-81902380D01*
X149173809Y-81902380D02*
X149078571Y-82045238D01*
X149078571Y-82045238D02*
X148983333Y-82140476D01*
X148983333Y-82140476D02*
X148888095Y-82188095D01*
X150364285Y-81902380D02*
X149888095Y-81902380D01*
X149888095Y-81902380D02*
X149840476Y-82378571D01*
X149840476Y-82378571D02*
X149888095Y-82330952D01*
X149888095Y-82330952D02*
X149983333Y-82283333D01*
X149983333Y-82283333D02*
X150221428Y-82283333D01*
X150221428Y-82283333D02*
X150316666Y-82330952D01*
X150316666Y-82330952D02*
X150364285Y-82378571D01*
X150364285Y-82378571D02*
X150411904Y-82473809D01*
X150411904Y-82473809D02*
X150411904Y-82711904D01*
X150411904Y-82711904D02*
X150364285Y-82807142D01*
X150364285Y-82807142D02*
X150316666Y-82854761D01*
X150316666Y-82854761D02*
X150221428Y-82902380D01*
X150221428Y-82902380D02*
X149983333Y-82902380D01*
X149983333Y-82902380D02*
X149888095Y-82854761D01*
X149888095Y-82854761D02*
X149840476Y-82807142D01*
X88683333Y-92957142D02*
X88635714Y-93004761D01*
X88635714Y-93004761D02*
X88492857Y-93052380D01*
X88492857Y-93052380D02*
X88397619Y-93052380D01*
X88397619Y-93052380D02*
X88254762Y-93004761D01*
X88254762Y-93004761D02*
X88159524Y-92909523D01*
X88159524Y-92909523D02*
X88111905Y-92814285D01*
X88111905Y-92814285D02*
X88064286Y-92623809D01*
X88064286Y-92623809D02*
X88064286Y-92480952D01*
X88064286Y-92480952D02*
X88111905Y-92290476D01*
X88111905Y-92290476D02*
X88159524Y-92195238D01*
X88159524Y-92195238D02*
X88254762Y-92100000D01*
X88254762Y-92100000D02*
X88397619Y-92052380D01*
X88397619Y-92052380D02*
X88492857Y-92052380D01*
X88492857Y-92052380D02*
X88635714Y-92100000D01*
X88635714Y-92100000D02*
X88683333Y-92147619D01*
X89254762Y-92480952D02*
X89159524Y-92433333D01*
X89159524Y-92433333D02*
X89111905Y-92385714D01*
X89111905Y-92385714D02*
X89064286Y-92290476D01*
X89064286Y-92290476D02*
X89064286Y-92242857D01*
X89064286Y-92242857D02*
X89111905Y-92147619D01*
X89111905Y-92147619D02*
X89159524Y-92100000D01*
X89159524Y-92100000D02*
X89254762Y-92052380D01*
X89254762Y-92052380D02*
X89445238Y-92052380D01*
X89445238Y-92052380D02*
X89540476Y-92100000D01*
X89540476Y-92100000D02*
X89588095Y-92147619D01*
X89588095Y-92147619D02*
X89635714Y-92242857D01*
X89635714Y-92242857D02*
X89635714Y-92290476D01*
X89635714Y-92290476D02*
X89588095Y-92385714D01*
X89588095Y-92385714D02*
X89540476Y-92433333D01*
X89540476Y-92433333D02*
X89445238Y-92480952D01*
X89445238Y-92480952D02*
X89254762Y-92480952D01*
X89254762Y-92480952D02*
X89159524Y-92528571D01*
X89159524Y-92528571D02*
X89111905Y-92576190D01*
X89111905Y-92576190D02*
X89064286Y-92671428D01*
X89064286Y-92671428D02*
X89064286Y-92861904D01*
X89064286Y-92861904D02*
X89111905Y-92957142D01*
X89111905Y-92957142D02*
X89159524Y-93004761D01*
X89159524Y-93004761D02*
X89254762Y-93052380D01*
X89254762Y-93052380D02*
X89445238Y-93052380D01*
X89445238Y-93052380D02*
X89540476Y-93004761D01*
X89540476Y-93004761D02*
X89588095Y-92957142D01*
X89588095Y-92957142D02*
X89635714Y-92861904D01*
X89635714Y-92861904D02*
X89635714Y-92671428D01*
X89635714Y-92671428D02*
X89588095Y-92576190D01*
X89588095Y-92576190D02*
X89540476Y-92528571D01*
X89540476Y-92528571D02*
X89445238Y-92480952D01*
X89038095Y-94404761D02*
X88942857Y-94452380D01*
X88942857Y-94452380D02*
X88752381Y-94452380D01*
X88752381Y-94452380D02*
X88657143Y-94404761D01*
X88657143Y-94404761D02*
X88609524Y-94357142D01*
X88609524Y-94357142D02*
X88561905Y-94261904D01*
X88561905Y-94261904D02*
X88561905Y-93976190D01*
X88561905Y-93976190D02*
X88609524Y-93880952D01*
X88609524Y-93880952D02*
X88657143Y-93833333D01*
X88657143Y-93833333D02*
X88752381Y-93785714D01*
X88752381Y-93785714D02*
X88942857Y-93785714D01*
X88942857Y-93785714D02*
X89038095Y-93833333D01*
X87836666Y-98352380D02*
X87836666Y-99066666D01*
X87836666Y-99066666D02*
X87789047Y-99209523D01*
X87789047Y-99209523D02*
X87693809Y-99304761D01*
X87693809Y-99304761D02*
X87550952Y-99352380D01*
X87550952Y-99352380D02*
X87455714Y-99352380D01*
X88265238Y-98447619D02*
X88312857Y-98400000D01*
X88312857Y-98400000D02*
X88408095Y-98352380D01*
X88408095Y-98352380D02*
X88646190Y-98352380D01*
X88646190Y-98352380D02*
X88741428Y-98400000D01*
X88741428Y-98400000D02*
X88789047Y-98447619D01*
X88789047Y-98447619D02*
X88836666Y-98542857D01*
X88836666Y-98542857D02*
X88836666Y-98638095D01*
X88836666Y-98638095D02*
X88789047Y-98780952D01*
X88789047Y-98780952D02*
X88217619Y-99352380D01*
X88217619Y-99352380D02*
X88836666Y-99352380D01*
X138233333Y-84232380D02*
X137900000Y-83756190D01*
X137661905Y-84232380D02*
X137661905Y-83232380D01*
X137661905Y-83232380D02*
X138042857Y-83232380D01*
X138042857Y-83232380D02*
X138138095Y-83280000D01*
X138138095Y-83280000D02*
X138185714Y-83327619D01*
X138185714Y-83327619D02*
X138233333Y-83422857D01*
X138233333Y-83422857D02*
X138233333Y-83565714D01*
X138233333Y-83565714D02*
X138185714Y-83660952D01*
X138185714Y-83660952D02*
X138138095Y-83708571D01*
X138138095Y-83708571D02*
X138042857Y-83756190D01*
X138042857Y-83756190D02*
X137661905Y-83756190D01*
X138804762Y-83660952D02*
X138709524Y-83613333D01*
X138709524Y-83613333D02*
X138661905Y-83565714D01*
X138661905Y-83565714D02*
X138614286Y-83470476D01*
X138614286Y-83470476D02*
X138614286Y-83422857D01*
X138614286Y-83422857D02*
X138661905Y-83327619D01*
X138661905Y-83327619D02*
X138709524Y-83280000D01*
X138709524Y-83280000D02*
X138804762Y-83232380D01*
X138804762Y-83232380D02*
X138995238Y-83232380D01*
X138995238Y-83232380D02*
X139090476Y-83280000D01*
X139090476Y-83280000D02*
X139138095Y-83327619D01*
X139138095Y-83327619D02*
X139185714Y-83422857D01*
X139185714Y-83422857D02*
X139185714Y-83470476D01*
X139185714Y-83470476D02*
X139138095Y-83565714D01*
X139138095Y-83565714D02*
X139090476Y-83613333D01*
X139090476Y-83613333D02*
X138995238Y-83660952D01*
X138995238Y-83660952D02*
X138804762Y-83660952D01*
X138804762Y-83660952D02*
X138709524Y-83708571D01*
X138709524Y-83708571D02*
X138661905Y-83756190D01*
X138661905Y-83756190D02*
X138614286Y-83851428D01*
X138614286Y-83851428D02*
X138614286Y-84041904D01*
X138614286Y-84041904D02*
X138661905Y-84137142D01*
X138661905Y-84137142D02*
X138709524Y-84184761D01*
X138709524Y-84184761D02*
X138804762Y-84232380D01*
X138804762Y-84232380D02*
X138995238Y-84232380D01*
X138995238Y-84232380D02*
X139090476Y-84184761D01*
X139090476Y-84184761D02*
X139138095Y-84137142D01*
X139138095Y-84137142D02*
X139185714Y-84041904D01*
X139185714Y-84041904D02*
X139185714Y-83851428D01*
X139185714Y-83851428D02*
X139138095Y-83756190D01*
X139138095Y-83756190D02*
X139090476Y-83708571D01*
X139090476Y-83708571D02*
X138995238Y-83660952D01*
X90657142Y-97252380D02*
X90323809Y-96776190D01*
X90085714Y-97252380D02*
X90085714Y-96252380D01*
X90085714Y-96252380D02*
X90466666Y-96252380D01*
X90466666Y-96252380D02*
X90561904Y-96300000D01*
X90561904Y-96300000D02*
X90609523Y-96347619D01*
X90609523Y-96347619D02*
X90657142Y-96442857D01*
X90657142Y-96442857D02*
X90657142Y-96585714D01*
X90657142Y-96585714D02*
X90609523Y-96680952D01*
X90609523Y-96680952D02*
X90561904Y-96728571D01*
X90561904Y-96728571D02*
X90466666Y-96776190D01*
X90466666Y-96776190D02*
X90085714Y-96776190D01*
X91609523Y-97252380D02*
X91038095Y-97252380D01*
X91323809Y-97252380D02*
X91323809Y-96252380D01*
X91323809Y-96252380D02*
X91228571Y-96395238D01*
X91228571Y-96395238D02*
X91133333Y-96490476D01*
X91133333Y-96490476D02*
X91038095Y-96538095D01*
X91990476Y-96347619D02*
X92038095Y-96300000D01*
X92038095Y-96300000D02*
X92133333Y-96252380D01*
X92133333Y-96252380D02*
X92371428Y-96252380D01*
X92371428Y-96252380D02*
X92466666Y-96300000D01*
X92466666Y-96300000D02*
X92514285Y-96347619D01*
X92514285Y-96347619D02*
X92561904Y-96442857D01*
X92561904Y-96442857D02*
X92561904Y-96538095D01*
X92561904Y-96538095D02*
X92514285Y-96680952D01*
X92514285Y-96680952D02*
X91942857Y-97252380D01*
X91942857Y-97252380D02*
X92561904Y-97252380D01*
X122107142Y-97907142D02*
X122059523Y-97954761D01*
X122059523Y-97954761D02*
X121916666Y-98002380D01*
X121916666Y-98002380D02*
X121821428Y-98002380D01*
X121821428Y-98002380D02*
X121678571Y-97954761D01*
X121678571Y-97954761D02*
X121583333Y-97859523D01*
X121583333Y-97859523D02*
X121535714Y-97764285D01*
X121535714Y-97764285D02*
X121488095Y-97573809D01*
X121488095Y-97573809D02*
X121488095Y-97430952D01*
X121488095Y-97430952D02*
X121535714Y-97240476D01*
X121535714Y-97240476D02*
X121583333Y-97145238D01*
X121583333Y-97145238D02*
X121678571Y-97050000D01*
X121678571Y-97050000D02*
X121821428Y-97002380D01*
X121821428Y-97002380D02*
X121916666Y-97002380D01*
X121916666Y-97002380D02*
X122059523Y-97050000D01*
X122059523Y-97050000D02*
X122107142Y-97097619D01*
X123059523Y-98002380D02*
X122488095Y-98002380D01*
X122773809Y-98002380D02*
X122773809Y-97002380D01*
X122773809Y-97002380D02*
X122678571Y-97145238D01*
X122678571Y-97145238D02*
X122583333Y-97240476D01*
X122583333Y-97240476D02*
X122488095Y-97288095D01*
X123630952Y-97430952D02*
X123535714Y-97383333D01*
X123535714Y-97383333D02*
X123488095Y-97335714D01*
X123488095Y-97335714D02*
X123440476Y-97240476D01*
X123440476Y-97240476D02*
X123440476Y-97192857D01*
X123440476Y-97192857D02*
X123488095Y-97097619D01*
X123488095Y-97097619D02*
X123535714Y-97050000D01*
X123535714Y-97050000D02*
X123630952Y-97002380D01*
X123630952Y-97002380D02*
X123821428Y-97002380D01*
X123821428Y-97002380D02*
X123916666Y-97050000D01*
X123916666Y-97050000D02*
X123964285Y-97097619D01*
X123964285Y-97097619D02*
X124011904Y-97192857D01*
X124011904Y-97192857D02*
X124011904Y-97240476D01*
X124011904Y-97240476D02*
X123964285Y-97335714D01*
X123964285Y-97335714D02*
X123916666Y-97383333D01*
X123916666Y-97383333D02*
X123821428Y-97430952D01*
X123821428Y-97430952D02*
X123630952Y-97430952D01*
X123630952Y-97430952D02*
X123535714Y-97478571D01*
X123535714Y-97478571D02*
X123488095Y-97526190D01*
X123488095Y-97526190D02*
X123440476Y-97621428D01*
X123440476Y-97621428D02*
X123440476Y-97811904D01*
X123440476Y-97811904D02*
X123488095Y-97907142D01*
X123488095Y-97907142D02*
X123535714Y-97954761D01*
X123535714Y-97954761D02*
X123630952Y-98002380D01*
X123630952Y-98002380D02*
X123821428Y-98002380D01*
X123821428Y-98002380D02*
X123916666Y-97954761D01*
X123916666Y-97954761D02*
X123964285Y-97907142D01*
X123964285Y-97907142D02*
X124011904Y-97811904D01*
X124011904Y-97811904D02*
X124011904Y-97621428D01*
X124011904Y-97621428D02*
X123964285Y-97526190D01*
X123964285Y-97526190D02*
X123916666Y-97478571D01*
X123916666Y-97478571D02*
X123821428Y-97430952D01*
X117407142Y-85757142D02*
X117359523Y-85804761D01*
X117359523Y-85804761D02*
X117216666Y-85852380D01*
X117216666Y-85852380D02*
X117121428Y-85852380D01*
X117121428Y-85852380D02*
X116978571Y-85804761D01*
X116978571Y-85804761D02*
X116883333Y-85709523D01*
X116883333Y-85709523D02*
X116835714Y-85614285D01*
X116835714Y-85614285D02*
X116788095Y-85423809D01*
X116788095Y-85423809D02*
X116788095Y-85280952D01*
X116788095Y-85280952D02*
X116835714Y-85090476D01*
X116835714Y-85090476D02*
X116883333Y-84995238D01*
X116883333Y-84995238D02*
X116978571Y-84900000D01*
X116978571Y-84900000D02*
X117121428Y-84852380D01*
X117121428Y-84852380D02*
X117216666Y-84852380D01*
X117216666Y-84852380D02*
X117359523Y-84900000D01*
X117359523Y-84900000D02*
X117407142Y-84947619D01*
X118359523Y-85852380D02*
X117788095Y-85852380D01*
X118073809Y-85852380D02*
X118073809Y-84852380D01*
X118073809Y-84852380D02*
X117978571Y-84995238D01*
X117978571Y-84995238D02*
X117883333Y-85090476D01*
X117883333Y-85090476D02*
X117788095Y-85138095D01*
X119311904Y-85852380D02*
X118740476Y-85852380D01*
X119026190Y-85852380D02*
X119026190Y-84852380D01*
X119026190Y-84852380D02*
X118930952Y-84995238D01*
X118930952Y-84995238D02*
X118835714Y-85090476D01*
X118835714Y-85090476D02*
X118740476Y-85138095D01*
X111907142Y-99207142D02*
X111859523Y-99254761D01*
X111859523Y-99254761D02*
X111716666Y-99302380D01*
X111716666Y-99302380D02*
X111621428Y-99302380D01*
X111621428Y-99302380D02*
X111478571Y-99254761D01*
X111478571Y-99254761D02*
X111383333Y-99159523D01*
X111383333Y-99159523D02*
X111335714Y-99064285D01*
X111335714Y-99064285D02*
X111288095Y-98873809D01*
X111288095Y-98873809D02*
X111288095Y-98730952D01*
X111288095Y-98730952D02*
X111335714Y-98540476D01*
X111335714Y-98540476D02*
X111383333Y-98445238D01*
X111383333Y-98445238D02*
X111478571Y-98350000D01*
X111478571Y-98350000D02*
X111621428Y-98302380D01*
X111621428Y-98302380D02*
X111716666Y-98302380D01*
X111716666Y-98302380D02*
X111859523Y-98350000D01*
X111859523Y-98350000D02*
X111907142Y-98397619D01*
X112859523Y-99302380D02*
X112288095Y-99302380D01*
X112573809Y-99302380D02*
X112573809Y-98302380D01*
X112573809Y-98302380D02*
X112478571Y-98445238D01*
X112478571Y-98445238D02*
X112383333Y-98540476D01*
X112383333Y-98540476D02*
X112288095Y-98588095D01*
X113240476Y-98397619D02*
X113288095Y-98350000D01*
X113288095Y-98350000D02*
X113383333Y-98302380D01*
X113383333Y-98302380D02*
X113621428Y-98302380D01*
X113621428Y-98302380D02*
X113716666Y-98350000D01*
X113716666Y-98350000D02*
X113764285Y-98397619D01*
X113764285Y-98397619D02*
X113811904Y-98492857D01*
X113811904Y-98492857D02*
X113811904Y-98588095D01*
X113811904Y-98588095D02*
X113764285Y-98730952D01*
X113764285Y-98730952D02*
X113192857Y-99302380D01*
X113192857Y-99302380D02*
X113811904Y-99302380D01*
D12*
X143400000Y-100975000D02*
X148400000Y-100975000D01*
X142800000Y-98975000D02*
X143400000Y-98975000D01*
X142800000Y-98975000D02*
X142800000Y-96600000D01*
X143400000Y-98975000D02*
X143400000Y-100975000D01*
X148400000Y-98975000D02*
X148400000Y-100975000D01*
X148400000Y-98975000D02*
X149000000Y-98975000D01*
X142800000Y-94950000D02*
X142800000Y-93600000D01*
X142800000Y-91950000D02*
X142800000Y-89550000D01*
X142800000Y-89550000D02*
X141400000Y-89550000D01*
X149000000Y-88450000D02*
X149000000Y-98975000D01*
X142800000Y-88000000D02*
X141400000Y-88000000D01*
X142800000Y-88000000D02*
X142800000Y-86875000D01*
X149000000Y-86875000D02*
X142800000Y-86875000D01*
X122103733Y-85990000D02*
X122396267Y-85990000D01*
X122103733Y-87010000D02*
X122396267Y-87010000D01*
X147888748Y-83690000D02*
X148411252Y-83690000D01*
X147888748Y-85110000D02*
X148411252Y-85110000D01*
X147950000Y-84000000D02*
X147950000Y-84700000D01*
X147950000Y-84700000D02*
X148350000Y-84700000D01*
X130442500Y-73690000D02*
X131442500Y-73690000D01*
X130942500Y-73190000D02*
X130942500Y-74190000D01*
X131682500Y-73004437D02*
X131682500Y-74690000D01*
X131682500Y-73004437D02*
X132746937Y-71940000D01*
X131682500Y-79395563D02*
X131682500Y-77710000D01*
X131682500Y-79395563D02*
X132746937Y-80460000D01*
X132746937Y-71940000D02*
X140202500Y-71940000D01*
X132746937Y-80460000D02*
X140202500Y-80460000D01*
X140202500Y-71940000D02*
X140202500Y-74690000D01*
X140202500Y-80460000D02*
X140202500Y-77710000D01*
X89127500Y-79254724D02*
X89127500Y-78745276D01*
X90172500Y-79254724D02*
X90172500Y-78745276D01*
X88335000Y-81540000D02*
X86865000Y-81540000D01*
X86865000Y-81540000D02*
X86865000Y-84000000D01*
X88335000Y-84000000D02*
X88335000Y-81540000D01*
X122153733Y-80190000D02*
X122446267Y-80190000D01*
X122153733Y-81210000D02*
X122446267Y-81210000D01*
X109180000Y-69580000D02*
X109180000Y-75820000D01*
X109180000Y-69580000D02*
X116420000Y-69580000D01*
X109180000Y-75820000D02*
X116420000Y-75820000D01*
X116420000Y-69580000D02*
X116420000Y-75820000D01*
X117400000Y-72640000D02*
X118400000Y-72640000D01*
X117900000Y-72140000D02*
X117900000Y-73140000D01*
X118640000Y-71954437D02*
X118640000Y-73640000D01*
X118640000Y-71954437D02*
X119704437Y-70890000D01*
X118640000Y-78345563D02*
X118640000Y-76660000D01*
X118640000Y-78345563D02*
X119704437Y-79410000D01*
X119704437Y-70890000D02*
X127160000Y-70890000D01*
X119704437Y-79410000D02*
X127160000Y-79410000D01*
X127160000Y-70890000D02*
X127160000Y-73640000D01*
X127160000Y-79410000D02*
X127160000Y-76660000D01*
X129950000Y-91290000D02*
X130950000Y-91290000D01*
X130450000Y-90790000D02*
X130450000Y-91790000D01*
X131190000Y-90604437D02*
X131190000Y-92290000D01*
X131190000Y-90604437D02*
X132254437Y-89540000D01*
X131190000Y-96995563D02*
X131190000Y-95310000D01*
X131190000Y-96995563D02*
X132254437Y-98060000D01*
X132254437Y-89540000D02*
X139710000Y-89540000D01*
X132254437Y-98060000D02*
X139710000Y-98060000D01*
X139710000Y-89540000D02*
X139710000Y-92290000D01*
X139710000Y-98060000D02*
X139710000Y-95310000D01*
X87077500Y-77554724D02*
X87077500Y-77045276D01*
X88122500Y-77554724D02*
X88122500Y-77045276D01*
X92550000Y-69605000D02*
X106050000Y-69605000D01*
X92550000Y-74255000D02*
X92550000Y-69605000D01*
X92550000Y-93205000D02*
X92550000Y-94605000D01*
X92550000Y-94605000D02*
X93800000Y-94605000D01*
X104750000Y-94605000D02*
X106050000Y-94605000D01*
X106050000Y-69605000D02*
X106050000Y-74205000D01*
X106050000Y-94605000D02*
X106050000Y-93155000D01*
X145882776Y-78027500D02*
X146392224Y-78027500D01*
X145882776Y-79072500D02*
X146392224Y-79072500D01*
X87740000Y-90446267D02*
X87740000Y-90153733D01*
X88760000Y-90446267D02*
X88760000Y-90153733D01*
X109230000Y-76680000D02*
X109230000Y-82920000D01*
X109230000Y-76680000D02*
X116470000Y-76680000D01*
X109230000Y-82920000D02*
X116470000Y-82920000D01*
X116470000Y-76680000D02*
X116470000Y-82920000D01*
X144241233Y-75990000D02*
X144533767Y-75990000D01*
X144241233Y-77010000D02*
X144533767Y-77010000D01*
X146246267Y-80910000D02*
X145953733Y-80910000D01*
X146246267Y-79890000D02*
X145953733Y-79890000D01*
X90522500Y-90045276D02*
X90522500Y-90554724D01*
X89477500Y-90045276D02*
X89477500Y-90554724D01*
X90385000Y-81540000D02*
X88915000Y-81540000D01*
X88915000Y-81540000D02*
X88915000Y-84000000D01*
X90385000Y-84000000D02*
X90385000Y-81540000D01*
X138045276Y-87177500D02*
X138554724Y-87177500D01*
X138045276Y-88222500D02*
X138554724Y-88222500D01*
X145991233Y-81840000D02*
X146283767Y-81840000D01*
X145991233Y-82860000D02*
X146283767Y-82860000D01*
X88188748Y-93190000D02*
X89611252Y-93190000D01*
X88188748Y-95010000D02*
X89611252Y-95010000D01*
X138654724Y-82872500D02*
X138145276Y-82872500D01*
X138654724Y-81827500D02*
X138145276Y-81827500D01*
X88045276Y-96177500D02*
X88554724Y-96177500D01*
X88045276Y-97222500D02*
X88554724Y-97222500D01*
X117350000Y-89640000D02*
X118350000Y-89640000D01*
X117850000Y-89140000D02*
X117850000Y-90140000D01*
X118590000Y-88954437D02*
X118590000Y-90640000D01*
X118590000Y-88954437D02*
X119654437Y-87890000D01*
X118590000Y-95345563D02*
X118590000Y-93660000D01*
X118590000Y-95345563D02*
X119654437Y-96410000D01*
X119654437Y-87890000D02*
X127110000Y-87890000D01*
X119654437Y-96410000D02*
X127110000Y-96410000D01*
X127110000Y-87890000D02*
X127110000Y-90640000D01*
X127110000Y-96410000D02*
X127110000Y-93660000D01*
X109330000Y-83780000D02*
X109330000Y-90020000D01*
X109330000Y-83780000D02*
X116570000Y-83780000D01*
X109330000Y-90020000D02*
X116570000Y-90020000D01*
X116570000Y-83780000D02*
X116570000Y-90020000D01*
X109380000Y-90930000D02*
X109380000Y-97170000D01*
X109380000Y-90930000D02*
X116620000Y-90930000D01*
X109380000Y-97170000D02*
X116620000Y-97170000D01*
X116620000Y-90930000D02*
X116620000Y-97170000D01*
%LPC*%
D13*
X145900000Y-97375000D03*
X145900000Y-90375000D03*
D14*
X142649999Y-92774999D03*
X142649999Y-95774999D03*
X149149999Y-87674999D03*
X142649999Y-88774999D03*
D15*
X121387500Y-86500000D03*
X123112500Y-86500000D03*
D16*
X147125000Y-84400000D03*
X149175000Y-84400000D03*
D17*
X132692500Y-76200000D03*
X139192500Y-76200000D03*
D18*
X89650000Y-79912500D03*
X89650000Y-78087500D03*
D19*
X87600000Y-82325000D03*
X87600000Y-84075000D03*
D15*
X121437500Y-80700000D03*
X123162500Y-80700000D03*
D20*
X110300000Y-72700000D03*
X115300000Y-72700000D03*
D17*
X119650000Y-75150000D03*
X126150000Y-75150000D03*
X132200000Y-93800000D03*
X138700000Y-93800000D03*
D18*
X87600000Y-78212500D03*
X87600000Y-76387500D03*
D21*
X92550000Y-75005000D03*
X92550000Y-76105000D03*
X92550000Y-77205000D03*
X92550000Y-78305000D03*
X92550000Y-79405000D03*
X92550000Y-80505000D03*
X92550000Y-81605000D03*
X92550000Y-82705000D03*
X92550000Y-83805000D03*
X92550000Y-84905000D03*
X92550000Y-86005000D03*
X92550000Y-87105000D03*
X92550000Y-88205000D03*
X92550000Y-89305000D03*
X92550000Y-90405000D03*
X92550000Y-91505000D03*
X92550000Y-92605000D03*
D22*
X94550000Y-94605000D03*
X95750000Y-94605000D03*
X96950000Y-94605000D03*
X98150000Y-94605000D03*
X99350000Y-94605000D03*
X100550000Y-94605000D03*
X101750000Y-94605000D03*
X102950000Y-94605000D03*
X104150000Y-94605000D03*
D23*
X106050000Y-92605000D03*
X106050000Y-91505000D03*
X106050000Y-90405000D03*
X106050000Y-89305000D03*
X106050000Y-88205000D03*
X106050000Y-87105000D03*
X106050000Y-86005000D03*
X106050000Y-84905000D03*
X106050000Y-83805000D03*
X106050000Y-82705000D03*
X106050000Y-81605000D03*
X106050000Y-80505000D03*
X106050000Y-79405000D03*
X106050000Y-78305000D03*
X106050000Y-77205000D03*
X106050000Y-76105000D03*
X106050000Y-75005000D03*
D24*
X145225000Y-78550000D03*
X147050000Y-78550000D03*
D25*
X88250000Y-91162500D03*
X88250000Y-89437500D03*
D20*
X110350000Y-79800000D03*
X115350000Y-79800000D03*
D15*
X143525000Y-76500000D03*
X145250000Y-76500000D03*
D26*
X146962500Y-80400000D03*
X145237500Y-80400000D03*
D27*
X90000000Y-89387500D03*
X90000000Y-91212500D03*
D19*
X89650000Y-82325000D03*
X89650000Y-84075000D03*
D24*
X137387500Y-87700000D03*
X139212500Y-87700000D03*
D15*
X145275000Y-82350000D03*
X147000000Y-82350000D03*
D28*
X87337500Y-94100000D03*
X90462500Y-94100000D03*
D29*
X90499999Y-98899999D03*
D30*
X93039999Y-98899999D03*
X95579999Y-98899999D03*
D31*
X139312500Y-82350000D03*
X137487500Y-82350000D03*
D24*
X87387500Y-96700000D03*
X89212500Y-96700000D03*
D17*
X119600000Y-92150000D03*
X126100000Y-92150000D03*
D20*
X110450000Y-86900000D03*
X115450000Y-86900000D03*
X110500000Y-94050000D03*
X115500000Y-94050000D03*
M02*
