%FSLAX45Y45*%
G04 Gerber Fmt 4.5, Leading zero omitted, Abs format (unit mm)*
G04 Created by KiCad (PCBNEW 6.99.0-unknown-455e330f3b~148~ubuntu20.04.1) date 2022-04-23 11:40:38*
%MOMM*%
%LPD*%
G01*
G04 APERTURE LIST*
%TA.AperFunction,Profile*%
%ADD10C,0.200000*%
%TD*%
%ADD11C,0.200000*%
%ADD12C,0.030000*%
%ADD13C,0.040000*%
%ADD14C,0.080000*%
%ADD15C,0.100000*%
G04 APERTURE END LIST*
D10*
X15125000Y-10115000D02*
X8585000Y-10115000D01*
X8585000Y-7415000D01*
X10760000Y-7415000D01*
X10760000Y-6885000D01*
X15115000Y-6885000D01*
X15125000Y-10115000D01*
D11*
D12*
X9655000Y-9705000D02*
X9685000Y-9735000D01*
X9685000Y-9705000D02*
X9655000Y-9735000D01*
X9740000Y-9705000D02*
X9770000Y-9735000D01*
X9770000Y-9705000D02*
X9740000Y-9735000D01*
D13*
X9335000Y-9635000D02*
G75*
G03*
X9335000Y-9635000I-20000J0D01*
G01*
X9460000Y-9150000D02*
G75*
G03*
X9460000Y-9150000I-20000J0D01*
G01*
X9490000Y-8525000D02*
G75*
G03*
X9490000Y-8525000I-20000J0D01*
G01*
X9495000Y-8155000D02*
G75*
G03*
X9495000Y-8155000I-20000J0D01*
G01*
X9500000Y-7790000D02*
G75*
G03*
X9500000Y-7790000I-20000J0D01*
G01*
X9500000Y-8895000D02*
G75*
G03*
X9500000Y-8895000I-20000J0D01*
G01*
X10250000Y-9235350D02*
G75*
G03*
X10250000Y-9235350I-20000J0D01*
G01*
X10625000Y-8270000D02*
G75*
G03*
X10625000Y-8270000I-20000J0D01*
G01*
X10625000Y-8380000D02*
G75*
G03*
X10625000Y-8380000I-20000J0D01*
G01*
X10630000Y-8495000D02*
G75*
G03*
X10630000Y-8495000I-20000J0D01*
G01*
X10765000Y-9755050D02*
G75*
G03*
X10765000Y-9755050I-20000J0D01*
G01*
X10855000Y-9755050D02*
G75*
G03*
X10855000Y-9755050I-20000J0D01*
G01*
X11915000Y-7495000D02*
G75*
G03*
X11915000Y-7495000I-20000J0D01*
G01*
X11915000Y-9205000D02*
G75*
G03*
X11915000Y-9205000I-20000J0D01*
G01*
X12030000Y-7495000D02*
G75*
G03*
X12030000Y-7495000I-20000J0D01*
G01*
X12030000Y-9200000D02*
G75*
G03*
X12030000Y-9200000I-20000J0D01*
G01*
X12415000Y-7495000D02*
G75*
G03*
X12415000Y-7495000I-20000J0D01*
G01*
X12420000Y-9200000D02*
G75*
G03*
X12420000Y-9200000I-20000J0D01*
G01*
X12520000Y-7490000D02*
G75*
G03*
X12520000Y-7490000I-20000J0D01*
G01*
X12520000Y-9200000D02*
G75*
G03*
X12520000Y-9200000I-20000J0D01*
G01*
X13150000Y-9390000D02*
G75*
G03*
X13150000Y-9390000I-20000J0D01*
G01*
X13215000Y-7625000D02*
G75*
G03*
X13215000Y-7625000I-20000J0D01*
G01*
X13250000Y-9385000D02*
G75*
G03*
X13250000Y-9385000I-20000J0D01*
G01*
X13310000Y-7625000D02*
G75*
G03*
X13310000Y-7625000I-20000J0D01*
G01*
X14370000Y-7645000D02*
G75*
G03*
X14370000Y-7645000I-20000J0D01*
G01*
X14540000Y-7855000D02*
G75*
G03*
X14540000Y-7855000I-20000J0D01*
G01*
X14550000Y-8240000D02*
G75*
G03*
X14550000Y-8240000I-20000J0D01*
G01*
D14*
X11030000Y-7230000D02*
X11030000Y-7310000D01*
X10990000Y-7270000D02*
X11070000Y-7270000D01*
X11035000Y-7940000D02*
X11035000Y-8020000D01*
X10995000Y-7980000D02*
X11075000Y-7980000D01*
X11045000Y-8650000D02*
X11045000Y-8730000D01*
X11005000Y-8690000D02*
X11085000Y-8690000D01*
X11050000Y-9365000D02*
X11050000Y-9445000D01*
X11010000Y-9405000D02*
X11090000Y-9405000D01*
X11530000Y-7230000D02*
X11530000Y-7310000D01*
X11490000Y-7270000D02*
X11570000Y-7270000D01*
X11535000Y-7940000D02*
X11535000Y-8020000D01*
X11495000Y-7980000D02*
X11575000Y-7980000D01*
X11545000Y-8650000D02*
X11545000Y-8730000D01*
X11505000Y-8690000D02*
X11585000Y-8690000D01*
X11550000Y-9365000D02*
X11550000Y-9445000D01*
X11510000Y-9405000D02*
X11590000Y-9405000D01*
D15*
X9085356Y-9925356D02*
X9085356Y-9854644D01*
X9014644Y-9854644D01*
X9014644Y-9925356D01*
X9085356Y-9925356D01*
X9339356Y-9925356D02*
X9339356Y-9854644D01*
X9268644Y-9854644D01*
X9268644Y-9925356D01*
X9339356Y-9925356D01*
X9593356Y-9925356D02*
X9593356Y-9854644D01*
X9522644Y-9854644D01*
X9522644Y-9925356D01*
X9593356Y-9925356D01*
D11*
X8822619Y-10435476D02*
X8822619Y-10235476D01*
X8822619Y-10235476D02*
X8870238Y-10235476D01*
X8870238Y-10235476D02*
X8898810Y-10245000D01*
X8898810Y-10245000D02*
X8917857Y-10264048D01*
X8917857Y-10264048D02*
X8927381Y-10283095D01*
X8927381Y-10283095D02*
X8936905Y-10321190D01*
X8936905Y-10321190D02*
X8936905Y-10349762D01*
X8936905Y-10349762D02*
X8927381Y-10387857D01*
X8927381Y-10387857D02*
X8917857Y-10406905D01*
X8917857Y-10406905D02*
X8898810Y-10425952D01*
X8898810Y-10425952D02*
X8870238Y-10435476D01*
X8870238Y-10435476D02*
X8822619Y-10435476D01*
X9022619Y-10435476D02*
X9022619Y-10302143D01*
X9022619Y-10340238D02*
X9032143Y-10321190D01*
X9032143Y-10321190D02*
X9041667Y-10311667D01*
X9041667Y-10311667D02*
X9060714Y-10302143D01*
X9060714Y-10302143D02*
X9079762Y-10302143D01*
X9146429Y-10435476D02*
X9146429Y-10302143D01*
X9146429Y-10235476D02*
X9136905Y-10245000D01*
X9136905Y-10245000D02*
X9146429Y-10254524D01*
X9146429Y-10254524D02*
X9155952Y-10245000D01*
X9155952Y-10245000D02*
X9146429Y-10235476D01*
X9146429Y-10235476D02*
X9146429Y-10254524D01*
X9270238Y-10435476D02*
X9251190Y-10425952D01*
X9251190Y-10425952D02*
X9241667Y-10406905D01*
X9241667Y-10406905D02*
X9241667Y-10235476D01*
X9375000Y-10435476D02*
X9355952Y-10425952D01*
X9355952Y-10425952D02*
X9346429Y-10406905D01*
X9346429Y-10406905D02*
X9346429Y-10235476D01*
X9571190Y-10435476D02*
X9571190Y-10235476D01*
X9571190Y-10235476D02*
X9637857Y-10378333D01*
X9637857Y-10378333D02*
X9704524Y-10235476D01*
X9704524Y-10235476D02*
X9704524Y-10435476D01*
X9885476Y-10435476D02*
X9885476Y-10330714D01*
X9885476Y-10330714D02*
X9875952Y-10311667D01*
X9875952Y-10311667D02*
X9856905Y-10302143D01*
X9856905Y-10302143D02*
X9818809Y-10302143D01*
X9818809Y-10302143D02*
X9799762Y-10311667D01*
X9885476Y-10425952D02*
X9866429Y-10435476D01*
X9866429Y-10435476D02*
X9818809Y-10435476D01*
X9818809Y-10435476D02*
X9799762Y-10425952D01*
X9799762Y-10425952D02*
X9790238Y-10406905D01*
X9790238Y-10406905D02*
X9790238Y-10387857D01*
X9790238Y-10387857D02*
X9799762Y-10368810D01*
X9799762Y-10368810D02*
X9818809Y-10359286D01*
X9818809Y-10359286D02*
X9866429Y-10359286D01*
X9866429Y-10359286D02*
X9885476Y-10349762D01*
X9980714Y-10302143D02*
X9980714Y-10502143D01*
X9980714Y-10311667D02*
X9999762Y-10302143D01*
X9999762Y-10302143D02*
X10037857Y-10302143D01*
X10037857Y-10302143D02*
X10056905Y-10311667D01*
X10056905Y-10311667D02*
X10066429Y-10321190D01*
X10066429Y-10321190D02*
X10075952Y-10340238D01*
X10075952Y-10340238D02*
X10075952Y-10397381D01*
X10075952Y-10397381D02*
X10066429Y-10416429D01*
X10066429Y-10416429D02*
X10056905Y-10425952D01*
X10056905Y-10425952D02*
X10037857Y-10435476D01*
X10037857Y-10435476D02*
X9999762Y-10435476D01*
X9999762Y-10435476D02*
X9980714Y-10425952D01*
X10161667Y-10416429D02*
X10171190Y-10425952D01*
X10171190Y-10425952D02*
X10161667Y-10435476D01*
X10161667Y-10435476D02*
X10152143Y-10425952D01*
X10152143Y-10425952D02*
X10161667Y-10416429D01*
X10161667Y-10416429D02*
X10161667Y-10435476D01*
X10161667Y-10311667D02*
X10171190Y-10321190D01*
X10171190Y-10321190D02*
X10161667Y-10330714D01*
X10161667Y-10330714D02*
X10152143Y-10321190D01*
X10152143Y-10321190D02*
X10161667Y-10311667D01*
X10161667Y-10311667D02*
X10161667Y-10330714D01*
D12*
X8545000Y-10750000D02*
X8575000Y-10780000D01*
X8575000Y-10750000D02*
X8545000Y-10780000D01*
D11*
X8860714Y-10655476D02*
X8879762Y-10655476D01*
X8879762Y-10655476D02*
X8898810Y-10665000D01*
X8898810Y-10665000D02*
X8908333Y-10674524D01*
X8908333Y-10674524D02*
X8917857Y-10693571D01*
X8917857Y-10693571D02*
X8927381Y-10731667D01*
X8927381Y-10731667D02*
X8927381Y-10779286D01*
X8927381Y-10779286D02*
X8917857Y-10817381D01*
X8917857Y-10817381D02*
X8908333Y-10836429D01*
X8908333Y-10836429D02*
X8898810Y-10845952D01*
X8898810Y-10845952D02*
X8879762Y-10855476D01*
X8879762Y-10855476D02*
X8860714Y-10855476D01*
X8860714Y-10855476D02*
X8841667Y-10845952D01*
X8841667Y-10845952D02*
X8832143Y-10836429D01*
X8832143Y-10836429D02*
X8822619Y-10817381D01*
X8822619Y-10817381D02*
X8813095Y-10779286D01*
X8813095Y-10779286D02*
X8813095Y-10731667D01*
X8813095Y-10731667D02*
X8822619Y-10693571D01*
X8822619Y-10693571D02*
X8832143Y-10674524D01*
X8832143Y-10674524D02*
X8841667Y-10665000D01*
X8841667Y-10665000D02*
X8860714Y-10655476D01*
X9013095Y-10836429D02*
X9022619Y-10845952D01*
X9022619Y-10845952D02*
X9013095Y-10855476D01*
X9013095Y-10855476D02*
X9003571Y-10845952D01*
X9003571Y-10845952D02*
X9013095Y-10836429D01*
X9013095Y-10836429D02*
X9013095Y-10855476D01*
X9089286Y-10655476D02*
X9213095Y-10655476D01*
X9213095Y-10655476D02*
X9146429Y-10731667D01*
X9146429Y-10731667D02*
X9175000Y-10731667D01*
X9175000Y-10731667D02*
X9194048Y-10741190D01*
X9194048Y-10741190D02*
X9203571Y-10750714D01*
X9203571Y-10750714D02*
X9213095Y-10769762D01*
X9213095Y-10769762D02*
X9213095Y-10817381D01*
X9213095Y-10817381D02*
X9203571Y-10836429D01*
X9203571Y-10836429D02*
X9194048Y-10845952D01*
X9194048Y-10845952D02*
X9175000Y-10855476D01*
X9175000Y-10855476D02*
X9117857Y-10855476D01*
X9117857Y-10855476D02*
X9098810Y-10845952D01*
X9098810Y-10845952D02*
X9089286Y-10836429D01*
X9336905Y-10655476D02*
X9355952Y-10655476D01*
X9355952Y-10655476D02*
X9375000Y-10665000D01*
X9375000Y-10665000D02*
X9384524Y-10674524D01*
X9384524Y-10674524D02*
X9394048Y-10693571D01*
X9394048Y-10693571D02*
X9403571Y-10731667D01*
X9403571Y-10731667D02*
X9403571Y-10779286D01*
X9403571Y-10779286D02*
X9394048Y-10817381D01*
X9394048Y-10817381D02*
X9384524Y-10836429D01*
X9384524Y-10836429D02*
X9375000Y-10845952D01*
X9375000Y-10845952D02*
X9355952Y-10855476D01*
X9355952Y-10855476D02*
X9336905Y-10855476D01*
X9336905Y-10855476D02*
X9317857Y-10845952D01*
X9317857Y-10845952D02*
X9308333Y-10836429D01*
X9308333Y-10836429D02*
X9298810Y-10817381D01*
X9298810Y-10817381D02*
X9289286Y-10779286D01*
X9289286Y-10779286D02*
X9289286Y-10731667D01*
X9289286Y-10731667D02*
X9298810Y-10693571D01*
X9298810Y-10693571D02*
X9308333Y-10674524D01*
X9308333Y-10674524D02*
X9317857Y-10665000D01*
X9317857Y-10665000D02*
X9336905Y-10655476D01*
X9527381Y-10655476D02*
X9546429Y-10655476D01*
X9546429Y-10655476D02*
X9565476Y-10665000D01*
X9565476Y-10665000D02*
X9575000Y-10674524D01*
X9575000Y-10674524D02*
X9584524Y-10693571D01*
X9584524Y-10693571D02*
X9594048Y-10731667D01*
X9594048Y-10731667D02*
X9594048Y-10779286D01*
X9594048Y-10779286D02*
X9584524Y-10817381D01*
X9584524Y-10817381D02*
X9575000Y-10836429D01*
X9575000Y-10836429D02*
X9565476Y-10845952D01*
X9565476Y-10845952D02*
X9546429Y-10855476D01*
X9546429Y-10855476D02*
X9527381Y-10855476D01*
X9527381Y-10855476D02*
X9508333Y-10845952D01*
X9508333Y-10845952D02*
X9498810Y-10836429D01*
X9498810Y-10836429D02*
X9489286Y-10817381D01*
X9489286Y-10817381D02*
X9479762Y-10779286D01*
X9479762Y-10779286D02*
X9479762Y-10731667D01*
X9479762Y-10731667D02*
X9489286Y-10693571D01*
X9489286Y-10693571D02*
X9498810Y-10674524D01*
X9498810Y-10674524D02*
X9508333Y-10665000D01*
X9508333Y-10665000D02*
X9527381Y-10655476D01*
X9679762Y-10855476D02*
X9679762Y-10722143D01*
X9679762Y-10741190D02*
X9689286Y-10731667D01*
X9689286Y-10731667D02*
X9708333Y-10722143D01*
X9708333Y-10722143D02*
X9736905Y-10722143D01*
X9736905Y-10722143D02*
X9755952Y-10731667D01*
X9755952Y-10731667D02*
X9765476Y-10750714D01*
X9765476Y-10750714D02*
X9765476Y-10855476D01*
X9765476Y-10750714D02*
X9775000Y-10731667D01*
X9775000Y-10731667D02*
X9794048Y-10722143D01*
X9794048Y-10722143D02*
X9822619Y-10722143D01*
X9822619Y-10722143D02*
X9841667Y-10731667D01*
X9841667Y-10731667D02*
X9851191Y-10750714D01*
X9851191Y-10750714D02*
X9851191Y-10855476D01*
X9946429Y-10855476D02*
X9946429Y-10722143D01*
X9946429Y-10741190D02*
X9955952Y-10731667D01*
X9955952Y-10731667D02*
X9975000Y-10722143D01*
X9975000Y-10722143D02*
X10003572Y-10722143D01*
X10003572Y-10722143D02*
X10022619Y-10731667D01*
X10022619Y-10731667D02*
X10032143Y-10750714D01*
X10032143Y-10750714D02*
X10032143Y-10855476D01*
X10032143Y-10750714D02*
X10041667Y-10731667D01*
X10041667Y-10731667D02*
X10060714Y-10722143D01*
X10060714Y-10722143D02*
X10089286Y-10722143D01*
X10089286Y-10722143D02*
X10108333Y-10731667D01*
X10108333Y-10731667D02*
X10117857Y-10750714D01*
X10117857Y-10750714D02*
X10117857Y-10855476D01*
X10475952Y-10645952D02*
X10304524Y-10903095D01*
X10700714Y-10655476D02*
X10719762Y-10655476D01*
X10719762Y-10655476D02*
X10738810Y-10665000D01*
X10738810Y-10665000D02*
X10748333Y-10674524D01*
X10748333Y-10674524D02*
X10757857Y-10693571D01*
X10757857Y-10693571D02*
X10767381Y-10731667D01*
X10767381Y-10731667D02*
X10767381Y-10779286D01*
X10767381Y-10779286D02*
X10757857Y-10817381D01*
X10757857Y-10817381D02*
X10748333Y-10836429D01*
X10748333Y-10836429D02*
X10738810Y-10845952D01*
X10738810Y-10845952D02*
X10719762Y-10855476D01*
X10719762Y-10855476D02*
X10700714Y-10855476D01*
X10700714Y-10855476D02*
X10681667Y-10845952D01*
X10681667Y-10845952D02*
X10672143Y-10836429D01*
X10672143Y-10836429D02*
X10662619Y-10817381D01*
X10662619Y-10817381D02*
X10653095Y-10779286D01*
X10653095Y-10779286D02*
X10653095Y-10731667D01*
X10653095Y-10731667D02*
X10662619Y-10693571D01*
X10662619Y-10693571D02*
X10672143Y-10674524D01*
X10672143Y-10674524D02*
X10681667Y-10665000D01*
X10681667Y-10665000D02*
X10700714Y-10655476D01*
X10853095Y-10836429D02*
X10862619Y-10845952D01*
X10862619Y-10845952D02*
X10853095Y-10855476D01*
X10853095Y-10855476D02*
X10843572Y-10845952D01*
X10843572Y-10845952D02*
X10853095Y-10836429D01*
X10853095Y-10836429D02*
X10853095Y-10855476D01*
X10986429Y-10655476D02*
X11005476Y-10655476D01*
X11005476Y-10655476D02*
X11024524Y-10665000D01*
X11024524Y-10665000D02*
X11034048Y-10674524D01*
X11034048Y-10674524D02*
X11043572Y-10693571D01*
X11043572Y-10693571D02*
X11053095Y-10731667D01*
X11053095Y-10731667D02*
X11053095Y-10779286D01*
X11053095Y-10779286D02*
X11043572Y-10817381D01*
X11043572Y-10817381D02*
X11034048Y-10836429D01*
X11034048Y-10836429D02*
X11024524Y-10845952D01*
X11024524Y-10845952D02*
X11005476Y-10855476D01*
X11005476Y-10855476D02*
X10986429Y-10855476D01*
X10986429Y-10855476D02*
X10967381Y-10845952D01*
X10967381Y-10845952D02*
X10957857Y-10836429D01*
X10957857Y-10836429D02*
X10948333Y-10817381D01*
X10948333Y-10817381D02*
X10938810Y-10779286D01*
X10938810Y-10779286D02*
X10938810Y-10731667D01*
X10938810Y-10731667D02*
X10948333Y-10693571D01*
X10948333Y-10693571D02*
X10957857Y-10674524D01*
X10957857Y-10674524D02*
X10967381Y-10665000D01*
X10967381Y-10665000D02*
X10986429Y-10655476D01*
X11243571Y-10855476D02*
X11129286Y-10855476D01*
X11186429Y-10855476D02*
X11186429Y-10655476D01*
X11186429Y-10655476D02*
X11167381Y-10684048D01*
X11167381Y-10684048D02*
X11148333Y-10703095D01*
X11148333Y-10703095D02*
X11129286Y-10712619D01*
X11434048Y-10855476D02*
X11319762Y-10855476D01*
X11376905Y-10855476D02*
X11376905Y-10655476D01*
X11376905Y-10655476D02*
X11357857Y-10684048D01*
X11357857Y-10684048D02*
X11338810Y-10703095D01*
X11338810Y-10703095D02*
X11319762Y-10712619D01*
X11548333Y-10741190D02*
X11529286Y-10731667D01*
X11529286Y-10731667D02*
X11519762Y-10722143D01*
X11519762Y-10722143D02*
X11510238Y-10703095D01*
X11510238Y-10703095D02*
X11510238Y-10693571D01*
X11510238Y-10693571D02*
X11519762Y-10674524D01*
X11519762Y-10674524D02*
X11529286Y-10665000D01*
X11529286Y-10665000D02*
X11548333Y-10655476D01*
X11548333Y-10655476D02*
X11586429Y-10655476D01*
X11586429Y-10655476D02*
X11605476Y-10665000D01*
X11605476Y-10665000D02*
X11615000Y-10674524D01*
X11615000Y-10674524D02*
X11624524Y-10693571D01*
X11624524Y-10693571D02*
X11624524Y-10703095D01*
X11624524Y-10703095D02*
X11615000Y-10722143D01*
X11615000Y-10722143D02*
X11605476Y-10731667D01*
X11605476Y-10731667D02*
X11586429Y-10741190D01*
X11586429Y-10741190D02*
X11548333Y-10741190D01*
X11548333Y-10741190D02*
X11529286Y-10750714D01*
X11529286Y-10750714D02*
X11519762Y-10760238D01*
X11519762Y-10760238D02*
X11510238Y-10779286D01*
X11510238Y-10779286D02*
X11510238Y-10817381D01*
X11510238Y-10817381D02*
X11519762Y-10836429D01*
X11519762Y-10836429D02*
X11529286Y-10845952D01*
X11529286Y-10845952D02*
X11548333Y-10855476D01*
X11548333Y-10855476D02*
X11586429Y-10855476D01*
X11586429Y-10855476D02*
X11605476Y-10845952D01*
X11605476Y-10845952D02*
X11615000Y-10836429D01*
X11615000Y-10836429D02*
X11624524Y-10817381D01*
X11624524Y-10817381D02*
X11624524Y-10779286D01*
X11624524Y-10779286D02*
X11615000Y-10760238D01*
X11615000Y-10760238D02*
X11605476Y-10750714D01*
X11605476Y-10750714D02*
X11586429Y-10741190D01*
X11700714Y-10655476D02*
X11700714Y-10693571D01*
X11776905Y-10655476D02*
X11776905Y-10693571D01*
X12039762Y-10931667D02*
X12030238Y-10922143D01*
X12030238Y-10922143D02*
X12011191Y-10893571D01*
X12011191Y-10893571D02*
X12001667Y-10874524D01*
X12001667Y-10874524D02*
X11992143Y-10845952D01*
X11992143Y-10845952D02*
X11982619Y-10798333D01*
X11982619Y-10798333D02*
X11982619Y-10760238D01*
X11982619Y-10760238D02*
X11992143Y-10712619D01*
X11992143Y-10712619D02*
X12001667Y-10684048D01*
X12001667Y-10684048D02*
X12011191Y-10665000D01*
X12011191Y-10665000D02*
X12030238Y-10636429D01*
X12030238Y-10636429D02*
X12039762Y-10626905D01*
X12106429Y-10674524D02*
X12115952Y-10665000D01*
X12115952Y-10665000D02*
X12135000Y-10655476D01*
X12135000Y-10655476D02*
X12182619Y-10655476D01*
X12182619Y-10655476D02*
X12201667Y-10665000D01*
X12201667Y-10665000D02*
X12211191Y-10674524D01*
X12211191Y-10674524D02*
X12220714Y-10693571D01*
X12220714Y-10693571D02*
X12220714Y-10712619D01*
X12220714Y-10712619D02*
X12211191Y-10741190D01*
X12211191Y-10741190D02*
X12096905Y-10855476D01*
X12096905Y-10855476D02*
X12220714Y-10855476D01*
X12426429Y-10855476D02*
X12426429Y-10655476D01*
X12512143Y-10855476D02*
X12512143Y-10750714D01*
X12512143Y-10750714D02*
X12502619Y-10731667D01*
X12502619Y-10731667D02*
X12483572Y-10722143D01*
X12483572Y-10722143D02*
X12455000Y-10722143D01*
X12455000Y-10722143D02*
X12435952Y-10731667D01*
X12435952Y-10731667D02*
X12426429Y-10741190D01*
X12635952Y-10855476D02*
X12616905Y-10845952D01*
X12616905Y-10845952D02*
X12607381Y-10836429D01*
X12607381Y-10836429D02*
X12597857Y-10817381D01*
X12597857Y-10817381D02*
X12597857Y-10760238D01*
X12597857Y-10760238D02*
X12607381Y-10741190D01*
X12607381Y-10741190D02*
X12616905Y-10731667D01*
X12616905Y-10731667D02*
X12635952Y-10722143D01*
X12635952Y-10722143D02*
X12664524Y-10722143D01*
X12664524Y-10722143D02*
X12683572Y-10731667D01*
X12683572Y-10731667D02*
X12693095Y-10741190D01*
X12693095Y-10741190D02*
X12702619Y-10760238D01*
X12702619Y-10760238D02*
X12702619Y-10817381D01*
X12702619Y-10817381D02*
X12693095Y-10836429D01*
X12693095Y-10836429D02*
X12683572Y-10845952D01*
X12683572Y-10845952D02*
X12664524Y-10855476D01*
X12664524Y-10855476D02*
X12635952Y-10855476D01*
X12816905Y-10855476D02*
X12797857Y-10845952D01*
X12797857Y-10845952D02*
X12788333Y-10826905D01*
X12788333Y-10826905D02*
X12788333Y-10655476D01*
X12969286Y-10845952D02*
X12950238Y-10855476D01*
X12950238Y-10855476D02*
X12912143Y-10855476D01*
X12912143Y-10855476D02*
X12893095Y-10845952D01*
X12893095Y-10845952D02*
X12883572Y-10826905D01*
X12883572Y-10826905D02*
X12883572Y-10750714D01*
X12883572Y-10750714D02*
X12893095Y-10731667D01*
X12893095Y-10731667D02*
X12912143Y-10722143D01*
X12912143Y-10722143D02*
X12950238Y-10722143D01*
X12950238Y-10722143D02*
X12969286Y-10731667D01*
X12969286Y-10731667D02*
X12978810Y-10750714D01*
X12978810Y-10750714D02*
X12978810Y-10769762D01*
X12978810Y-10769762D02*
X12883572Y-10788810D01*
X13055000Y-10845952D02*
X13074048Y-10855476D01*
X13074048Y-10855476D02*
X13112143Y-10855476D01*
X13112143Y-10855476D02*
X13131191Y-10845952D01*
X13131191Y-10845952D02*
X13140714Y-10826905D01*
X13140714Y-10826905D02*
X13140714Y-10817381D01*
X13140714Y-10817381D02*
X13131191Y-10798333D01*
X13131191Y-10798333D02*
X13112143Y-10788810D01*
X13112143Y-10788810D02*
X13083572Y-10788810D01*
X13083572Y-10788810D02*
X13064524Y-10779286D01*
X13064524Y-10779286D02*
X13055000Y-10760238D01*
X13055000Y-10760238D02*
X13055000Y-10750714D01*
X13055000Y-10750714D02*
X13064524Y-10731667D01*
X13064524Y-10731667D02*
X13083572Y-10722143D01*
X13083572Y-10722143D02*
X13112143Y-10722143D01*
X13112143Y-10722143D02*
X13131191Y-10731667D01*
X13207381Y-10931667D02*
X13216905Y-10922143D01*
X13216905Y-10922143D02*
X13235953Y-10893571D01*
X13235953Y-10893571D02*
X13245476Y-10874524D01*
X13245476Y-10874524D02*
X13255000Y-10845952D01*
X13255000Y-10845952D02*
X13264524Y-10798333D01*
X13264524Y-10798333D02*
X13264524Y-10760238D01*
X13264524Y-10760238D02*
X13255000Y-10712619D01*
X13255000Y-10712619D02*
X13245476Y-10684048D01*
X13245476Y-10684048D02*
X13235953Y-10665000D01*
X13235953Y-10665000D02*
X13216905Y-10636429D01*
X13216905Y-10636429D02*
X13207381Y-10626905D01*
D13*
X8575000Y-11029000D02*
G75*
G03*
X8575000Y-11029000I-20000J0D01*
G01*
D11*
X8860714Y-10919476D02*
X8879762Y-10919476D01*
X8879762Y-10919476D02*
X8898810Y-10929000D01*
X8898810Y-10929000D02*
X8908333Y-10938524D01*
X8908333Y-10938524D02*
X8917857Y-10957571D01*
X8917857Y-10957571D02*
X8927381Y-10995667D01*
X8927381Y-10995667D02*
X8927381Y-11043286D01*
X8927381Y-11043286D02*
X8917857Y-11081381D01*
X8917857Y-11081381D02*
X8908333Y-11100429D01*
X8908333Y-11100429D02*
X8898810Y-11109952D01*
X8898810Y-11109952D02*
X8879762Y-11119476D01*
X8879762Y-11119476D02*
X8860714Y-11119476D01*
X8860714Y-11119476D02*
X8841667Y-11109952D01*
X8841667Y-11109952D02*
X8832143Y-11100429D01*
X8832143Y-11100429D02*
X8822619Y-11081381D01*
X8822619Y-11081381D02*
X8813095Y-11043286D01*
X8813095Y-11043286D02*
X8813095Y-10995667D01*
X8813095Y-10995667D02*
X8822619Y-10957571D01*
X8822619Y-10957571D02*
X8832143Y-10938524D01*
X8832143Y-10938524D02*
X8841667Y-10929000D01*
X8841667Y-10929000D02*
X8860714Y-10919476D01*
X9013095Y-11100429D02*
X9022619Y-11109952D01*
X9022619Y-11109952D02*
X9013095Y-11119476D01*
X9013095Y-11119476D02*
X9003571Y-11109952D01*
X9003571Y-11109952D02*
X9013095Y-11100429D01*
X9013095Y-11100429D02*
X9013095Y-11119476D01*
X9194048Y-10986143D02*
X9194048Y-11119476D01*
X9146429Y-10909952D02*
X9098810Y-11052810D01*
X9098810Y-11052810D02*
X9222619Y-11052810D01*
X9336905Y-10919476D02*
X9355952Y-10919476D01*
X9355952Y-10919476D02*
X9375000Y-10929000D01*
X9375000Y-10929000D02*
X9384524Y-10938524D01*
X9384524Y-10938524D02*
X9394048Y-10957571D01*
X9394048Y-10957571D02*
X9403571Y-10995667D01*
X9403571Y-10995667D02*
X9403571Y-11043286D01*
X9403571Y-11043286D02*
X9394048Y-11081381D01*
X9394048Y-11081381D02*
X9384524Y-11100429D01*
X9384524Y-11100429D02*
X9375000Y-11109952D01*
X9375000Y-11109952D02*
X9355952Y-11119476D01*
X9355952Y-11119476D02*
X9336905Y-11119476D01*
X9336905Y-11119476D02*
X9317857Y-11109952D01*
X9317857Y-11109952D02*
X9308333Y-11100429D01*
X9308333Y-11100429D02*
X9298810Y-11081381D01*
X9298810Y-11081381D02*
X9289286Y-11043286D01*
X9289286Y-11043286D02*
X9289286Y-10995667D01*
X9289286Y-10995667D02*
X9298810Y-10957571D01*
X9298810Y-10957571D02*
X9308333Y-10938524D01*
X9308333Y-10938524D02*
X9317857Y-10929000D01*
X9317857Y-10929000D02*
X9336905Y-10919476D01*
X9527381Y-10919476D02*
X9546429Y-10919476D01*
X9546429Y-10919476D02*
X9565476Y-10929000D01*
X9565476Y-10929000D02*
X9575000Y-10938524D01*
X9575000Y-10938524D02*
X9584524Y-10957571D01*
X9584524Y-10957571D02*
X9594048Y-10995667D01*
X9594048Y-10995667D02*
X9594048Y-11043286D01*
X9594048Y-11043286D02*
X9584524Y-11081381D01*
X9584524Y-11081381D02*
X9575000Y-11100429D01*
X9575000Y-11100429D02*
X9565476Y-11109952D01*
X9565476Y-11109952D02*
X9546429Y-11119476D01*
X9546429Y-11119476D02*
X9527381Y-11119476D01*
X9527381Y-11119476D02*
X9508333Y-11109952D01*
X9508333Y-11109952D02*
X9498810Y-11100429D01*
X9498810Y-11100429D02*
X9489286Y-11081381D01*
X9489286Y-11081381D02*
X9479762Y-11043286D01*
X9479762Y-11043286D02*
X9479762Y-10995667D01*
X9479762Y-10995667D02*
X9489286Y-10957571D01*
X9489286Y-10957571D02*
X9498810Y-10938524D01*
X9498810Y-10938524D02*
X9508333Y-10929000D01*
X9508333Y-10929000D02*
X9527381Y-10919476D01*
X9679762Y-11119476D02*
X9679762Y-10986143D01*
X9679762Y-11005190D02*
X9689286Y-10995667D01*
X9689286Y-10995667D02*
X9708333Y-10986143D01*
X9708333Y-10986143D02*
X9736905Y-10986143D01*
X9736905Y-10986143D02*
X9755952Y-10995667D01*
X9755952Y-10995667D02*
X9765476Y-11014714D01*
X9765476Y-11014714D02*
X9765476Y-11119476D01*
X9765476Y-11014714D02*
X9775000Y-10995667D01*
X9775000Y-10995667D02*
X9794048Y-10986143D01*
X9794048Y-10986143D02*
X9822619Y-10986143D01*
X9822619Y-10986143D02*
X9841667Y-10995667D01*
X9841667Y-10995667D02*
X9851191Y-11014714D01*
X9851191Y-11014714D02*
X9851191Y-11119476D01*
X9946429Y-11119476D02*
X9946429Y-10986143D01*
X9946429Y-11005190D02*
X9955952Y-10995667D01*
X9955952Y-10995667D02*
X9975000Y-10986143D01*
X9975000Y-10986143D02*
X10003572Y-10986143D01*
X10003572Y-10986143D02*
X10022619Y-10995667D01*
X10022619Y-10995667D02*
X10032143Y-11014714D01*
X10032143Y-11014714D02*
X10032143Y-11119476D01*
X10032143Y-11014714D02*
X10041667Y-10995667D01*
X10041667Y-10995667D02*
X10060714Y-10986143D01*
X10060714Y-10986143D02*
X10089286Y-10986143D01*
X10089286Y-10986143D02*
X10108333Y-10995667D01*
X10108333Y-10995667D02*
X10117857Y-11014714D01*
X10117857Y-11014714D02*
X10117857Y-11119476D01*
X10475952Y-10909952D02*
X10304524Y-11167095D01*
X10700714Y-10919476D02*
X10719762Y-10919476D01*
X10719762Y-10919476D02*
X10738810Y-10929000D01*
X10738810Y-10929000D02*
X10748333Y-10938524D01*
X10748333Y-10938524D02*
X10757857Y-10957571D01*
X10757857Y-10957571D02*
X10767381Y-10995667D01*
X10767381Y-10995667D02*
X10767381Y-11043286D01*
X10767381Y-11043286D02*
X10757857Y-11081381D01*
X10757857Y-11081381D02*
X10748333Y-11100429D01*
X10748333Y-11100429D02*
X10738810Y-11109952D01*
X10738810Y-11109952D02*
X10719762Y-11119476D01*
X10719762Y-11119476D02*
X10700714Y-11119476D01*
X10700714Y-11119476D02*
X10681667Y-11109952D01*
X10681667Y-11109952D02*
X10672143Y-11100429D01*
X10672143Y-11100429D02*
X10662619Y-11081381D01*
X10662619Y-11081381D02*
X10653095Y-11043286D01*
X10653095Y-11043286D02*
X10653095Y-10995667D01*
X10653095Y-10995667D02*
X10662619Y-10957571D01*
X10662619Y-10957571D02*
X10672143Y-10938524D01*
X10672143Y-10938524D02*
X10681667Y-10929000D01*
X10681667Y-10929000D02*
X10700714Y-10919476D01*
X10853095Y-11100429D02*
X10862619Y-11109952D01*
X10862619Y-11109952D02*
X10853095Y-11119476D01*
X10853095Y-11119476D02*
X10843572Y-11109952D01*
X10843572Y-11109952D02*
X10853095Y-11100429D01*
X10853095Y-11100429D02*
X10853095Y-11119476D01*
X10986429Y-10919476D02*
X11005476Y-10919476D01*
X11005476Y-10919476D02*
X11024524Y-10929000D01*
X11024524Y-10929000D02*
X11034048Y-10938524D01*
X11034048Y-10938524D02*
X11043572Y-10957571D01*
X11043572Y-10957571D02*
X11053095Y-10995667D01*
X11053095Y-10995667D02*
X11053095Y-11043286D01*
X11053095Y-11043286D02*
X11043572Y-11081381D01*
X11043572Y-11081381D02*
X11034048Y-11100429D01*
X11034048Y-11100429D02*
X11024524Y-11109952D01*
X11024524Y-11109952D02*
X11005476Y-11119476D01*
X11005476Y-11119476D02*
X10986429Y-11119476D01*
X10986429Y-11119476D02*
X10967381Y-11109952D01*
X10967381Y-11109952D02*
X10957857Y-11100429D01*
X10957857Y-11100429D02*
X10948333Y-11081381D01*
X10948333Y-11081381D02*
X10938810Y-11043286D01*
X10938810Y-11043286D02*
X10938810Y-10995667D01*
X10938810Y-10995667D02*
X10948333Y-10957571D01*
X10948333Y-10957571D02*
X10957857Y-10938524D01*
X10957857Y-10938524D02*
X10967381Y-10929000D01*
X10967381Y-10929000D02*
X10986429Y-10919476D01*
X11243571Y-11119476D02*
X11129286Y-11119476D01*
X11186429Y-11119476D02*
X11186429Y-10919476D01*
X11186429Y-10919476D02*
X11167381Y-10948048D01*
X11167381Y-10948048D02*
X11148333Y-10967095D01*
X11148333Y-10967095D02*
X11129286Y-10976619D01*
X11424524Y-10919476D02*
X11329286Y-10919476D01*
X11329286Y-10919476D02*
X11319762Y-11014714D01*
X11319762Y-11014714D02*
X11329286Y-11005190D01*
X11329286Y-11005190D02*
X11348333Y-10995667D01*
X11348333Y-10995667D02*
X11395952Y-10995667D01*
X11395952Y-10995667D02*
X11415000Y-11005190D01*
X11415000Y-11005190D02*
X11424524Y-11014714D01*
X11424524Y-11014714D02*
X11434048Y-11033762D01*
X11434048Y-11033762D02*
X11434048Y-11081381D01*
X11434048Y-11081381D02*
X11424524Y-11100429D01*
X11424524Y-11100429D02*
X11415000Y-11109952D01*
X11415000Y-11109952D02*
X11395952Y-11119476D01*
X11395952Y-11119476D02*
X11348333Y-11119476D01*
X11348333Y-11119476D02*
X11329286Y-11109952D01*
X11329286Y-11109952D02*
X11319762Y-11100429D01*
X11500714Y-10919476D02*
X11634048Y-10919476D01*
X11634048Y-10919476D02*
X11548333Y-11119476D01*
X11700714Y-10919476D02*
X11700714Y-10957571D01*
X11776905Y-10919476D02*
X11776905Y-10957571D01*
X12039762Y-11195667D02*
X12030238Y-11186143D01*
X12030238Y-11186143D02*
X12011191Y-11157571D01*
X12011191Y-11157571D02*
X12001667Y-11138524D01*
X12001667Y-11138524D02*
X11992143Y-11109952D01*
X11992143Y-11109952D02*
X11982619Y-11062333D01*
X11982619Y-11062333D02*
X11982619Y-11024238D01*
X11982619Y-11024238D02*
X11992143Y-10976619D01*
X11992143Y-10976619D02*
X12001667Y-10948048D01*
X12001667Y-10948048D02*
X12011191Y-10929000D01*
X12011191Y-10929000D02*
X12030238Y-10900429D01*
X12030238Y-10900429D02*
X12039762Y-10890905D01*
X12106429Y-10938524D02*
X12115952Y-10929000D01*
X12115952Y-10929000D02*
X12135000Y-10919476D01*
X12135000Y-10919476D02*
X12182619Y-10919476D01*
X12182619Y-10919476D02*
X12201667Y-10929000D01*
X12201667Y-10929000D02*
X12211191Y-10938524D01*
X12211191Y-10938524D02*
X12220714Y-10957571D01*
X12220714Y-10957571D02*
X12220714Y-10976619D01*
X12220714Y-10976619D02*
X12211191Y-11005190D01*
X12211191Y-11005190D02*
X12096905Y-11119476D01*
X12096905Y-11119476D02*
X12220714Y-11119476D01*
X12287381Y-10919476D02*
X12420714Y-10919476D01*
X12420714Y-10919476D02*
X12335000Y-11119476D01*
X12616905Y-11119476D02*
X12616905Y-10919476D01*
X12702619Y-11119476D02*
X12702619Y-11014714D01*
X12702619Y-11014714D02*
X12693095Y-10995667D01*
X12693095Y-10995667D02*
X12674048Y-10986143D01*
X12674048Y-10986143D02*
X12645476Y-10986143D01*
X12645476Y-10986143D02*
X12626429Y-10995667D01*
X12626429Y-10995667D02*
X12616905Y-11005190D01*
X12826429Y-11119476D02*
X12807381Y-11109952D01*
X12807381Y-11109952D02*
X12797857Y-11100429D01*
X12797857Y-11100429D02*
X12788333Y-11081381D01*
X12788333Y-11081381D02*
X12788333Y-11024238D01*
X12788333Y-11024238D02*
X12797857Y-11005190D01*
X12797857Y-11005190D02*
X12807381Y-10995667D01*
X12807381Y-10995667D02*
X12826429Y-10986143D01*
X12826429Y-10986143D02*
X12855000Y-10986143D01*
X12855000Y-10986143D02*
X12874048Y-10995667D01*
X12874048Y-10995667D02*
X12883572Y-11005190D01*
X12883572Y-11005190D02*
X12893095Y-11024238D01*
X12893095Y-11024238D02*
X12893095Y-11081381D01*
X12893095Y-11081381D02*
X12883572Y-11100429D01*
X12883572Y-11100429D02*
X12874048Y-11109952D01*
X12874048Y-11109952D02*
X12855000Y-11119476D01*
X12855000Y-11119476D02*
X12826429Y-11119476D01*
X13007381Y-11119476D02*
X12988333Y-11109952D01*
X12988333Y-11109952D02*
X12978810Y-11090905D01*
X12978810Y-11090905D02*
X12978810Y-10919476D01*
X13159762Y-11109952D02*
X13140714Y-11119476D01*
X13140714Y-11119476D02*
X13102619Y-11119476D01*
X13102619Y-11119476D02*
X13083572Y-11109952D01*
X13083572Y-11109952D02*
X13074048Y-11090905D01*
X13074048Y-11090905D02*
X13074048Y-11014714D01*
X13074048Y-11014714D02*
X13083572Y-10995667D01*
X13083572Y-10995667D02*
X13102619Y-10986143D01*
X13102619Y-10986143D02*
X13140714Y-10986143D01*
X13140714Y-10986143D02*
X13159762Y-10995667D01*
X13159762Y-10995667D02*
X13169286Y-11014714D01*
X13169286Y-11014714D02*
X13169286Y-11033762D01*
X13169286Y-11033762D02*
X13074048Y-11052810D01*
X13245476Y-11109952D02*
X13264524Y-11119476D01*
X13264524Y-11119476D02*
X13302619Y-11119476D01*
X13302619Y-11119476D02*
X13321667Y-11109952D01*
X13321667Y-11109952D02*
X13331191Y-11090905D01*
X13331191Y-11090905D02*
X13331191Y-11081381D01*
X13331191Y-11081381D02*
X13321667Y-11062333D01*
X13321667Y-11062333D02*
X13302619Y-11052810D01*
X13302619Y-11052810D02*
X13274048Y-11052810D01*
X13274048Y-11052810D02*
X13255000Y-11043286D01*
X13255000Y-11043286D02*
X13245476Y-11024238D01*
X13245476Y-11024238D02*
X13245476Y-11014714D01*
X13245476Y-11014714D02*
X13255000Y-10995667D01*
X13255000Y-10995667D02*
X13274048Y-10986143D01*
X13274048Y-10986143D02*
X13302619Y-10986143D01*
X13302619Y-10986143D02*
X13321667Y-10995667D01*
X13397857Y-11195667D02*
X13407381Y-11186143D01*
X13407381Y-11186143D02*
X13426429Y-11157571D01*
X13426429Y-11157571D02*
X13435953Y-11138524D01*
X13435953Y-11138524D02*
X13445476Y-11109952D01*
X13445476Y-11109952D02*
X13455000Y-11062333D01*
X13455000Y-11062333D02*
X13455000Y-11024238D01*
X13455000Y-11024238D02*
X13445476Y-10976619D01*
X13445476Y-10976619D02*
X13435953Y-10948048D01*
X13435953Y-10948048D02*
X13426429Y-10929000D01*
X13426429Y-10929000D02*
X13407381Y-10900429D01*
X13407381Y-10900429D02*
X13397857Y-10890905D01*
D14*
X8535000Y-11253000D02*
X8535000Y-11333000D01*
X8495000Y-11293000D02*
X8575000Y-11293000D01*
D11*
X8860714Y-11183476D02*
X8879762Y-11183476D01*
X8879762Y-11183476D02*
X8898810Y-11193000D01*
X8898810Y-11193000D02*
X8908333Y-11202524D01*
X8908333Y-11202524D02*
X8917857Y-11221571D01*
X8917857Y-11221571D02*
X8927381Y-11259667D01*
X8927381Y-11259667D02*
X8927381Y-11307286D01*
X8927381Y-11307286D02*
X8917857Y-11345381D01*
X8917857Y-11345381D02*
X8908333Y-11364428D01*
X8908333Y-11364428D02*
X8898810Y-11373952D01*
X8898810Y-11373952D02*
X8879762Y-11383476D01*
X8879762Y-11383476D02*
X8860714Y-11383476D01*
X8860714Y-11383476D02*
X8841667Y-11373952D01*
X8841667Y-11373952D02*
X8832143Y-11364428D01*
X8832143Y-11364428D02*
X8822619Y-11345381D01*
X8822619Y-11345381D02*
X8813095Y-11307286D01*
X8813095Y-11307286D02*
X8813095Y-11259667D01*
X8813095Y-11259667D02*
X8822619Y-11221571D01*
X8822619Y-11221571D02*
X8832143Y-11202524D01*
X8832143Y-11202524D02*
X8841667Y-11193000D01*
X8841667Y-11193000D02*
X8860714Y-11183476D01*
X9013095Y-11364428D02*
X9022619Y-11373952D01*
X9022619Y-11373952D02*
X9013095Y-11383476D01*
X9013095Y-11383476D02*
X9003571Y-11373952D01*
X9003571Y-11373952D02*
X9013095Y-11364428D01*
X9013095Y-11364428D02*
X9013095Y-11383476D01*
X9136905Y-11269190D02*
X9117857Y-11259667D01*
X9117857Y-11259667D02*
X9108333Y-11250143D01*
X9108333Y-11250143D02*
X9098810Y-11231095D01*
X9098810Y-11231095D02*
X9098810Y-11221571D01*
X9098810Y-11221571D02*
X9108333Y-11202524D01*
X9108333Y-11202524D02*
X9117857Y-11193000D01*
X9117857Y-11193000D02*
X9136905Y-11183476D01*
X9136905Y-11183476D02*
X9175000Y-11183476D01*
X9175000Y-11183476D02*
X9194048Y-11193000D01*
X9194048Y-11193000D02*
X9203571Y-11202524D01*
X9203571Y-11202524D02*
X9213095Y-11221571D01*
X9213095Y-11221571D02*
X9213095Y-11231095D01*
X9213095Y-11231095D02*
X9203571Y-11250143D01*
X9203571Y-11250143D02*
X9194048Y-11259667D01*
X9194048Y-11259667D02*
X9175000Y-11269190D01*
X9175000Y-11269190D02*
X9136905Y-11269190D01*
X9136905Y-11269190D02*
X9117857Y-11278714D01*
X9117857Y-11278714D02*
X9108333Y-11288238D01*
X9108333Y-11288238D02*
X9098810Y-11307286D01*
X9098810Y-11307286D02*
X9098810Y-11345381D01*
X9098810Y-11345381D02*
X9108333Y-11364428D01*
X9108333Y-11364428D02*
X9117857Y-11373952D01*
X9117857Y-11373952D02*
X9136905Y-11383476D01*
X9136905Y-11383476D02*
X9175000Y-11383476D01*
X9175000Y-11383476D02*
X9194048Y-11373952D01*
X9194048Y-11373952D02*
X9203571Y-11364428D01*
X9203571Y-11364428D02*
X9213095Y-11345381D01*
X9213095Y-11345381D02*
X9213095Y-11307286D01*
X9213095Y-11307286D02*
X9203571Y-11288238D01*
X9203571Y-11288238D02*
X9194048Y-11278714D01*
X9194048Y-11278714D02*
X9175000Y-11269190D01*
X9336905Y-11183476D02*
X9355952Y-11183476D01*
X9355952Y-11183476D02*
X9375000Y-11193000D01*
X9375000Y-11193000D02*
X9384524Y-11202524D01*
X9384524Y-11202524D02*
X9394048Y-11221571D01*
X9394048Y-11221571D02*
X9403571Y-11259667D01*
X9403571Y-11259667D02*
X9403571Y-11307286D01*
X9403571Y-11307286D02*
X9394048Y-11345381D01*
X9394048Y-11345381D02*
X9384524Y-11364428D01*
X9384524Y-11364428D02*
X9375000Y-11373952D01*
X9375000Y-11373952D02*
X9355952Y-11383476D01*
X9355952Y-11383476D02*
X9336905Y-11383476D01*
X9336905Y-11383476D02*
X9317857Y-11373952D01*
X9317857Y-11373952D02*
X9308333Y-11364428D01*
X9308333Y-11364428D02*
X9298810Y-11345381D01*
X9298810Y-11345381D02*
X9289286Y-11307286D01*
X9289286Y-11307286D02*
X9289286Y-11259667D01*
X9289286Y-11259667D02*
X9298810Y-11221571D01*
X9298810Y-11221571D02*
X9308333Y-11202524D01*
X9308333Y-11202524D02*
X9317857Y-11193000D01*
X9317857Y-11193000D02*
X9336905Y-11183476D01*
X9527381Y-11183476D02*
X9546429Y-11183476D01*
X9546429Y-11183476D02*
X9565476Y-11193000D01*
X9565476Y-11193000D02*
X9575000Y-11202524D01*
X9575000Y-11202524D02*
X9584524Y-11221571D01*
X9584524Y-11221571D02*
X9594048Y-11259667D01*
X9594048Y-11259667D02*
X9594048Y-11307286D01*
X9594048Y-11307286D02*
X9584524Y-11345381D01*
X9584524Y-11345381D02*
X9575000Y-11364428D01*
X9575000Y-11364428D02*
X9565476Y-11373952D01*
X9565476Y-11373952D02*
X9546429Y-11383476D01*
X9546429Y-11383476D02*
X9527381Y-11383476D01*
X9527381Y-11383476D02*
X9508333Y-11373952D01*
X9508333Y-11373952D02*
X9498810Y-11364428D01*
X9498810Y-11364428D02*
X9489286Y-11345381D01*
X9489286Y-11345381D02*
X9479762Y-11307286D01*
X9479762Y-11307286D02*
X9479762Y-11259667D01*
X9479762Y-11259667D02*
X9489286Y-11221571D01*
X9489286Y-11221571D02*
X9498810Y-11202524D01*
X9498810Y-11202524D02*
X9508333Y-11193000D01*
X9508333Y-11193000D02*
X9527381Y-11183476D01*
X9679762Y-11383476D02*
X9679762Y-11250143D01*
X9679762Y-11269190D02*
X9689286Y-11259667D01*
X9689286Y-11259667D02*
X9708333Y-11250143D01*
X9708333Y-11250143D02*
X9736905Y-11250143D01*
X9736905Y-11250143D02*
X9755952Y-11259667D01*
X9755952Y-11259667D02*
X9765476Y-11278714D01*
X9765476Y-11278714D02*
X9765476Y-11383476D01*
X9765476Y-11278714D02*
X9775000Y-11259667D01*
X9775000Y-11259667D02*
X9794048Y-11250143D01*
X9794048Y-11250143D02*
X9822619Y-11250143D01*
X9822619Y-11250143D02*
X9841667Y-11259667D01*
X9841667Y-11259667D02*
X9851191Y-11278714D01*
X9851191Y-11278714D02*
X9851191Y-11383476D01*
X9946429Y-11383476D02*
X9946429Y-11250143D01*
X9946429Y-11269190D02*
X9955952Y-11259667D01*
X9955952Y-11259667D02*
X9975000Y-11250143D01*
X9975000Y-11250143D02*
X10003572Y-11250143D01*
X10003572Y-11250143D02*
X10022619Y-11259667D01*
X10022619Y-11259667D02*
X10032143Y-11278714D01*
X10032143Y-11278714D02*
X10032143Y-11383476D01*
X10032143Y-11278714D02*
X10041667Y-11259667D01*
X10041667Y-11259667D02*
X10060714Y-11250143D01*
X10060714Y-11250143D02*
X10089286Y-11250143D01*
X10089286Y-11250143D02*
X10108333Y-11259667D01*
X10108333Y-11259667D02*
X10117857Y-11278714D01*
X10117857Y-11278714D02*
X10117857Y-11383476D01*
X10475952Y-11173952D02*
X10304524Y-11431095D01*
X10700714Y-11183476D02*
X10719762Y-11183476D01*
X10719762Y-11183476D02*
X10738810Y-11193000D01*
X10738810Y-11193000D02*
X10748333Y-11202524D01*
X10748333Y-11202524D02*
X10757857Y-11221571D01*
X10757857Y-11221571D02*
X10767381Y-11259667D01*
X10767381Y-11259667D02*
X10767381Y-11307286D01*
X10767381Y-11307286D02*
X10757857Y-11345381D01*
X10757857Y-11345381D02*
X10748333Y-11364428D01*
X10748333Y-11364428D02*
X10738810Y-11373952D01*
X10738810Y-11373952D02*
X10719762Y-11383476D01*
X10719762Y-11383476D02*
X10700714Y-11383476D01*
X10700714Y-11383476D02*
X10681667Y-11373952D01*
X10681667Y-11373952D02*
X10672143Y-11364428D01*
X10672143Y-11364428D02*
X10662619Y-11345381D01*
X10662619Y-11345381D02*
X10653095Y-11307286D01*
X10653095Y-11307286D02*
X10653095Y-11259667D01*
X10653095Y-11259667D02*
X10662619Y-11221571D01*
X10662619Y-11221571D02*
X10672143Y-11202524D01*
X10672143Y-11202524D02*
X10681667Y-11193000D01*
X10681667Y-11193000D02*
X10700714Y-11183476D01*
X10853095Y-11364428D02*
X10862619Y-11373952D01*
X10862619Y-11373952D02*
X10853095Y-11383476D01*
X10853095Y-11383476D02*
X10843572Y-11373952D01*
X10843572Y-11373952D02*
X10853095Y-11364428D01*
X10853095Y-11364428D02*
X10853095Y-11383476D01*
X10986429Y-11183476D02*
X11005476Y-11183476D01*
X11005476Y-11183476D02*
X11024524Y-11193000D01*
X11024524Y-11193000D02*
X11034048Y-11202524D01*
X11034048Y-11202524D02*
X11043572Y-11221571D01*
X11043572Y-11221571D02*
X11053095Y-11259667D01*
X11053095Y-11259667D02*
X11053095Y-11307286D01*
X11053095Y-11307286D02*
X11043572Y-11345381D01*
X11043572Y-11345381D02*
X11034048Y-11364428D01*
X11034048Y-11364428D02*
X11024524Y-11373952D01*
X11024524Y-11373952D02*
X11005476Y-11383476D01*
X11005476Y-11383476D02*
X10986429Y-11383476D01*
X10986429Y-11383476D02*
X10967381Y-11373952D01*
X10967381Y-11373952D02*
X10957857Y-11364428D01*
X10957857Y-11364428D02*
X10948333Y-11345381D01*
X10948333Y-11345381D02*
X10938810Y-11307286D01*
X10938810Y-11307286D02*
X10938810Y-11259667D01*
X10938810Y-11259667D02*
X10948333Y-11221571D01*
X10948333Y-11221571D02*
X10957857Y-11202524D01*
X10957857Y-11202524D02*
X10967381Y-11193000D01*
X10967381Y-11193000D02*
X10986429Y-11183476D01*
X11119762Y-11183476D02*
X11243571Y-11183476D01*
X11243571Y-11183476D02*
X11176905Y-11259667D01*
X11176905Y-11259667D02*
X11205476Y-11259667D01*
X11205476Y-11259667D02*
X11224524Y-11269190D01*
X11224524Y-11269190D02*
X11234048Y-11278714D01*
X11234048Y-11278714D02*
X11243571Y-11297762D01*
X11243571Y-11297762D02*
X11243571Y-11345381D01*
X11243571Y-11345381D02*
X11234048Y-11364428D01*
X11234048Y-11364428D02*
X11224524Y-11373952D01*
X11224524Y-11373952D02*
X11205476Y-11383476D01*
X11205476Y-11383476D02*
X11148333Y-11383476D01*
X11148333Y-11383476D02*
X11129286Y-11373952D01*
X11129286Y-11373952D02*
X11119762Y-11364428D01*
X11434048Y-11383476D02*
X11319762Y-11383476D01*
X11376905Y-11383476D02*
X11376905Y-11183476D01*
X11376905Y-11183476D02*
X11357857Y-11212048D01*
X11357857Y-11212048D02*
X11338810Y-11231095D01*
X11338810Y-11231095D02*
X11319762Y-11240619D01*
X11615000Y-11183476D02*
X11519762Y-11183476D01*
X11519762Y-11183476D02*
X11510238Y-11278714D01*
X11510238Y-11278714D02*
X11519762Y-11269190D01*
X11519762Y-11269190D02*
X11538810Y-11259667D01*
X11538810Y-11259667D02*
X11586429Y-11259667D01*
X11586429Y-11259667D02*
X11605476Y-11269190D01*
X11605476Y-11269190D02*
X11615000Y-11278714D01*
X11615000Y-11278714D02*
X11624524Y-11297762D01*
X11624524Y-11297762D02*
X11624524Y-11345381D01*
X11624524Y-11345381D02*
X11615000Y-11364428D01*
X11615000Y-11364428D02*
X11605476Y-11373952D01*
X11605476Y-11373952D02*
X11586429Y-11383476D01*
X11586429Y-11383476D02*
X11538810Y-11383476D01*
X11538810Y-11383476D02*
X11519762Y-11373952D01*
X11519762Y-11373952D02*
X11510238Y-11364428D01*
X11700714Y-11183476D02*
X11700714Y-11221571D01*
X11776905Y-11183476D02*
X11776905Y-11221571D01*
X12039762Y-11459667D02*
X12030238Y-11450143D01*
X12030238Y-11450143D02*
X12011191Y-11421571D01*
X12011191Y-11421571D02*
X12001667Y-11402524D01*
X12001667Y-11402524D02*
X11992143Y-11373952D01*
X11992143Y-11373952D02*
X11982619Y-11326333D01*
X11982619Y-11326333D02*
X11982619Y-11288238D01*
X11982619Y-11288238D02*
X11992143Y-11240619D01*
X11992143Y-11240619D02*
X12001667Y-11212048D01*
X12001667Y-11212048D02*
X12011191Y-11193000D01*
X12011191Y-11193000D02*
X12030238Y-11164429D01*
X12030238Y-11164429D02*
X12039762Y-11154905D01*
X12144524Y-11269190D02*
X12125476Y-11259667D01*
X12125476Y-11259667D02*
X12115952Y-11250143D01*
X12115952Y-11250143D02*
X12106429Y-11231095D01*
X12106429Y-11231095D02*
X12106429Y-11221571D01*
X12106429Y-11221571D02*
X12115952Y-11202524D01*
X12115952Y-11202524D02*
X12125476Y-11193000D01*
X12125476Y-11193000D02*
X12144524Y-11183476D01*
X12144524Y-11183476D02*
X12182619Y-11183476D01*
X12182619Y-11183476D02*
X12201667Y-11193000D01*
X12201667Y-11193000D02*
X12211191Y-11202524D01*
X12211191Y-11202524D02*
X12220714Y-11221571D01*
X12220714Y-11221571D02*
X12220714Y-11231095D01*
X12220714Y-11231095D02*
X12211191Y-11250143D01*
X12211191Y-11250143D02*
X12201667Y-11259667D01*
X12201667Y-11259667D02*
X12182619Y-11269190D01*
X12182619Y-11269190D02*
X12144524Y-11269190D01*
X12144524Y-11269190D02*
X12125476Y-11278714D01*
X12125476Y-11278714D02*
X12115952Y-11288238D01*
X12115952Y-11288238D02*
X12106429Y-11307286D01*
X12106429Y-11307286D02*
X12106429Y-11345381D01*
X12106429Y-11345381D02*
X12115952Y-11364428D01*
X12115952Y-11364428D02*
X12125476Y-11373952D01*
X12125476Y-11373952D02*
X12144524Y-11383476D01*
X12144524Y-11383476D02*
X12182619Y-11383476D01*
X12182619Y-11383476D02*
X12201667Y-11373952D01*
X12201667Y-11373952D02*
X12211191Y-11364428D01*
X12211191Y-11364428D02*
X12220714Y-11345381D01*
X12220714Y-11345381D02*
X12220714Y-11307286D01*
X12220714Y-11307286D02*
X12211191Y-11288238D01*
X12211191Y-11288238D02*
X12201667Y-11278714D01*
X12201667Y-11278714D02*
X12182619Y-11269190D01*
X12426429Y-11383476D02*
X12426429Y-11183476D01*
X12512143Y-11383476D02*
X12512143Y-11278714D01*
X12512143Y-11278714D02*
X12502619Y-11259667D01*
X12502619Y-11259667D02*
X12483572Y-11250143D01*
X12483572Y-11250143D02*
X12455000Y-11250143D01*
X12455000Y-11250143D02*
X12435952Y-11259667D01*
X12435952Y-11259667D02*
X12426429Y-11269190D01*
X12635952Y-11383476D02*
X12616905Y-11373952D01*
X12616905Y-11373952D02*
X12607381Y-11364428D01*
X12607381Y-11364428D02*
X12597857Y-11345381D01*
X12597857Y-11345381D02*
X12597857Y-11288238D01*
X12597857Y-11288238D02*
X12607381Y-11269190D01*
X12607381Y-11269190D02*
X12616905Y-11259667D01*
X12616905Y-11259667D02*
X12635952Y-11250143D01*
X12635952Y-11250143D02*
X12664524Y-11250143D01*
X12664524Y-11250143D02*
X12683572Y-11259667D01*
X12683572Y-11259667D02*
X12693095Y-11269190D01*
X12693095Y-11269190D02*
X12702619Y-11288238D01*
X12702619Y-11288238D02*
X12702619Y-11345381D01*
X12702619Y-11345381D02*
X12693095Y-11364428D01*
X12693095Y-11364428D02*
X12683572Y-11373952D01*
X12683572Y-11373952D02*
X12664524Y-11383476D01*
X12664524Y-11383476D02*
X12635952Y-11383476D01*
X12816905Y-11383476D02*
X12797857Y-11373952D01*
X12797857Y-11373952D02*
X12788333Y-11354905D01*
X12788333Y-11354905D02*
X12788333Y-11183476D01*
X12969286Y-11373952D02*
X12950238Y-11383476D01*
X12950238Y-11383476D02*
X12912143Y-11383476D01*
X12912143Y-11383476D02*
X12893095Y-11373952D01*
X12893095Y-11373952D02*
X12883572Y-11354905D01*
X12883572Y-11354905D02*
X12883572Y-11278714D01*
X12883572Y-11278714D02*
X12893095Y-11259667D01*
X12893095Y-11259667D02*
X12912143Y-11250143D01*
X12912143Y-11250143D02*
X12950238Y-11250143D01*
X12950238Y-11250143D02*
X12969286Y-11259667D01*
X12969286Y-11259667D02*
X12978810Y-11278714D01*
X12978810Y-11278714D02*
X12978810Y-11297762D01*
X12978810Y-11297762D02*
X12883572Y-11316809D01*
X13055000Y-11373952D02*
X13074048Y-11383476D01*
X13074048Y-11383476D02*
X13112143Y-11383476D01*
X13112143Y-11383476D02*
X13131191Y-11373952D01*
X13131191Y-11373952D02*
X13140714Y-11354905D01*
X13140714Y-11354905D02*
X13140714Y-11345381D01*
X13140714Y-11345381D02*
X13131191Y-11326333D01*
X13131191Y-11326333D02*
X13112143Y-11316809D01*
X13112143Y-11316809D02*
X13083572Y-11316809D01*
X13083572Y-11316809D02*
X13064524Y-11307286D01*
X13064524Y-11307286D02*
X13055000Y-11288238D01*
X13055000Y-11288238D02*
X13055000Y-11278714D01*
X13055000Y-11278714D02*
X13064524Y-11259667D01*
X13064524Y-11259667D02*
X13083572Y-11250143D01*
X13083572Y-11250143D02*
X13112143Y-11250143D01*
X13112143Y-11250143D02*
X13131191Y-11259667D01*
X13207381Y-11459667D02*
X13216905Y-11450143D01*
X13216905Y-11450143D02*
X13235953Y-11421571D01*
X13235953Y-11421571D02*
X13245476Y-11402524D01*
X13245476Y-11402524D02*
X13255000Y-11373952D01*
X13255000Y-11373952D02*
X13264524Y-11326333D01*
X13264524Y-11326333D02*
X13264524Y-11288238D01*
X13264524Y-11288238D02*
X13255000Y-11240619D01*
X13255000Y-11240619D02*
X13245476Y-11212048D01*
X13245476Y-11212048D02*
X13235953Y-11193000D01*
X13235953Y-11193000D02*
X13216905Y-11164429D01*
X13216905Y-11164429D02*
X13207381Y-11154905D01*
D15*
X8560356Y-11592356D02*
X8560356Y-11521644D01*
X8489644Y-11521644D01*
X8489644Y-11592356D01*
X8560356Y-11592356D01*
D11*
X8927381Y-11647476D02*
X8813095Y-11647476D01*
X8870238Y-11647476D02*
X8870238Y-11447476D01*
X8870238Y-11447476D02*
X8851190Y-11476048D01*
X8851190Y-11476048D02*
X8832143Y-11495095D01*
X8832143Y-11495095D02*
X8813095Y-11504619D01*
X9013095Y-11628428D02*
X9022619Y-11637952D01*
X9022619Y-11637952D02*
X9013095Y-11647476D01*
X9013095Y-11647476D02*
X9003571Y-11637952D01*
X9003571Y-11637952D02*
X9013095Y-11628428D01*
X9013095Y-11628428D02*
X9013095Y-11647476D01*
X9146429Y-11447476D02*
X9165476Y-11447476D01*
X9165476Y-11447476D02*
X9184524Y-11457000D01*
X9184524Y-11457000D02*
X9194048Y-11466524D01*
X9194048Y-11466524D02*
X9203571Y-11485571D01*
X9203571Y-11485571D02*
X9213095Y-11523667D01*
X9213095Y-11523667D02*
X9213095Y-11571286D01*
X9213095Y-11571286D02*
X9203571Y-11609381D01*
X9203571Y-11609381D02*
X9194048Y-11628428D01*
X9194048Y-11628428D02*
X9184524Y-11637952D01*
X9184524Y-11637952D02*
X9165476Y-11647476D01*
X9165476Y-11647476D02*
X9146429Y-11647476D01*
X9146429Y-11647476D02*
X9127381Y-11637952D01*
X9127381Y-11637952D02*
X9117857Y-11628428D01*
X9117857Y-11628428D02*
X9108333Y-11609381D01*
X9108333Y-11609381D02*
X9098810Y-11571286D01*
X9098810Y-11571286D02*
X9098810Y-11523667D01*
X9098810Y-11523667D02*
X9108333Y-11485571D01*
X9108333Y-11485571D02*
X9117857Y-11466524D01*
X9117857Y-11466524D02*
X9127381Y-11457000D01*
X9127381Y-11457000D02*
X9146429Y-11447476D01*
X9336905Y-11447476D02*
X9355952Y-11447476D01*
X9355952Y-11447476D02*
X9375000Y-11457000D01*
X9375000Y-11457000D02*
X9384524Y-11466524D01*
X9384524Y-11466524D02*
X9394048Y-11485571D01*
X9394048Y-11485571D02*
X9403571Y-11523667D01*
X9403571Y-11523667D02*
X9403571Y-11571286D01*
X9403571Y-11571286D02*
X9394048Y-11609381D01*
X9394048Y-11609381D02*
X9384524Y-11628428D01*
X9384524Y-11628428D02*
X9375000Y-11637952D01*
X9375000Y-11637952D02*
X9355952Y-11647476D01*
X9355952Y-11647476D02*
X9336905Y-11647476D01*
X9336905Y-11647476D02*
X9317857Y-11637952D01*
X9317857Y-11637952D02*
X9308333Y-11628428D01*
X9308333Y-11628428D02*
X9298810Y-11609381D01*
X9298810Y-11609381D02*
X9289286Y-11571286D01*
X9289286Y-11571286D02*
X9289286Y-11523667D01*
X9289286Y-11523667D02*
X9298810Y-11485571D01*
X9298810Y-11485571D02*
X9308333Y-11466524D01*
X9308333Y-11466524D02*
X9317857Y-11457000D01*
X9317857Y-11457000D02*
X9336905Y-11447476D01*
X9527381Y-11447476D02*
X9546429Y-11447476D01*
X9546429Y-11447476D02*
X9565476Y-11457000D01*
X9565476Y-11457000D02*
X9575000Y-11466524D01*
X9575000Y-11466524D02*
X9584524Y-11485571D01*
X9584524Y-11485571D02*
X9594048Y-11523667D01*
X9594048Y-11523667D02*
X9594048Y-11571286D01*
X9594048Y-11571286D02*
X9584524Y-11609381D01*
X9584524Y-11609381D02*
X9575000Y-11628428D01*
X9575000Y-11628428D02*
X9565476Y-11637952D01*
X9565476Y-11637952D02*
X9546429Y-11647476D01*
X9546429Y-11647476D02*
X9527381Y-11647476D01*
X9527381Y-11647476D02*
X9508333Y-11637952D01*
X9508333Y-11637952D02*
X9498810Y-11628428D01*
X9498810Y-11628428D02*
X9489286Y-11609381D01*
X9489286Y-11609381D02*
X9479762Y-11571286D01*
X9479762Y-11571286D02*
X9479762Y-11523667D01*
X9479762Y-11523667D02*
X9489286Y-11485571D01*
X9489286Y-11485571D02*
X9498810Y-11466524D01*
X9498810Y-11466524D02*
X9508333Y-11457000D01*
X9508333Y-11457000D02*
X9527381Y-11447476D01*
X9679762Y-11647476D02*
X9679762Y-11514143D01*
X9679762Y-11533190D02*
X9689286Y-11523667D01*
X9689286Y-11523667D02*
X9708333Y-11514143D01*
X9708333Y-11514143D02*
X9736905Y-11514143D01*
X9736905Y-11514143D02*
X9755952Y-11523667D01*
X9755952Y-11523667D02*
X9765476Y-11542714D01*
X9765476Y-11542714D02*
X9765476Y-11647476D01*
X9765476Y-11542714D02*
X9775000Y-11523667D01*
X9775000Y-11523667D02*
X9794048Y-11514143D01*
X9794048Y-11514143D02*
X9822619Y-11514143D01*
X9822619Y-11514143D02*
X9841667Y-11523667D01*
X9841667Y-11523667D02*
X9851191Y-11542714D01*
X9851191Y-11542714D02*
X9851191Y-11647476D01*
X9946429Y-11647476D02*
X9946429Y-11514143D01*
X9946429Y-11533190D02*
X9955952Y-11523667D01*
X9955952Y-11523667D02*
X9975000Y-11514143D01*
X9975000Y-11514143D02*
X10003572Y-11514143D01*
X10003572Y-11514143D02*
X10022619Y-11523667D01*
X10022619Y-11523667D02*
X10032143Y-11542714D01*
X10032143Y-11542714D02*
X10032143Y-11647476D01*
X10032143Y-11542714D02*
X10041667Y-11523667D01*
X10041667Y-11523667D02*
X10060714Y-11514143D01*
X10060714Y-11514143D02*
X10089286Y-11514143D01*
X10089286Y-11514143D02*
X10108333Y-11523667D01*
X10108333Y-11523667D02*
X10117857Y-11542714D01*
X10117857Y-11542714D02*
X10117857Y-11647476D01*
X10475952Y-11437952D02*
X10304524Y-11695095D01*
X10700714Y-11447476D02*
X10719762Y-11447476D01*
X10719762Y-11447476D02*
X10738810Y-11457000D01*
X10738810Y-11457000D02*
X10748333Y-11466524D01*
X10748333Y-11466524D02*
X10757857Y-11485571D01*
X10757857Y-11485571D02*
X10767381Y-11523667D01*
X10767381Y-11523667D02*
X10767381Y-11571286D01*
X10767381Y-11571286D02*
X10757857Y-11609381D01*
X10757857Y-11609381D02*
X10748333Y-11628428D01*
X10748333Y-11628428D02*
X10738810Y-11637952D01*
X10738810Y-11637952D02*
X10719762Y-11647476D01*
X10719762Y-11647476D02*
X10700714Y-11647476D01*
X10700714Y-11647476D02*
X10681667Y-11637952D01*
X10681667Y-11637952D02*
X10672143Y-11628428D01*
X10672143Y-11628428D02*
X10662619Y-11609381D01*
X10662619Y-11609381D02*
X10653095Y-11571286D01*
X10653095Y-11571286D02*
X10653095Y-11523667D01*
X10653095Y-11523667D02*
X10662619Y-11485571D01*
X10662619Y-11485571D02*
X10672143Y-11466524D01*
X10672143Y-11466524D02*
X10681667Y-11457000D01*
X10681667Y-11457000D02*
X10700714Y-11447476D01*
X10853095Y-11628428D02*
X10862619Y-11637952D01*
X10862619Y-11637952D02*
X10853095Y-11647476D01*
X10853095Y-11647476D02*
X10843572Y-11637952D01*
X10843572Y-11637952D02*
X10853095Y-11628428D01*
X10853095Y-11628428D02*
X10853095Y-11647476D01*
X10986429Y-11447476D02*
X11005476Y-11447476D01*
X11005476Y-11447476D02*
X11024524Y-11457000D01*
X11024524Y-11457000D02*
X11034048Y-11466524D01*
X11034048Y-11466524D02*
X11043572Y-11485571D01*
X11043572Y-11485571D02*
X11053095Y-11523667D01*
X11053095Y-11523667D02*
X11053095Y-11571286D01*
X11053095Y-11571286D02*
X11043572Y-11609381D01*
X11043572Y-11609381D02*
X11034048Y-11628428D01*
X11034048Y-11628428D02*
X11024524Y-11637952D01*
X11024524Y-11637952D02*
X11005476Y-11647476D01*
X11005476Y-11647476D02*
X10986429Y-11647476D01*
X10986429Y-11647476D02*
X10967381Y-11637952D01*
X10967381Y-11637952D02*
X10957857Y-11628428D01*
X10957857Y-11628428D02*
X10948333Y-11609381D01*
X10948333Y-11609381D02*
X10938810Y-11571286D01*
X10938810Y-11571286D02*
X10938810Y-11523667D01*
X10938810Y-11523667D02*
X10948333Y-11485571D01*
X10948333Y-11485571D02*
X10957857Y-11466524D01*
X10957857Y-11466524D02*
X10967381Y-11457000D01*
X10967381Y-11457000D02*
X10986429Y-11447476D01*
X11119762Y-11447476D02*
X11243571Y-11447476D01*
X11243571Y-11447476D02*
X11176905Y-11523667D01*
X11176905Y-11523667D02*
X11205476Y-11523667D01*
X11205476Y-11523667D02*
X11224524Y-11533190D01*
X11224524Y-11533190D02*
X11234048Y-11542714D01*
X11234048Y-11542714D02*
X11243571Y-11561762D01*
X11243571Y-11561762D02*
X11243571Y-11609381D01*
X11243571Y-11609381D02*
X11234048Y-11628428D01*
X11234048Y-11628428D02*
X11224524Y-11637952D01*
X11224524Y-11637952D02*
X11205476Y-11647476D01*
X11205476Y-11647476D02*
X11148333Y-11647476D01*
X11148333Y-11647476D02*
X11129286Y-11637952D01*
X11129286Y-11637952D02*
X11119762Y-11628428D01*
X11338810Y-11647476D02*
X11376905Y-11647476D01*
X11376905Y-11647476D02*
X11395952Y-11637952D01*
X11395952Y-11637952D02*
X11405476Y-11628428D01*
X11405476Y-11628428D02*
X11424524Y-11599857D01*
X11424524Y-11599857D02*
X11434048Y-11561762D01*
X11434048Y-11561762D02*
X11434048Y-11485571D01*
X11434048Y-11485571D02*
X11424524Y-11466524D01*
X11424524Y-11466524D02*
X11415000Y-11457000D01*
X11415000Y-11457000D02*
X11395952Y-11447476D01*
X11395952Y-11447476D02*
X11357857Y-11447476D01*
X11357857Y-11447476D02*
X11338810Y-11457000D01*
X11338810Y-11457000D02*
X11329286Y-11466524D01*
X11329286Y-11466524D02*
X11319762Y-11485571D01*
X11319762Y-11485571D02*
X11319762Y-11533190D01*
X11319762Y-11533190D02*
X11329286Y-11552238D01*
X11329286Y-11552238D02*
X11338810Y-11561762D01*
X11338810Y-11561762D02*
X11357857Y-11571286D01*
X11357857Y-11571286D02*
X11395952Y-11571286D01*
X11395952Y-11571286D02*
X11415000Y-11561762D01*
X11415000Y-11561762D02*
X11424524Y-11552238D01*
X11424524Y-11552238D02*
X11434048Y-11533190D01*
X11605476Y-11514143D02*
X11605476Y-11647476D01*
X11557857Y-11437952D02*
X11510238Y-11580809D01*
X11510238Y-11580809D02*
X11634048Y-11580809D01*
X11700714Y-11447476D02*
X11700714Y-11485571D01*
X11776905Y-11447476D02*
X11776905Y-11485571D01*
X12039762Y-11723667D02*
X12030238Y-11714143D01*
X12030238Y-11714143D02*
X12011191Y-11685571D01*
X12011191Y-11685571D02*
X12001667Y-11666524D01*
X12001667Y-11666524D02*
X11992143Y-11637952D01*
X11992143Y-11637952D02*
X11982619Y-11590333D01*
X11982619Y-11590333D02*
X11982619Y-11552238D01*
X11982619Y-11552238D02*
X11992143Y-11504619D01*
X11992143Y-11504619D02*
X12001667Y-11476048D01*
X12001667Y-11476048D02*
X12011191Y-11457000D01*
X12011191Y-11457000D02*
X12030238Y-11428428D01*
X12030238Y-11428428D02*
X12039762Y-11418905D01*
X12096905Y-11447476D02*
X12220714Y-11447476D01*
X12220714Y-11447476D02*
X12154048Y-11523667D01*
X12154048Y-11523667D02*
X12182619Y-11523667D01*
X12182619Y-11523667D02*
X12201667Y-11533190D01*
X12201667Y-11533190D02*
X12211191Y-11542714D01*
X12211191Y-11542714D02*
X12220714Y-11561762D01*
X12220714Y-11561762D02*
X12220714Y-11609381D01*
X12220714Y-11609381D02*
X12211191Y-11628428D01*
X12211191Y-11628428D02*
X12201667Y-11637952D01*
X12201667Y-11637952D02*
X12182619Y-11647476D01*
X12182619Y-11647476D02*
X12125476Y-11647476D01*
X12125476Y-11647476D02*
X12106429Y-11637952D01*
X12106429Y-11637952D02*
X12096905Y-11628428D01*
X12426429Y-11647476D02*
X12426429Y-11447476D01*
X12512143Y-11647476D02*
X12512143Y-11542714D01*
X12512143Y-11542714D02*
X12502619Y-11523667D01*
X12502619Y-11523667D02*
X12483572Y-11514143D01*
X12483572Y-11514143D02*
X12455000Y-11514143D01*
X12455000Y-11514143D02*
X12435952Y-11523667D01*
X12435952Y-11523667D02*
X12426429Y-11533190D01*
X12635952Y-11647476D02*
X12616905Y-11637952D01*
X12616905Y-11637952D02*
X12607381Y-11628428D01*
X12607381Y-11628428D02*
X12597857Y-11609381D01*
X12597857Y-11609381D02*
X12597857Y-11552238D01*
X12597857Y-11552238D02*
X12607381Y-11533190D01*
X12607381Y-11533190D02*
X12616905Y-11523667D01*
X12616905Y-11523667D02*
X12635952Y-11514143D01*
X12635952Y-11514143D02*
X12664524Y-11514143D01*
X12664524Y-11514143D02*
X12683572Y-11523667D01*
X12683572Y-11523667D02*
X12693095Y-11533190D01*
X12693095Y-11533190D02*
X12702619Y-11552238D01*
X12702619Y-11552238D02*
X12702619Y-11609381D01*
X12702619Y-11609381D02*
X12693095Y-11628428D01*
X12693095Y-11628428D02*
X12683572Y-11637952D01*
X12683572Y-11637952D02*
X12664524Y-11647476D01*
X12664524Y-11647476D02*
X12635952Y-11647476D01*
X12816905Y-11647476D02*
X12797857Y-11637952D01*
X12797857Y-11637952D02*
X12788333Y-11618905D01*
X12788333Y-11618905D02*
X12788333Y-11447476D01*
X12969286Y-11637952D02*
X12950238Y-11647476D01*
X12950238Y-11647476D02*
X12912143Y-11647476D01*
X12912143Y-11647476D02*
X12893095Y-11637952D01*
X12893095Y-11637952D02*
X12883572Y-11618905D01*
X12883572Y-11618905D02*
X12883572Y-11542714D01*
X12883572Y-11542714D02*
X12893095Y-11523667D01*
X12893095Y-11523667D02*
X12912143Y-11514143D01*
X12912143Y-11514143D02*
X12950238Y-11514143D01*
X12950238Y-11514143D02*
X12969286Y-11523667D01*
X12969286Y-11523667D02*
X12978810Y-11542714D01*
X12978810Y-11542714D02*
X12978810Y-11561762D01*
X12978810Y-11561762D02*
X12883572Y-11580809D01*
X13055000Y-11637952D02*
X13074048Y-11647476D01*
X13074048Y-11647476D02*
X13112143Y-11647476D01*
X13112143Y-11647476D02*
X13131191Y-11637952D01*
X13131191Y-11637952D02*
X13140714Y-11618905D01*
X13140714Y-11618905D02*
X13140714Y-11609381D01*
X13140714Y-11609381D02*
X13131191Y-11590333D01*
X13131191Y-11590333D02*
X13112143Y-11580809D01*
X13112143Y-11580809D02*
X13083572Y-11580809D01*
X13083572Y-11580809D02*
X13064524Y-11571286D01*
X13064524Y-11571286D02*
X13055000Y-11552238D01*
X13055000Y-11552238D02*
X13055000Y-11542714D01*
X13055000Y-11542714D02*
X13064524Y-11523667D01*
X13064524Y-11523667D02*
X13083572Y-11514143D01*
X13083572Y-11514143D02*
X13112143Y-11514143D01*
X13112143Y-11514143D02*
X13131191Y-11523667D01*
X13207381Y-11723667D02*
X13216905Y-11714143D01*
X13216905Y-11714143D02*
X13235953Y-11685571D01*
X13235953Y-11685571D02*
X13245476Y-11666524D01*
X13245476Y-11666524D02*
X13255000Y-11637952D01*
X13255000Y-11637952D02*
X13264524Y-11590333D01*
X13264524Y-11590333D02*
X13264524Y-11552238D01*
X13264524Y-11552238D02*
X13255000Y-11504619D01*
X13255000Y-11504619D02*
X13245476Y-11476048D01*
X13245476Y-11476048D02*
X13235953Y-11457000D01*
X13235953Y-11457000D02*
X13216905Y-11428428D01*
X13216905Y-11428428D02*
X13207381Y-11418905D01*
M02*
