G04 #@! TF.GenerationSoftware,KiCad,Pcbnew,6.99.0-unknown-455e330f3b~148~ubuntu20.04.1*
G04 #@! TF.CreationDate,2022-04-23T09:38:12+05:30*
G04 #@! TF.ProjectId,aptx_headset,61707478-5f68-4656-9164-7365742e6b69,rev?*
G04 #@! TF.SameCoordinates,Original*
G04 #@! TF.FileFunction,Legend,Bot*
G04 #@! TF.FilePolarity,Positive*
%FSLAX46Y46*%
G04 Gerber Fmt 4.6, Leading zero omitted, Abs format (unit mm)*
G04 Created by KiCad (PCBNEW 6.99.0-unknown-455e330f3b~148~ubuntu20.04.1) date 2022-04-23 09:38:12*
%MOMM*%
%LPD*%
G01*
G04 APERTURE LIST*
G04 Aperture macros list*
%AMRoundRect*
0 Rectangle with rounded corners*
0 $1 Rounding radius*
0 $2 $3 $4 $5 $6 $7 $8 $9 X,Y pos of 4 corners*
0 Add a 4 corners polygon primitive as box body*
4,1,4,$2,$3,$4,$5,$6,$7,$8,$9,$2,$3,0*
0 Add four circle primitives for the rounded corners*
1,1,$1+$1,$2,$3*
1,1,$1+$1,$4,$5*
1,1,$1+$1,$6,$7*
1,1,$1+$1,$8,$9*
0 Add four rect primitives between the rounded corners*
20,1,$1+$1,$2,$3,$4,$5,0*
20,1,$1+$1,$4,$5,$6,$7,0*
20,1,$1+$1,$6,$7,$8,$9,0*
20,1,$1+$1,$8,$9,$2,$3,0*%
G04 Aperture macros list end*
%ADD10C,0.150000*%
%ADD11C,0.120000*%
%ADD12RoundRect,0.500000X-0.500000X-0.500000X0.500000X-0.500000X0.500000X0.500000X-0.500000X0.500000X0*%
%ADD13C,1.500000*%
%ADD14C,1.600000*%
%ADD15R,1.700000X1.700000*%
%ADD16O,1.700000X1.700000*%
%ADD17RoundRect,0.237500X-0.300000X-0.237500X0.300000X-0.237500X0.300000X0.237500X-0.300000X0.237500X0*%
%ADD18RoundRect,0.237500X-0.250000X-0.237500X0.250000X-0.237500X0.250000X0.237500X-0.250000X0.237500X0*%
%ADD19RoundRect,0.150000X0.825000X0.150000X-0.825000X0.150000X-0.825000X-0.150000X0.825000X-0.150000X0*%
%ADD20RoundRect,0.237500X-0.237500X0.250000X-0.237500X-0.250000X0.237500X-0.250000X0.237500X0.250000X0*%
%ADD21RoundRect,0.150000X-0.825000X-0.150000X0.825000X-0.150000X0.825000X0.150000X-0.825000X0.150000X0*%
%ADD22RoundRect,0.249999X-0.450001X-1.425001X0.450001X-1.425001X0.450001X1.425001X-0.450001X1.425001X0*%
%ADD23RoundRect,0.237500X0.237500X-0.300000X0.237500X0.300000X-0.237500X0.300000X-0.237500X-0.300000X0*%
%ADD24RoundRect,0.237500X-0.237500X0.300000X-0.237500X-0.300000X0.237500X-0.300000X0.237500X0.300000X0*%
%ADD25RoundRect,0.237500X0.250000X0.237500X-0.250000X0.237500X-0.250000X-0.237500X0.250000X-0.237500X0*%
G04 APERTURE END LIST*
D10*
X120832843Y-79900000D02*
G75*
G03*
X120832843Y-79900000I-282843J0D01*
G01*
X121182843Y-97150000D02*
G75*
G03*
X121182843Y-97150000I-282843J0D01*
G01*
X99330951Y-80902380D02*
X98997618Y-81902380D01*
X98997618Y-81902380D02*
X98664285Y-80902380D01*
X98140475Y-80902380D02*
X97949999Y-80902380D01*
X97949999Y-80902380D02*
X97854761Y-80950000D01*
X97854761Y-80950000D02*
X97759523Y-81045238D01*
X97759523Y-81045238D02*
X97711904Y-81235714D01*
X97711904Y-81235714D02*
X97711904Y-81569047D01*
X97711904Y-81569047D02*
X97759523Y-81759523D01*
X97759523Y-81759523D02*
X97854761Y-81854761D01*
X97854761Y-81854761D02*
X97949999Y-81902380D01*
X97949999Y-81902380D02*
X98140475Y-81902380D01*
X98140475Y-81902380D02*
X98235713Y-81854761D01*
X98235713Y-81854761D02*
X98330951Y-81759523D01*
X98330951Y-81759523D02*
X98378570Y-81569047D01*
X98378570Y-81569047D02*
X98378570Y-81235714D01*
X98378570Y-81235714D02*
X98330951Y-81045238D01*
X98330951Y-81045238D02*
X98235713Y-80950000D01*
X98235713Y-80950000D02*
X98140475Y-80902380D01*
X96807142Y-81902380D02*
X97283332Y-81902380D01*
X97283332Y-81902380D02*
X97283332Y-80902380D01*
X96473808Y-81521428D02*
X95711904Y-81521428D01*
X95916666Y-96752380D02*
X95916666Y-95752380D01*
X95916666Y-95752380D02*
X95583333Y-96466666D01*
X95583333Y-96466666D02*
X95250000Y-95752380D01*
X95250000Y-95752380D02*
X95250000Y-96752380D01*
X94916666Y-95752380D02*
X94345238Y-95752380D01*
X94630952Y-96752380D02*
X94630952Y-95752380D01*
X94011904Y-96228571D02*
X93678571Y-96228571D01*
X93535714Y-96752380D02*
X94011904Y-96752380D01*
X94011904Y-96752380D02*
X94011904Y-95752380D01*
X94011904Y-95752380D02*
X93535714Y-95752380D01*
X98490475Y-89402380D02*
X98490475Y-88402380D01*
X98490475Y-88402380D02*
X98109523Y-88402380D01*
X98109523Y-88402380D02*
X98014285Y-88450000D01*
X98014285Y-88450000D02*
X97966666Y-88497619D01*
X97966666Y-88497619D02*
X97919047Y-88592857D01*
X97919047Y-88592857D02*
X97919047Y-88735714D01*
X97919047Y-88735714D02*
X97966666Y-88830952D01*
X97966666Y-88830952D02*
X98014285Y-88878571D01*
X98014285Y-88878571D02*
X98109523Y-88926190D01*
X98109523Y-88926190D02*
X98490475Y-88926190D01*
X96919047Y-89402380D02*
X97252380Y-88926190D01*
X97490475Y-89402380D02*
X97490475Y-88402380D01*
X97490475Y-88402380D02*
X97109523Y-88402380D01*
X97109523Y-88402380D02*
X97014285Y-88450000D01*
X97014285Y-88450000D02*
X96966666Y-88497619D01*
X96966666Y-88497619D02*
X96919047Y-88592857D01*
X96919047Y-88592857D02*
X96919047Y-88735714D01*
X96919047Y-88735714D02*
X96966666Y-88830952D01*
X96966666Y-88830952D02*
X97014285Y-88878571D01*
X97014285Y-88878571D02*
X97109523Y-88926190D01*
X97109523Y-88926190D02*
X97490475Y-88926190D01*
X96633332Y-88402380D02*
X96299999Y-89402380D01*
X96299999Y-89402380D02*
X95966666Y-88402380D01*
X98342856Y-85752380D02*
X98342856Y-84752380D01*
X98342856Y-84752380D02*
X97771428Y-85752380D01*
X97771428Y-85752380D02*
X97771428Y-84752380D01*
X97390475Y-84752380D02*
X96723809Y-85752380D01*
X96723809Y-84752380D02*
X97390475Y-85752380D01*
X96485713Y-84752380D02*
X95914285Y-84752380D01*
X96199999Y-85752380D02*
X96199999Y-84752380D01*
X99430951Y-77152380D02*
X99097618Y-78152380D01*
X99097618Y-78152380D02*
X98764285Y-77152380D01*
X98240475Y-77152380D02*
X98049999Y-77152380D01*
X98049999Y-77152380D02*
X97954761Y-77200000D01*
X97954761Y-77200000D02*
X97859523Y-77295238D01*
X97859523Y-77295238D02*
X97811904Y-77485714D01*
X97811904Y-77485714D02*
X97811904Y-77819047D01*
X97811904Y-77819047D02*
X97859523Y-78009523D01*
X97859523Y-78009523D02*
X97954761Y-78104761D01*
X97954761Y-78104761D02*
X98049999Y-78152380D01*
X98049999Y-78152380D02*
X98240475Y-78152380D01*
X98240475Y-78152380D02*
X98335713Y-78104761D01*
X98335713Y-78104761D02*
X98430951Y-78009523D01*
X98430951Y-78009523D02*
X98478570Y-77819047D01*
X98478570Y-77819047D02*
X98478570Y-77485714D01*
X98478570Y-77485714D02*
X98430951Y-77295238D01*
X98430951Y-77295238D02*
X98335713Y-77200000D01*
X98335713Y-77200000D02*
X98240475Y-77152380D01*
X96907142Y-78152380D02*
X97383332Y-78152380D01*
X97383332Y-78152380D02*
X97383332Y-77152380D01*
X96573808Y-77771428D02*
X95811904Y-77771428D01*
X96192856Y-78152380D02*
X96192856Y-77390476D01*
X96085713Y-93252380D02*
X96085713Y-92252380D01*
X96085713Y-92252380D02*
X95704761Y-92252380D01*
X95704761Y-92252380D02*
X95609523Y-92300000D01*
X95609523Y-92300000D02*
X95561904Y-92347619D01*
X95561904Y-92347619D02*
X95514285Y-92442857D01*
X95514285Y-92442857D02*
X95514285Y-92585714D01*
X95514285Y-92585714D02*
X95561904Y-92680952D01*
X95561904Y-92680952D02*
X95609523Y-92728571D01*
X95609523Y-92728571D02*
X95704761Y-92776190D01*
X95704761Y-92776190D02*
X96085713Y-92776190D01*
X94371428Y-92204761D02*
X95228570Y-93490476D01*
X93466666Y-93157142D02*
X93514285Y-93204761D01*
X93514285Y-93204761D02*
X93657142Y-93252380D01*
X93657142Y-93252380D02*
X93752380Y-93252380D01*
X93752380Y-93252380D02*
X93895237Y-93204761D01*
X93895237Y-93204761D02*
X93990475Y-93109523D01*
X93990475Y-93109523D02*
X94038094Y-93014285D01*
X94038094Y-93014285D02*
X94085713Y-92823809D01*
X94085713Y-92823809D02*
X94085713Y-92680952D01*
X94085713Y-92680952D02*
X94038094Y-92490476D01*
X94038094Y-92490476D02*
X93990475Y-92395238D01*
X93990475Y-92395238D02*
X93895237Y-92300000D01*
X93895237Y-92300000D02*
X93752380Y-92252380D01*
X93752380Y-92252380D02*
X93657142Y-92252380D01*
X93657142Y-92252380D02*
X93514285Y-92300000D01*
X93514285Y-92300000D02*
X93466666Y-92347619D01*
X89823809Y-90983332D02*
X89861904Y-91097618D01*
X89861904Y-91097618D02*
X89861904Y-91288094D01*
X89861904Y-91288094D02*
X89823809Y-91364285D01*
X89823809Y-91364285D02*
X89785714Y-91402380D01*
X89785714Y-91402380D02*
X89709523Y-91440475D01*
X89709523Y-91440475D02*
X89633333Y-91440475D01*
X89633333Y-91440475D02*
X89557142Y-91402380D01*
X89557142Y-91402380D02*
X89519047Y-91364285D01*
X89519047Y-91364285D02*
X89480952Y-91288094D01*
X89480952Y-91288094D02*
X89442857Y-91135713D01*
X89442857Y-91135713D02*
X89404761Y-91059523D01*
X89404761Y-91059523D02*
X89366666Y-91021428D01*
X89366666Y-91021428D02*
X89290476Y-90983332D01*
X89290476Y-90983332D02*
X89214285Y-90983332D01*
X89214285Y-90983332D02*
X89138095Y-91021428D01*
X89138095Y-91021428D02*
X89100000Y-91059523D01*
X89100000Y-91059523D02*
X89061904Y-91135713D01*
X89061904Y-91135713D02*
X89061904Y-91326190D01*
X89061904Y-91326190D02*
X89100000Y-91440475D01*
X89061904Y-91707142D02*
X89861904Y-91897618D01*
X89861904Y-91897618D02*
X89290476Y-92049999D01*
X89290476Y-92049999D02*
X89861904Y-92202380D01*
X89861904Y-92202380D02*
X89061904Y-92392857D01*
X89061904Y-93078571D02*
X89061904Y-92697619D01*
X89061904Y-92697619D02*
X89442857Y-92659523D01*
X89442857Y-92659523D02*
X89404761Y-92697619D01*
X89404761Y-92697619D02*
X89366666Y-92773809D01*
X89366666Y-92773809D02*
X89366666Y-92964285D01*
X89366666Y-92964285D02*
X89404761Y-93040476D01*
X89404761Y-93040476D02*
X89442857Y-93078571D01*
X89442857Y-93078571D02*
X89519047Y-93116666D01*
X89519047Y-93116666D02*
X89709523Y-93116666D01*
X89709523Y-93116666D02*
X89785714Y-93078571D01*
X89785714Y-93078571D02*
X89823809Y-93040476D01*
X89823809Y-93040476D02*
X89861904Y-92964285D01*
X89861904Y-92964285D02*
X89861904Y-92773809D01*
X89861904Y-92773809D02*
X89823809Y-92697619D01*
X89823809Y-92697619D02*
X89785714Y-92659523D01*
X89873809Y-87133332D02*
X89911904Y-87247618D01*
X89911904Y-87247618D02*
X89911904Y-87438094D01*
X89911904Y-87438094D02*
X89873809Y-87514285D01*
X89873809Y-87514285D02*
X89835714Y-87552380D01*
X89835714Y-87552380D02*
X89759523Y-87590475D01*
X89759523Y-87590475D02*
X89683333Y-87590475D01*
X89683333Y-87590475D02*
X89607142Y-87552380D01*
X89607142Y-87552380D02*
X89569047Y-87514285D01*
X89569047Y-87514285D02*
X89530952Y-87438094D01*
X89530952Y-87438094D02*
X89492857Y-87285713D01*
X89492857Y-87285713D02*
X89454761Y-87209523D01*
X89454761Y-87209523D02*
X89416666Y-87171428D01*
X89416666Y-87171428D02*
X89340476Y-87133332D01*
X89340476Y-87133332D02*
X89264285Y-87133332D01*
X89264285Y-87133332D02*
X89188095Y-87171428D01*
X89188095Y-87171428D02*
X89150000Y-87209523D01*
X89150000Y-87209523D02*
X89111904Y-87285713D01*
X89111904Y-87285713D02*
X89111904Y-87476190D01*
X89111904Y-87476190D02*
X89150000Y-87590475D01*
X89111904Y-87857142D02*
X89911904Y-88047618D01*
X89911904Y-88047618D02*
X89340476Y-88199999D01*
X89340476Y-88199999D02*
X89911904Y-88352380D01*
X89911904Y-88352380D02*
X89111904Y-88542857D01*
X89378571Y-89190476D02*
X89911904Y-89190476D01*
X89073809Y-89000000D02*
X89645238Y-88809523D01*
X89645238Y-88809523D02*
X89645238Y-89304762D01*
X116192857Y-98357142D02*
X116240476Y-98404761D01*
X116240476Y-98404761D02*
X116383333Y-98452380D01*
X116383333Y-98452380D02*
X116478571Y-98452380D01*
X116478571Y-98452380D02*
X116621428Y-98404761D01*
X116621428Y-98404761D02*
X116716666Y-98309523D01*
X116716666Y-98309523D02*
X116764285Y-98214285D01*
X116764285Y-98214285D02*
X116811904Y-98023809D01*
X116811904Y-98023809D02*
X116811904Y-97880952D01*
X116811904Y-97880952D02*
X116764285Y-97690476D01*
X116764285Y-97690476D02*
X116716666Y-97595238D01*
X116716666Y-97595238D02*
X116621428Y-97500000D01*
X116621428Y-97500000D02*
X116478571Y-97452380D01*
X116478571Y-97452380D02*
X116383333Y-97452380D01*
X116383333Y-97452380D02*
X116240476Y-97500000D01*
X116240476Y-97500000D02*
X116192857Y-97547619D01*
X115240476Y-98452380D02*
X115811904Y-98452380D01*
X115526190Y-98452380D02*
X115526190Y-97452380D01*
X115526190Y-97452380D02*
X115621428Y-97595238D01*
X115621428Y-97595238D02*
X115716666Y-97690476D01*
X115716666Y-97690476D02*
X115811904Y-97738095D01*
X114907142Y-97452380D02*
X114240476Y-97452380D01*
X114240476Y-97452380D02*
X114669047Y-98452380D01*
X109592857Y-91952380D02*
X109926190Y-91476190D01*
X110164285Y-91952380D02*
X110164285Y-90952380D01*
X110164285Y-90952380D02*
X109783333Y-90952380D01*
X109783333Y-90952380D02*
X109688095Y-91000000D01*
X109688095Y-91000000D02*
X109640476Y-91047619D01*
X109640476Y-91047619D02*
X109592857Y-91142857D01*
X109592857Y-91142857D02*
X109592857Y-91285714D01*
X109592857Y-91285714D02*
X109640476Y-91380952D01*
X109640476Y-91380952D02*
X109688095Y-91428571D01*
X109688095Y-91428571D02*
X109783333Y-91476190D01*
X109783333Y-91476190D02*
X110164285Y-91476190D01*
X108640476Y-91952380D02*
X109211904Y-91952380D01*
X108926190Y-91952380D02*
X108926190Y-90952380D01*
X108926190Y-90952380D02*
X109021428Y-91095238D01*
X109021428Y-91095238D02*
X109116666Y-91190476D01*
X109116666Y-91190476D02*
X109211904Y-91238095D01*
X108307142Y-90952380D02*
X107688095Y-90952380D01*
X107688095Y-90952380D02*
X108021428Y-91333333D01*
X108021428Y-91333333D02*
X107878571Y-91333333D01*
X107878571Y-91333333D02*
X107783333Y-91380952D01*
X107783333Y-91380952D02*
X107735714Y-91428571D01*
X107735714Y-91428571D02*
X107688095Y-91523809D01*
X107688095Y-91523809D02*
X107688095Y-91761904D01*
X107688095Y-91761904D02*
X107735714Y-91857142D01*
X107735714Y-91857142D02*
X107783333Y-91904761D01*
X107783333Y-91904761D02*
X107878571Y-91952380D01*
X107878571Y-91952380D02*
X108164285Y-91952380D01*
X108164285Y-91952380D02*
X108259523Y-91904761D01*
X108259523Y-91904761D02*
X108307142Y-91857142D01*
X89923809Y-75183332D02*
X89961904Y-75297618D01*
X89961904Y-75297618D02*
X89961904Y-75488094D01*
X89961904Y-75488094D02*
X89923809Y-75564285D01*
X89923809Y-75564285D02*
X89885714Y-75602380D01*
X89885714Y-75602380D02*
X89809523Y-75640475D01*
X89809523Y-75640475D02*
X89733333Y-75640475D01*
X89733333Y-75640475D02*
X89657142Y-75602380D01*
X89657142Y-75602380D02*
X89619047Y-75564285D01*
X89619047Y-75564285D02*
X89580952Y-75488094D01*
X89580952Y-75488094D02*
X89542857Y-75335713D01*
X89542857Y-75335713D02*
X89504761Y-75259523D01*
X89504761Y-75259523D02*
X89466666Y-75221428D01*
X89466666Y-75221428D02*
X89390476Y-75183332D01*
X89390476Y-75183332D02*
X89314285Y-75183332D01*
X89314285Y-75183332D02*
X89238095Y-75221428D01*
X89238095Y-75221428D02*
X89200000Y-75259523D01*
X89200000Y-75259523D02*
X89161904Y-75335713D01*
X89161904Y-75335713D02*
X89161904Y-75526190D01*
X89161904Y-75526190D02*
X89200000Y-75640475D01*
X89161904Y-75907142D02*
X89961904Y-76097618D01*
X89961904Y-76097618D02*
X89390476Y-76249999D01*
X89390476Y-76249999D02*
X89961904Y-76402380D01*
X89961904Y-76402380D02*
X89161904Y-76592857D01*
X89961904Y-77316666D02*
X89961904Y-76859523D01*
X89961904Y-77088095D02*
X89161904Y-77088095D01*
X89161904Y-77088095D02*
X89276190Y-77011904D01*
X89276190Y-77011904D02*
X89352380Y-76935714D01*
X89352380Y-76935714D02*
X89390476Y-76859523D01*
X106161904Y-91752380D02*
X106161904Y-92561904D01*
X106161904Y-92561904D02*
X106114285Y-92657142D01*
X106114285Y-92657142D02*
X106066666Y-92704761D01*
X106066666Y-92704761D02*
X105971428Y-92752380D01*
X105971428Y-92752380D02*
X105780952Y-92752380D01*
X105780952Y-92752380D02*
X105685714Y-92704761D01*
X105685714Y-92704761D02*
X105638095Y-92657142D01*
X105638095Y-92657142D02*
X105590476Y-92561904D01*
X105590476Y-92561904D02*
X105590476Y-91752380D01*
X104685714Y-92085714D02*
X104685714Y-92752380D01*
X104923809Y-91704761D02*
X105161904Y-92419047D01*
X105161904Y-92419047D02*
X104542857Y-92419047D01*
X89923809Y-94983332D02*
X89961904Y-95097618D01*
X89961904Y-95097618D02*
X89961904Y-95288094D01*
X89961904Y-95288094D02*
X89923809Y-95364285D01*
X89923809Y-95364285D02*
X89885714Y-95402380D01*
X89885714Y-95402380D02*
X89809523Y-95440475D01*
X89809523Y-95440475D02*
X89733333Y-95440475D01*
X89733333Y-95440475D02*
X89657142Y-95402380D01*
X89657142Y-95402380D02*
X89619047Y-95364285D01*
X89619047Y-95364285D02*
X89580952Y-95288094D01*
X89580952Y-95288094D02*
X89542857Y-95135713D01*
X89542857Y-95135713D02*
X89504761Y-95059523D01*
X89504761Y-95059523D02*
X89466666Y-95021428D01*
X89466666Y-95021428D02*
X89390476Y-94983332D01*
X89390476Y-94983332D02*
X89314285Y-94983332D01*
X89314285Y-94983332D02*
X89238095Y-95021428D01*
X89238095Y-95021428D02*
X89200000Y-95059523D01*
X89200000Y-95059523D02*
X89161904Y-95135713D01*
X89161904Y-95135713D02*
X89161904Y-95326190D01*
X89161904Y-95326190D02*
X89200000Y-95440475D01*
X89161904Y-95707142D02*
X89961904Y-95897618D01*
X89961904Y-95897618D02*
X89390476Y-96049999D01*
X89390476Y-96049999D02*
X89961904Y-96202380D01*
X89961904Y-96202380D02*
X89161904Y-96392857D01*
X89161904Y-97040476D02*
X89161904Y-96888095D01*
X89161904Y-96888095D02*
X89200000Y-96811904D01*
X89200000Y-96811904D02*
X89238095Y-96773809D01*
X89238095Y-96773809D02*
X89352380Y-96697619D01*
X89352380Y-96697619D02*
X89504761Y-96659523D01*
X89504761Y-96659523D02*
X89809523Y-96659523D01*
X89809523Y-96659523D02*
X89885714Y-96697619D01*
X89885714Y-96697619D02*
X89923809Y-96735714D01*
X89923809Y-96735714D02*
X89961904Y-96811904D01*
X89961904Y-96811904D02*
X89961904Y-96964285D01*
X89961904Y-96964285D02*
X89923809Y-97040476D01*
X89923809Y-97040476D02*
X89885714Y-97078571D01*
X89885714Y-97078571D02*
X89809523Y-97116666D01*
X89809523Y-97116666D02*
X89619047Y-97116666D01*
X89619047Y-97116666D02*
X89542857Y-97078571D01*
X89542857Y-97078571D02*
X89504761Y-97040476D01*
X89504761Y-97040476D02*
X89466666Y-96964285D01*
X89466666Y-96964285D02*
X89466666Y-96811904D01*
X89466666Y-96811904D02*
X89504761Y-96735714D01*
X89504761Y-96735714D02*
X89542857Y-96697619D01*
X89542857Y-96697619D02*
X89619047Y-96659523D01*
X101992857Y-91057142D02*
X102040476Y-91104761D01*
X102040476Y-91104761D02*
X102183333Y-91152380D01*
X102183333Y-91152380D02*
X102278571Y-91152380D01*
X102278571Y-91152380D02*
X102421428Y-91104761D01*
X102421428Y-91104761D02*
X102516666Y-91009523D01*
X102516666Y-91009523D02*
X102564285Y-90914285D01*
X102564285Y-90914285D02*
X102611904Y-90723809D01*
X102611904Y-90723809D02*
X102611904Y-90580952D01*
X102611904Y-90580952D02*
X102564285Y-90390476D01*
X102564285Y-90390476D02*
X102516666Y-90295238D01*
X102516666Y-90295238D02*
X102421428Y-90200000D01*
X102421428Y-90200000D02*
X102278571Y-90152380D01*
X102278571Y-90152380D02*
X102183333Y-90152380D01*
X102183333Y-90152380D02*
X102040476Y-90200000D01*
X102040476Y-90200000D02*
X101992857Y-90247619D01*
X101611904Y-90247619D02*
X101564285Y-90200000D01*
X101564285Y-90200000D02*
X101469047Y-90152380D01*
X101469047Y-90152380D02*
X101230952Y-90152380D01*
X101230952Y-90152380D02*
X101135714Y-90200000D01*
X101135714Y-90200000D02*
X101088095Y-90247619D01*
X101088095Y-90247619D02*
X101040476Y-90342857D01*
X101040476Y-90342857D02*
X101040476Y-90438095D01*
X101040476Y-90438095D02*
X101088095Y-90580952D01*
X101088095Y-90580952D02*
X101659523Y-91152380D01*
X101659523Y-91152380D02*
X101040476Y-91152380D01*
X100421428Y-90152380D02*
X100326190Y-90152380D01*
X100326190Y-90152380D02*
X100230952Y-90200000D01*
X100230952Y-90200000D02*
X100183333Y-90247619D01*
X100183333Y-90247619D02*
X100135714Y-90342857D01*
X100135714Y-90342857D02*
X100088095Y-90533333D01*
X100088095Y-90533333D02*
X100088095Y-90771428D01*
X100088095Y-90771428D02*
X100135714Y-90961904D01*
X100135714Y-90961904D02*
X100183333Y-91057142D01*
X100183333Y-91057142D02*
X100230952Y-91104761D01*
X100230952Y-91104761D02*
X100326190Y-91152380D01*
X100326190Y-91152380D02*
X100421428Y-91152380D01*
X100421428Y-91152380D02*
X100516666Y-91104761D01*
X100516666Y-91104761D02*
X100564285Y-91057142D01*
X100564285Y-91057142D02*
X100611904Y-90961904D01*
X100611904Y-90961904D02*
X100659523Y-90771428D01*
X100659523Y-90771428D02*
X100659523Y-90533333D01*
X100659523Y-90533333D02*
X100611904Y-90342857D01*
X100611904Y-90342857D02*
X100564285Y-90247619D01*
X100564285Y-90247619D02*
X100516666Y-90200000D01*
X100516666Y-90200000D02*
X100421428Y-90152380D01*
X89773809Y-83283332D02*
X89811904Y-83397618D01*
X89811904Y-83397618D02*
X89811904Y-83588094D01*
X89811904Y-83588094D02*
X89773809Y-83664285D01*
X89773809Y-83664285D02*
X89735714Y-83702380D01*
X89735714Y-83702380D02*
X89659523Y-83740475D01*
X89659523Y-83740475D02*
X89583333Y-83740475D01*
X89583333Y-83740475D02*
X89507142Y-83702380D01*
X89507142Y-83702380D02*
X89469047Y-83664285D01*
X89469047Y-83664285D02*
X89430952Y-83588094D01*
X89430952Y-83588094D02*
X89392857Y-83435713D01*
X89392857Y-83435713D02*
X89354761Y-83359523D01*
X89354761Y-83359523D02*
X89316666Y-83321428D01*
X89316666Y-83321428D02*
X89240476Y-83283332D01*
X89240476Y-83283332D02*
X89164285Y-83283332D01*
X89164285Y-83283332D02*
X89088095Y-83321428D01*
X89088095Y-83321428D02*
X89050000Y-83359523D01*
X89050000Y-83359523D02*
X89011904Y-83435713D01*
X89011904Y-83435713D02*
X89011904Y-83626190D01*
X89011904Y-83626190D02*
X89050000Y-83740475D01*
X89011904Y-84007142D02*
X89811904Y-84197618D01*
X89811904Y-84197618D02*
X89240476Y-84349999D01*
X89240476Y-84349999D02*
X89811904Y-84502380D01*
X89811904Y-84502380D02*
X89011904Y-84692857D01*
X89011904Y-84921428D02*
X89011904Y-85416666D01*
X89011904Y-85416666D02*
X89316666Y-85150000D01*
X89316666Y-85150000D02*
X89316666Y-85264285D01*
X89316666Y-85264285D02*
X89354761Y-85340476D01*
X89354761Y-85340476D02*
X89392857Y-85378571D01*
X89392857Y-85378571D02*
X89469047Y-85416666D01*
X89469047Y-85416666D02*
X89659523Y-85416666D01*
X89659523Y-85416666D02*
X89735714Y-85378571D01*
X89735714Y-85378571D02*
X89773809Y-85340476D01*
X89773809Y-85340476D02*
X89811904Y-85264285D01*
X89811904Y-85264285D02*
X89811904Y-85035714D01*
X89811904Y-85035714D02*
X89773809Y-84959523D01*
X89773809Y-84959523D02*
X89735714Y-84921428D01*
X99092857Y-95152380D02*
X99426190Y-94676190D01*
X99664285Y-95152380D02*
X99664285Y-94152380D01*
X99664285Y-94152380D02*
X99283333Y-94152380D01*
X99283333Y-94152380D02*
X99188095Y-94200000D01*
X99188095Y-94200000D02*
X99140476Y-94247619D01*
X99140476Y-94247619D02*
X99092857Y-94342857D01*
X99092857Y-94342857D02*
X99092857Y-94485714D01*
X99092857Y-94485714D02*
X99140476Y-94580952D01*
X99140476Y-94580952D02*
X99188095Y-94628571D01*
X99188095Y-94628571D02*
X99283333Y-94676190D01*
X99283333Y-94676190D02*
X99664285Y-94676190D01*
X98711904Y-94247619D02*
X98664285Y-94200000D01*
X98664285Y-94200000D02*
X98569047Y-94152380D01*
X98569047Y-94152380D02*
X98330952Y-94152380D01*
X98330952Y-94152380D02*
X98235714Y-94200000D01*
X98235714Y-94200000D02*
X98188095Y-94247619D01*
X98188095Y-94247619D02*
X98140476Y-94342857D01*
X98140476Y-94342857D02*
X98140476Y-94438095D01*
X98140476Y-94438095D02*
X98188095Y-94580952D01*
X98188095Y-94580952D02*
X98759523Y-95152380D01*
X98759523Y-95152380D02*
X98140476Y-95152380D01*
X97807142Y-94152380D02*
X97188095Y-94152380D01*
X97188095Y-94152380D02*
X97521428Y-94533333D01*
X97521428Y-94533333D02*
X97378571Y-94533333D01*
X97378571Y-94533333D02*
X97283333Y-94580952D01*
X97283333Y-94580952D02*
X97235714Y-94628571D01*
X97235714Y-94628571D02*
X97188095Y-94723809D01*
X97188095Y-94723809D02*
X97188095Y-94961904D01*
X97188095Y-94961904D02*
X97235714Y-95057142D01*
X97235714Y-95057142D02*
X97283333Y-95104761D01*
X97283333Y-95104761D02*
X97378571Y-95152380D01*
X97378571Y-95152380D02*
X97664285Y-95152380D01*
X97664285Y-95152380D02*
X97759523Y-95104761D01*
X97759523Y-95104761D02*
X97807142Y-95057142D01*
X124061904Y-79852380D02*
X124061904Y-80661904D01*
X124061904Y-80661904D02*
X124014285Y-80757142D01*
X124014285Y-80757142D02*
X123966666Y-80804761D01*
X123966666Y-80804761D02*
X123871428Y-80852380D01*
X123871428Y-80852380D02*
X123680952Y-80852380D01*
X123680952Y-80852380D02*
X123585714Y-80804761D01*
X123585714Y-80804761D02*
X123538095Y-80757142D01*
X123538095Y-80757142D02*
X123490476Y-80661904D01*
X123490476Y-80661904D02*
X123490476Y-79852380D01*
X122490476Y-80852380D02*
X123061904Y-80852380D01*
X122776190Y-80852380D02*
X122776190Y-79852380D01*
X122776190Y-79852380D02*
X122871428Y-79995238D01*
X122871428Y-79995238D02*
X122966666Y-80090476D01*
X122966666Y-80090476D02*
X123061904Y-80138095D01*
X115266666Y-81857142D02*
X115314285Y-81904761D01*
X115314285Y-81904761D02*
X115457142Y-81952380D01*
X115457142Y-81952380D02*
X115552380Y-81952380D01*
X115552380Y-81952380D02*
X115695237Y-81904761D01*
X115695237Y-81904761D02*
X115790475Y-81809523D01*
X115790475Y-81809523D02*
X115838094Y-81714285D01*
X115838094Y-81714285D02*
X115885713Y-81523809D01*
X115885713Y-81523809D02*
X115885713Y-81380952D01*
X115885713Y-81380952D02*
X115838094Y-81190476D01*
X115838094Y-81190476D02*
X115790475Y-81095238D01*
X115790475Y-81095238D02*
X115695237Y-81000000D01*
X115695237Y-81000000D02*
X115552380Y-80952380D01*
X115552380Y-80952380D02*
X115457142Y-80952380D01*
X115457142Y-80952380D02*
X115314285Y-81000000D01*
X115314285Y-81000000D02*
X115266666Y-81047619D01*
X114933332Y-80952380D02*
X114266666Y-80952380D01*
X114266666Y-80952380D02*
X114695237Y-81952380D01*
X137742857Y-81002380D02*
X138076190Y-80526190D01*
X138314285Y-81002380D02*
X138314285Y-80002380D01*
X138314285Y-80002380D02*
X137933333Y-80002380D01*
X137933333Y-80002380D02*
X137838095Y-80050000D01*
X137838095Y-80050000D02*
X137790476Y-80097619D01*
X137790476Y-80097619D02*
X137742857Y-80192857D01*
X137742857Y-80192857D02*
X137742857Y-80335714D01*
X137742857Y-80335714D02*
X137790476Y-80430952D01*
X137790476Y-80430952D02*
X137838095Y-80478571D01*
X137838095Y-80478571D02*
X137933333Y-80526190D01*
X137933333Y-80526190D02*
X138314285Y-80526190D01*
X136790476Y-81002380D02*
X137361904Y-81002380D01*
X137076190Y-81002380D02*
X137076190Y-80002380D01*
X137076190Y-80002380D02*
X137171428Y-80145238D01*
X137171428Y-80145238D02*
X137266666Y-80240476D01*
X137266666Y-80240476D02*
X137361904Y-80288095D01*
X136171428Y-80002380D02*
X136076190Y-80002380D01*
X136076190Y-80002380D02*
X135980952Y-80050000D01*
X135980952Y-80050000D02*
X135933333Y-80097619D01*
X135933333Y-80097619D02*
X135885714Y-80192857D01*
X135885714Y-80192857D02*
X135838095Y-80383333D01*
X135838095Y-80383333D02*
X135838095Y-80621428D01*
X135838095Y-80621428D02*
X135885714Y-80811904D01*
X135885714Y-80811904D02*
X135933333Y-80907142D01*
X135933333Y-80907142D02*
X135980952Y-80954761D01*
X135980952Y-80954761D02*
X136076190Y-81002380D01*
X136076190Y-81002380D02*
X136171428Y-81002380D01*
X136171428Y-81002380D02*
X136266666Y-80954761D01*
X136266666Y-80954761D02*
X136314285Y-80907142D01*
X136314285Y-80907142D02*
X136361904Y-80811904D01*
X136361904Y-80811904D02*
X136409523Y-80621428D01*
X136409523Y-80621428D02*
X136409523Y-80383333D01*
X136409523Y-80383333D02*
X136361904Y-80192857D01*
X136361904Y-80192857D02*
X136314285Y-80097619D01*
X136314285Y-80097619D02*
X136266666Y-80050000D01*
X136266666Y-80050000D02*
X136171428Y-80002380D01*
X137642857Y-90152380D02*
X137976190Y-89676190D01*
X138214285Y-90152380D02*
X138214285Y-89152380D01*
X138214285Y-89152380D02*
X137833333Y-89152380D01*
X137833333Y-89152380D02*
X137738095Y-89200000D01*
X137738095Y-89200000D02*
X137690476Y-89247619D01*
X137690476Y-89247619D02*
X137642857Y-89342857D01*
X137642857Y-89342857D02*
X137642857Y-89485714D01*
X137642857Y-89485714D02*
X137690476Y-89580952D01*
X137690476Y-89580952D02*
X137738095Y-89628571D01*
X137738095Y-89628571D02*
X137833333Y-89676190D01*
X137833333Y-89676190D02*
X138214285Y-89676190D01*
X136690476Y-90152380D02*
X137261904Y-90152380D01*
X136976190Y-90152380D02*
X136976190Y-89152380D01*
X136976190Y-89152380D02*
X137071428Y-89295238D01*
X137071428Y-89295238D02*
X137166666Y-89390476D01*
X137166666Y-89390476D02*
X137261904Y-89438095D01*
X135833333Y-89485714D02*
X135833333Y-90152380D01*
X136071428Y-89104761D02*
X136309523Y-89819047D01*
X136309523Y-89819047D02*
X135690476Y-89819047D01*
X123361904Y-96852380D02*
X123361904Y-97661904D01*
X123361904Y-97661904D02*
X123314285Y-97757142D01*
X123314285Y-97757142D02*
X123266666Y-97804761D01*
X123266666Y-97804761D02*
X123171428Y-97852380D01*
X123171428Y-97852380D02*
X122980952Y-97852380D01*
X122980952Y-97852380D02*
X122885714Y-97804761D01*
X122885714Y-97804761D02*
X122838095Y-97757142D01*
X122838095Y-97757142D02*
X122790476Y-97661904D01*
X122790476Y-97661904D02*
X122790476Y-96852380D01*
X122409523Y-96852380D02*
X121790476Y-96852380D01*
X121790476Y-96852380D02*
X122123809Y-97233333D01*
X122123809Y-97233333D02*
X121980952Y-97233333D01*
X121980952Y-97233333D02*
X121885714Y-97280952D01*
X121885714Y-97280952D02*
X121838095Y-97328571D01*
X121838095Y-97328571D02*
X121790476Y-97423809D01*
X121790476Y-97423809D02*
X121790476Y-97661904D01*
X121790476Y-97661904D02*
X121838095Y-97757142D01*
X121838095Y-97757142D02*
X121885714Y-97804761D01*
X121885714Y-97804761D02*
X121980952Y-97852380D01*
X121980952Y-97852380D02*
X122266666Y-97852380D01*
X122266666Y-97852380D02*
X122361904Y-97804761D01*
X122361904Y-97804761D02*
X122409523Y-97757142D01*
X89923809Y-79283332D02*
X89961904Y-79397618D01*
X89961904Y-79397618D02*
X89961904Y-79588094D01*
X89961904Y-79588094D02*
X89923809Y-79664285D01*
X89923809Y-79664285D02*
X89885714Y-79702380D01*
X89885714Y-79702380D02*
X89809523Y-79740475D01*
X89809523Y-79740475D02*
X89733333Y-79740475D01*
X89733333Y-79740475D02*
X89657142Y-79702380D01*
X89657142Y-79702380D02*
X89619047Y-79664285D01*
X89619047Y-79664285D02*
X89580952Y-79588094D01*
X89580952Y-79588094D02*
X89542857Y-79435713D01*
X89542857Y-79435713D02*
X89504761Y-79359523D01*
X89504761Y-79359523D02*
X89466666Y-79321428D01*
X89466666Y-79321428D02*
X89390476Y-79283332D01*
X89390476Y-79283332D02*
X89314285Y-79283332D01*
X89314285Y-79283332D02*
X89238095Y-79321428D01*
X89238095Y-79321428D02*
X89200000Y-79359523D01*
X89200000Y-79359523D02*
X89161904Y-79435713D01*
X89161904Y-79435713D02*
X89161904Y-79626190D01*
X89161904Y-79626190D02*
X89200000Y-79740475D01*
X89161904Y-80007142D02*
X89961904Y-80197618D01*
X89961904Y-80197618D02*
X89390476Y-80349999D01*
X89390476Y-80349999D02*
X89961904Y-80502380D01*
X89961904Y-80502380D02*
X89161904Y-80692857D01*
X89238095Y-80959523D02*
X89200000Y-80997619D01*
X89200000Y-80997619D02*
X89161904Y-81073809D01*
X89161904Y-81073809D02*
X89161904Y-81264285D01*
X89161904Y-81264285D02*
X89200000Y-81340476D01*
X89200000Y-81340476D02*
X89238095Y-81378571D01*
X89238095Y-81378571D02*
X89314285Y-81416666D01*
X89314285Y-81416666D02*
X89390476Y-81416666D01*
X89390476Y-81416666D02*
X89504761Y-81378571D01*
X89504761Y-81378571D02*
X89961904Y-80921428D01*
X89961904Y-80921428D02*
X89961904Y-81416666D01*
X136816666Y-76802380D02*
X137149999Y-76326190D01*
X137388094Y-76802380D02*
X137388094Y-75802380D01*
X137388094Y-75802380D02*
X137007142Y-75802380D01*
X137007142Y-75802380D02*
X136911904Y-75850000D01*
X136911904Y-75850000D02*
X136864285Y-75897619D01*
X136864285Y-75897619D02*
X136816666Y-75992857D01*
X136816666Y-75992857D02*
X136816666Y-76135714D01*
X136816666Y-76135714D02*
X136864285Y-76230952D01*
X136864285Y-76230952D02*
X136911904Y-76278571D01*
X136911904Y-76278571D02*
X137007142Y-76326190D01*
X137007142Y-76326190D02*
X137388094Y-76326190D01*
X136483332Y-75802380D02*
X135816666Y-75802380D01*
X135816666Y-75802380D02*
X136245237Y-76802380D01*
X115942857Y-99952380D02*
X116276190Y-99476190D01*
X116514285Y-99952380D02*
X116514285Y-98952380D01*
X116514285Y-98952380D02*
X116133333Y-98952380D01*
X116133333Y-98952380D02*
X116038095Y-99000000D01*
X116038095Y-99000000D02*
X115990476Y-99047619D01*
X115990476Y-99047619D02*
X115942857Y-99142857D01*
X115942857Y-99142857D02*
X115942857Y-99285714D01*
X115942857Y-99285714D02*
X115990476Y-99380952D01*
X115990476Y-99380952D02*
X116038095Y-99428571D01*
X116038095Y-99428571D02*
X116133333Y-99476190D01*
X116133333Y-99476190D02*
X116514285Y-99476190D01*
X115561904Y-99047619D02*
X115514285Y-99000000D01*
X115514285Y-99000000D02*
X115419047Y-98952380D01*
X115419047Y-98952380D02*
X115180952Y-98952380D01*
X115180952Y-98952380D02*
X115085714Y-99000000D01*
X115085714Y-99000000D02*
X115038095Y-99047619D01*
X115038095Y-99047619D02*
X114990476Y-99142857D01*
X114990476Y-99142857D02*
X114990476Y-99238095D01*
X114990476Y-99238095D02*
X115038095Y-99380952D01*
X115038095Y-99380952D02*
X115609523Y-99952380D01*
X115609523Y-99952380D02*
X114990476Y-99952380D01*
X114371428Y-98952380D02*
X114276190Y-98952380D01*
X114276190Y-98952380D02*
X114180952Y-99000000D01*
X114180952Y-99000000D02*
X114133333Y-99047619D01*
X114133333Y-99047619D02*
X114085714Y-99142857D01*
X114085714Y-99142857D02*
X114038095Y-99333333D01*
X114038095Y-99333333D02*
X114038095Y-99571428D01*
X114038095Y-99571428D02*
X114085714Y-99761904D01*
X114085714Y-99761904D02*
X114133333Y-99857142D01*
X114133333Y-99857142D02*
X114180952Y-99904761D01*
X114180952Y-99904761D02*
X114276190Y-99952380D01*
X114276190Y-99952380D02*
X114371428Y-99952380D01*
X114371428Y-99952380D02*
X114466666Y-99904761D01*
X114466666Y-99904761D02*
X114514285Y-99857142D01*
X114514285Y-99857142D02*
X114561904Y-99761904D01*
X114561904Y-99761904D02*
X114609523Y-99571428D01*
X114609523Y-99571428D02*
X114609523Y-99333333D01*
X114609523Y-99333333D02*
X114561904Y-99142857D01*
X114561904Y-99142857D02*
X114514285Y-99047619D01*
X114514285Y-99047619D02*
X114466666Y-99000000D01*
X114466666Y-99000000D02*
X114371428Y-98952380D01*
X114042857Y-88302380D02*
X114376190Y-87826190D01*
X114614285Y-88302380D02*
X114614285Y-87302380D01*
X114614285Y-87302380D02*
X114233333Y-87302380D01*
X114233333Y-87302380D02*
X114138095Y-87350000D01*
X114138095Y-87350000D02*
X114090476Y-87397619D01*
X114090476Y-87397619D02*
X114042857Y-87492857D01*
X114042857Y-87492857D02*
X114042857Y-87635714D01*
X114042857Y-87635714D02*
X114090476Y-87730952D01*
X114090476Y-87730952D02*
X114138095Y-87778571D01*
X114138095Y-87778571D02*
X114233333Y-87826190D01*
X114233333Y-87826190D02*
X114614285Y-87826190D01*
X113090476Y-88302380D02*
X113661904Y-88302380D01*
X113376190Y-88302380D02*
X113376190Y-87302380D01*
X113376190Y-87302380D02*
X113471428Y-87445238D01*
X113471428Y-87445238D02*
X113566666Y-87540476D01*
X113566666Y-87540476D02*
X113661904Y-87588095D01*
X112185714Y-87302380D02*
X112661904Y-87302380D01*
X112661904Y-87302380D02*
X112709523Y-87778571D01*
X112709523Y-87778571D02*
X112661904Y-87730952D01*
X112661904Y-87730952D02*
X112566666Y-87683333D01*
X112566666Y-87683333D02*
X112328571Y-87683333D01*
X112328571Y-87683333D02*
X112233333Y-87730952D01*
X112233333Y-87730952D02*
X112185714Y-87778571D01*
X112185714Y-87778571D02*
X112138095Y-87873809D01*
X112138095Y-87873809D02*
X112138095Y-88111904D01*
X112138095Y-88111904D02*
X112185714Y-88207142D01*
X112185714Y-88207142D02*
X112233333Y-88254761D01*
X112233333Y-88254761D02*
X112328571Y-88302380D01*
X112328571Y-88302380D02*
X112566666Y-88302380D01*
X112566666Y-88302380D02*
X112661904Y-88254761D01*
X112661904Y-88254761D02*
X112709523Y-88207142D01*
X121266666Y-82652380D02*
X121599999Y-82176190D01*
X121838094Y-82652380D02*
X121838094Y-81652380D01*
X121838094Y-81652380D02*
X121457142Y-81652380D01*
X121457142Y-81652380D02*
X121361904Y-81700000D01*
X121361904Y-81700000D02*
X121314285Y-81747619D01*
X121314285Y-81747619D02*
X121266666Y-81842857D01*
X121266666Y-81842857D02*
X121266666Y-81985714D01*
X121266666Y-81985714D02*
X121314285Y-82080952D01*
X121314285Y-82080952D02*
X121361904Y-82128571D01*
X121361904Y-82128571D02*
X121457142Y-82176190D01*
X121457142Y-82176190D02*
X121838094Y-82176190D01*
X120790475Y-82652380D02*
X120599999Y-82652380D01*
X120599999Y-82652380D02*
X120504761Y-82604761D01*
X120504761Y-82604761D02*
X120457142Y-82557142D01*
X120457142Y-82557142D02*
X120361904Y-82414285D01*
X120361904Y-82414285D02*
X120314285Y-82223809D01*
X120314285Y-82223809D02*
X120314285Y-81842857D01*
X120314285Y-81842857D02*
X120361904Y-81747619D01*
X120361904Y-81747619D02*
X120409523Y-81700000D01*
X120409523Y-81700000D02*
X120504761Y-81652380D01*
X120504761Y-81652380D02*
X120695237Y-81652380D01*
X120695237Y-81652380D02*
X120790475Y-81700000D01*
X120790475Y-81700000D02*
X120838094Y-81747619D01*
X120838094Y-81747619D02*
X120885713Y-81842857D01*
X120885713Y-81842857D02*
X120885713Y-82080952D01*
X120885713Y-82080952D02*
X120838094Y-82176190D01*
X120838094Y-82176190D02*
X120790475Y-82223809D01*
X120790475Y-82223809D02*
X120695237Y-82271428D01*
X120695237Y-82271428D02*
X120504761Y-82271428D01*
X120504761Y-82271428D02*
X120409523Y-82223809D01*
X120409523Y-82223809D02*
X120361904Y-82176190D01*
X120361904Y-82176190D02*
X120314285Y-82080952D01*
X97666666Y-96602380D02*
X98142856Y-96602380D01*
X98142856Y-96602380D02*
X98142856Y-95602380D01*
X97380951Y-95697619D02*
X97333332Y-95650000D01*
X97333332Y-95650000D02*
X97238094Y-95602380D01*
X97238094Y-95602380D02*
X96999999Y-95602380D01*
X96999999Y-95602380D02*
X96904761Y-95650000D01*
X96904761Y-95650000D02*
X96857142Y-95697619D01*
X96857142Y-95697619D02*
X96809523Y-95792857D01*
X96809523Y-95792857D02*
X96809523Y-95888095D01*
X96809523Y-95888095D02*
X96857142Y-96030952D01*
X96857142Y-96030952D02*
X97428570Y-96602380D01*
X97428570Y-96602380D02*
X96809523Y-96602380D01*
X117316666Y-73152380D02*
X117649999Y-72676190D01*
X117888094Y-73152380D02*
X117888094Y-72152380D01*
X117888094Y-72152380D02*
X117507142Y-72152380D01*
X117507142Y-72152380D02*
X117411904Y-72200000D01*
X117411904Y-72200000D02*
X117364285Y-72247619D01*
X117364285Y-72247619D02*
X117316666Y-72342857D01*
X117316666Y-72342857D02*
X117316666Y-72485714D01*
X117316666Y-72485714D02*
X117364285Y-72580952D01*
X117364285Y-72580952D02*
X117411904Y-72628571D01*
X117411904Y-72628571D02*
X117507142Y-72676190D01*
X117507142Y-72676190D02*
X117888094Y-72676190D01*
X116411904Y-72152380D02*
X116888094Y-72152380D01*
X116888094Y-72152380D02*
X116935713Y-72628571D01*
X116935713Y-72628571D02*
X116888094Y-72580952D01*
X116888094Y-72580952D02*
X116792856Y-72533333D01*
X116792856Y-72533333D02*
X116554761Y-72533333D01*
X116554761Y-72533333D02*
X116459523Y-72580952D01*
X116459523Y-72580952D02*
X116411904Y-72628571D01*
X116411904Y-72628571D02*
X116364285Y-72723809D01*
X116364285Y-72723809D02*
X116364285Y-72961904D01*
X116364285Y-72961904D02*
X116411904Y-73057142D01*
X116411904Y-73057142D02*
X116459523Y-73104761D01*
X116459523Y-73104761D02*
X116554761Y-73152380D01*
X116554761Y-73152380D02*
X116792856Y-73152380D01*
X116792856Y-73152380D02*
X116888094Y-73104761D01*
X116888094Y-73104761D02*
X116935713Y-73057142D01*
X110266666Y-74807142D02*
X110314285Y-74854761D01*
X110314285Y-74854761D02*
X110457142Y-74902380D01*
X110457142Y-74902380D02*
X110552380Y-74902380D01*
X110552380Y-74902380D02*
X110695237Y-74854761D01*
X110695237Y-74854761D02*
X110790475Y-74759523D01*
X110790475Y-74759523D02*
X110838094Y-74664285D01*
X110838094Y-74664285D02*
X110885713Y-74473809D01*
X110885713Y-74473809D02*
X110885713Y-74330952D01*
X110885713Y-74330952D02*
X110838094Y-74140476D01*
X110838094Y-74140476D02*
X110790475Y-74045238D01*
X110790475Y-74045238D02*
X110695237Y-73950000D01*
X110695237Y-73950000D02*
X110552380Y-73902380D01*
X110552380Y-73902380D02*
X110457142Y-73902380D01*
X110457142Y-73902380D02*
X110314285Y-73950000D01*
X110314285Y-73950000D02*
X110266666Y-73997619D01*
X109933332Y-73902380D02*
X109314285Y-73902380D01*
X109314285Y-73902380D02*
X109647618Y-74283333D01*
X109647618Y-74283333D02*
X109504761Y-74283333D01*
X109504761Y-74283333D02*
X109409523Y-74330952D01*
X109409523Y-74330952D02*
X109361904Y-74378571D01*
X109361904Y-74378571D02*
X109314285Y-74473809D01*
X109314285Y-74473809D02*
X109314285Y-74711904D01*
X109314285Y-74711904D02*
X109361904Y-74807142D01*
X109361904Y-74807142D02*
X109409523Y-74854761D01*
X109409523Y-74854761D02*
X109504761Y-74902380D01*
X109504761Y-74902380D02*
X109790475Y-74902380D01*
X109790475Y-74902380D02*
X109885713Y-74854761D01*
X109885713Y-74854761D02*
X109933332Y-74807142D01*
X136866666Y-72402380D02*
X137199999Y-71926190D01*
X137438094Y-72402380D02*
X137438094Y-71402380D01*
X137438094Y-71402380D02*
X137057142Y-71402380D01*
X137057142Y-71402380D02*
X136961904Y-71450000D01*
X136961904Y-71450000D02*
X136914285Y-71497619D01*
X136914285Y-71497619D02*
X136866666Y-71592857D01*
X136866666Y-71592857D02*
X136866666Y-71735714D01*
X136866666Y-71735714D02*
X136914285Y-71830952D01*
X136914285Y-71830952D02*
X136961904Y-71878571D01*
X136961904Y-71878571D02*
X137057142Y-71926190D01*
X137057142Y-71926190D02*
X137438094Y-71926190D01*
X136533332Y-71402380D02*
X135914285Y-71402380D01*
X135914285Y-71402380D02*
X136247618Y-71783333D01*
X136247618Y-71783333D02*
X136104761Y-71783333D01*
X136104761Y-71783333D02*
X136009523Y-71830952D01*
X136009523Y-71830952D02*
X135961904Y-71878571D01*
X135961904Y-71878571D02*
X135914285Y-71973809D01*
X135914285Y-71973809D02*
X135914285Y-72211904D01*
X135914285Y-72211904D02*
X135961904Y-72307142D01*
X135961904Y-72307142D02*
X136009523Y-72354761D01*
X136009523Y-72354761D02*
X136104761Y-72402380D01*
X136104761Y-72402380D02*
X136390475Y-72402380D01*
X136390475Y-72402380D02*
X136485713Y-72354761D01*
X136485713Y-72354761D02*
X136533332Y-72307142D01*
X109866666Y-76702380D02*
X110199999Y-76226190D01*
X110438094Y-76702380D02*
X110438094Y-75702380D01*
X110438094Y-75702380D02*
X110057142Y-75702380D01*
X110057142Y-75702380D02*
X109961904Y-75750000D01*
X109961904Y-75750000D02*
X109914285Y-75797619D01*
X109914285Y-75797619D02*
X109866666Y-75892857D01*
X109866666Y-75892857D02*
X109866666Y-76035714D01*
X109866666Y-76035714D02*
X109914285Y-76130952D01*
X109914285Y-76130952D02*
X109961904Y-76178571D01*
X109961904Y-76178571D02*
X110057142Y-76226190D01*
X110057142Y-76226190D02*
X110438094Y-76226190D01*
X108914285Y-76702380D02*
X109485713Y-76702380D01*
X109199999Y-76702380D02*
X109199999Y-75702380D01*
X109199999Y-75702380D02*
X109295237Y-75845238D01*
X109295237Y-75845238D02*
X109390475Y-75940476D01*
X109390475Y-75940476D02*
X109485713Y-75988095D01*
X113166666Y-78202380D02*
X113499999Y-77726190D01*
X113738094Y-78202380D02*
X113738094Y-77202380D01*
X113738094Y-77202380D02*
X113357142Y-77202380D01*
X113357142Y-77202380D02*
X113261904Y-77250000D01*
X113261904Y-77250000D02*
X113214285Y-77297619D01*
X113214285Y-77297619D02*
X113166666Y-77392857D01*
X113166666Y-77392857D02*
X113166666Y-77535714D01*
X113166666Y-77535714D02*
X113214285Y-77630952D01*
X113214285Y-77630952D02*
X113261904Y-77678571D01*
X113261904Y-77678571D02*
X113357142Y-77726190D01*
X113357142Y-77726190D02*
X113738094Y-77726190D01*
X112309523Y-77202380D02*
X112499999Y-77202380D01*
X112499999Y-77202380D02*
X112595237Y-77250000D01*
X112595237Y-77250000D02*
X112642856Y-77297619D01*
X112642856Y-77297619D02*
X112738094Y-77440476D01*
X112738094Y-77440476D02*
X112785713Y-77630952D01*
X112785713Y-77630952D02*
X112785713Y-78011904D01*
X112785713Y-78011904D02*
X112738094Y-78107142D01*
X112738094Y-78107142D02*
X112690475Y-78154761D01*
X112690475Y-78154761D02*
X112595237Y-78202380D01*
X112595237Y-78202380D02*
X112404761Y-78202380D01*
X112404761Y-78202380D02*
X112309523Y-78154761D01*
X112309523Y-78154761D02*
X112261904Y-78107142D01*
X112261904Y-78107142D02*
X112214285Y-78011904D01*
X112214285Y-78011904D02*
X112214285Y-77773809D01*
X112214285Y-77773809D02*
X112261904Y-77678571D01*
X112261904Y-77678571D02*
X112309523Y-77630952D01*
X112309523Y-77630952D02*
X112404761Y-77583333D01*
X112404761Y-77583333D02*
X112595237Y-77583333D01*
X112595237Y-77583333D02*
X112690475Y-77630952D01*
X112690475Y-77630952D02*
X112738094Y-77678571D01*
X112738094Y-77678571D02*
X112785713Y-77773809D01*
X137642857Y-94352380D02*
X137976190Y-93876190D01*
X138214285Y-94352380D02*
X138214285Y-93352380D01*
X138214285Y-93352380D02*
X137833333Y-93352380D01*
X137833333Y-93352380D02*
X137738095Y-93400000D01*
X137738095Y-93400000D02*
X137690476Y-93447619D01*
X137690476Y-93447619D02*
X137642857Y-93542857D01*
X137642857Y-93542857D02*
X137642857Y-93685714D01*
X137642857Y-93685714D02*
X137690476Y-93780952D01*
X137690476Y-93780952D02*
X137738095Y-93828571D01*
X137738095Y-93828571D02*
X137833333Y-93876190D01*
X137833333Y-93876190D02*
X138214285Y-93876190D01*
X136690476Y-94352380D02*
X137261904Y-94352380D01*
X136976190Y-94352380D02*
X136976190Y-93352380D01*
X136976190Y-93352380D02*
X137071428Y-93495238D01*
X137071428Y-93495238D02*
X137166666Y-93590476D01*
X137166666Y-93590476D02*
X137261904Y-93638095D01*
X136119047Y-93780952D02*
X136214285Y-93733333D01*
X136214285Y-93733333D02*
X136261904Y-93685714D01*
X136261904Y-93685714D02*
X136309523Y-93590476D01*
X136309523Y-93590476D02*
X136309523Y-93542857D01*
X136309523Y-93542857D02*
X136261904Y-93447619D01*
X136261904Y-93447619D02*
X136214285Y-93400000D01*
X136214285Y-93400000D02*
X136119047Y-93352380D01*
X136119047Y-93352380D02*
X135928571Y-93352380D01*
X135928571Y-93352380D02*
X135833333Y-93400000D01*
X135833333Y-93400000D02*
X135785714Y-93447619D01*
X135785714Y-93447619D02*
X135738095Y-93542857D01*
X135738095Y-93542857D02*
X135738095Y-93590476D01*
X135738095Y-93590476D02*
X135785714Y-93685714D01*
X135785714Y-93685714D02*
X135833333Y-93733333D01*
X135833333Y-93733333D02*
X135928571Y-93780952D01*
X135928571Y-93780952D02*
X136119047Y-93780952D01*
X136119047Y-93780952D02*
X136214285Y-93828571D01*
X136214285Y-93828571D02*
X136261904Y-93876190D01*
X136261904Y-93876190D02*
X136309523Y-93971428D01*
X136309523Y-93971428D02*
X136309523Y-94161904D01*
X136309523Y-94161904D02*
X136261904Y-94257142D01*
X136261904Y-94257142D02*
X136214285Y-94304761D01*
X136214285Y-94304761D02*
X136119047Y-94352380D01*
X136119047Y-94352380D02*
X135928571Y-94352380D01*
X135928571Y-94352380D02*
X135833333Y-94304761D01*
X135833333Y-94304761D02*
X135785714Y-94257142D01*
X135785714Y-94257142D02*
X135738095Y-94161904D01*
X135738095Y-94161904D02*
X135738095Y-93971428D01*
X135738095Y-93971428D02*
X135785714Y-93876190D01*
X135785714Y-93876190D02*
X135833333Y-93828571D01*
X135833333Y-93828571D02*
X135928571Y-93780952D01*
X113492857Y-96552380D02*
X113826190Y-96076190D01*
X114064285Y-96552380D02*
X114064285Y-95552380D01*
X114064285Y-95552380D02*
X113683333Y-95552380D01*
X113683333Y-95552380D02*
X113588095Y-95600000D01*
X113588095Y-95600000D02*
X113540476Y-95647619D01*
X113540476Y-95647619D02*
X113492857Y-95742857D01*
X113492857Y-95742857D02*
X113492857Y-95885714D01*
X113492857Y-95885714D02*
X113540476Y-95980952D01*
X113540476Y-95980952D02*
X113588095Y-96028571D01*
X113588095Y-96028571D02*
X113683333Y-96076190D01*
X113683333Y-96076190D02*
X114064285Y-96076190D01*
X112540476Y-96552380D02*
X113111904Y-96552380D01*
X112826190Y-96552380D02*
X112826190Y-95552380D01*
X112826190Y-95552380D02*
X112921428Y-95695238D01*
X112921428Y-95695238D02*
X113016666Y-95790476D01*
X113016666Y-95790476D02*
X113111904Y-95838095D01*
X112207142Y-95552380D02*
X111540476Y-95552380D01*
X111540476Y-95552380D02*
X111969047Y-96552380D01*
X99792857Y-100857142D02*
X99840476Y-100904761D01*
X99840476Y-100904761D02*
X99983333Y-100952380D01*
X99983333Y-100952380D02*
X100078571Y-100952380D01*
X100078571Y-100952380D02*
X100221428Y-100904761D01*
X100221428Y-100904761D02*
X100316666Y-100809523D01*
X100316666Y-100809523D02*
X100364285Y-100714285D01*
X100364285Y-100714285D02*
X100411904Y-100523809D01*
X100411904Y-100523809D02*
X100411904Y-100380952D01*
X100411904Y-100380952D02*
X100364285Y-100190476D01*
X100364285Y-100190476D02*
X100316666Y-100095238D01*
X100316666Y-100095238D02*
X100221428Y-100000000D01*
X100221428Y-100000000D02*
X100078571Y-99952380D01*
X100078571Y-99952380D02*
X99983333Y-99952380D01*
X99983333Y-99952380D02*
X99840476Y-100000000D01*
X99840476Y-100000000D02*
X99792857Y-100047619D01*
X99411904Y-100047619D02*
X99364285Y-100000000D01*
X99364285Y-100000000D02*
X99269047Y-99952380D01*
X99269047Y-99952380D02*
X99030952Y-99952380D01*
X99030952Y-99952380D02*
X98935714Y-100000000D01*
X98935714Y-100000000D02*
X98888095Y-100047619D01*
X98888095Y-100047619D02*
X98840476Y-100142857D01*
X98840476Y-100142857D02*
X98840476Y-100238095D01*
X98840476Y-100238095D02*
X98888095Y-100380952D01*
X98888095Y-100380952D02*
X99459523Y-100952380D01*
X99459523Y-100952380D02*
X98840476Y-100952380D01*
X97888095Y-100952380D02*
X98459523Y-100952380D01*
X98173809Y-100952380D02*
X98173809Y-99952380D01*
X98173809Y-99952380D02*
X98269047Y-100095238D01*
X98269047Y-100095238D02*
X98364285Y-100190476D01*
X98364285Y-100190476D02*
X98459523Y-100238095D01*
X103492857Y-100102380D02*
X103826190Y-99626190D01*
X104064285Y-100102380D02*
X104064285Y-99102380D01*
X104064285Y-99102380D02*
X103683333Y-99102380D01*
X103683333Y-99102380D02*
X103588095Y-99150000D01*
X103588095Y-99150000D02*
X103540476Y-99197619D01*
X103540476Y-99197619D02*
X103492857Y-99292857D01*
X103492857Y-99292857D02*
X103492857Y-99435714D01*
X103492857Y-99435714D02*
X103540476Y-99530952D01*
X103540476Y-99530952D02*
X103588095Y-99578571D01*
X103588095Y-99578571D02*
X103683333Y-99626190D01*
X103683333Y-99626190D02*
X104064285Y-99626190D01*
X103111904Y-99197619D02*
X103064285Y-99150000D01*
X103064285Y-99150000D02*
X102969047Y-99102380D01*
X102969047Y-99102380D02*
X102730952Y-99102380D01*
X102730952Y-99102380D02*
X102635714Y-99150000D01*
X102635714Y-99150000D02*
X102588095Y-99197619D01*
X102588095Y-99197619D02*
X102540476Y-99292857D01*
X102540476Y-99292857D02*
X102540476Y-99388095D01*
X102540476Y-99388095D02*
X102588095Y-99530952D01*
X102588095Y-99530952D02*
X103159523Y-100102380D01*
X103159523Y-100102380D02*
X102540476Y-100102380D01*
X101683333Y-99435714D02*
X101683333Y-100102380D01*
X101921428Y-99054761D02*
X102159523Y-99769047D01*
X102159523Y-99769047D02*
X101540476Y-99769047D01*
X88392857Y-100802380D02*
X88726190Y-100326190D01*
X88964285Y-100802380D02*
X88964285Y-99802380D01*
X88964285Y-99802380D02*
X88583333Y-99802380D01*
X88583333Y-99802380D02*
X88488095Y-99850000D01*
X88488095Y-99850000D02*
X88440476Y-99897619D01*
X88440476Y-99897619D02*
X88392857Y-99992857D01*
X88392857Y-99992857D02*
X88392857Y-100135714D01*
X88392857Y-100135714D02*
X88440476Y-100230952D01*
X88440476Y-100230952D02*
X88488095Y-100278571D01*
X88488095Y-100278571D02*
X88583333Y-100326190D01*
X88583333Y-100326190D02*
X88964285Y-100326190D01*
X88011904Y-99897619D02*
X87964285Y-99850000D01*
X87964285Y-99850000D02*
X87869047Y-99802380D01*
X87869047Y-99802380D02*
X87630952Y-99802380D01*
X87630952Y-99802380D02*
X87535714Y-99850000D01*
X87535714Y-99850000D02*
X87488095Y-99897619D01*
X87488095Y-99897619D02*
X87440476Y-99992857D01*
X87440476Y-99992857D02*
X87440476Y-100088095D01*
X87440476Y-100088095D02*
X87488095Y-100230952D01*
X87488095Y-100230952D02*
X88059523Y-100802380D01*
X88059523Y-100802380D02*
X87440476Y-100802380D01*
X86488095Y-100802380D02*
X87059523Y-100802380D01*
X86773809Y-100802380D02*
X86773809Y-99802380D01*
X86773809Y-99802380D02*
X86869047Y-99945238D01*
X86869047Y-99945238D02*
X86964285Y-100040476D01*
X86964285Y-100040476D02*
X87059523Y-100088095D01*
X137592857Y-98602380D02*
X137926190Y-98126190D01*
X138164285Y-98602380D02*
X138164285Y-97602380D01*
X138164285Y-97602380D02*
X137783333Y-97602380D01*
X137783333Y-97602380D02*
X137688095Y-97650000D01*
X137688095Y-97650000D02*
X137640476Y-97697619D01*
X137640476Y-97697619D02*
X137592857Y-97792857D01*
X137592857Y-97792857D02*
X137592857Y-97935714D01*
X137592857Y-97935714D02*
X137640476Y-98030952D01*
X137640476Y-98030952D02*
X137688095Y-98078571D01*
X137688095Y-98078571D02*
X137783333Y-98126190D01*
X137783333Y-98126190D02*
X138164285Y-98126190D01*
X137211904Y-97697619D02*
X137164285Y-97650000D01*
X137164285Y-97650000D02*
X137069047Y-97602380D01*
X137069047Y-97602380D02*
X136830952Y-97602380D01*
X136830952Y-97602380D02*
X136735714Y-97650000D01*
X136735714Y-97650000D02*
X136688095Y-97697619D01*
X136688095Y-97697619D02*
X136640476Y-97792857D01*
X136640476Y-97792857D02*
X136640476Y-97888095D01*
X136640476Y-97888095D02*
X136688095Y-98030952D01*
X136688095Y-98030952D02*
X137259523Y-98602380D01*
X137259523Y-98602380D02*
X136640476Y-98602380D01*
X136259523Y-97697619D02*
X136211904Y-97650000D01*
X136211904Y-97650000D02*
X136116666Y-97602380D01*
X136116666Y-97602380D02*
X135878571Y-97602380D01*
X135878571Y-97602380D02*
X135783333Y-97650000D01*
X135783333Y-97650000D02*
X135735714Y-97697619D01*
X135735714Y-97697619D02*
X135688095Y-97792857D01*
X135688095Y-97792857D02*
X135688095Y-97888095D01*
X135688095Y-97888095D02*
X135735714Y-98030952D01*
X135735714Y-98030952D02*
X136307142Y-98602380D01*
X136307142Y-98602380D02*
X135688095Y-98602380D01*
X109642857Y-89907142D02*
X109690476Y-89954761D01*
X109690476Y-89954761D02*
X109833333Y-90002380D01*
X109833333Y-90002380D02*
X109928571Y-90002380D01*
X109928571Y-90002380D02*
X110071428Y-89954761D01*
X110071428Y-89954761D02*
X110166666Y-89859523D01*
X110166666Y-89859523D02*
X110214285Y-89764285D01*
X110214285Y-89764285D02*
X110261904Y-89573809D01*
X110261904Y-89573809D02*
X110261904Y-89430952D01*
X110261904Y-89430952D02*
X110214285Y-89240476D01*
X110214285Y-89240476D02*
X110166666Y-89145238D01*
X110166666Y-89145238D02*
X110071428Y-89050000D01*
X110071428Y-89050000D02*
X109928571Y-89002380D01*
X109928571Y-89002380D02*
X109833333Y-89002380D01*
X109833333Y-89002380D02*
X109690476Y-89050000D01*
X109690476Y-89050000D02*
X109642857Y-89097619D01*
X108690476Y-90002380D02*
X109261904Y-90002380D01*
X108976190Y-90002380D02*
X108976190Y-89002380D01*
X108976190Y-89002380D02*
X109071428Y-89145238D01*
X109071428Y-89145238D02*
X109166666Y-89240476D01*
X109166666Y-89240476D02*
X109261904Y-89288095D01*
X108071428Y-89002380D02*
X107976190Y-89002380D01*
X107976190Y-89002380D02*
X107880952Y-89050000D01*
X107880952Y-89050000D02*
X107833333Y-89097619D01*
X107833333Y-89097619D02*
X107785714Y-89192857D01*
X107785714Y-89192857D02*
X107738095Y-89383333D01*
X107738095Y-89383333D02*
X107738095Y-89621428D01*
X107738095Y-89621428D02*
X107785714Y-89811904D01*
X107785714Y-89811904D02*
X107833333Y-89907142D01*
X107833333Y-89907142D02*
X107880952Y-89954761D01*
X107880952Y-89954761D02*
X107976190Y-90002380D01*
X107976190Y-90002380D02*
X108071428Y-90002380D01*
X108071428Y-90002380D02*
X108166666Y-89954761D01*
X108166666Y-89954761D02*
X108214285Y-89907142D01*
X108214285Y-89907142D02*
X108261904Y-89811904D01*
X108261904Y-89811904D02*
X108309523Y-89621428D01*
X108309523Y-89621428D02*
X108309523Y-89383333D01*
X108309523Y-89383333D02*
X108261904Y-89192857D01*
X108261904Y-89192857D02*
X108214285Y-89097619D01*
X108214285Y-89097619D02*
X108166666Y-89050000D01*
X108166666Y-89050000D02*
X108071428Y-89002380D01*
D11*
X91520000Y-93720000D02*
X91520000Y-93420000D01*
X91520000Y-90880000D02*
X91520000Y-90580000D01*
X91520000Y-90580000D02*
X87380000Y-90580000D01*
X87380000Y-93720000D02*
X91520000Y-93720000D01*
X87380000Y-93420000D02*
X87380000Y-93720000D01*
X87380000Y-90580000D02*
X87380000Y-90880000D01*
X87430000Y-86580000D02*
X87430000Y-86880000D01*
X87430000Y-89420000D02*
X87430000Y-89720000D01*
X87430000Y-89720000D02*
X91570000Y-89720000D01*
X91570000Y-86580000D02*
X87430000Y-86580000D01*
X91570000Y-86880000D02*
X91570000Y-86580000D01*
X91570000Y-89720000D02*
X91570000Y-89420000D01*
X118503733Y-97240000D02*
X118796267Y-97240000D01*
X118503733Y-98260000D02*
X118796267Y-98260000D01*
X111945276Y-90977500D02*
X112454724Y-90977500D01*
X111945276Y-92022500D02*
X112454724Y-92022500D01*
X87430000Y-74730000D02*
X87430000Y-75030000D01*
X87430000Y-77570000D02*
X87430000Y-77870000D01*
X87430000Y-77870000D02*
X91570000Y-77870000D01*
X91570000Y-74730000D02*
X87430000Y-74730000D01*
X91570000Y-75030000D02*
X91570000Y-74730000D01*
X91570000Y-77870000D02*
X91570000Y-77570000D01*
X105400000Y-98260000D02*
X107350000Y-98260000D01*
X105400000Y-98260000D02*
X103450000Y-98260000D01*
X105400000Y-93140000D02*
X108850000Y-93140000D01*
X105400000Y-93140000D02*
X103450000Y-93140000D01*
X91520000Y-97620000D02*
X91520000Y-97320000D01*
X91520000Y-94780000D02*
X91520000Y-94480000D01*
X91520000Y-94480000D02*
X87380000Y-94480000D01*
X87380000Y-97620000D02*
X91520000Y-97620000D01*
X87380000Y-97320000D02*
X87380000Y-97620000D01*
X87380000Y-94480000D02*
X87380000Y-94780000D01*
X101303733Y-91740000D02*
X101596267Y-91740000D01*
X101303733Y-92760000D02*
X101596267Y-92760000D01*
X91570000Y-85820000D02*
X91570000Y-85520000D01*
X91570000Y-82980000D02*
X91570000Y-82680000D01*
X91570000Y-82680000D02*
X87430000Y-82680000D01*
X87430000Y-85820000D02*
X91570000Y-85820000D01*
X87430000Y-85520000D02*
X87430000Y-85820000D01*
X87430000Y-82680000D02*
X87430000Y-82980000D01*
X101072500Y-94395276D02*
X101072500Y-94904724D01*
X100027500Y-94395276D02*
X100027500Y-94904724D01*
X122000000Y-70465000D02*
X120050000Y-70465000D01*
X122000000Y-70465000D02*
X123950000Y-70465000D01*
X122000000Y-79335000D02*
X118550000Y-79335000D01*
X122000000Y-79335000D02*
X123950000Y-79335000D01*
X118191233Y-80040000D02*
X118483767Y-80040000D01*
X118191233Y-81060000D02*
X118483767Y-81060000D01*
X128922936Y-78740000D02*
X133277064Y-78740000D01*
X128922936Y-82160000D02*
X133277064Y-82160000D01*
X128922936Y-87890000D02*
X133277064Y-87890000D01*
X128922936Y-91310000D02*
X133277064Y-91310000D01*
X122000000Y-87565000D02*
X120050000Y-87565000D01*
X122000000Y-87565000D02*
X123950000Y-87565000D01*
X122000000Y-96435000D02*
X118550000Y-96435000D01*
X122000000Y-96435000D02*
X123950000Y-96435000D01*
X91620000Y-81870000D02*
X91620000Y-81570000D01*
X91620000Y-79030000D02*
X91620000Y-78730000D01*
X91620000Y-78730000D02*
X87480000Y-78730000D01*
X87480000Y-81870000D02*
X91620000Y-81870000D01*
X87480000Y-81570000D02*
X87480000Y-81870000D01*
X87480000Y-78730000D02*
X87480000Y-79030000D01*
X128972936Y-74440000D02*
X133327064Y-74440000D01*
X128972936Y-77860000D02*
X133327064Y-77860000D01*
X118395276Y-98877500D02*
X118904724Y-98877500D01*
X118395276Y-99922500D02*
X118904724Y-99922500D01*
X116072500Y-89745276D02*
X116072500Y-90254724D01*
X115027500Y-89745276D02*
X115027500Y-90254724D01*
X117995276Y-81727500D02*
X118504724Y-81727500D01*
X117995276Y-82772500D02*
X118504724Y-82772500D01*
X96990000Y-98946267D02*
X96990000Y-98653733D01*
X98010000Y-98946267D02*
X98010000Y-98653733D01*
X117222500Y-74895276D02*
X117222500Y-75404724D01*
X116177500Y-74895276D02*
X116177500Y-75404724D01*
X112703733Y-73940000D02*
X112996267Y-73940000D01*
X112703733Y-74960000D02*
X112996267Y-74960000D01*
X128922936Y-69990000D02*
X133277064Y-69990000D01*
X128922936Y-73410000D02*
X133277064Y-73410000D01*
X112645276Y-75577500D02*
X113154724Y-75577500D01*
X112645276Y-76622500D02*
X113154724Y-76622500D01*
X115445276Y-77327500D02*
X115954724Y-77327500D01*
X115445276Y-78372500D02*
X115954724Y-78372500D01*
X128922936Y-92190000D02*
X133277064Y-92190000D01*
X128922936Y-95610000D02*
X133277064Y-95610000D01*
X115845276Y-95527500D02*
X116354724Y-95527500D01*
X115845276Y-96572500D02*
X116354724Y-96572500D01*
X99560000Y-98303733D02*
X99560000Y-98596267D01*
X98540000Y-98303733D02*
X98540000Y-98596267D01*
X101122500Y-98195276D02*
X101122500Y-98704724D01*
X100077500Y-98195276D02*
X100077500Y-98704724D01*
X88004724Y-99472500D02*
X87495276Y-99472500D01*
X88004724Y-98427500D02*
X87495276Y-98427500D01*
X128972936Y-96440000D02*
X133327064Y-96440000D01*
X128972936Y-99860000D02*
X133327064Y-99860000D01*
X112053733Y-89140000D02*
X112346267Y-89140000D01*
X112053733Y-90160000D02*
X112346267Y-90160000D01*
%LPC*%
D12*
X91550000Y-92150000D03*
X87350000Y-92150000D03*
X87400000Y-88150000D03*
X91600000Y-88150000D03*
D13*
X145900000Y-97375000D03*
X145900000Y-90375000D03*
D14*
X110300000Y-72700000D03*
X115300000Y-72700000D03*
X110350000Y-79800000D03*
X115350000Y-79800000D03*
D15*
X90499999Y-98899999D03*
D16*
X93039999Y-98899999D03*
X95579999Y-98899999D03*
D14*
X110450000Y-86900000D03*
X115450000Y-86900000D03*
X110500000Y-94050000D03*
X115500000Y-94050000D03*
D17*
X117787500Y-97750000D03*
X119512500Y-97750000D03*
D18*
X111287500Y-91500000D03*
X113112500Y-91500000D03*
D12*
X87400000Y-76300000D03*
X91600000Y-76300000D03*
D19*
X107875000Y-93795000D03*
X107875000Y-95065000D03*
X107875000Y-96335000D03*
X107875000Y-97605000D03*
X102925000Y-97605000D03*
X102925000Y-96335000D03*
X102925000Y-95065000D03*
X102925000Y-93795000D03*
D12*
X91550000Y-96050000D03*
X87350000Y-96050000D03*
D17*
X100587500Y-92250000D03*
X102312500Y-92250000D03*
D12*
X91600000Y-84250000D03*
X87400000Y-84250000D03*
D20*
X100550000Y-93737500D03*
X100550000Y-95562500D03*
D21*
X119525000Y-78710000D03*
X119525000Y-77440000D03*
X119525000Y-76170000D03*
X119525000Y-74900000D03*
X119525000Y-73630000D03*
X119525000Y-72360000D03*
X119525000Y-71090000D03*
X124475000Y-71090000D03*
X124475000Y-72360000D03*
X124475000Y-73630000D03*
X124475000Y-74900000D03*
X124475000Y-76170000D03*
X124475000Y-77440000D03*
X124475000Y-78710000D03*
D17*
X117475000Y-80550000D03*
X119200000Y-80550000D03*
D22*
X128050000Y-80450000D03*
X134150000Y-80450000D03*
X128050000Y-89600000D03*
X134150000Y-89600000D03*
D21*
X119525000Y-95810000D03*
X119525000Y-94540000D03*
X119525000Y-93270000D03*
X119525000Y-92000000D03*
X119525000Y-90730000D03*
X119525000Y-89460000D03*
X119525000Y-88190000D03*
X124475000Y-88190000D03*
X124475000Y-89460000D03*
X124475000Y-90730000D03*
X124475000Y-92000000D03*
X124475000Y-93270000D03*
X124475000Y-94540000D03*
X124475000Y-95810000D03*
D12*
X91650000Y-80300000D03*
X87450000Y-80300000D03*
D22*
X128100000Y-76150000D03*
X134200000Y-76150000D03*
D18*
X117737500Y-99400000D03*
X119562500Y-99400000D03*
D20*
X115550000Y-89087500D03*
X115550000Y-90912500D03*
D18*
X117337500Y-82250000D03*
X119162500Y-82250000D03*
D23*
X97500000Y-99662500D03*
X97500000Y-97937500D03*
D20*
X116700000Y-74237500D03*
X116700000Y-76062500D03*
D17*
X111987500Y-74450000D03*
X113712500Y-74450000D03*
D22*
X128050000Y-71700000D03*
X134150000Y-71700000D03*
D18*
X111987500Y-76100000D03*
X113812500Y-76100000D03*
X114787500Y-77850000D03*
X116612500Y-77850000D03*
D22*
X128050000Y-93900000D03*
X134150000Y-93900000D03*
D18*
X115187500Y-96050000D03*
X117012500Y-96050000D03*
D24*
X99050000Y-97587500D03*
X99050000Y-99312500D03*
D20*
X100600000Y-97537500D03*
X100600000Y-99362500D03*
D25*
X88662500Y-98950000D03*
X86837500Y-98950000D03*
D22*
X128100000Y-98150000D03*
X134200000Y-98150000D03*
D17*
X111337500Y-89650000D03*
X113062500Y-89650000D03*
M02*
