G04 #@! TF.GenerationSoftware,KiCad,Pcbnew,6.99.0-unknown-455e330f3b~148~ubuntu20.04.1*
G04 #@! TF.CreationDate,2022-04-21T17:09:55+05:30*
G04 #@! TF.ProjectId,aptx_headset,61707478-5f68-4656-9164-7365742e6b69,rev?*
G04 #@! TF.SameCoordinates,Original*
G04 #@! TF.FileFunction,Legend,Top*
G04 #@! TF.FilePolarity,Positive*
%FSLAX46Y46*%
G04 Gerber Fmt 4.6, Leading zero omitted, Abs format (unit mm)*
G04 Created by KiCad (PCBNEW 6.99.0-unknown-455e330f3b~148~ubuntu20.04.1) date 2022-04-21 17:09:55*
%MOMM*%
%LPD*%
G01*
G04 APERTURE LIST*
G04 Aperture macros list*
%AMRoundRect*
0 Rectangle with rounded corners*
0 $1 Rounding radius*
0 $2 $3 $4 $5 $6 $7 $8 $9 X,Y pos of 4 corners*
0 Add a 4 corners polygon primitive as box body*
4,1,4,$2,$3,$4,$5,$6,$7,$8,$9,$2,$3,0*
0 Add four circle primitives for the rounded corners*
1,1,$1+$1,$2,$3*
1,1,$1+$1,$4,$5*
1,1,$1+$1,$6,$7*
1,1,$1+$1,$8,$9*
0 Add four rect primitives between the rounded corners*
20,1,$1+$1,$2,$3,$4,$5,0*
20,1,$1+$1,$4,$5,$6,$7,0*
20,1,$1+$1,$6,$7,$8,$9,0*
20,1,$1+$1,$8,$9,$2,$3,0*%
G04 Aperture macros list end*
%ADD10C,0.150000*%
%ADD11C,0.300000*%
%ADD12C,0.120000*%
%ADD13R,1.700000X1.700000*%
%ADD14O,1.700000X1.700000*%
%ADD15RoundRect,0.200000X-0.650000X-0.200000X0.650000X-0.200000X0.650000X0.200000X-0.650000X0.200000X0*%
%ADD16RoundRect,0.200000X0.200000X-0.650000X0.200000X0.650000X-0.200000X0.650000X-0.200000X-0.650000X0*%
%ADD17RoundRect,0.200000X0.650000X0.200000X-0.650000X0.200000X-0.650000X-0.200000X0.650000X-0.200000X0*%
%ADD18C,1.500000*%
%ADD19R,2.500000X1.200000*%
%ADD20RoundRect,0.237500X-0.300000X-0.237500X0.300000X-0.237500X0.300000X0.237500X-0.300000X0.237500X0*%
%ADD21RoundRect,0.250000X-0.325000X-0.450000X0.325000X-0.450000X0.325000X0.450000X-0.325000X0.450000X0*%
%ADD22RoundRect,0.250000X-1.500000X-1.000000X1.500000X-1.000000X1.500000X1.000000X-1.500000X1.000000X0*%
%ADD23RoundRect,0.237500X0.237500X-0.250000X0.237500X0.250000X-0.237500X0.250000X-0.237500X-0.250000X0*%
%ADD24RoundRect,0.237500X-0.237500X0.287500X-0.237500X-0.287500X0.237500X-0.287500X0.237500X0.287500X0*%
%ADD25C,1.600000*%
%ADD26RoundRect,0.237500X-0.250000X-0.237500X0.250000X-0.237500X0.250000X0.237500X-0.250000X0.237500X0*%
%ADD27RoundRect,0.237500X0.237500X-0.300000X0.237500X0.300000X-0.237500X0.300000X-0.237500X-0.300000X0*%
%ADD28RoundRect,0.237500X0.300000X0.237500X-0.300000X0.237500X-0.300000X-0.237500X0.300000X-0.237500X0*%
%ADD29RoundRect,0.237500X-0.237500X0.250000X-0.237500X-0.250000X0.237500X-0.250000X0.237500X0.250000X0*%
%ADD30RoundRect,0.250000X-0.412500X-0.650000X0.412500X-0.650000X0.412500X0.650000X-0.412500X0.650000X0*%
%ADD31RoundRect,0.237500X0.250000X0.237500X-0.250000X0.237500X-0.250000X-0.237500X0.250000X-0.237500X0*%
G04 APERTURE END LIST*
D10*
X140457142Y-97050000D02*
X140361904Y-97002380D01*
X140361904Y-97002380D02*
X140219047Y-97002380D01*
X140219047Y-97002380D02*
X140076190Y-97050000D01*
X140076190Y-97050000D02*
X139980952Y-97145238D01*
X139980952Y-97145238D02*
X139933333Y-97240476D01*
X139933333Y-97240476D02*
X139885714Y-97430952D01*
X139885714Y-97430952D02*
X139885714Y-97573809D01*
X139885714Y-97573809D02*
X139933333Y-97764285D01*
X139933333Y-97764285D02*
X139980952Y-97859523D01*
X139980952Y-97859523D02*
X140076190Y-97954761D01*
X140076190Y-97954761D02*
X140219047Y-98002380D01*
X140219047Y-98002380D02*
X140314285Y-98002380D01*
X140314285Y-98002380D02*
X140457142Y-97954761D01*
X140457142Y-97954761D02*
X140504761Y-97907142D01*
X140504761Y-97907142D02*
X140504761Y-97573809D01*
X140504761Y-97573809D02*
X140314285Y-97573809D01*
X140933333Y-97335714D02*
X140933333Y-98002380D01*
X140933333Y-97430952D02*
X140980952Y-97383333D01*
X140980952Y-97383333D02*
X141076190Y-97335714D01*
X141076190Y-97335714D02*
X141219047Y-97335714D01*
X141219047Y-97335714D02*
X141314285Y-97383333D01*
X141314285Y-97383333D02*
X141361904Y-97478571D01*
X141361904Y-97478571D02*
X141361904Y-98002380D01*
X142266666Y-98002380D02*
X142266666Y-97002380D01*
X142266666Y-97954761D02*
X142171428Y-98002380D01*
X142171428Y-98002380D02*
X141980952Y-98002380D01*
X141980952Y-98002380D02*
X141885714Y-97954761D01*
X141885714Y-97954761D02*
X141838095Y-97907142D01*
X141838095Y-97907142D02*
X141790476Y-97811904D01*
X141790476Y-97811904D02*
X141790476Y-97526190D01*
X141790476Y-97526190D02*
X141838095Y-97430952D01*
X141838095Y-97430952D02*
X141885714Y-97383333D01*
X141885714Y-97383333D02*
X141980952Y-97335714D01*
X141980952Y-97335714D02*
X142171428Y-97335714D01*
X142171428Y-97335714D02*
X142266666Y-97383333D01*
X146450000Y-86652380D02*
X146450000Y-85652380D01*
X146450000Y-85652380D02*
X146783333Y-86366666D01*
X146783333Y-86366666D02*
X147116666Y-85652380D01*
X147116666Y-85652380D02*
X147116666Y-86652380D01*
X147592857Y-86652380D02*
X147592857Y-85985714D01*
X147592857Y-85652380D02*
X147545238Y-85700000D01*
X147545238Y-85700000D02*
X147592857Y-85747619D01*
X147592857Y-85747619D02*
X147640476Y-85700000D01*
X147640476Y-85700000D02*
X147592857Y-85652380D01*
X147592857Y-85652380D02*
X147592857Y-85747619D01*
X148497618Y-86604761D02*
X148402380Y-86652380D01*
X148402380Y-86652380D02*
X148211904Y-86652380D01*
X148211904Y-86652380D02*
X148116666Y-86604761D01*
X148116666Y-86604761D02*
X148069047Y-86557142D01*
X148069047Y-86557142D02*
X148021428Y-86461904D01*
X148021428Y-86461904D02*
X148021428Y-86176190D01*
X148021428Y-86176190D02*
X148069047Y-86080952D01*
X148069047Y-86080952D02*
X148116666Y-86033333D01*
X148116666Y-86033333D02*
X148211904Y-85985714D01*
X148211904Y-85985714D02*
X148402380Y-85985714D01*
X148402380Y-85985714D02*
X148497618Y-86033333D01*
X141359523Y-87602380D02*
X140883333Y-87602380D01*
X140883333Y-87602380D02*
X140883333Y-86602380D01*
X141409523Y-91352380D02*
X141076190Y-90876190D01*
X140838095Y-91352380D02*
X140838095Y-90352380D01*
X140838095Y-90352380D02*
X141219047Y-90352380D01*
X141219047Y-90352380D02*
X141314285Y-90400000D01*
X141314285Y-90400000D02*
X141361904Y-90447619D01*
X141361904Y-90447619D02*
X141409523Y-90542857D01*
X141409523Y-90542857D02*
X141409523Y-90685714D01*
X141409523Y-90685714D02*
X141361904Y-90780952D01*
X141361904Y-90780952D02*
X141314285Y-90828571D01*
X141314285Y-90828571D02*
X141219047Y-90876190D01*
X141219047Y-90876190D02*
X140838095Y-90876190D01*
X94988095Y-99902380D02*
X95321428Y-100902380D01*
X95321428Y-100902380D02*
X95654761Y-99902380D01*
X95940476Y-100616666D02*
X96416666Y-100616666D01*
X95845238Y-100902380D02*
X96178571Y-99902380D01*
X96178571Y-99902380D02*
X96511904Y-100902380D01*
X92288095Y-99950000D02*
X92192857Y-99902380D01*
X92192857Y-99902380D02*
X92050000Y-99902380D01*
X92050000Y-99902380D02*
X91907143Y-99950000D01*
X91907143Y-99950000D02*
X91811905Y-100045238D01*
X91811905Y-100045238D02*
X91764286Y-100140476D01*
X91764286Y-100140476D02*
X91716667Y-100330952D01*
X91716667Y-100330952D02*
X91716667Y-100473809D01*
X91716667Y-100473809D02*
X91764286Y-100664285D01*
X91764286Y-100664285D02*
X91811905Y-100759523D01*
X91811905Y-100759523D02*
X91907143Y-100854761D01*
X91907143Y-100854761D02*
X92050000Y-100902380D01*
X92050000Y-100902380D02*
X92145238Y-100902380D01*
X92145238Y-100902380D02*
X92288095Y-100854761D01*
X92288095Y-100854761D02*
X92335714Y-100807142D01*
X92335714Y-100807142D02*
X92335714Y-100473809D01*
X92335714Y-100473809D02*
X92145238Y-100473809D01*
X92764286Y-100902380D02*
X92764286Y-99902380D01*
X92764286Y-99902380D02*
X93335714Y-100902380D01*
X93335714Y-100902380D02*
X93335714Y-99902380D01*
X93811905Y-100902380D02*
X93811905Y-99902380D01*
X93811905Y-99902380D02*
X94050000Y-99902380D01*
X94050000Y-99902380D02*
X94192857Y-99950000D01*
X94192857Y-99950000D02*
X94288095Y-100045238D01*
X94288095Y-100045238D02*
X94335714Y-100140476D01*
X94335714Y-100140476D02*
X94383333Y-100330952D01*
X94383333Y-100330952D02*
X94383333Y-100473809D01*
X94383333Y-100473809D02*
X94335714Y-100664285D01*
X94335714Y-100664285D02*
X94288095Y-100759523D01*
X94288095Y-100759523D02*
X94192857Y-100854761D01*
X94192857Y-100854761D02*
X94050000Y-100902380D01*
X94050000Y-100902380D02*
X93811905Y-100902380D01*
X89666667Y-99952380D02*
X90000000Y-100952380D01*
X90000000Y-100952380D02*
X90333333Y-99952380D01*
X91000000Y-100428571D02*
X91142857Y-100476190D01*
X91142857Y-100476190D02*
X91190476Y-100523809D01*
X91190476Y-100523809D02*
X91238095Y-100619047D01*
X91238095Y-100619047D02*
X91238095Y-100761904D01*
X91238095Y-100761904D02*
X91190476Y-100857142D01*
X91190476Y-100857142D02*
X91142857Y-100904761D01*
X91142857Y-100904761D02*
X91047619Y-100952380D01*
X91047619Y-100952380D02*
X90666667Y-100952380D01*
X90666667Y-100952380D02*
X90666667Y-99952380D01*
X90666667Y-99952380D02*
X91000000Y-99952380D01*
X91000000Y-99952380D02*
X91095238Y-100000000D01*
X91095238Y-100000000D02*
X91142857Y-100047619D01*
X91142857Y-100047619D02*
X91190476Y-100142857D01*
X91190476Y-100142857D02*
X91190476Y-100238095D01*
X91190476Y-100238095D02*
X91142857Y-100333333D01*
X91142857Y-100333333D02*
X91095238Y-100380952D01*
X91095238Y-100380952D02*
X91000000Y-100428571D01*
X91000000Y-100428571D02*
X90666667Y-100428571D01*
D11*
X141185714Y-73878571D02*
X141185714Y-72378571D01*
X141185714Y-73092857D02*
X142042857Y-73092857D01*
X142042857Y-73878571D02*
X142042857Y-72378571D01*
X142757143Y-73092857D02*
X143257143Y-73092857D01*
X143471429Y-73878571D02*
X142757143Y-73878571D01*
X142757143Y-73878571D02*
X142757143Y-72378571D01*
X142757143Y-72378571D02*
X143471429Y-72378571D01*
X144042858Y-73450000D02*
X144757144Y-73450000D01*
X143900001Y-73878571D02*
X144400001Y-72378571D01*
X144400001Y-72378571D02*
X144900001Y-73878571D01*
X145400000Y-73878571D02*
X145400000Y-72378571D01*
X145400000Y-72378571D02*
X145757143Y-72378571D01*
X145757143Y-72378571D02*
X145971429Y-72450000D01*
X145971429Y-72450000D02*
X146114286Y-72592857D01*
X146114286Y-72592857D02*
X146185715Y-72735714D01*
X146185715Y-72735714D02*
X146257143Y-73021428D01*
X146257143Y-73021428D02*
X146257143Y-73235714D01*
X146257143Y-73235714D02*
X146185715Y-73521428D01*
X146185715Y-73521428D02*
X146114286Y-73664285D01*
X146114286Y-73664285D02*
X145971429Y-73807142D01*
X145971429Y-73807142D02*
X145757143Y-73878571D01*
X145757143Y-73878571D02*
X145400000Y-73878571D01*
X146828572Y-73807142D02*
X147042858Y-73878571D01*
X147042858Y-73878571D02*
X147400000Y-73878571D01*
X147400000Y-73878571D02*
X147542858Y-73807142D01*
X147542858Y-73807142D02*
X147614286Y-73735714D01*
X147614286Y-73735714D02*
X147685715Y-73592857D01*
X147685715Y-73592857D02*
X147685715Y-73450000D01*
X147685715Y-73450000D02*
X147614286Y-73307142D01*
X147614286Y-73307142D02*
X147542858Y-73235714D01*
X147542858Y-73235714D02*
X147400000Y-73164285D01*
X147400000Y-73164285D02*
X147114286Y-73092857D01*
X147114286Y-73092857D02*
X146971429Y-73021428D01*
X146971429Y-73021428D02*
X146900000Y-72950000D01*
X146900000Y-72950000D02*
X146828572Y-72807142D01*
X146828572Y-72807142D02*
X146828572Y-72664285D01*
X146828572Y-72664285D02*
X146900000Y-72521428D01*
X146900000Y-72521428D02*
X146971429Y-72450000D01*
X146971429Y-72450000D02*
X147114286Y-72378571D01*
X147114286Y-72378571D02*
X147471429Y-72378571D01*
X147471429Y-72378571D02*
X147685715Y-72450000D01*
X148328571Y-73092857D02*
X148828571Y-73092857D01*
X149042857Y-73878571D02*
X148328571Y-73878571D01*
X148328571Y-73878571D02*
X148328571Y-72378571D01*
X148328571Y-72378571D02*
X149042857Y-72378571D01*
X149471429Y-72378571D02*
X150328572Y-72378571D01*
X149900000Y-73878571D02*
X149900000Y-72378571D01*
X143557143Y-70800000D02*
X144271429Y-70800000D01*
X143414286Y-71228571D02*
X143914286Y-69728571D01*
X143914286Y-69728571D02*
X144414286Y-71228571D01*
X144914285Y-71228571D02*
X144914285Y-69728571D01*
X144914285Y-69728571D02*
X145485714Y-69728571D01*
X145485714Y-69728571D02*
X145628571Y-69800000D01*
X145628571Y-69800000D02*
X145700000Y-69871428D01*
X145700000Y-69871428D02*
X145771428Y-70014285D01*
X145771428Y-70014285D02*
X145771428Y-70228571D01*
X145771428Y-70228571D02*
X145700000Y-70371428D01*
X145700000Y-70371428D02*
X145628571Y-70442857D01*
X145628571Y-70442857D02*
X145485714Y-70514285D01*
X145485714Y-70514285D02*
X144914285Y-70514285D01*
X146200000Y-69728571D02*
X147057143Y-69728571D01*
X146628571Y-71228571D02*
X146628571Y-69728571D01*
X147414285Y-69728571D02*
X148414285Y-71228571D01*
X148414285Y-69728571D02*
X147414285Y-71228571D01*
D10*
X98016666Y-98802380D02*
X98016666Y-99516666D01*
X98016666Y-99516666D02*
X97969047Y-99659523D01*
X97969047Y-99659523D02*
X97873809Y-99754761D01*
X97873809Y-99754761D02*
X97730952Y-99802380D01*
X97730952Y-99802380D02*
X97635714Y-99802380D01*
X98445238Y-98897619D02*
X98492857Y-98850000D01*
X98492857Y-98850000D02*
X98588095Y-98802380D01*
X98588095Y-98802380D02*
X98826190Y-98802380D01*
X98826190Y-98802380D02*
X98921428Y-98850000D01*
X98921428Y-98850000D02*
X98969047Y-98897619D01*
X98969047Y-98897619D02*
X99016666Y-98992857D01*
X99016666Y-98992857D02*
X99016666Y-99088095D01*
X99016666Y-99088095D02*
X98969047Y-99230952D01*
X98969047Y-99230952D02*
X98397619Y-99802380D01*
X98397619Y-99802380D02*
X99016666Y-99802380D01*
X98788095Y-76852380D02*
X98788095Y-77661904D01*
X98788095Y-77661904D02*
X98835714Y-77757142D01*
X98835714Y-77757142D02*
X98883333Y-77804761D01*
X98883333Y-77804761D02*
X98978571Y-77852380D01*
X98978571Y-77852380D02*
X99169047Y-77852380D01*
X99169047Y-77852380D02*
X99264285Y-77804761D01*
X99264285Y-77804761D02*
X99311904Y-77757142D01*
X99311904Y-77757142D02*
X99359523Y-77661904D01*
X99359523Y-77661904D02*
X99359523Y-76852380D01*
X99788095Y-76947619D02*
X99835714Y-76900000D01*
X99835714Y-76900000D02*
X99930952Y-76852380D01*
X99930952Y-76852380D02*
X100169047Y-76852380D01*
X100169047Y-76852380D02*
X100264285Y-76900000D01*
X100264285Y-76900000D02*
X100311904Y-76947619D01*
X100311904Y-76947619D02*
X100359523Y-77042857D01*
X100359523Y-77042857D02*
X100359523Y-77138095D01*
X100359523Y-77138095D02*
X100311904Y-77280952D01*
X100311904Y-77280952D02*
X99740476Y-77852380D01*
X99740476Y-77852380D02*
X100359523Y-77852380D01*
X149566666Y-99302380D02*
X149566666Y-100016666D01*
X149566666Y-100016666D02*
X149519047Y-100159523D01*
X149519047Y-100159523D02*
X149423809Y-100254761D01*
X149423809Y-100254761D02*
X149280952Y-100302380D01*
X149280952Y-100302380D02*
X149185714Y-100302380D01*
X150566666Y-100302380D02*
X149995238Y-100302380D01*
X150280952Y-100302380D02*
X150280952Y-99302380D01*
X150280952Y-99302380D02*
X150185714Y-99445238D01*
X150185714Y-99445238D02*
X150090476Y-99540476D01*
X150090476Y-99540476D02*
X149995238Y-99588095D01*
X124857142Y-86907142D02*
X124809523Y-86954761D01*
X124809523Y-86954761D02*
X124666666Y-87002380D01*
X124666666Y-87002380D02*
X124571428Y-87002380D01*
X124571428Y-87002380D02*
X124428571Y-86954761D01*
X124428571Y-86954761D02*
X124333333Y-86859523D01*
X124333333Y-86859523D02*
X124285714Y-86764285D01*
X124285714Y-86764285D02*
X124238095Y-86573809D01*
X124238095Y-86573809D02*
X124238095Y-86430952D01*
X124238095Y-86430952D02*
X124285714Y-86240476D01*
X124285714Y-86240476D02*
X124333333Y-86145238D01*
X124333333Y-86145238D02*
X124428571Y-86050000D01*
X124428571Y-86050000D02*
X124571428Y-86002380D01*
X124571428Y-86002380D02*
X124666666Y-86002380D01*
X124666666Y-86002380D02*
X124809523Y-86050000D01*
X124809523Y-86050000D02*
X124857142Y-86097619D01*
X125809523Y-87002380D02*
X125238095Y-87002380D01*
X125523809Y-87002380D02*
X125523809Y-86002380D01*
X125523809Y-86002380D02*
X125428571Y-86145238D01*
X125428571Y-86145238D02*
X125333333Y-86240476D01*
X125333333Y-86240476D02*
X125238095Y-86288095D01*
X126285714Y-87002380D02*
X126476190Y-87002380D01*
X126476190Y-87002380D02*
X126571428Y-86954761D01*
X126571428Y-86954761D02*
X126619047Y-86907142D01*
X126619047Y-86907142D02*
X126714285Y-86764285D01*
X126714285Y-86764285D02*
X126761904Y-86573809D01*
X126761904Y-86573809D02*
X126761904Y-86192857D01*
X126761904Y-86192857D02*
X126714285Y-86097619D01*
X126714285Y-86097619D02*
X126666666Y-86050000D01*
X126666666Y-86050000D02*
X126571428Y-86002380D01*
X126571428Y-86002380D02*
X126380952Y-86002380D01*
X126380952Y-86002380D02*
X126285714Y-86050000D01*
X126285714Y-86050000D02*
X126238095Y-86097619D01*
X126238095Y-86097619D02*
X126190476Y-86192857D01*
X126190476Y-86192857D02*
X126190476Y-86430952D01*
X126190476Y-86430952D02*
X126238095Y-86526190D01*
X126238095Y-86526190D02*
X126285714Y-86573809D01*
X126285714Y-86573809D02*
X126380952Y-86621428D01*
X126380952Y-86621428D02*
X126571428Y-86621428D01*
X126571428Y-86621428D02*
X126666666Y-86573809D01*
X126666666Y-86573809D02*
X126714285Y-86526190D01*
X126714285Y-86526190D02*
X126761904Y-86430952D01*
X145183333Y-84802380D02*
X144707143Y-84802380D01*
X144707143Y-84802380D02*
X144707143Y-83802380D01*
X146040476Y-84802380D02*
X145469048Y-84802380D01*
X145754762Y-84802380D02*
X145754762Y-83802380D01*
X145754762Y-83802380D02*
X145659524Y-83945238D01*
X145659524Y-83945238D02*
X145564286Y-84040476D01*
X145564286Y-84040476D02*
X145469048Y-84088095D01*
X136433333Y-71307142D02*
X136385714Y-71354761D01*
X136385714Y-71354761D02*
X136242857Y-71402380D01*
X136242857Y-71402380D02*
X136147619Y-71402380D01*
X136147619Y-71402380D02*
X136004762Y-71354761D01*
X136004762Y-71354761D02*
X135909524Y-71259523D01*
X135909524Y-71259523D02*
X135861905Y-71164285D01*
X135861905Y-71164285D02*
X135814286Y-70973809D01*
X135814286Y-70973809D02*
X135814286Y-70830952D01*
X135814286Y-70830952D02*
X135861905Y-70640476D01*
X135861905Y-70640476D02*
X135909524Y-70545238D01*
X135909524Y-70545238D02*
X136004762Y-70450000D01*
X136004762Y-70450000D02*
X136147619Y-70402380D01*
X136147619Y-70402380D02*
X136242857Y-70402380D01*
X136242857Y-70402380D02*
X136385714Y-70450000D01*
X136385714Y-70450000D02*
X136433333Y-70497619D01*
X137290476Y-70402380D02*
X137100000Y-70402380D01*
X137100000Y-70402380D02*
X137004762Y-70450000D01*
X137004762Y-70450000D02*
X136957143Y-70497619D01*
X136957143Y-70497619D02*
X136861905Y-70640476D01*
X136861905Y-70640476D02*
X136814286Y-70830952D01*
X136814286Y-70830952D02*
X136814286Y-71211904D01*
X136814286Y-71211904D02*
X136861905Y-71307142D01*
X136861905Y-71307142D02*
X136909524Y-71354761D01*
X136909524Y-71354761D02*
X137004762Y-71402380D01*
X137004762Y-71402380D02*
X137195238Y-71402380D01*
X137195238Y-71402380D02*
X137290476Y-71354761D01*
X137290476Y-71354761D02*
X137338095Y-71307142D01*
X137338095Y-71307142D02*
X137385714Y-71211904D01*
X137385714Y-71211904D02*
X137385714Y-70973809D01*
X137385714Y-70973809D02*
X137338095Y-70878571D01*
X137338095Y-70878571D02*
X137290476Y-70830952D01*
X137290476Y-70830952D02*
X137195238Y-70783333D01*
X137195238Y-70783333D02*
X137004762Y-70783333D01*
X137004762Y-70783333D02*
X136909524Y-70830952D01*
X136909524Y-70830952D02*
X136861905Y-70878571D01*
X136861905Y-70878571D02*
X136814286Y-70973809D01*
X89583333Y-77152380D02*
X89250000Y-76676190D01*
X89011905Y-77152380D02*
X89011905Y-76152380D01*
X89011905Y-76152380D02*
X89392857Y-76152380D01*
X89392857Y-76152380D02*
X89488095Y-76200000D01*
X89488095Y-76200000D02*
X89535714Y-76247619D01*
X89535714Y-76247619D02*
X89583333Y-76342857D01*
X89583333Y-76342857D02*
X89583333Y-76485714D01*
X89583333Y-76485714D02*
X89535714Y-76580952D01*
X89535714Y-76580952D02*
X89488095Y-76628571D01*
X89488095Y-76628571D02*
X89392857Y-76676190D01*
X89392857Y-76676190D02*
X89011905Y-76676190D01*
X90440476Y-76485714D02*
X90440476Y-77152380D01*
X90202381Y-76104761D02*
X89964286Y-76819047D01*
X89964286Y-76819047D02*
X90583333Y-76819047D01*
X87011905Y-86252380D02*
X87011905Y-85252380D01*
X87011905Y-85252380D02*
X87250000Y-85252380D01*
X87250000Y-85252380D02*
X87392857Y-85300000D01*
X87392857Y-85300000D02*
X87488095Y-85395238D01*
X87488095Y-85395238D02*
X87535714Y-85490476D01*
X87535714Y-85490476D02*
X87583333Y-85680952D01*
X87583333Y-85680952D02*
X87583333Y-85823809D01*
X87583333Y-85823809D02*
X87535714Y-86014285D01*
X87535714Y-86014285D02*
X87488095Y-86109523D01*
X87488095Y-86109523D02*
X87392857Y-86204761D01*
X87392857Y-86204761D02*
X87250000Y-86252380D01*
X87250000Y-86252380D02*
X87011905Y-86252380D01*
X88535714Y-86252380D02*
X87964286Y-86252380D01*
X88250000Y-86252380D02*
X88250000Y-85252380D01*
X88250000Y-85252380D02*
X88154762Y-85395238D01*
X88154762Y-85395238D02*
X88059524Y-85490476D01*
X88059524Y-85490476D02*
X87964286Y-85538095D01*
X124883333Y-81157142D02*
X124835714Y-81204761D01*
X124835714Y-81204761D02*
X124692857Y-81252380D01*
X124692857Y-81252380D02*
X124597619Y-81252380D01*
X124597619Y-81252380D02*
X124454762Y-81204761D01*
X124454762Y-81204761D02*
X124359524Y-81109523D01*
X124359524Y-81109523D02*
X124311905Y-81014285D01*
X124311905Y-81014285D02*
X124264286Y-80823809D01*
X124264286Y-80823809D02*
X124264286Y-80680952D01*
X124264286Y-80680952D02*
X124311905Y-80490476D01*
X124311905Y-80490476D02*
X124359524Y-80395238D01*
X124359524Y-80395238D02*
X124454762Y-80300000D01*
X124454762Y-80300000D02*
X124597619Y-80252380D01*
X124597619Y-80252380D02*
X124692857Y-80252380D01*
X124692857Y-80252380D02*
X124835714Y-80300000D01*
X124835714Y-80300000D02*
X124883333Y-80347619D01*
X125264286Y-80347619D02*
X125311905Y-80300000D01*
X125311905Y-80300000D02*
X125407143Y-80252380D01*
X125407143Y-80252380D02*
X125645238Y-80252380D01*
X125645238Y-80252380D02*
X125740476Y-80300000D01*
X125740476Y-80300000D02*
X125788095Y-80347619D01*
X125788095Y-80347619D02*
X125835714Y-80442857D01*
X125835714Y-80442857D02*
X125835714Y-80538095D01*
X125835714Y-80538095D02*
X125788095Y-80680952D01*
X125788095Y-80680952D02*
X125216667Y-81252380D01*
X125216667Y-81252380D02*
X125835714Y-81252380D01*
X117333333Y-70157142D02*
X117285714Y-70204761D01*
X117285714Y-70204761D02*
X117142857Y-70252380D01*
X117142857Y-70252380D02*
X117047619Y-70252380D01*
X117047619Y-70252380D02*
X116904762Y-70204761D01*
X116904762Y-70204761D02*
X116809524Y-70109523D01*
X116809524Y-70109523D02*
X116761905Y-70014285D01*
X116761905Y-70014285D02*
X116714286Y-69823809D01*
X116714286Y-69823809D02*
X116714286Y-69680952D01*
X116714286Y-69680952D02*
X116761905Y-69490476D01*
X116761905Y-69490476D02*
X116809524Y-69395238D01*
X116809524Y-69395238D02*
X116904762Y-69300000D01*
X116904762Y-69300000D02*
X117047619Y-69252380D01*
X117047619Y-69252380D02*
X117142857Y-69252380D01*
X117142857Y-69252380D02*
X117285714Y-69300000D01*
X117285714Y-69300000D02*
X117333333Y-69347619D01*
X118190476Y-69585714D02*
X118190476Y-70252380D01*
X117952381Y-69204761D02*
X117714286Y-69919047D01*
X117714286Y-69919047D02*
X118333333Y-69919047D01*
X122733333Y-70307142D02*
X122685714Y-70354761D01*
X122685714Y-70354761D02*
X122542857Y-70402380D01*
X122542857Y-70402380D02*
X122447619Y-70402380D01*
X122447619Y-70402380D02*
X122304762Y-70354761D01*
X122304762Y-70354761D02*
X122209524Y-70259523D01*
X122209524Y-70259523D02*
X122161905Y-70164285D01*
X122161905Y-70164285D02*
X122114286Y-69973809D01*
X122114286Y-69973809D02*
X122114286Y-69830952D01*
X122114286Y-69830952D02*
X122161905Y-69640476D01*
X122161905Y-69640476D02*
X122209524Y-69545238D01*
X122209524Y-69545238D02*
X122304762Y-69450000D01*
X122304762Y-69450000D02*
X122447619Y-69402380D01*
X122447619Y-69402380D02*
X122542857Y-69402380D01*
X122542857Y-69402380D02*
X122685714Y-69450000D01*
X122685714Y-69450000D02*
X122733333Y-69497619D01*
X123685714Y-70402380D02*
X123114286Y-70402380D01*
X123400000Y-70402380D02*
X123400000Y-69402380D01*
X123400000Y-69402380D02*
X123304762Y-69545238D01*
X123304762Y-69545238D02*
X123209524Y-69640476D01*
X123209524Y-69640476D02*
X123114286Y-69688095D01*
X135157142Y-99857142D02*
X135109523Y-99904761D01*
X135109523Y-99904761D02*
X134966666Y-99952380D01*
X134966666Y-99952380D02*
X134871428Y-99952380D01*
X134871428Y-99952380D02*
X134728571Y-99904761D01*
X134728571Y-99904761D02*
X134633333Y-99809523D01*
X134633333Y-99809523D02*
X134585714Y-99714285D01*
X134585714Y-99714285D02*
X134538095Y-99523809D01*
X134538095Y-99523809D02*
X134538095Y-99380952D01*
X134538095Y-99380952D02*
X134585714Y-99190476D01*
X134585714Y-99190476D02*
X134633333Y-99095238D01*
X134633333Y-99095238D02*
X134728571Y-99000000D01*
X134728571Y-99000000D02*
X134871428Y-98952380D01*
X134871428Y-98952380D02*
X134966666Y-98952380D01*
X134966666Y-98952380D02*
X135109523Y-99000000D01*
X135109523Y-99000000D02*
X135157142Y-99047619D01*
X136109523Y-99952380D02*
X135538095Y-99952380D01*
X135823809Y-99952380D02*
X135823809Y-98952380D01*
X135823809Y-98952380D02*
X135728571Y-99095238D01*
X135728571Y-99095238D02*
X135633333Y-99190476D01*
X135633333Y-99190476D02*
X135538095Y-99238095D01*
X136442857Y-98952380D02*
X137061904Y-98952380D01*
X137061904Y-98952380D02*
X136728571Y-99333333D01*
X136728571Y-99333333D02*
X136871428Y-99333333D01*
X136871428Y-99333333D02*
X136966666Y-99380952D01*
X136966666Y-99380952D02*
X137014285Y-99428571D01*
X137014285Y-99428571D02*
X137061904Y-99523809D01*
X137061904Y-99523809D02*
X137061904Y-99761904D01*
X137061904Y-99761904D02*
X137014285Y-99857142D01*
X137014285Y-99857142D02*
X136966666Y-99904761D01*
X136966666Y-99904761D02*
X136871428Y-99952380D01*
X136871428Y-99952380D02*
X136585714Y-99952380D01*
X136585714Y-99952380D02*
X136490476Y-99904761D01*
X136490476Y-99904761D02*
X136442857Y-99857142D01*
X87383333Y-75552380D02*
X87050000Y-75076190D01*
X86811905Y-75552380D02*
X86811905Y-74552380D01*
X86811905Y-74552380D02*
X87192857Y-74552380D01*
X87192857Y-74552380D02*
X87288095Y-74600000D01*
X87288095Y-74600000D02*
X87335714Y-74647619D01*
X87335714Y-74647619D02*
X87383333Y-74742857D01*
X87383333Y-74742857D02*
X87383333Y-74885714D01*
X87383333Y-74885714D02*
X87335714Y-74980952D01*
X87335714Y-74980952D02*
X87288095Y-75028571D01*
X87288095Y-75028571D02*
X87192857Y-75076190D01*
X87192857Y-75076190D02*
X86811905Y-75076190D01*
X87764286Y-74647619D02*
X87811905Y-74600000D01*
X87811905Y-74600000D02*
X87907143Y-74552380D01*
X87907143Y-74552380D02*
X88145238Y-74552380D01*
X88145238Y-74552380D02*
X88240476Y-74600000D01*
X88240476Y-74600000D02*
X88288095Y-74647619D01*
X88288095Y-74647619D02*
X88335714Y-74742857D01*
X88335714Y-74742857D02*
X88335714Y-74838095D01*
X88335714Y-74838095D02*
X88288095Y-74980952D01*
X88288095Y-74980952D02*
X87716667Y-75552380D01*
X87716667Y-75552380D02*
X88335714Y-75552380D01*
X148844642Y-79002380D02*
X148511309Y-78526190D01*
X148273214Y-79002380D02*
X148273214Y-78002380D01*
X148273214Y-78002380D02*
X148654166Y-78002380D01*
X148654166Y-78002380D02*
X148749404Y-78050000D01*
X148749404Y-78050000D02*
X148797023Y-78097619D01*
X148797023Y-78097619D02*
X148844642Y-78192857D01*
X148844642Y-78192857D02*
X148844642Y-78335714D01*
X148844642Y-78335714D02*
X148797023Y-78430952D01*
X148797023Y-78430952D02*
X148749404Y-78478571D01*
X148749404Y-78478571D02*
X148654166Y-78526190D01*
X148654166Y-78526190D02*
X148273214Y-78526190D01*
X149797023Y-79002380D02*
X149225595Y-79002380D01*
X149511309Y-79002380D02*
X149511309Y-78002380D01*
X149511309Y-78002380D02*
X149416071Y-78145238D01*
X149416071Y-78145238D02*
X149320833Y-78240476D01*
X149320833Y-78240476D02*
X149225595Y-78288095D01*
X150273214Y-79002380D02*
X150463690Y-79002380D01*
X150463690Y-79002380D02*
X150558928Y-78954761D01*
X150558928Y-78954761D02*
X150606547Y-78907142D01*
X150606547Y-78907142D02*
X150701785Y-78764285D01*
X150701785Y-78764285D02*
X150749404Y-78573809D01*
X150749404Y-78573809D02*
X150749404Y-78192857D01*
X150749404Y-78192857D02*
X150701785Y-78097619D01*
X150701785Y-78097619D02*
X150654166Y-78050000D01*
X150654166Y-78050000D02*
X150558928Y-78002380D01*
X150558928Y-78002380D02*
X150368452Y-78002380D01*
X150368452Y-78002380D02*
X150273214Y-78050000D01*
X150273214Y-78050000D02*
X150225595Y-78097619D01*
X150225595Y-78097619D02*
X150177976Y-78192857D01*
X150177976Y-78192857D02*
X150177976Y-78430952D01*
X150177976Y-78430952D02*
X150225595Y-78526190D01*
X150225595Y-78526190D02*
X150273214Y-78573809D01*
X150273214Y-78573809D02*
X150368452Y-78621428D01*
X150368452Y-78621428D02*
X150558928Y-78621428D01*
X150558928Y-78621428D02*
X150654166Y-78573809D01*
X150654166Y-78573809D02*
X150701785Y-78526190D01*
X150701785Y-78526190D02*
X150749404Y-78430952D01*
X86933333Y-88307142D02*
X86885714Y-88354761D01*
X86885714Y-88354761D02*
X86742857Y-88402380D01*
X86742857Y-88402380D02*
X86647619Y-88402380D01*
X86647619Y-88402380D02*
X86504762Y-88354761D01*
X86504762Y-88354761D02*
X86409524Y-88259523D01*
X86409524Y-88259523D02*
X86361905Y-88164285D01*
X86361905Y-88164285D02*
X86314286Y-87973809D01*
X86314286Y-87973809D02*
X86314286Y-87830952D01*
X86314286Y-87830952D02*
X86361905Y-87640476D01*
X86361905Y-87640476D02*
X86409524Y-87545238D01*
X86409524Y-87545238D02*
X86504762Y-87450000D01*
X86504762Y-87450000D02*
X86647619Y-87402380D01*
X86647619Y-87402380D02*
X86742857Y-87402380D01*
X86742857Y-87402380D02*
X86885714Y-87450000D01*
X86885714Y-87450000D02*
X86933333Y-87497619D01*
X87409524Y-88402380D02*
X87600000Y-88402380D01*
X87600000Y-88402380D02*
X87695238Y-88354761D01*
X87695238Y-88354761D02*
X87742857Y-88307142D01*
X87742857Y-88307142D02*
X87838095Y-88164285D01*
X87838095Y-88164285D02*
X87885714Y-87973809D01*
X87885714Y-87973809D02*
X87885714Y-87592857D01*
X87885714Y-87592857D02*
X87838095Y-87497619D01*
X87838095Y-87497619D02*
X87790476Y-87450000D01*
X87790476Y-87450000D02*
X87695238Y-87402380D01*
X87695238Y-87402380D02*
X87504762Y-87402380D01*
X87504762Y-87402380D02*
X87409524Y-87450000D01*
X87409524Y-87450000D02*
X87361905Y-87497619D01*
X87361905Y-87497619D02*
X87314286Y-87592857D01*
X87314286Y-87592857D02*
X87314286Y-87830952D01*
X87314286Y-87830952D02*
X87361905Y-87926190D01*
X87361905Y-87926190D02*
X87409524Y-87973809D01*
X87409524Y-87973809D02*
X87504762Y-88021428D01*
X87504762Y-88021428D02*
X87695238Y-88021428D01*
X87695238Y-88021428D02*
X87790476Y-87973809D01*
X87790476Y-87973809D02*
X87838095Y-87926190D01*
X87838095Y-87926190D02*
X87885714Y-87830952D01*
X117383333Y-82707142D02*
X117335714Y-82754761D01*
X117335714Y-82754761D02*
X117192857Y-82802380D01*
X117192857Y-82802380D02*
X117097619Y-82802380D01*
X117097619Y-82802380D02*
X116954762Y-82754761D01*
X116954762Y-82754761D02*
X116859524Y-82659523D01*
X116859524Y-82659523D02*
X116811905Y-82564285D01*
X116811905Y-82564285D02*
X116764286Y-82373809D01*
X116764286Y-82373809D02*
X116764286Y-82230952D01*
X116764286Y-82230952D02*
X116811905Y-82040476D01*
X116811905Y-82040476D02*
X116859524Y-81945238D01*
X116859524Y-81945238D02*
X116954762Y-81850000D01*
X116954762Y-81850000D02*
X117097619Y-81802380D01*
X117097619Y-81802380D02*
X117192857Y-81802380D01*
X117192857Y-81802380D02*
X117335714Y-81850000D01*
X117335714Y-81850000D02*
X117383333Y-81897619D01*
X118288095Y-81802380D02*
X117811905Y-81802380D01*
X117811905Y-81802380D02*
X117764286Y-82278571D01*
X117764286Y-82278571D02*
X117811905Y-82230952D01*
X117811905Y-82230952D02*
X117907143Y-82183333D01*
X117907143Y-82183333D02*
X118145238Y-82183333D01*
X118145238Y-82183333D02*
X118240476Y-82230952D01*
X118240476Y-82230952D02*
X118288095Y-82278571D01*
X118288095Y-82278571D02*
X118335714Y-82373809D01*
X118335714Y-82373809D02*
X118335714Y-82611904D01*
X118335714Y-82611904D02*
X118288095Y-82707142D01*
X118288095Y-82707142D02*
X118240476Y-82754761D01*
X118240476Y-82754761D02*
X118145238Y-82802380D01*
X118145238Y-82802380D02*
X117907143Y-82802380D01*
X117907143Y-82802380D02*
X117811905Y-82754761D01*
X117811905Y-82754761D02*
X117764286Y-82707142D01*
X146944642Y-76907142D02*
X146897023Y-76954761D01*
X146897023Y-76954761D02*
X146754166Y-77002380D01*
X146754166Y-77002380D02*
X146658928Y-77002380D01*
X146658928Y-77002380D02*
X146516071Y-76954761D01*
X146516071Y-76954761D02*
X146420833Y-76859523D01*
X146420833Y-76859523D02*
X146373214Y-76764285D01*
X146373214Y-76764285D02*
X146325595Y-76573809D01*
X146325595Y-76573809D02*
X146325595Y-76430952D01*
X146325595Y-76430952D02*
X146373214Y-76240476D01*
X146373214Y-76240476D02*
X146420833Y-76145238D01*
X146420833Y-76145238D02*
X146516071Y-76050000D01*
X146516071Y-76050000D02*
X146658928Y-76002380D01*
X146658928Y-76002380D02*
X146754166Y-76002380D01*
X146754166Y-76002380D02*
X146897023Y-76050000D01*
X146897023Y-76050000D02*
X146944642Y-76097619D01*
X147897023Y-77002380D02*
X147325595Y-77002380D01*
X147611309Y-77002380D02*
X147611309Y-76002380D01*
X147611309Y-76002380D02*
X147516071Y-76145238D01*
X147516071Y-76145238D02*
X147420833Y-76240476D01*
X147420833Y-76240476D02*
X147325595Y-76288095D01*
X148754166Y-76335714D02*
X148754166Y-77002380D01*
X148516071Y-75954761D02*
X148277976Y-76669047D01*
X148277976Y-76669047D02*
X148897023Y-76669047D01*
X148607142Y-80807142D02*
X148559523Y-80854761D01*
X148559523Y-80854761D02*
X148416666Y-80902380D01*
X148416666Y-80902380D02*
X148321428Y-80902380D01*
X148321428Y-80902380D02*
X148178571Y-80854761D01*
X148178571Y-80854761D02*
X148083333Y-80759523D01*
X148083333Y-80759523D02*
X148035714Y-80664285D01*
X148035714Y-80664285D02*
X147988095Y-80473809D01*
X147988095Y-80473809D02*
X147988095Y-80330952D01*
X147988095Y-80330952D02*
X148035714Y-80140476D01*
X148035714Y-80140476D02*
X148083333Y-80045238D01*
X148083333Y-80045238D02*
X148178571Y-79950000D01*
X148178571Y-79950000D02*
X148321428Y-79902380D01*
X148321428Y-79902380D02*
X148416666Y-79902380D01*
X148416666Y-79902380D02*
X148559523Y-79950000D01*
X148559523Y-79950000D02*
X148607142Y-79997619D01*
X149559523Y-80902380D02*
X148988095Y-80902380D01*
X149273809Y-80902380D02*
X149273809Y-79902380D01*
X149273809Y-79902380D02*
X149178571Y-80045238D01*
X149178571Y-80045238D02*
X149083333Y-80140476D01*
X149083333Y-80140476D02*
X148988095Y-80188095D01*
X150416666Y-79902380D02*
X150226190Y-79902380D01*
X150226190Y-79902380D02*
X150130952Y-79950000D01*
X150130952Y-79950000D02*
X150083333Y-79997619D01*
X150083333Y-79997619D02*
X149988095Y-80140476D01*
X149988095Y-80140476D02*
X149940476Y-80330952D01*
X149940476Y-80330952D02*
X149940476Y-80711904D01*
X149940476Y-80711904D02*
X149988095Y-80807142D01*
X149988095Y-80807142D02*
X150035714Y-80854761D01*
X150035714Y-80854761D02*
X150130952Y-80902380D01*
X150130952Y-80902380D02*
X150321428Y-80902380D01*
X150321428Y-80902380D02*
X150416666Y-80854761D01*
X150416666Y-80854761D02*
X150464285Y-80807142D01*
X150464285Y-80807142D02*
X150511904Y-80711904D01*
X150511904Y-80711904D02*
X150511904Y-80473809D01*
X150511904Y-80473809D02*
X150464285Y-80378571D01*
X150464285Y-80378571D02*
X150416666Y-80330952D01*
X150416666Y-80330952D02*
X150321428Y-80283333D01*
X150321428Y-80283333D02*
X150130952Y-80283333D01*
X150130952Y-80283333D02*
X150035714Y-80330952D01*
X150035714Y-80330952D02*
X149988095Y-80378571D01*
X149988095Y-80378571D02*
X149940476Y-80473809D01*
X89357142Y-88302380D02*
X89023809Y-87826190D01*
X88785714Y-88302380D02*
X88785714Y-87302380D01*
X88785714Y-87302380D02*
X89166666Y-87302380D01*
X89166666Y-87302380D02*
X89261904Y-87350000D01*
X89261904Y-87350000D02*
X89309523Y-87397619D01*
X89309523Y-87397619D02*
X89357142Y-87492857D01*
X89357142Y-87492857D02*
X89357142Y-87635714D01*
X89357142Y-87635714D02*
X89309523Y-87730952D01*
X89309523Y-87730952D02*
X89261904Y-87778571D01*
X89261904Y-87778571D02*
X89166666Y-87826190D01*
X89166666Y-87826190D02*
X88785714Y-87826190D01*
X90309523Y-88302380D02*
X89738095Y-88302380D01*
X90023809Y-88302380D02*
X90023809Y-87302380D01*
X90023809Y-87302380D02*
X89928571Y-87445238D01*
X89928571Y-87445238D02*
X89833333Y-87540476D01*
X89833333Y-87540476D02*
X89738095Y-87588095D01*
X91261904Y-88302380D02*
X90690476Y-88302380D01*
X90976190Y-88302380D02*
X90976190Y-87302380D01*
X90976190Y-87302380D02*
X90880952Y-87445238D01*
X90880952Y-87445238D02*
X90785714Y-87540476D01*
X90785714Y-87540476D02*
X90690476Y-87588095D01*
X89061905Y-86252380D02*
X89061905Y-85252380D01*
X89061905Y-85252380D02*
X89300000Y-85252380D01*
X89300000Y-85252380D02*
X89442857Y-85300000D01*
X89442857Y-85300000D02*
X89538095Y-85395238D01*
X89538095Y-85395238D02*
X89585714Y-85490476D01*
X89585714Y-85490476D02*
X89633333Y-85680952D01*
X89633333Y-85680952D02*
X89633333Y-85823809D01*
X89633333Y-85823809D02*
X89585714Y-86014285D01*
X89585714Y-86014285D02*
X89538095Y-86109523D01*
X89538095Y-86109523D02*
X89442857Y-86204761D01*
X89442857Y-86204761D02*
X89300000Y-86252380D01*
X89300000Y-86252380D02*
X89061905Y-86252380D01*
X90014286Y-85347619D02*
X90061905Y-85300000D01*
X90061905Y-85300000D02*
X90157143Y-85252380D01*
X90157143Y-85252380D02*
X90395238Y-85252380D01*
X90395238Y-85252380D02*
X90490476Y-85300000D01*
X90490476Y-85300000D02*
X90538095Y-85347619D01*
X90538095Y-85347619D02*
X90585714Y-85442857D01*
X90585714Y-85442857D02*
X90585714Y-85538095D01*
X90585714Y-85538095D02*
X90538095Y-85680952D01*
X90538095Y-85680952D02*
X89966667Y-86252380D01*
X89966667Y-86252380D02*
X90585714Y-86252380D01*
X134257142Y-88302380D02*
X133923809Y-87826190D01*
X133685714Y-88302380D02*
X133685714Y-87302380D01*
X133685714Y-87302380D02*
X134066666Y-87302380D01*
X134066666Y-87302380D02*
X134161904Y-87350000D01*
X134161904Y-87350000D02*
X134209523Y-87397619D01*
X134209523Y-87397619D02*
X134257142Y-87492857D01*
X134257142Y-87492857D02*
X134257142Y-87635714D01*
X134257142Y-87635714D02*
X134209523Y-87730952D01*
X134209523Y-87730952D02*
X134161904Y-87778571D01*
X134161904Y-87778571D02*
X134066666Y-87826190D01*
X134066666Y-87826190D02*
X133685714Y-87826190D01*
X135209523Y-88302380D02*
X134638095Y-88302380D01*
X134923809Y-88302380D02*
X134923809Y-87302380D01*
X134923809Y-87302380D02*
X134828571Y-87445238D01*
X134828571Y-87445238D02*
X134733333Y-87540476D01*
X134733333Y-87540476D02*
X134638095Y-87588095D01*
X136066666Y-87302380D02*
X135876190Y-87302380D01*
X135876190Y-87302380D02*
X135780952Y-87350000D01*
X135780952Y-87350000D02*
X135733333Y-87397619D01*
X135733333Y-87397619D02*
X135638095Y-87540476D01*
X135638095Y-87540476D02*
X135590476Y-87730952D01*
X135590476Y-87730952D02*
X135590476Y-88111904D01*
X135590476Y-88111904D02*
X135638095Y-88207142D01*
X135638095Y-88207142D02*
X135685714Y-88254761D01*
X135685714Y-88254761D02*
X135780952Y-88302380D01*
X135780952Y-88302380D02*
X135971428Y-88302380D01*
X135971428Y-88302380D02*
X136066666Y-88254761D01*
X136066666Y-88254761D02*
X136114285Y-88207142D01*
X136114285Y-88207142D02*
X136161904Y-88111904D01*
X136161904Y-88111904D02*
X136161904Y-87873809D01*
X136161904Y-87873809D02*
X136114285Y-87778571D01*
X136114285Y-87778571D02*
X136066666Y-87730952D01*
X136066666Y-87730952D02*
X135971428Y-87683333D01*
X135971428Y-87683333D02*
X135780952Y-87683333D01*
X135780952Y-87683333D02*
X135685714Y-87730952D01*
X135685714Y-87730952D02*
X135638095Y-87778571D01*
X135638095Y-87778571D02*
X135590476Y-87873809D01*
X142232142Y-82807142D02*
X142184523Y-82854761D01*
X142184523Y-82854761D02*
X142041666Y-82902380D01*
X142041666Y-82902380D02*
X141946428Y-82902380D01*
X141946428Y-82902380D02*
X141803571Y-82854761D01*
X141803571Y-82854761D02*
X141708333Y-82759523D01*
X141708333Y-82759523D02*
X141660714Y-82664285D01*
X141660714Y-82664285D02*
X141613095Y-82473809D01*
X141613095Y-82473809D02*
X141613095Y-82330952D01*
X141613095Y-82330952D02*
X141660714Y-82140476D01*
X141660714Y-82140476D02*
X141708333Y-82045238D01*
X141708333Y-82045238D02*
X141803571Y-81950000D01*
X141803571Y-81950000D02*
X141946428Y-81902380D01*
X141946428Y-81902380D02*
X142041666Y-81902380D01*
X142041666Y-81902380D02*
X142184523Y-81950000D01*
X142184523Y-81950000D02*
X142232142Y-81997619D01*
X143184523Y-82902380D02*
X142613095Y-82902380D01*
X142898809Y-82902380D02*
X142898809Y-81902380D01*
X142898809Y-81902380D02*
X142803571Y-82045238D01*
X142803571Y-82045238D02*
X142708333Y-82140476D01*
X142708333Y-82140476D02*
X142613095Y-82188095D01*
X144089285Y-81902380D02*
X143613095Y-81902380D01*
X143613095Y-81902380D02*
X143565476Y-82378571D01*
X143565476Y-82378571D02*
X143613095Y-82330952D01*
X143613095Y-82330952D02*
X143708333Y-82283333D01*
X143708333Y-82283333D02*
X143946428Y-82283333D01*
X143946428Y-82283333D02*
X144041666Y-82330952D01*
X144041666Y-82330952D02*
X144089285Y-82378571D01*
X144089285Y-82378571D02*
X144136904Y-82473809D01*
X144136904Y-82473809D02*
X144136904Y-82711904D01*
X144136904Y-82711904D02*
X144089285Y-82807142D01*
X144089285Y-82807142D02*
X144041666Y-82854761D01*
X144041666Y-82854761D02*
X143946428Y-82902380D01*
X143946428Y-82902380D02*
X143708333Y-82902380D01*
X143708333Y-82902380D02*
X143613095Y-82854761D01*
X143613095Y-82854761D02*
X143565476Y-82807142D01*
X88733333Y-92907142D02*
X88685714Y-92954761D01*
X88685714Y-92954761D02*
X88542857Y-93002380D01*
X88542857Y-93002380D02*
X88447619Y-93002380D01*
X88447619Y-93002380D02*
X88304762Y-92954761D01*
X88304762Y-92954761D02*
X88209524Y-92859523D01*
X88209524Y-92859523D02*
X88161905Y-92764285D01*
X88161905Y-92764285D02*
X88114286Y-92573809D01*
X88114286Y-92573809D02*
X88114286Y-92430952D01*
X88114286Y-92430952D02*
X88161905Y-92240476D01*
X88161905Y-92240476D02*
X88209524Y-92145238D01*
X88209524Y-92145238D02*
X88304762Y-92050000D01*
X88304762Y-92050000D02*
X88447619Y-92002380D01*
X88447619Y-92002380D02*
X88542857Y-92002380D01*
X88542857Y-92002380D02*
X88685714Y-92050000D01*
X88685714Y-92050000D02*
X88733333Y-92097619D01*
X89304762Y-92430952D02*
X89209524Y-92383333D01*
X89209524Y-92383333D02*
X89161905Y-92335714D01*
X89161905Y-92335714D02*
X89114286Y-92240476D01*
X89114286Y-92240476D02*
X89114286Y-92192857D01*
X89114286Y-92192857D02*
X89161905Y-92097619D01*
X89161905Y-92097619D02*
X89209524Y-92050000D01*
X89209524Y-92050000D02*
X89304762Y-92002380D01*
X89304762Y-92002380D02*
X89495238Y-92002380D01*
X89495238Y-92002380D02*
X89590476Y-92050000D01*
X89590476Y-92050000D02*
X89638095Y-92097619D01*
X89638095Y-92097619D02*
X89685714Y-92192857D01*
X89685714Y-92192857D02*
X89685714Y-92240476D01*
X89685714Y-92240476D02*
X89638095Y-92335714D01*
X89638095Y-92335714D02*
X89590476Y-92383333D01*
X89590476Y-92383333D02*
X89495238Y-92430952D01*
X89495238Y-92430952D02*
X89304762Y-92430952D01*
X89304762Y-92430952D02*
X89209524Y-92478571D01*
X89209524Y-92478571D02*
X89161905Y-92526190D01*
X89161905Y-92526190D02*
X89114286Y-92621428D01*
X89114286Y-92621428D02*
X89114286Y-92811904D01*
X89114286Y-92811904D02*
X89161905Y-92907142D01*
X89161905Y-92907142D02*
X89209524Y-92954761D01*
X89209524Y-92954761D02*
X89304762Y-93002380D01*
X89304762Y-93002380D02*
X89495238Y-93002380D01*
X89495238Y-93002380D02*
X89590476Y-92954761D01*
X89590476Y-92954761D02*
X89638095Y-92907142D01*
X89638095Y-92907142D02*
X89685714Y-92811904D01*
X89685714Y-92811904D02*
X89685714Y-92621428D01*
X89685714Y-92621428D02*
X89638095Y-92526190D01*
X89638095Y-92526190D02*
X89590476Y-92478571D01*
X89590476Y-92478571D02*
X89495238Y-92430952D01*
X89038095Y-94404761D02*
X88942857Y-94452380D01*
X88942857Y-94452380D02*
X88752381Y-94452380D01*
X88752381Y-94452380D02*
X88657143Y-94404761D01*
X88657143Y-94404761D02*
X88609524Y-94357142D01*
X88609524Y-94357142D02*
X88561905Y-94261904D01*
X88561905Y-94261904D02*
X88561905Y-93976190D01*
X88561905Y-93976190D02*
X88609524Y-93880952D01*
X88609524Y-93880952D02*
X88657143Y-93833333D01*
X88657143Y-93833333D02*
X88752381Y-93785714D01*
X88752381Y-93785714D02*
X88942857Y-93785714D01*
X88942857Y-93785714D02*
X89038095Y-93833333D01*
X135183333Y-82802380D02*
X134850000Y-82326190D01*
X134611905Y-82802380D02*
X134611905Y-81802380D01*
X134611905Y-81802380D02*
X134992857Y-81802380D01*
X134992857Y-81802380D02*
X135088095Y-81850000D01*
X135088095Y-81850000D02*
X135135714Y-81897619D01*
X135135714Y-81897619D02*
X135183333Y-81992857D01*
X135183333Y-81992857D02*
X135183333Y-82135714D01*
X135183333Y-82135714D02*
X135135714Y-82230952D01*
X135135714Y-82230952D02*
X135088095Y-82278571D01*
X135088095Y-82278571D02*
X134992857Y-82326190D01*
X134992857Y-82326190D02*
X134611905Y-82326190D01*
X135754762Y-82230952D02*
X135659524Y-82183333D01*
X135659524Y-82183333D02*
X135611905Y-82135714D01*
X135611905Y-82135714D02*
X135564286Y-82040476D01*
X135564286Y-82040476D02*
X135564286Y-81992857D01*
X135564286Y-81992857D02*
X135611905Y-81897619D01*
X135611905Y-81897619D02*
X135659524Y-81850000D01*
X135659524Y-81850000D02*
X135754762Y-81802380D01*
X135754762Y-81802380D02*
X135945238Y-81802380D01*
X135945238Y-81802380D02*
X136040476Y-81850000D01*
X136040476Y-81850000D02*
X136088095Y-81897619D01*
X136088095Y-81897619D02*
X136135714Y-81992857D01*
X136135714Y-81992857D02*
X136135714Y-82040476D01*
X136135714Y-82040476D02*
X136088095Y-82135714D01*
X136088095Y-82135714D02*
X136040476Y-82183333D01*
X136040476Y-82183333D02*
X135945238Y-82230952D01*
X135945238Y-82230952D02*
X135754762Y-82230952D01*
X135754762Y-82230952D02*
X135659524Y-82278571D01*
X135659524Y-82278571D02*
X135611905Y-82326190D01*
X135611905Y-82326190D02*
X135564286Y-82421428D01*
X135564286Y-82421428D02*
X135564286Y-82611904D01*
X135564286Y-82611904D02*
X135611905Y-82707142D01*
X135611905Y-82707142D02*
X135659524Y-82754761D01*
X135659524Y-82754761D02*
X135754762Y-82802380D01*
X135754762Y-82802380D02*
X135945238Y-82802380D01*
X135945238Y-82802380D02*
X136040476Y-82754761D01*
X136040476Y-82754761D02*
X136088095Y-82707142D01*
X136088095Y-82707142D02*
X136135714Y-82611904D01*
X136135714Y-82611904D02*
X136135714Y-82421428D01*
X136135714Y-82421428D02*
X136088095Y-82326190D01*
X136088095Y-82326190D02*
X136040476Y-82278571D01*
X136040476Y-82278571D02*
X135945238Y-82230952D01*
X90607142Y-97102380D02*
X90273809Y-96626190D01*
X90035714Y-97102380D02*
X90035714Y-96102380D01*
X90035714Y-96102380D02*
X90416666Y-96102380D01*
X90416666Y-96102380D02*
X90511904Y-96150000D01*
X90511904Y-96150000D02*
X90559523Y-96197619D01*
X90559523Y-96197619D02*
X90607142Y-96292857D01*
X90607142Y-96292857D02*
X90607142Y-96435714D01*
X90607142Y-96435714D02*
X90559523Y-96530952D01*
X90559523Y-96530952D02*
X90511904Y-96578571D01*
X90511904Y-96578571D02*
X90416666Y-96626190D01*
X90416666Y-96626190D02*
X90035714Y-96626190D01*
X91559523Y-97102380D02*
X90988095Y-97102380D01*
X91273809Y-97102380D02*
X91273809Y-96102380D01*
X91273809Y-96102380D02*
X91178571Y-96245238D01*
X91178571Y-96245238D02*
X91083333Y-96340476D01*
X91083333Y-96340476D02*
X90988095Y-96388095D01*
X91940476Y-96197619D02*
X91988095Y-96150000D01*
X91988095Y-96150000D02*
X92083333Y-96102380D01*
X92083333Y-96102380D02*
X92321428Y-96102380D01*
X92321428Y-96102380D02*
X92416666Y-96150000D01*
X92416666Y-96150000D02*
X92464285Y-96197619D01*
X92464285Y-96197619D02*
X92511904Y-96292857D01*
X92511904Y-96292857D02*
X92511904Y-96388095D01*
X92511904Y-96388095D02*
X92464285Y-96530952D01*
X92464285Y-96530952D02*
X91892857Y-97102380D01*
X91892857Y-97102380D02*
X92511904Y-97102380D01*
X122164642Y-98007142D02*
X122117023Y-98054761D01*
X122117023Y-98054761D02*
X121974166Y-98102380D01*
X121974166Y-98102380D02*
X121878928Y-98102380D01*
X121878928Y-98102380D02*
X121736071Y-98054761D01*
X121736071Y-98054761D02*
X121640833Y-97959523D01*
X121640833Y-97959523D02*
X121593214Y-97864285D01*
X121593214Y-97864285D02*
X121545595Y-97673809D01*
X121545595Y-97673809D02*
X121545595Y-97530952D01*
X121545595Y-97530952D02*
X121593214Y-97340476D01*
X121593214Y-97340476D02*
X121640833Y-97245238D01*
X121640833Y-97245238D02*
X121736071Y-97150000D01*
X121736071Y-97150000D02*
X121878928Y-97102380D01*
X121878928Y-97102380D02*
X121974166Y-97102380D01*
X121974166Y-97102380D02*
X122117023Y-97150000D01*
X122117023Y-97150000D02*
X122164642Y-97197619D01*
X123117023Y-98102380D02*
X122545595Y-98102380D01*
X122831309Y-98102380D02*
X122831309Y-97102380D01*
X122831309Y-97102380D02*
X122736071Y-97245238D01*
X122736071Y-97245238D02*
X122640833Y-97340476D01*
X122640833Y-97340476D02*
X122545595Y-97388095D01*
X123688452Y-97530952D02*
X123593214Y-97483333D01*
X123593214Y-97483333D02*
X123545595Y-97435714D01*
X123545595Y-97435714D02*
X123497976Y-97340476D01*
X123497976Y-97340476D02*
X123497976Y-97292857D01*
X123497976Y-97292857D02*
X123545595Y-97197619D01*
X123545595Y-97197619D02*
X123593214Y-97150000D01*
X123593214Y-97150000D02*
X123688452Y-97102380D01*
X123688452Y-97102380D02*
X123878928Y-97102380D01*
X123878928Y-97102380D02*
X123974166Y-97150000D01*
X123974166Y-97150000D02*
X124021785Y-97197619D01*
X124021785Y-97197619D02*
X124069404Y-97292857D01*
X124069404Y-97292857D02*
X124069404Y-97340476D01*
X124069404Y-97340476D02*
X124021785Y-97435714D01*
X124021785Y-97435714D02*
X123974166Y-97483333D01*
X123974166Y-97483333D02*
X123878928Y-97530952D01*
X123878928Y-97530952D02*
X123688452Y-97530952D01*
X123688452Y-97530952D02*
X123593214Y-97578571D01*
X123593214Y-97578571D02*
X123545595Y-97626190D01*
X123545595Y-97626190D02*
X123497976Y-97721428D01*
X123497976Y-97721428D02*
X123497976Y-97911904D01*
X123497976Y-97911904D02*
X123545595Y-98007142D01*
X123545595Y-98007142D02*
X123593214Y-98054761D01*
X123593214Y-98054761D02*
X123688452Y-98102380D01*
X123688452Y-98102380D02*
X123878928Y-98102380D01*
X123878928Y-98102380D02*
X123974166Y-98054761D01*
X123974166Y-98054761D02*
X124021785Y-98007142D01*
X124021785Y-98007142D02*
X124069404Y-97911904D01*
X124069404Y-97911904D02*
X124069404Y-97721428D01*
X124069404Y-97721428D02*
X124021785Y-97626190D01*
X124021785Y-97626190D02*
X123974166Y-97578571D01*
X123974166Y-97578571D02*
X123878928Y-97530952D01*
X117407142Y-87307142D02*
X117359523Y-87354761D01*
X117359523Y-87354761D02*
X117216666Y-87402380D01*
X117216666Y-87402380D02*
X117121428Y-87402380D01*
X117121428Y-87402380D02*
X116978571Y-87354761D01*
X116978571Y-87354761D02*
X116883333Y-87259523D01*
X116883333Y-87259523D02*
X116835714Y-87164285D01*
X116835714Y-87164285D02*
X116788095Y-86973809D01*
X116788095Y-86973809D02*
X116788095Y-86830952D01*
X116788095Y-86830952D02*
X116835714Y-86640476D01*
X116835714Y-86640476D02*
X116883333Y-86545238D01*
X116883333Y-86545238D02*
X116978571Y-86450000D01*
X116978571Y-86450000D02*
X117121428Y-86402380D01*
X117121428Y-86402380D02*
X117216666Y-86402380D01*
X117216666Y-86402380D02*
X117359523Y-86450000D01*
X117359523Y-86450000D02*
X117407142Y-86497619D01*
X118359523Y-87402380D02*
X117788095Y-87402380D01*
X118073809Y-87402380D02*
X118073809Y-86402380D01*
X118073809Y-86402380D02*
X117978571Y-86545238D01*
X117978571Y-86545238D02*
X117883333Y-86640476D01*
X117883333Y-86640476D02*
X117788095Y-86688095D01*
X119311904Y-87402380D02*
X118740476Y-87402380D01*
X119026190Y-87402380D02*
X119026190Y-86402380D01*
X119026190Y-86402380D02*
X118930952Y-86545238D01*
X118930952Y-86545238D02*
X118835714Y-86640476D01*
X118835714Y-86640476D02*
X118740476Y-86688095D01*
X117607142Y-97857142D02*
X117559523Y-97904761D01*
X117559523Y-97904761D02*
X117416666Y-97952380D01*
X117416666Y-97952380D02*
X117321428Y-97952380D01*
X117321428Y-97952380D02*
X117178571Y-97904761D01*
X117178571Y-97904761D02*
X117083333Y-97809523D01*
X117083333Y-97809523D02*
X117035714Y-97714285D01*
X117035714Y-97714285D02*
X116988095Y-97523809D01*
X116988095Y-97523809D02*
X116988095Y-97380952D01*
X116988095Y-97380952D02*
X117035714Y-97190476D01*
X117035714Y-97190476D02*
X117083333Y-97095238D01*
X117083333Y-97095238D02*
X117178571Y-97000000D01*
X117178571Y-97000000D02*
X117321428Y-96952380D01*
X117321428Y-96952380D02*
X117416666Y-96952380D01*
X117416666Y-96952380D02*
X117559523Y-97000000D01*
X117559523Y-97000000D02*
X117607142Y-97047619D01*
X118559523Y-97952380D02*
X117988095Y-97952380D01*
X118273809Y-97952380D02*
X118273809Y-96952380D01*
X118273809Y-96952380D02*
X118178571Y-97095238D01*
X118178571Y-97095238D02*
X118083333Y-97190476D01*
X118083333Y-97190476D02*
X117988095Y-97238095D01*
X118940476Y-97047619D02*
X118988095Y-97000000D01*
X118988095Y-97000000D02*
X119083333Y-96952380D01*
X119083333Y-96952380D02*
X119321428Y-96952380D01*
X119321428Y-96952380D02*
X119416666Y-97000000D01*
X119416666Y-97000000D02*
X119464285Y-97047619D01*
X119464285Y-97047619D02*
X119511904Y-97142857D01*
X119511904Y-97142857D02*
X119511904Y-97238095D01*
X119511904Y-97238095D02*
X119464285Y-97380952D01*
X119464285Y-97380952D02*
X118892857Y-97952380D01*
X118892857Y-97952380D02*
X119511904Y-97952380D01*
D12*
X92550000Y-69605000D02*
X106050000Y-69605000D01*
X92550000Y-74255000D02*
X92550000Y-69605000D01*
X92550000Y-93205000D02*
X92550000Y-94605000D01*
X92550000Y-94605000D02*
X93800000Y-94605000D01*
X104750000Y-94605000D02*
X106050000Y-94605000D01*
X106050000Y-69605000D02*
X106050000Y-74205000D01*
X106050000Y-94605000D02*
X106050000Y-93155000D01*
X143400000Y-100975000D02*
X148400000Y-100975000D01*
X142800000Y-98975000D02*
X143400000Y-98975000D01*
X142800000Y-98975000D02*
X142800000Y-96600000D01*
X143400000Y-98975000D02*
X143400000Y-100975000D01*
X148400000Y-98975000D02*
X148400000Y-100975000D01*
X148400000Y-98975000D02*
X149000000Y-98975000D01*
X142800000Y-94950000D02*
X142800000Y-93600000D01*
X142800000Y-91950000D02*
X142800000Y-89550000D01*
X142800000Y-89550000D02*
X141400000Y-89550000D01*
X149000000Y-88450000D02*
X149000000Y-98975000D01*
X142800000Y-88000000D02*
X141400000Y-88000000D01*
X142800000Y-88000000D02*
X142800000Y-86875000D01*
X149000000Y-86875000D02*
X142800000Y-86875000D01*
X122103733Y-85990000D02*
X122396267Y-85990000D01*
X122103733Y-87010000D02*
X122396267Y-87010000D01*
X147888748Y-83690000D02*
X148411252Y-83690000D01*
X147888748Y-85110000D02*
X148411252Y-85110000D01*
X147950000Y-84000000D02*
X147950000Y-84700000D01*
X147950000Y-84700000D02*
X148350000Y-84700000D01*
X130442500Y-73690000D02*
X131442500Y-73690000D01*
X130942500Y-73190000D02*
X130942500Y-74190000D01*
X131682500Y-73004437D02*
X131682500Y-74690000D01*
X131682500Y-73004437D02*
X132746937Y-71940000D01*
X131682500Y-79395563D02*
X131682500Y-77710000D01*
X131682500Y-79395563D02*
X132746937Y-80460000D01*
X132746937Y-71940000D02*
X140202500Y-71940000D01*
X132746937Y-80460000D02*
X140202500Y-80460000D01*
X140202500Y-71940000D02*
X140202500Y-74690000D01*
X140202500Y-80460000D02*
X140202500Y-77710000D01*
X89127500Y-79254724D02*
X89127500Y-78745276D01*
X90172500Y-79254724D02*
X90172500Y-78745276D01*
X88335000Y-81540000D02*
X86865000Y-81540000D01*
X86865000Y-81540000D02*
X86865000Y-84000000D01*
X88335000Y-84000000D02*
X88335000Y-81540000D01*
X122153733Y-80190000D02*
X122446267Y-80190000D01*
X122153733Y-81210000D02*
X122446267Y-81210000D01*
X109180000Y-69580000D02*
X109180000Y-75820000D01*
X109180000Y-69580000D02*
X116420000Y-69580000D01*
X109180000Y-75820000D02*
X116420000Y-75820000D01*
X116420000Y-69580000D02*
X116420000Y-75820000D01*
X117400000Y-72640000D02*
X118400000Y-72640000D01*
X117900000Y-72140000D02*
X117900000Y-73140000D01*
X118640000Y-71954437D02*
X118640000Y-73640000D01*
X118640000Y-71954437D02*
X119704437Y-70890000D01*
X118640000Y-78345563D02*
X118640000Y-76660000D01*
X118640000Y-78345563D02*
X119704437Y-79410000D01*
X119704437Y-70890000D02*
X127160000Y-70890000D01*
X119704437Y-79410000D02*
X127160000Y-79410000D01*
X127160000Y-70890000D02*
X127160000Y-73640000D01*
X127160000Y-79410000D02*
X127160000Y-76660000D01*
X129950000Y-91290000D02*
X130950000Y-91290000D01*
X130450000Y-90790000D02*
X130450000Y-91790000D01*
X131190000Y-90604437D02*
X131190000Y-92290000D01*
X131190000Y-90604437D02*
X132254437Y-89540000D01*
X131190000Y-96995563D02*
X131190000Y-95310000D01*
X131190000Y-96995563D02*
X132254437Y-98060000D01*
X132254437Y-89540000D02*
X139710000Y-89540000D01*
X132254437Y-98060000D02*
X139710000Y-98060000D01*
X139710000Y-89540000D02*
X139710000Y-92290000D01*
X139710000Y-98060000D02*
X139710000Y-95310000D01*
X87077500Y-77554724D02*
X87077500Y-77045276D01*
X88122500Y-77554724D02*
X88122500Y-77045276D01*
X145882776Y-78027500D02*
X146392224Y-78027500D01*
X145882776Y-79072500D02*
X146392224Y-79072500D01*
X87740000Y-90446267D02*
X87740000Y-90153733D01*
X88760000Y-90446267D02*
X88760000Y-90153733D01*
X109230000Y-76680000D02*
X109230000Y-82920000D01*
X109230000Y-76680000D02*
X116470000Y-76680000D01*
X109230000Y-82920000D02*
X116470000Y-82920000D01*
X116470000Y-76680000D02*
X116470000Y-82920000D01*
X144241233Y-75990000D02*
X144533767Y-75990000D01*
X144241233Y-77010000D02*
X144533767Y-77010000D01*
X146246267Y-80910000D02*
X145953733Y-80910000D01*
X146246267Y-79890000D02*
X145953733Y-79890000D01*
X90522500Y-90045276D02*
X90522500Y-90554724D01*
X89477500Y-90045276D02*
X89477500Y-90554724D01*
X90385000Y-81540000D02*
X88915000Y-81540000D01*
X88915000Y-81540000D02*
X88915000Y-84000000D01*
X90385000Y-84000000D02*
X90385000Y-81540000D01*
X138045276Y-87177500D02*
X138554724Y-87177500D01*
X138045276Y-88222500D02*
X138554724Y-88222500D01*
X145991233Y-81840000D02*
X146283767Y-81840000D01*
X145991233Y-82860000D02*
X146283767Y-82860000D01*
X88188748Y-93190000D02*
X89611252Y-93190000D01*
X88188748Y-95010000D02*
X89611252Y-95010000D01*
X138654724Y-82872500D02*
X138145276Y-82872500D01*
X138654724Y-81827500D02*
X138145276Y-81827500D01*
X88045276Y-96177500D02*
X88554724Y-96177500D01*
X88045276Y-97222500D02*
X88554724Y-97222500D01*
X117350000Y-89640000D02*
X118350000Y-89640000D01*
X117850000Y-89140000D02*
X117850000Y-90140000D01*
X118590000Y-88954437D02*
X118590000Y-90640000D01*
X118590000Y-88954437D02*
X119654437Y-87890000D01*
X118590000Y-95345563D02*
X118590000Y-93660000D01*
X118590000Y-95345563D02*
X119654437Y-96410000D01*
X119654437Y-87890000D02*
X127110000Y-87890000D01*
X119654437Y-96410000D02*
X127110000Y-96410000D01*
X127110000Y-87890000D02*
X127110000Y-90640000D01*
X127110000Y-96410000D02*
X127110000Y-93660000D01*
X109330000Y-83780000D02*
X109330000Y-90020000D01*
X109330000Y-83780000D02*
X116570000Y-83780000D01*
X109330000Y-90020000D02*
X116570000Y-90020000D01*
X116570000Y-83780000D02*
X116570000Y-90020000D01*
X109380000Y-90930000D02*
X109380000Y-97170000D01*
X109380000Y-90930000D02*
X116620000Y-90930000D01*
X109380000Y-97170000D02*
X116620000Y-97170000D01*
X116620000Y-90930000D02*
X116620000Y-97170000D01*
%LPC*%
D13*
X90499999Y-98899999D03*
D14*
X93039999Y-98899999D03*
X95579999Y-98899999D03*
D15*
X92550000Y-75005000D03*
X92550000Y-76105000D03*
X92550000Y-77205000D03*
X92550000Y-78305000D03*
X92550000Y-79405000D03*
X92550000Y-80505000D03*
X92550000Y-81605000D03*
X92550000Y-82705000D03*
X92550000Y-83805000D03*
X92550000Y-84905000D03*
X92550000Y-86005000D03*
X92550000Y-87105000D03*
X92550000Y-88205000D03*
X92550000Y-89305000D03*
X92550000Y-90405000D03*
X92550000Y-91505000D03*
X92550000Y-92605000D03*
D16*
X94550000Y-94605000D03*
X95750000Y-94605000D03*
X96950000Y-94605000D03*
X98150000Y-94605000D03*
X99350000Y-94605000D03*
X100550000Y-94605000D03*
X101750000Y-94605000D03*
X102950000Y-94605000D03*
X104150000Y-94605000D03*
D17*
X106050000Y-92605000D03*
X106050000Y-91505000D03*
X106050000Y-90405000D03*
X106050000Y-89305000D03*
X106050000Y-88205000D03*
X106050000Y-87105000D03*
X106050000Y-86005000D03*
X106050000Y-84905000D03*
X106050000Y-83805000D03*
X106050000Y-82705000D03*
X106050000Y-81605000D03*
X106050000Y-80505000D03*
X106050000Y-79405000D03*
X106050000Y-78305000D03*
X106050000Y-77205000D03*
X106050000Y-76105000D03*
X106050000Y-75005000D03*
D18*
X145900000Y-97375000D03*
X145900000Y-90375000D03*
D19*
X142649999Y-92774999D03*
X142649999Y-95774999D03*
X149149999Y-87674999D03*
X142649999Y-88774999D03*
D20*
X121387500Y-86500000D03*
X123112500Y-86500000D03*
D21*
X147125000Y-84400000D03*
X149175000Y-84400000D03*
D22*
X132692500Y-76200000D03*
X139192500Y-76200000D03*
D23*
X89650000Y-79912500D03*
X89650000Y-78087500D03*
D24*
X87600000Y-82325000D03*
X87600000Y-84075000D03*
D20*
X121437500Y-80700000D03*
X123162500Y-80700000D03*
D25*
X110300000Y-72700000D03*
X115300000Y-72700000D03*
D22*
X119650000Y-75150000D03*
X126150000Y-75150000D03*
X132200000Y-93800000D03*
X138700000Y-93800000D03*
D23*
X87600000Y-78212500D03*
X87600000Y-76387500D03*
D26*
X145225000Y-78550000D03*
X147050000Y-78550000D03*
D27*
X88250000Y-91162500D03*
X88250000Y-89437500D03*
D25*
X110350000Y-79800000D03*
X115350000Y-79800000D03*
D20*
X143525000Y-76500000D03*
X145250000Y-76500000D03*
D28*
X146962500Y-80400000D03*
X145237500Y-80400000D03*
D29*
X90000000Y-89387500D03*
X90000000Y-91212500D03*
D24*
X89650000Y-82325000D03*
X89650000Y-84075000D03*
D26*
X137387500Y-87700000D03*
X139212500Y-87700000D03*
D20*
X145275000Y-82350000D03*
X147000000Y-82350000D03*
D30*
X87337500Y-94100000D03*
X90462500Y-94100000D03*
D31*
X139312500Y-82350000D03*
X137487500Y-82350000D03*
D26*
X87387500Y-96700000D03*
X89212500Y-96700000D03*
D22*
X119600000Y-92150000D03*
X126100000Y-92150000D03*
D25*
X110450000Y-86900000D03*
X115450000Y-86900000D03*
X110500000Y-94050000D03*
X115500000Y-94050000D03*
M02*
