G04 #@! TF.GenerationSoftware,KiCad,Pcbnew,6.99.0-unknown-455e330f3b~148~ubuntu20.04.1*
G04 #@! TF.CreationDate,2022-04-21T17:09:55+05:30*
G04 #@! TF.ProjectId,aptx_headset,61707478-5f68-4656-9164-7365742e6b69,rev?*
G04 #@! TF.SameCoordinates,Original*
G04 #@! TF.FileFunction,Paste,Top*
G04 #@! TF.FilePolarity,Positive*
%FSLAX46Y46*%
G04 Gerber Fmt 4.6, Leading zero omitted, Abs format (unit mm)*
G04 Created by KiCad (PCBNEW 6.99.0-unknown-455e330f3b~148~ubuntu20.04.1) date 2022-04-21 17:09:55*
%MOMM*%
%LPD*%
G01*
G04 APERTURE LIST*
G04 Aperture macros list*
%AMRoundRect*
0 Rectangle with rounded corners*
0 $1 Rounding radius*
0 $2 $3 $4 $5 $6 $7 $8 $9 X,Y pos of 4 corners*
0 Add a 4 corners polygon primitive as box body*
4,1,4,$2,$3,$4,$5,$6,$7,$8,$9,$2,$3,0*
0 Add four circle primitives for the rounded corners*
1,1,$1+$1,$2,$3*
1,1,$1+$1,$4,$5*
1,1,$1+$1,$6,$7*
1,1,$1+$1,$8,$9*
0 Add four rect primitives between the rounded corners*
20,1,$1+$1,$2,$3,$4,$5,0*
20,1,$1+$1,$4,$5,$6,$7,0*
20,1,$1+$1,$6,$7,$8,$9,0*
20,1,$1+$1,$8,$9,$2,$3,0*%
G04 Aperture macros list end*
%ADD10RoundRect,0.200000X-0.650000X-0.200000X0.650000X-0.200000X0.650000X0.200000X-0.650000X0.200000X0*%
%ADD11RoundRect,0.200000X0.200000X-0.650000X0.200000X0.650000X-0.200000X0.650000X-0.200000X-0.650000X0*%
%ADD12RoundRect,0.200000X0.650000X0.200000X-0.650000X0.200000X-0.650000X-0.200000X0.650000X-0.200000X0*%
%ADD13R,2.500000X1.200000*%
%ADD14RoundRect,0.237500X-0.300000X-0.237500X0.300000X-0.237500X0.300000X0.237500X-0.300000X0.237500X0*%
%ADD15RoundRect,0.250000X-0.325000X-0.450000X0.325000X-0.450000X0.325000X0.450000X-0.325000X0.450000X0*%
%ADD16RoundRect,0.250000X-1.500000X-1.000000X1.500000X-1.000000X1.500000X1.000000X-1.500000X1.000000X0*%
%ADD17RoundRect,0.237500X0.237500X-0.250000X0.237500X0.250000X-0.237500X0.250000X-0.237500X-0.250000X0*%
%ADD18RoundRect,0.237500X-0.237500X0.287500X-0.237500X-0.287500X0.237500X-0.287500X0.237500X0.287500X0*%
%ADD19RoundRect,0.237500X-0.250000X-0.237500X0.250000X-0.237500X0.250000X0.237500X-0.250000X0.237500X0*%
%ADD20RoundRect,0.237500X0.237500X-0.300000X0.237500X0.300000X-0.237500X0.300000X-0.237500X-0.300000X0*%
%ADD21RoundRect,0.237500X0.300000X0.237500X-0.300000X0.237500X-0.300000X-0.237500X0.300000X-0.237500X0*%
%ADD22RoundRect,0.237500X-0.237500X0.250000X-0.237500X-0.250000X0.237500X-0.250000X0.237500X0.250000X0*%
%ADD23RoundRect,0.250000X-0.412500X-0.650000X0.412500X-0.650000X0.412500X0.650000X-0.412500X0.650000X0*%
%ADD24RoundRect,0.237500X0.250000X0.237500X-0.250000X0.237500X-0.250000X-0.237500X0.250000X-0.237500X0*%
G04 APERTURE END LIST*
D10*
X92550000Y-75005000D03*
X92550000Y-76105000D03*
X92550000Y-77205000D03*
X92550000Y-78305000D03*
X92550000Y-79405000D03*
X92550000Y-80505000D03*
X92550000Y-81605000D03*
X92550000Y-82705000D03*
X92550000Y-83805000D03*
X92550000Y-84905000D03*
X92550000Y-86005000D03*
X92550000Y-87105000D03*
X92550000Y-88205000D03*
X92550000Y-89305000D03*
X92550000Y-90405000D03*
X92550000Y-91505000D03*
X92550000Y-92605000D03*
D11*
X94550000Y-94605000D03*
X95750000Y-94605000D03*
X96950000Y-94605000D03*
X98150000Y-94605000D03*
X99350000Y-94605000D03*
X100550000Y-94605000D03*
X101750000Y-94605000D03*
X102950000Y-94605000D03*
X104150000Y-94605000D03*
D12*
X106050000Y-92605000D03*
X106050000Y-91505000D03*
X106050000Y-90405000D03*
X106050000Y-89305000D03*
X106050000Y-88205000D03*
X106050000Y-87105000D03*
X106050000Y-86005000D03*
X106050000Y-84905000D03*
X106050000Y-83805000D03*
X106050000Y-82705000D03*
X106050000Y-81605000D03*
X106050000Y-80505000D03*
X106050000Y-79405000D03*
X106050000Y-78305000D03*
X106050000Y-77205000D03*
X106050000Y-76105000D03*
X106050000Y-75005000D03*
D13*
X142649999Y-92774999D03*
X142649999Y-95774999D03*
X149149999Y-87674999D03*
X142649999Y-88774999D03*
D14*
X121387500Y-86500000D03*
X123112500Y-86500000D03*
D15*
X147125000Y-84400000D03*
X149175000Y-84400000D03*
D16*
X132692500Y-76200000D03*
X139192500Y-76200000D03*
D17*
X89650000Y-79912500D03*
X89650000Y-78087500D03*
D18*
X87600000Y-82325000D03*
X87600000Y-84075000D03*
D14*
X121437500Y-80700000D03*
X123162500Y-80700000D03*
D16*
X119650000Y-75150000D03*
X126150000Y-75150000D03*
X132200000Y-93800000D03*
X138700000Y-93800000D03*
D17*
X87600000Y-78212500D03*
X87600000Y-76387500D03*
D19*
X145225000Y-78550000D03*
X147050000Y-78550000D03*
D20*
X88250000Y-91162500D03*
X88250000Y-89437500D03*
D14*
X143525000Y-76500000D03*
X145250000Y-76500000D03*
D21*
X146962500Y-80400000D03*
X145237500Y-80400000D03*
D22*
X90000000Y-89387500D03*
X90000000Y-91212500D03*
D18*
X89650000Y-82325000D03*
X89650000Y-84075000D03*
D19*
X137387500Y-87700000D03*
X139212500Y-87700000D03*
D14*
X145275000Y-82350000D03*
X147000000Y-82350000D03*
D23*
X87337500Y-94100000D03*
X90462500Y-94100000D03*
D24*
X139312500Y-82350000D03*
X137487500Y-82350000D03*
D19*
X87387500Y-96700000D03*
X89212500Y-96700000D03*
D16*
X119600000Y-92150000D03*
X126100000Y-92150000D03*
M02*
