G04 #@! TF.GenerationSoftware,KiCad,Pcbnew,6.99.0-unknown-455e330f3b~148~ubuntu20.04.1*
G04 #@! TF.CreationDate,2022-04-21T17:09:55+05:30*
G04 #@! TF.ProjectId,aptx_headset,61707478-5f68-4656-9164-7365742e6b69,rev?*
G04 #@! TF.SameCoordinates,Original*
G04 #@! TF.FileFunction,Copper,L1,Top*
G04 #@! TF.FilePolarity,Positive*
%FSLAX46Y46*%
G04 Gerber Fmt 4.6, Leading zero omitted, Abs format (unit mm)*
G04 Created by KiCad (PCBNEW 6.99.0-unknown-455e330f3b~148~ubuntu20.04.1) date 2022-04-21 17:09:55*
%MOMM*%
%LPD*%
G01*
G04 APERTURE LIST*
G04 Aperture macros list*
%AMRoundRect*
0 Rectangle with rounded corners*
0 $1 Rounding radius*
0 $2 $3 $4 $5 $6 $7 $8 $9 X,Y pos of 4 corners*
0 Add a 4 corners polygon primitive as box body*
4,1,4,$2,$3,$4,$5,$6,$7,$8,$9,$2,$3,0*
0 Add four circle primitives for the rounded corners*
1,1,$1+$1,$2,$3*
1,1,$1+$1,$4,$5*
1,1,$1+$1,$6,$7*
1,1,$1+$1,$8,$9*
0 Add four rect primitives between the rounded corners*
20,1,$1+$1,$2,$3,$4,$5,0*
20,1,$1+$1,$4,$5,$6,$7,0*
20,1,$1+$1,$6,$7,$8,$9,0*
20,1,$1+$1,$8,$9,$2,$3,0*%
G04 Aperture macros list end*
G04 #@! TA.AperFunction,ComponentPad*
%ADD10R,1.700000X1.700000*%
G04 #@! TD*
G04 #@! TA.AperFunction,ComponentPad*
%ADD11O,1.700000X1.700000*%
G04 #@! TD*
G04 #@! TA.AperFunction,SMDPad,CuDef*
%ADD12RoundRect,0.200000X-0.650000X-0.200000X0.650000X-0.200000X0.650000X0.200000X-0.650000X0.200000X0*%
G04 #@! TD*
G04 #@! TA.AperFunction,SMDPad,CuDef*
%ADD13RoundRect,0.200000X0.200000X-0.650000X0.200000X0.650000X-0.200000X0.650000X-0.200000X-0.650000X0*%
G04 #@! TD*
G04 #@! TA.AperFunction,SMDPad,CuDef*
%ADD14RoundRect,0.200000X0.650000X0.200000X-0.650000X0.200000X-0.650000X-0.200000X0.650000X-0.200000X0*%
G04 #@! TD*
G04 #@! TA.AperFunction,SMDPad,CuDef*
%ADD15R,2.500000X1.200000*%
G04 #@! TD*
G04 #@! TA.AperFunction,SMDPad,CuDef*
%ADD16RoundRect,0.237500X-0.300000X-0.237500X0.300000X-0.237500X0.300000X0.237500X-0.300000X0.237500X0*%
G04 #@! TD*
G04 #@! TA.AperFunction,SMDPad,CuDef*
%ADD17RoundRect,0.250000X-0.325000X-0.450000X0.325000X-0.450000X0.325000X0.450000X-0.325000X0.450000X0*%
G04 #@! TD*
G04 #@! TA.AperFunction,SMDPad,CuDef*
%ADD18RoundRect,0.250000X-1.500000X-1.000000X1.500000X-1.000000X1.500000X1.000000X-1.500000X1.000000X0*%
G04 #@! TD*
G04 #@! TA.AperFunction,SMDPad,CuDef*
%ADD19RoundRect,0.237500X0.237500X-0.250000X0.237500X0.250000X-0.237500X0.250000X-0.237500X-0.250000X0*%
G04 #@! TD*
G04 #@! TA.AperFunction,SMDPad,CuDef*
%ADD20RoundRect,0.237500X-0.237500X0.287500X-0.237500X-0.287500X0.237500X-0.287500X0.237500X0.287500X0*%
G04 #@! TD*
G04 #@! TA.AperFunction,ComponentPad*
%ADD21C,1.600000*%
G04 #@! TD*
G04 #@! TA.AperFunction,SMDPad,CuDef*
%ADD22RoundRect,0.237500X-0.250000X-0.237500X0.250000X-0.237500X0.250000X0.237500X-0.250000X0.237500X0*%
G04 #@! TD*
G04 #@! TA.AperFunction,SMDPad,CuDef*
%ADD23RoundRect,0.237500X0.237500X-0.300000X0.237500X0.300000X-0.237500X0.300000X-0.237500X-0.300000X0*%
G04 #@! TD*
G04 #@! TA.AperFunction,SMDPad,CuDef*
%ADD24RoundRect,0.237500X0.300000X0.237500X-0.300000X0.237500X-0.300000X-0.237500X0.300000X-0.237500X0*%
G04 #@! TD*
G04 #@! TA.AperFunction,SMDPad,CuDef*
%ADD25RoundRect,0.237500X-0.237500X0.250000X-0.237500X-0.250000X0.237500X-0.250000X0.237500X0.250000X0*%
G04 #@! TD*
G04 #@! TA.AperFunction,SMDPad,CuDef*
%ADD26RoundRect,0.250000X-0.412500X-0.650000X0.412500X-0.650000X0.412500X0.650000X-0.412500X0.650000X0*%
G04 #@! TD*
G04 #@! TA.AperFunction,SMDPad,CuDef*
%ADD27RoundRect,0.237500X0.250000X0.237500X-0.250000X0.237500X-0.250000X-0.237500X0.250000X-0.237500X0*%
G04 #@! TD*
G04 #@! TA.AperFunction,ViaPad*
%ADD28C,0.700000*%
G04 #@! TD*
G04 #@! TA.AperFunction,ViaPad*
%ADD29C,0.800000*%
G04 #@! TD*
G04 #@! TA.AperFunction,Conductor*
%ADD30C,0.400000*%
G04 #@! TD*
G04 #@! TA.AperFunction,Conductor*
%ADD31C,0.600000*%
G04 #@! TD*
G04 #@! TA.AperFunction,Conductor*
%ADD32C,0.254000*%
G04 #@! TD*
G04 #@! TA.AperFunction,Conductor*
%ADD33C,0.800000*%
G04 #@! TD*
G04 #@! TA.AperFunction,Conductor*
%ADD34C,0.250000*%
G04 #@! TD*
G04 #@! TA.AperFunction,Conductor*
%ADD35C,1.000000*%
G04 #@! TD*
G04 #@! TA.AperFunction,Conductor*
%ADD36C,1.400000*%
G04 #@! TD*
G04 #@! TA.AperFunction,Conductor*
%ADD37C,0.700000*%
G04 #@! TD*
G04 #@! TA.AperFunction,Conductor*
%ADD38C,0.500000*%
G04 #@! TD*
G04 #@! TA.AperFunction,Conductor*
%ADD39C,0.200000*%
G04 #@! TD*
G04 APERTURE END LIST*
D10*
X90499999Y-98899999D03*
D11*
X93039999Y-98899999D03*
X95579999Y-98899999D03*
D12*
X92550000Y-75005000D03*
X92550000Y-76105000D03*
X92550000Y-77205000D03*
X92550000Y-78305000D03*
X92550000Y-79405000D03*
X92550000Y-80505000D03*
X92550000Y-81605000D03*
X92550000Y-82705000D03*
X92550000Y-83805000D03*
X92550000Y-84905000D03*
X92550000Y-86005000D03*
X92550000Y-87105000D03*
X92550000Y-88205000D03*
X92550000Y-89305000D03*
X92550000Y-90405000D03*
X92550000Y-91505000D03*
X92550000Y-92605000D03*
D13*
X94550000Y-94605000D03*
X95750000Y-94605000D03*
X96950000Y-94605000D03*
X98150000Y-94605000D03*
X99350000Y-94605000D03*
X100550000Y-94605000D03*
X101750000Y-94605000D03*
X102950000Y-94605000D03*
X104150000Y-94605000D03*
D14*
X106050000Y-92605000D03*
X106050000Y-91505000D03*
X106050000Y-90405000D03*
X106050000Y-89305000D03*
X106050000Y-88205000D03*
X106050000Y-87105000D03*
X106050000Y-86005000D03*
X106050000Y-84905000D03*
X106050000Y-83805000D03*
X106050000Y-82705000D03*
X106050000Y-81605000D03*
X106050000Y-80505000D03*
X106050000Y-79405000D03*
X106050000Y-78305000D03*
X106050000Y-77205000D03*
X106050000Y-76105000D03*
X106050000Y-75005000D03*
D15*
X142649999Y-92774999D03*
X142649999Y-95774999D03*
X149149999Y-87674999D03*
X142649999Y-88774999D03*
D16*
X121387500Y-86500000D03*
X123112500Y-86500000D03*
D17*
X147125000Y-84400000D03*
X149175000Y-84400000D03*
D18*
X132692500Y-76200000D03*
X139192500Y-76200000D03*
D19*
X89650000Y-79912500D03*
X89650000Y-78087500D03*
D20*
X87600000Y-82325000D03*
X87600000Y-84075000D03*
D16*
X121437500Y-80700000D03*
X123162500Y-80700000D03*
D21*
X110300000Y-72700000D03*
X115300000Y-72700000D03*
D18*
X119650000Y-75150000D03*
X126150000Y-75150000D03*
X132200000Y-93800000D03*
X138700000Y-93800000D03*
D19*
X87600000Y-78212500D03*
X87600000Y-76387500D03*
D22*
X145225000Y-78550000D03*
X147050000Y-78550000D03*
D23*
X88250000Y-91162500D03*
X88250000Y-89437500D03*
D21*
X110350000Y-79800000D03*
X115350000Y-79800000D03*
D16*
X143525000Y-76500000D03*
X145250000Y-76500000D03*
D24*
X146962500Y-80400000D03*
X145237500Y-80400000D03*
D25*
X90000000Y-89387500D03*
X90000000Y-91212500D03*
D20*
X89650000Y-82325000D03*
X89650000Y-84075000D03*
D22*
X137387500Y-87700000D03*
X139212500Y-87700000D03*
D16*
X145275000Y-82350000D03*
X147000000Y-82350000D03*
D26*
X87337500Y-94100000D03*
X90462500Y-94100000D03*
D27*
X139312500Y-82350000D03*
X137487500Y-82350000D03*
D22*
X87387500Y-96700000D03*
X89212500Y-96700000D03*
D18*
X119600000Y-92150000D03*
X126100000Y-92150000D03*
D21*
X110450000Y-86900000D03*
X115450000Y-86900000D03*
X110500000Y-94050000D03*
X115500000Y-94050000D03*
D28*
X96700000Y-97200000D03*
X97550000Y-97200000D03*
D29*
X102300000Y-92353500D03*
X107450000Y-97550500D03*
X108350000Y-97550500D03*
X131300000Y-93900000D03*
X131950000Y-76250000D03*
X124000000Y-92000000D03*
X118950000Y-92050000D03*
X118950000Y-74950000D03*
X123950000Y-74950000D03*
X120100000Y-92000000D03*
X125000000Y-92000000D03*
X132300000Y-93850000D03*
X132900000Y-76250000D03*
X120100000Y-74950000D03*
X125000000Y-74900000D03*
X106100000Y-84950000D03*
X106050000Y-83800000D03*
X106050000Y-82700000D03*
X145300000Y-82400000D03*
X145200000Y-78550000D03*
X143500000Y-76450000D03*
X93150000Y-96350000D03*
X94400000Y-91500000D03*
X94800000Y-88950000D03*
X94700000Y-85250000D03*
X94750000Y-81550000D03*
X94800000Y-77900000D03*
D30*
X92550000Y-90405000D02*
X90807500Y-90405000D01*
X90807500Y-90405000D02*
X90000000Y-91212500D01*
D31*
X92550000Y-92605000D02*
X91255000Y-92605000D01*
X92550000Y-92605000D02*
X92550000Y-93350000D01*
D32*
X103600000Y-93200000D02*
X104150000Y-93750000D01*
X104150000Y-93750000D02*
X104150000Y-94605000D01*
X93150000Y-96350000D02*
X93150000Y-93900000D01*
X93850000Y-93200000D02*
X103600000Y-93200000D01*
X93150000Y-93900000D02*
X93850000Y-93200000D01*
D30*
X94400000Y-91500000D02*
X106045000Y-91500000D01*
D33*
X88250000Y-89437500D02*
X87462500Y-89437500D01*
X87462500Y-89437500D02*
X86750000Y-90150000D01*
X86750000Y-90150000D02*
X86750000Y-93512500D01*
X86750000Y-93512500D02*
X87250000Y-94012500D01*
D30*
X110500000Y-94050000D02*
X110500000Y-92900000D01*
X107950000Y-90350000D02*
X107950000Y-79750000D01*
X107550000Y-79350000D02*
X106105000Y-79350000D01*
X110500000Y-92900000D02*
X107950000Y-90350000D01*
X106105000Y-79350000D02*
X106050000Y-79405000D01*
X107950000Y-79750000D02*
X107550000Y-79350000D01*
X110450000Y-86900000D02*
X110450000Y-83450000D01*
X110450000Y-83450000D02*
X108900000Y-81900000D01*
X106055000Y-78300000D02*
X106050000Y-78305000D01*
X108900000Y-81900000D02*
X108900000Y-79100000D01*
X108900000Y-79100000D02*
X108100000Y-78300000D01*
X108100000Y-78300000D02*
X106055000Y-78300000D01*
X109650000Y-77200000D02*
X110350000Y-77900000D01*
X109300000Y-77200000D02*
X109650000Y-77200000D01*
X106050000Y-77205000D02*
X109295000Y-77205000D01*
X109295000Y-77205000D02*
X109300000Y-77200000D01*
X110350000Y-77900000D02*
X110350000Y-79800000D01*
X106050000Y-76105000D02*
X108745000Y-76105000D01*
X108745000Y-76105000D02*
X110300000Y-74550000D01*
X110300000Y-74550000D02*
X110300000Y-72700000D01*
X87600000Y-78212500D02*
X87600000Y-82325000D01*
X92550000Y-76105000D02*
X87882500Y-76105000D01*
D34*
X87882500Y-76105000D02*
X87600000Y-76387500D01*
D33*
X91900000Y-89300000D02*
X90087500Y-89300000D01*
D34*
X89650000Y-84075000D02*
X90000000Y-84425000D01*
D31*
X90000000Y-84425000D02*
X90000000Y-89387500D01*
D33*
X88250000Y-89437500D02*
X89950000Y-89437500D01*
X90500000Y-98900000D02*
X88600000Y-98900000D01*
X88600000Y-98900000D02*
X87387500Y-97687500D01*
X87387500Y-97687500D02*
X87387500Y-96150000D01*
X87387500Y-96150000D02*
X87387500Y-94150000D01*
D32*
X142650000Y-92775000D02*
X142075000Y-92775000D01*
D35*
X142075000Y-92775000D02*
X141050000Y-93800000D01*
X141050000Y-93800000D02*
X138700000Y-93800000D01*
D30*
X146962500Y-80400000D02*
X146962500Y-82312500D01*
D32*
X146962500Y-82312500D02*
X147000000Y-82350000D01*
D30*
X147050000Y-78550000D02*
X147050000Y-80312500D01*
D32*
X147050000Y-80312500D02*
X146962500Y-80400000D01*
D33*
X125000000Y-92000000D02*
X124000000Y-92000000D01*
X123950000Y-74950000D02*
X124950000Y-74950000D01*
D32*
X124950000Y-74950000D02*
X125000000Y-74900000D01*
D36*
X119650000Y-75150000D02*
X119650000Y-80600000D01*
X119650000Y-80600000D02*
X119650000Y-86450000D01*
X119650000Y-86450000D02*
X119650000Y-92100000D01*
D37*
X121387500Y-86500000D02*
X119700000Y-86500000D01*
D34*
X119700000Y-86500000D02*
X119650000Y-86450000D01*
D37*
X121437500Y-80700000D02*
X119750000Y-80700000D01*
D34*
X119750000Y-80700000D02*
X119650000Y-80600000D01*
X119650000Y-92100000D02*
X119600000Y-92150000D01*
D36*
X117850000Y-98900000D02*
X119600000Y-97150000D01*
X95580000Y-98900000D02*
X117850000Y-98900000D01*
X119600000Y-97150000D02*
X119600000Y-92150000D01*
D34*
X149175000Y-84400000D02*
X149150000Y-84425000D01*
D30*
X149150000Y-84425000D02*
X149150000Y-87675000D01*
X147000000Y-82350000D02*
X147000000Y-84275000D01*
D34*
X147000000Y-84275000D02*
X147125000Y-84400000D01*
D30*
X145250000Y-76500000D02*
X145250000Y-78525000D01*
D34*
X145250000Y-78525000D02*
X145225000Y-78550000D01*
D35*
X142650000Y-88775000D02*
X142650000Y-79200000D01*
X142650000Y-79200000D02*
X139650000Y-76200000D01*
D34*
X139650000Y-76200000D02*
X139192500Y-76200000D01*
D38*
X139212500Y-87700000D02*
X139212500Y-93287500D01*
D34*
X139212500Y-93287500D02*
X138700000Y-93800000D01*
X139192500Y-76200000D02*
X139312500Y-76320000D01*
D38*
X139312500Y-76320000D02*
X139312500Y-82350000D01*
D34*
X106045000Y-91500000D02*
X106050000Y-91505000D01*
D30*
X94800000Y-88950000D02*
X100550000Y-88950000D01*
X100550000Y-88950000D02*
X100905000Y-89305000D01*
X100905000Y-89305000D02*
X106050000Y-89305000D01*
X94700000Y-85250000D02*
X98550000Y-85250000D01*
X98550000Y-85250000D02*
X101505000Y-88205000D01*
X101505000Y-88205000D02*
X106050000Y-88205000D01*
X102355000Y-87105000D02*
X96700000Y-81450000D01*
X106050000Y-87105000D02*
X102355000Y-87105000D01*
X96700000Y-81450000D02*
X94850000Y-81450000D01*
D39*
X94850000Y-81450000D02*
X94750000Y-81550000D01*
D30*
X106050000Y-86005000D02*
X102905000Y-86005000D01*
X102905000Y-86005000D02*
X94800000Y-77900000D01*
D34*
X87600000Y-84075000D02*
X89650000Y-84075000D01*
D30*
X89650000Y-79912500D02*
X89650000Y-82325000D01*
X90532500Y-77205000D02*
X89650000Y-78087500D01*
X92550000Y-77205000D02*
X90532500Y-77205000D01*
G04 #@! TA.AperFunction,Conductor*
G36*
X150886074Y-69114852D02*
G01*
X150900426Y-69149348D01*
X150952075Y-85831889D01*
X150995940Y-100000085D01*
X150998572Y-100850348D01*
X150984327Y-100885041D01*
X150949572Y-100899500D01*
X93699000Y-100899500D01*
X93664352Y-100885148D01*
X93650000Y-100850500D01*
X93650000Y-99843973D01*
X93664352Y-99809325D01*
X93673205Y-99802312D01*
X93683253Y-99796091D01*
X93706041Y-99781981D01*
X93815123Y-99682540D01*
X93855086Y-99646109D01*
X93855088Y-99646107D01*
X93856764Y-99644579D01*
X93979673Y-99481821D01*
X94070582Y-99299250D01*
X94126397Y-99103083D01*
X94145215Y-98900000D01*
X94474785Y-98900000D01*
X94493603Y-99103083D01*
X94549418Y-99299250D01*
X94640327Y-99481821D01*
X94763236Y-99644579D01*
X94764912Y-99646107D01*
X94764914Y-99646109D01*
X94804877Y-99682540D01*
X94913959Y-99781981D01*
X94915885Y-99783174D01*
X94915887Y-99783175D01*
X94999751Y-99835101D01*
X95087363Y-99889348D01*
X95089477Y-99890167D01*
X95089479Y-99890168D01*
X95275429Y-99962205D01*
X95275432Y-99962206D01*
X95277544Y-99963024D01*
X95368048Y-99979942D01*
X95475802Y-100000085D01*
X95475806Y-100000085D01*
X95478024Y-100000500D01*
X95681976Y-100000500D01*
X95684194Y-100000085D01*
X95684198Y-100000085D01*
X95791952Y-99979942D01*
X95882456Y-99963024D01*
X95884568Y-99962206D01*
X95884571Y-99962205D01*
X96070521Y-99890168D01*
X96070523Y-99890167D01*
X96072637Y-99889348D01*
X96123526Y-99857839D01*
X96149321Y-99850500D01*
X117837327Y-99850500D01*
X117838569Y-99850516D01*
X117922546Y-99852644D01*
X117980283Y-99842295D01*
X117983949Y-99841780D01*
X118007618Y-99839374D01*
X118039848Y-99836097D01*
X118039853Y-99836096D01*
X118042321Y-99835845D01*
X118074074Y-99825883D01*
X118080084Y-99824408D01*
X118092257Y-99822226D01*
X118110376Y-99818979D01*
X118110381Y-99818978D01*
X118112828Y-99818539D01*
X118167292Y-99796784D01*
X118170798Y-99795535D01*
X118226768Y-99777974D01*
X118255858Y-99761828D01*
X118261452Y-99759172D01*
X118290038Y-99747753D01*
X118290040Y-99747752D01*
X118292348Y-99746830D01*
X118341322Y-99714554D01*
X118344506Y-99712625D01*
X118356213Y-99706127D01*
X118395791Y-99684159D01*
X118421030Y-99662492D01*
X118425983Y-99658757D01*
X118451679Y-99641822D01*
X118451680Y-99641821D01*
X118453759Y-99640451D01*
X118495235Y-99598975D01*
X118497966Y-99596444D01*
X118540582Y-99559859D01*
X118542468Y-99558240D01*
X118562829Y-99531936D01*
X118566929Y-99527281D01*
X120263138Y-97831072D01*
X120264027Y-97830205D01*
X120323121Y-97774032D01*
X120324919Y-97772323D01*
X120326334Y-97770290D01*
X120326340Y-97770283D01*
X120358429Y-97724179D01*
X120360670Y-97721206D01*
X120365480Y-97715307D01*
X120397734Y-97675751D01*
X120398885Y-97673548D01*
X120398890Y-97673540D01*
X120413137Y-97646266D01*
X120416350Y-97640961D01*
X120433938Y-97615691D01*
X120435353Y-97613658D01*
X120458484Y-97559757D01*
X120460081Y-97556394D01*
X120486089Y-97506604D01*
X120486089Y-97506603D01*
X120487237Y-97504406D01*
X120496387Y-97472426D01*
X120498468Y-97466582D01*
X120510608Y-97438293D01*
X120511587Y-97436012D01*
X120513658Y-97425936D01*
X144895631Y-97425936D01*
X144896007Y-97428390D01*
X144896007Y-97428391D01*
X144924701Y-97615691D01*
X144926444Y-97627071D01*
X144927306Y-97629399D01*
X144927307Y-97629402D01*
X144979484Y-97770283D01*
X144997114Y-97817887D01*
X144998428Y-97819996D01*
X144998429Y-97819997D01*
X145054423Y-97909832D01*
X145104748Y-97990571D01*
X145244941Y-98138053D01*
X145246979Y-98139472D01*
X145246982Y-98139474D01*
X145336262Y-98201614D01*
X145411951Y-98254295D01*
X145414231Y-98255273D01*
X145414232Y-98255274D01*
X145596663Y-98333562D01*
X145598942Y-98334540D01*
X145601369Y-98335039D01*
X145601373Y-98335040D01*
X145724415Y-98360325D01*
X145798259Y-98375500D01*
X145950742Y-98375500D01*
X145951957Y-98375376D01*
X145951966Y-98375376D01*
X146059765Y-98364413D01*
X146102438Y-98360074D01*
X146296588Y-98299159D01*
X146474502Y-98200409D01*
X146628895Y-98067866D01*
X146753448Y-97906958D01*
X146843060Y-97724271D01*
X146894063Y-97527285D01*
X146895224Y-97504406D01*
X146904243Y-97326545D01*
X146904369Y-97324064D01*
X146903891Y-97320945D01*
X146873933Y-97125387D01*
X146873932Y-97125383D01*
X146873556Y-97122929D01*
X146838449Y-97028137D01*
X146803750Y-96934445D01*
X146803749Y-96934442D01*
X146802886Y-96932113D01*
X146746140Y-96841071D01*
X146696564Y-96761534D01*
X146695252Y-96759429D01*
X146555059Y-96611947D01*
X146553021Y-96610528D01*
X146553018Y-96610526D01*
X146407991Y-96509585D01*
X146388049Y-96495705D01*
X146201058Y-96415460D01*
X146198631Y-96414961D01*
X146198627Y-96414960D01*
X146004179Y-96375001D01*
X146001741Y-96374500D01*
X145849258Y-96374500D01*
X145848043Y-96374624D01*
X145848034Y-96374624D01*
X145740235Y-96385587D01*
X145697562Y-96389926D01*
X145503412Y-96450841D01*
X145325498Y-96549591D01*
X145171105Y-96682134D01*
X145046552Y-96843042D01*
X144956940Y-97025729D01*
X144905937Y-97222715D01*
X144905811Y-97225191D01*
X144905811Y-97225194D01*
X144901077Y-97318551D01*
X144895631Y-97425936D01*
X120513658Y-97425936D01*
X120523395Y-97378553D01*
X120524283Y-97374936D01*
X120539732Y-97320945D01*
X120540417Y-97318551D01*
X120542944Y-97285372D01*
X120543804Y-97279242D01*
X120550500Y-97246656D01*
X120550500Y-97188008D01*
X120550641Y-97184287D01*
X120554907Y-97128271D01*
X120554907Y-97128267D01*
X120555095Y-97125797D01*
X120550893Y-97092804D01*
X120550500Y-97086613D01*
X120550500Y-96397214D01*
X141150000Y-96397214D01*
X141150471Y-96401990D01*
X141163563Y-96467808D01*
X141167187Y-96476559D01*
X141217080Y-96551229D01*
X141223771Y-96557920D01*
X141298441Y-96607813D01*
X141307192Y-96611437D01*
X141373010Y-96624529D01*
X141377786Y-96625000D01*
X142386253Y-96625000D01*
X142393145Y-96622145D01*
X142396000Y-96615253D01*
X142904000Y-96615253D01*
X142906855Y-96622145D01*
X142913747Y-96625000D01*
X143922214Y-96625000D01*
X143926990Y-96624529D01*
X143992808Y-96611437D01*
X144001559Y-96607813D01*
X144076229Y-96557920D01*
X144082920Y-96551229D01*
X144132813Y-96476559D01*
X144136437Y-96467808D01*
X144149529Y-96401990D01*
X144150000Y-96397214D01*
X144150000Y-96038747D01*
X144147145Y-96031855D01*
X144140253Y-96029000D01*
X142913747Y-96029000D01*
X142906855Y-96031855D01*
X142904000Y-96038747D01*
X142904000Y-96615253D01*
X142396000Y-96615253D01*
X142396000Y-96038747D01*
X142393145Y-96031855D01*
X142386253Y-96029000D01*
X141159747Y-96029000D01*
X141152855Y-96031855D01*
X141150000Y-96038747D01*
X141150000Y-96397214D01*
X120550500Y-96397214D01*
X120550500Y-95511253D01*
X141150000Y-95511253D01*
X141152855Y-95518145D01*
X141159747Y-95521000D01*
X142386253Y-95521000D01*
X142393145Y-95518145D01*
X142396000Y-95511253D01*
X142904000Y-95511253D01*
X142906855Y-95518145D01*
X142913747Y-95521000D01*
X144140253Y-95521000D01*
X144147145Y-95518145D01*
X144150000Y-95511253D01*
X144150000Y-95152786D01*
X144149529Y-95148010D01*
X144136437Y-95082192D01*
X144132813Y-95073441D01*
X144082920Y-94998771D01*
X144076229Y-94992080D01*
X144001559Y-94942187D01*
X143992808Y-94938563D01*
X143926990Y-94925471D01*
X143922214Y-94925000D01*
X142913747Y-94925000D01*
X142906855Y-94927855D01*
X142904000Y-94934747D01*
X142904000Y-95511253D01*
X142396000Y-95511253D01*
X142396000Y-94934747D01*
X142393145Y-94927855D01*
X142386253Y-94925000D01*
X141377786Y-94925000D01*
X141373010Y-94925471D01*
X141307192Y-94938563D01*
X141298441Y-94942187D01*
X141223771Y-94992080D01*
X141217080Y-94998771D01*
X141167187Y-95073441D01*
X141163563Y-95082192D01*
X141150471Y-95148010D01*
X141150000Y-95152786D01*
X141150000Y-95511253D01*
X120550500Y-95511253D01*
X120550500Y-93699499D01*
X120564852Y-93664851D01*
X120599500Y-93650499D01*
X121147872Y-93650499D01*
X121149179Y-93650358D01*
X121149188Y-93650358D01*
X121189296Y-93646046D01*
X121207483Y-93644091D01*
X121342331Y-93593796D01*
X121345730Y-93591252D01*
X121454742Y-93509645D01*
X121457546Y-93507546D01*
X121543796Y-93392331D01*
X121594091Y-93257483D01*
X121599303Y-93209006D01*
X121600359Y-93199188D01*
X121600359Y-93199181D01*
X121600500Y-93197873D01*
X121600500Y-93196508D01*
X124100000Y-93196508D01*
X124100141Y-93199143D01*
X124106075Y-93254330D01*
X124107472Y-93260243D01*
X124155423Y-93388806D01*
X124158748Y-93394896D01*
X124240712Y-93504385D01*
X124245615Y-93509288D01*
X124355104Y-93591252D01*
X124361194Y-93594577D01*
X124489757Y-93642528D01*
X124495670Y-93643925D01*
X124550857Y-93649859D01*
X124553492Y-93650000D01*
X125836253Y-93650000D01*
X125843145Y-93647145D01*
X125846000Y-93640253D01*
X126354000Y-93640253D01*
X126356855Y-93647145D01*
X126363747Y-93650000D01*
X127646508Y-93650000D01*
X127649143Y-93649859D01*
X127704330Y-93643925D01*
X127710243Y-93642528D01*
X127838806Y-93594577D01*
X127844896Y-93591252D01*
X127954385Y-93509288D01*
X127959288Y-93504385D01*
X128041252Y-93394896D01*
X128044577Y-93388806D01*
X128092528Y-93260243D01*
X128093925Y-93254330D01*
X128099859Y-93199143D01*
X128100000Y-93196508D01*
X128100000Y-92752127D01*
X130199500Y-92752127D01*
X130199501Y-94847872D01*
X130205909Y-94907483D01*
X130256204Y-95042331D01*
X130258304Y-95045136D01*
X130258305Y-95045138D01*
X130288547Y-95085536D01*
X130342454Y-95157546D01*
X130457669Y-95243796D01*
X130592517Y-95294091D01*
X130626639Y-95297760D01*
X130650812Y-95300359D01*
X130650819Y-95300359D01*
X130652127Y-95300500D01*
X132200000Y-95300500D01*
X133747872Y-95300499D01*
X133749179Y-95300358D01*
X133749188Y-95300358D01*
X133788540Y-95296127D01*
X133807483Y-95294091D01*
X133942331Y-95243796D01*
X134057546Y-95157546D01*
X134111453Y-95085536D01*
X134141695Y-95045138D01*
X134141696Y-95045136D01*
X134143796Y-95042331D01*
X134194091Y-94907483D01*
X134200500Y-94847873D01*
X134200499Y-92752128D01*
X134200499Y-92752127D01*
X136699500Y-92752127D01*
X136699501Y-94847872D01*
X136705909Y-94907483D01*
X136756204Y-95042331D01*
X136758304Y-95045136D01*
X136758305Y-95045138D01*
X136788547Y-95085536D01*
X136842454Y-95157546D01*
X136957669Y-95243796D01*
X137092517Y-95294091D01*
X137126639Y-95297760D01*
X137150812Y-95300359D01*
X137150819Y-95300359D01*
X137152127Y-95300500D01*
X138700000Y-95300500D01*
X140247872Y-95300499D01*
X140249179Y-95300358D01*
X140249188Y-95300358D01*
X140288540Y-95296127D01*
X140307483Y-95294091D01*
X140442331Y-95243796D01*
X140557546Y-95157546D01*
X140611453Y-95085536D01*
X140641695Y-95045138D01*
X140641696Y-95045136D01*
X140643796Y-95042331D01*
X140694091Y-94907483D01*
X140700500Y-94847873D01*
X140700500Y-94599500D01*
X140714852Y-94564852D01*
X140749500Y-94550500D01*
X140991757Y-94550500D01*
X140998858Y-94551017D01*
X141028023Y-94555289D01*
X141030858Y-94555041D01*
X141030860Y-94555041D01*
X141080638Y-94550686D01*
X141084908Y-94550500D01*
X141093709Y-94550500D01*
X141095108Y-94550336D01*
X141095116Y-94550336D01*
X141125566Y-94546776D01*
X141126985Y-94546631D01*
X141199953Y-94540248D01*
X141199955Y-94540248D01*
X141202797Y-94539999D01*
X141205604Y-94539069D01*
X141208535Y-94538098D01*
X141218258Y-94535942D01*
X141218668Y-94535894D01*
X141224255Y-94535241D01*
X141295768Y-94509212D01*
X141297096Y-94508751D01*
X141366626Y-94485712D01*
X141366631Y-94485710D01*
X141369334Y-94484814D01*
X141371758Y-94483319D01*
X141371762Y-94483317D01*
X141374476Y-94481643D01*
X141383436Y-94477305D01*
X141386436Y-94476213D01*
X141386438Y-94476212D01*
X141389117Y-94475237D01*
X141391498Y-94473671D01*
X141391500Y-94473670D01*
X141452682Y-94433430D01*
X141453884Y-94432664D01*
X141516225Y-94394212D01*
X141516228Y-94394209D01*
X141518656Y-94392712D01*
X141522929Y-94388439D01*
X141530652Y-94382148D01*
X141533308Y-94380401D01*
X141533310Y-94380399D01*
X141535696Y-94378830D01*
X141587902Y-94323495D01*
X141588895Y-94322473D01*
X142271516Y-93639852D01*
X142306164Y-93625500D01*
X143924674Y-93625500D01*
X143997740Y-93610966D01*
X144080601Y-93555601D01*
X144135966Y-93472740D01*
X144150500Y-93399674D01*
X144150500Y-92150326D01*
X144135966Y-92077260D01*
X144080601Y-91994399D01*
X143997740Y-91939034D01*
X143924674Y-91924500D01*
X141375326Y-91924500D01*
X141302260Y-91939034D01*
X141219399Y-91994399D01*
X141164034Y-92077260D01*
X141149500Y-92150326D01*
X141149500Y-92618837D01*
X141135148Y-92653485D01*
X140784147Y-93004485D01*
X140749499Y-93018837D01*
X140714851Y-93004485D01*
X140700499Y-92969837D01*
X140700499Y-92752128D01*
X140699871Y-92746281D01*
X140694419Y-92695570D01*
X140694091Y-92692517D01*
X140643796Y-92557669D01*
X140630330Y-92539680D01*
X140559645Y-92445258D01*
X140557546Y-92442454D01*
X140533863Y-92424725D01*
X140445138Y-92358305D01*
X140445136Y-92358304D01*
X140442331Y-92356204D01*
X140307483Y-92305909D01*
X140273361Y-92302240D01*
X140249188Y-92299641D01*
X140249181Y-92299641D01*
X140247873Y-92299500D01*
X139762000Y-92299500D01*
X139727352Y-92285148D01*
X139713000Y-92250500D01*
X139713000Y-90425936D01*
X144895631Y-90425936D01*
X144896007Y-90428390D01*
X144896007Y-90428391D01*
X144924203Y-90612441D01*
X144926444Y-90627071D01*
X144927306Y-90629399D01*
X144927307Y-90629402D01*
X144994859Y-90811797D01*
X144997114Y-90817887D01*
X144998428Y-90819996D01*
X144998429Y-90819997D01*
X145055121Y-90910952D01*
X145104748Y-90990571D01*
X145106458Y-90992370D01*
X145212045Y-91103447D01*
X145244941Y-91138053D01*
X145246979Y-91139472D01*
X145246982Y-91139474D01*
X145336262Y-91201614D01*
X145411951Y-91254295D01*
X145598942Y-91334540D01*
X145601369Y-91335039D01*
X145601373Y-91335040D01*
X145724415Y-91360325D01*
X145798259Y-91375500D01*
X145950742Y-91375500D01*
X145951957Y-91375376D01*
X145951966Y-91375376D01*
X146059765Y-91364413D01*
X146102438Y-91360074D01*
X146296588Y-91299159D01*
X146474502Y-91200409D01*
X146628895Y-91067866D01*
X146753448Y-90906958D01*
X146781633Y-90849500D01*
X146841963Y-90726507D01*
X146843060Y-90724271D01*
X146894063Y-90527285D01*
X146895780Y-90493439D01*
X146904243Y-90326545D01*
X146904369Y-90324064D01*
X146888475Y-90220313D01*
X146873933Y-90125387D01*
X146873932Y-90125383D01*
X146873556Y-90122929D01*
X146838449Y-90028137D01*
X146803750Y-89934445D01*
X146803749Y-89934442D01*
X146802886Y-89932113D01*
X146754822Y-89855000D01*
X146696564Y-89761534D01*
X146695252Y-89759429D01*
X146653468Y-89715472D01*
X146556772Y-89613749D01*
X146555059Y-89611947D01*
X146553021Y-89610528D01*
X146553018Y-89610526D01*
X146390089Y-89497125D01*
X146390090Y-89497125D01*
X146388049Y-89495705D01*
X146201058Y-89415460D01*
X146198631Y-89414961D01*
X146198627Y-89414960D01*
X146004179Y-89375001D01*
X146001741Y-89374500D01*
X145849258Y-89374500D01*
X145848043Y-89374624D01*
X145848034Y-89374624D01*
X145750625Y-89384530D01*
X145697562Y-89389926D01*
X145503412Y-89450841D01*
X145325498Y-89549591D01*
X145171105Y-89682134D01*
X145046552Y-89843042D01*
X144956940Y-90025729D01*
X144905937Y-90222715D01*
X144895631Y-90425936D01*
X139713000Y-90425936D01*
X139713000Y-88384092D01*
X139727352Y-88349444D01*
X139732623Y-88344875D01*
X139811116Y-88286116D01*
X139895212Y-88173778D01*
X139944251Y-88042299D01*
X139947806Y-88009231D01*
X139950359Y-87985489D01*
X139950359Y-87985482D01*
X139950500Y-87984174D01*
X139950500Y-87415826D01*
X139944251Y-87357701D01*
X139895212Y-87226222D01*
X139890239Y-87219578D01*
X139813215Y-87116688D01*
X139811116Y-87113884D01*
X139770277Y-87083312D01*
X139701585Y-87031889D01*
X139701583Y-87031888D01*
X139698778Y-87029788D01*
X139620714Y-87000672D01*
X139570166Y-86981818D01*
X139570164Y-86981817D01*
X139567299Y-86980749D01*
X139528568Y-86976585D01*
X139510489Y-86974641D01*
X139510482Y-86974641D01*
X139509174Y-86974500D01*
X138915826Y-86974500D01*
X138914518Y-86974641D01*
X138914511Y-86974641D01*
X138896432Y-86976585D01*
X138857701Y-86980749D01*
X138854836Y-86981817D01*
X138854834Y-86981818D01*
X138804286Y-87000672D01*
X138726222Y-87029788D01*
X138723417Y-87031888D01*
X138723415Y-87031889D01*
X138654723Y-87083312D01*
X138613884Y-87113884D01*
X138611785Y-87116688D01*
X138534762Y-87219578D01*
X138529788Y-87226222D01*
X138480749Y-87357701D01*
X138474500Y-87415826D01*
X138474500Y-87984174D01*
X138474641Y-87985482D01*
X138474641Y-87985489D01*
X138477194Y-88009231D01*
X138480749Y-88042299D01*
X138529788Y-88173778D01*
X138613884Y-88286116D01*
X138692366Y-88344867D01*
X138711501Y-88377119D01*
X138712000Y-88384092D01*
X138712000Y-92250500D01*
X138697648Y-92285148D01*
X138663000Y-92299500D01*
X137193047Y-92299501D01*
X137152128Y-92299501D01*
X137150821Y-92299642D01*
X137150812Y-92299642D01*
X137111460Y-92303873D01*
X137092517Y-92305909D01*
X136957669Y-92356204D01*
X136954864Y-92358304D01*
X136954862Y-92358305D01*
X136866137Y-92424725D01*
X136842454Y-92442454D01*
X136840355Y-92445258D01*
X136769671Y-92539680D01*
X136756204Y-92557669D01*
X136705909Y-92692517D01*
X136705582Y-92695563D01*
X136700129Y-92746281D01*
X136699500Y-92752127D01*
X134200499Y-92752127D01*
X134199871Y-92746281D01*
X134194419Y-92695570D01*
X134194091Y-92692517D01*
X134143796Y-92557669D01*
X134130330Y-92539680D01*
X134059645Y-92445258D01*
X134057546Y-92442454D01*
X134033863Y-92424725D01*
X133945138Y-92358305D01*
X133945136Y-92358304D01*
X133942331Y-92356204D01*
X133807483Y-92305909D01*
X133773361Y-92302240D01*
X133749188Y-92299641D01*
X133749181Y-92299641D01*
X133747873Y-92299500D01*
X133746553Y-92299500D01*
X132200001Y-92299501D01*
X130652128Y-92299501D01*
X130650821Y-92299642D01*
X130650812Y-92299642D01*
X130611460Y-92303873D01*
X130592517Y-92305909D01*
X130457669Y-92356204D01*
X130454864Y-92358304D01*
X130454862Y-92358305D01*
X130366137Y-92424725D01*
X130342454Y-92442454D01*
X130340355Y-92445258D01*
X130269671Y-92539680D01*
X130256204Y-92557669D01*
X130205909Y-92692517D01*
X130205582Y-92695563D01*
X130200129Y-92746281D01*
X130199500Y-92752127D01*
X128100000Y-92752127D01*
X128100000Y-92413747D01*
X128097145Y-92406855D01*
X128090253Y-92404000D01*
X126363747Y-92404000D01*
X126356855Y-92406855D01*
X126354000Y-92413747D01*
X126354000Y-93640253D01*
X125846000Y-93640253D01*
X125846000Y-92413747D01*
X125843145Y-92406855D01*
X125836253Y-92404000D01*
X124109747Y-92404000D01*
X124102855Y-92406855D01*
X124100000Y-92413747D01*
X124100000Y-93196508D01*
X121600500Y-93196508D01*
X121600499Y-91886253D01*
X124100000Y-91886253D01*
X124102855Y-91893145D01*
X124109747Y-91896000D01*
X125836253Y-91896000D01*
X125843145Y-91893145D01*
X125846000Y-91886253D01*
X126354000Y-91886253D01*
X126356855Y-91893145D01*
X126363747Y-91896000D01*
X128090253Y-91896000D01*
X128097145Y-91893145D01*
X128100000Y-91886253D01*
X128100000Y-91103492D01*
X128099859Y-91100857D01*
X128093925Y-91045670D01*
X128092528Y-91039757D01*
X128044577Y-90911194D01*
X128041252Y-90905104D01*
X127959288Y-90795615D01*
X127954385Y-90790712D01*
X127844896Y-90708748D01*
X127838806Y-90705423D01*
X127710243Y-90657472D01*
X127704330Y-90656075D01*
X127649143Y-90650141D01*
X127646508Y-90650000D01*
X126363747Y-90650000D01*
X126356855Y-90652855D01*
X126354000Y-90659747D01*
X126354000Y-91886253D01*
X125846000Y-91886253D01*
X125846000Y-90659747D01*
X125843145Y-90652855D01*
X125836253Y-90650000D01*
X124553492Y-90650000D01*
X124550857Y-90650141D01*
X124495670Y-90656075D01*
X124489757Y-90657472D01*
X124361194Y-90705423D01*
X124355104Y-90708748D01*
X124245615Y-90790712D01*
X124240712Y-90795615D01*
X124158748Y-90905104D01*
X124155423Y-90911194D01*
X124107472Y-91039757D01*
X124106075Y-91045670D01*
X124100141Y-91100857D01*
X124100000Y-91103492D01*
X124100000Y-91886253D01*
X121600499Y-91886253D01*
X121600499Y-91102128D01*
X121594091Y-91042517D01*
X121543796Y-90907669D01*
X121483895Y-90827651D01*
X121459645Y-90795258D01*
X121457546Y-90792454D01*
X121433863Y-90774725D01*
X121345138Y-90708305D01*
X121345136Y-90708304D01*
X121342331Y-90706204D01*
X121207483Y-90655909D01*
X121173361Y-90652240D01*
X121149188Y-90649641D01*
X121149181Y-90649641D01*
X121147873Y-90649500D01*
X120649500Y-90649500D01*
X120614852Y-90635148D01*
X120600500Y-90600500D01*
X120600500Y-87982810D01*
X136650000Y-87982810D01*
X136650141Y-87985445D01*
X136655914Y-88039144D01*
X136657313Y-88045063D01*
X136704007Y-88170252D01*
X136707331Y-88176339D01*
X136787145Y-88282959D01*
X136792041Y-88287855D01*
X136898661Y-88367669D01*
X136904748Y-88370993D01*
X137029937Y-88417687D01*
X137035856Y-88419086D01*
X137089555Y-88424859D01*
X137092190Y-88425000D01*
X137123753Y-88425000D01*
X137130645Y-88422145D01*
X137133500Y-88415253D01*
X137641500Y-88415253D01*
X137644355Y-88422145D01*
X137651247Y-88425000D01*
X137682810Y-88425000D01*
X137685445Y-88424859D01*
X137739144Y-88419086D01*
X137745063Y-88417687D01*
X137870252Y-88370993D01*
X137876339Y-88367669D01*
X137982959Y-88287855D01*
X137987855Y-88282959D01*
X138067669Y-88176339D01*
X138070993Y-88170252D01*
X138117687Y-88045063D01*
X138119086Y-88039144D01*
X138124859Y-87985445D01*
X138125000Y-87982810D01*
X138125000Y-87963747D01*
X138122145Y-87956855D01*
X138115253Y-87954000D01*
X137651247Y-87954000D01*
X137644355Y-87956855D01*
X137641500Y-87963747D01*
X137641500Y-88415253D01*
X137133500Y-88415253D01*
X137133500Y-87963747D01*
X137130645Y-87956855D01*
X137123753Y-87954000D01*
X136659747Y-87954000D01*
X136652855Y-87956855D01*
X136650000Y-87963747D01*
X136650000Y-87982810D01*
X120600500Y-87982810D01*
X120600500Y-87436253D01*
X136650000Y-87436253D01*
X136652855Y-87443145D01*
X136659747Y-87446000D01*
X137123753Y-87446000D01*
X137130645Y-87443145D01*
X137133500Y-87436253D01*
X137641500Y-87436253D01*
X137644355Y-87443145D01*
X137651247Y-87446000D01*
X138115253Y-87446000D01*
X138122145Y-87443145D01*
X138125000Y-87436253D01*
X138125000Y-87417190D01*
X138124859Y-87414555D01*
X138119086Y-87360856D01*
X138117687Y-87354937D01*
X138070993Y-87229748D01*
X138067669Y-87223661D01*
X137987855Y-87117041D01*
X137982959Y-87112145D01*
X137876339Y-87032331D01*
X137870252Y-87029007D01*
X137745063Y-86982313D01*
X137739144Y-86980914D01*
X137685445Y-86975141D01*
X137682810Y-86975000D01*
X137651247Y-86975000D01*
X137644355Y-86977855D01*
X137641500Y-86984747D01*
X137641500Y-87436253D01*
X137133500Y-87436253D01*
X137133500Y-86984747D01*
X137130645Y-86977855D01*
X137123753Y-86975000D01*
X137092190Y-86975000D01*
X137089555Y-86975141D01*
X137035856Y-86980914D01*
X137029937Y-86982313D01*
X136904748Y-87029007D01*
X136898661Y-87032331D01*
X136792041Y-87112145D01*
X136787145Y-87117041D01*
X136707331Y-87223661D01*
X136704007Y-87229748D01*
X136657313Y-87354937D01*
X136655914Y-87360856D01*
X136650141Y-87414555D01*
X136650000Y-87417190D01*
X136650000Y-87436253D01*
X120600500Y-87436253D01*
X120600500Y-87149500D01*
X120614852Y-87114852D01*
X120649500Y-87100500D01*
X120741790Y-87100500D01*
X120771155Y-87110274D01*
X120777271Y-87114852D01*
X120851222Y-87170212D01*
X120929286Y-87199328D01*
X120979834Y-87218182D01*
X120979836Y-87218183D01*
X120982701Y-87219251D01*
X121009620Y-87222145D01*
X121039511Y-87225359D01*
X121039518Y-87225359D01*
X121040826Y-87225500D01*
X121734174Y-87225500D01*
X121735482Y-87225359D01*
X121735489Y-87225359D01*
X121765380Y-87222145D01*
X121792299Y-87219251D01*
X121795164Y-87218183D01*
X121795166Y-87218182D01*
X121845714Y-87199328D01*
X121923778Y-87170212D01*
X121994806Y-87117041D01*
X122033312Y-87088215D01*
X122036116Y-87086116D01*
X122113823Y-86982313D01*
X122118111Y-86976585D01*
X122118112Y-86976583D01*
X122120212Y-86973778D01*
X122166105Y-86850734D01*
X122168182Y-86845166D01*
X122168183Y-86845164D01*
X122169251Y-86842299D01*
X122175500Y-86784174D01*
X122175500Y-86782810D01*
X122325000Y-86782810D01*
X122325141Y-86785445D01*
X122330914Y-86839144D01*
X122332313Y-86845063D01*
X122379007Y-86970252D01*
X122382331Y-86976339D01*
X122462145Y-87082959D01*
X122467041Y-87087855D01*
X122573661Y-87167669D01*
X122579748Y-87170993D01*
X122704937Y-87217687D01*
X122710856Y-87219086D01*
X122764555Y-87224859D01*
X122767190Y-87225000D01*
X122848753Y-87225000D01*
X122855645Y-87222145D01*
X122858500Y-87215253D01*
X123366500Y-87215253D01*
X123369355Y-87222145D01*
X123376247Y-87225000D01*
X123457810Y-87225000D01*
X123460445Y-87224859D01*
X123514144Y-87219086D01*
X123520063Y-87217687D01*
X123645252Y-87170993D01*
X123651339Y-87167669D01*
X123757959Y-87087855D01*
X123762855Y-87082959D01*
X123842669Y-86976339D01*
X123845993Y-86970252D01*
X123892687Y-86845063D01*
X123894086Y-86839144D01*
X123899859Y-86785445D01*
X123900000Y-86782810D01*
X123900000Y-86763747D01*
X123897145Y-86756855D01*
X123890253Y-86754000D01*
X123376247Y-86754000D01*
X123369355Y-86756855D01*
X123366500Y-86763747D01*
X123366500Y-87215253D01*
X122858500Y-87215253D01*
X122858500Y-86763747D01*
X122855645Y-86756855D01*
X122848753Y-86754000D01*
X122334747Y-86754000D01*
X122327855Y-86756855D01*
X122325000Y-86763747D01*
X122325000Y-86782810D01*
X122175500Y-86782810D01*
X122175500Y-86236253D01*
X122325000Y-86236253D01*
X122327855Y-86243145D01*
X122334747Y-86246000D01*
X122848753Y-86246000D01*
X122855645Y-86243145D01*
X122858500Y-86236253D01*
X123366500Y-86236253D01*
X123369355Y-86243145D01*
X123376247Y-86246000D01*
X123890253Y-86246000D01*
X123897145Y-86243145D01*
X123900000Y-86236253D01*
X123900000Y-86217190D01*
X123899859Y-86214555D01*
X123894086Y-86160856D01*
X123892687Y-86154937D01*
X123845993Y-86029748D01*
X123842669Y-86023661D01*
X123762855Y-85917041D01*
X123757959Y-85912145D01*
X123651339Y-85832331D01*
X123645252Y-85829007D01*
X123520063Y-85782313D01*
X123514144Y-85780914D01*
X123460445Y-85775141D01*
X123457810Y-85775000D01*
X123376247Y-85775000D01*
X123369355Y-85777855D01*
X123366500Y-85784747D01*
X123366500Y-86236253D01*
X122858500Y-86236253D01*
X122858500Y-85784747D01*
X122855645Y-85777855D01*
X122848753Y-85775000D01*
X122767190Y-85775000D01*
X122764555Y-85775141D01*
X122710856Y-85780914D01*
X122704937Y-85782313D01*
X122579748Y-85829007D01*
X122573661Y-85832331D01*
X122467041Y-85912145D01*
X122462145Y-85917041D01*
X122382331Y-86023661D01*
X122379007Y-86029748D01*
X122332313Y-86154937D01*
X122330914Y-86160856D01*
X122325141Y-86214555D01*
X122325000Y-86217190D01*
X122325000Y-86236253D01*
X122175500Y-86236253D01*
X122175500Y-86215826D01*
X122169251Y-86157701D01*
X122167150Y-86152066D01*
X122121436Y-86029505D01*
X122120212Y-86026222D01*
X122117288Y-86022315D01*
X122038215Y-85916688D01*
X122036116Y-85913884D01*
X121923778Y-85829788D01*
X121815180Y-85789283D01*
X121795166Y-85781818D01*
X121795164Y-85781817D01*
X121792299Y-85780749D01*
X121759231Y-85777194D01*
X121735489Y-85774641D01*
X121735482Y-85774641D01*
X121734174Y-85774500D01*
X121040826Y-85774500D01*
X121039518Y-85774641D01*
X121039511Y-85774641D01*
X121015769Y-85777194D01*
X120982701Y-85780749D01*
X120979836Y-85781817D01*
X120979834Y-85781818D01*
X120959820Y-85789283D01*
X120851222Y-85829788D01*
X120848417Y-85831888D01*
X120848415Y-85831889D01*
X120771155Y-85889726D01*
X120741790Y-85899500D01*
X120649500Y-85899500D01*
X120614852Y-85885148D01*
X120600500Y-85850500D01*
X120600500Y-82632810D01*
X136750000Y-82632810D01*
X136750141Y-82635445D01*
X136755914Y-82689144D01*
X136757313Y-82695063D01*
X136804007Y-82820252D01*
X136807331Y-82826339D01*
X136887145Y-82932959D01*
X136892041Y-82937855D01*
X136998661Y-83017669D01*
X137004748Y-83020993D01*
X137129937Y-83067687D01*
X137135856Y-83069086D01*
X137189555Y-83074859D01*
X137192190Y-83075000D01*
X137223753Y-83075000D01*
X137230645Y-83072145D01*
X137233500Y-83065253D01*
X137741500Y-83065253D01*
X137744355Y-83072145D01*
X137751247Y-83075000D01*
X137782810Y-83075000D01*
X137785445Y-83074859D01*
X137839144Y-83069086D01*
X137845063Y-83067687D01*
X137970252Y-83020993D01*
X137976339Y-83017669D01*
X138082959Y-82937855D01*
X138087855Y-82932959D01*
X138167669Y-82826339D01*
X138170993Y-82820252D01*
X138217687Y-82695063D01*
X138219086Y-82689144D01*
X138224859Y-82635445D01*
X138225000Y-82632810D01*
X138225000Y-82613747D01*
X138222145Y-82606855D01*
X138215253Y-82604000D01*
X137751247Y-82604000D01*
X137744355Y-82606855D01*
X137741500Y-82613747D01*
X137741500Y-83065253D01*
X137233500Y-83065253D01*
X137233500Y-82613747D01*
X137230645Y-82606855D01*
X137223753Y-82604000D01*
X136759747Y-82604000D01*
X136752855Y-82606855D01*
X136750000Y-82613747D01*
X136750000Y-82632810D01*
X120600500Y-82632810D01*
X120600500Y-82086253D01*
X136750000Y-82086253D01*
X136752855Y-82093145D01*
X136759747Y-82096000D01*
X137223753Y-82096000D01*
X137230645Y-82093145D01*
X137233500Y-82086253D01*
X137741500Y-82086253D01*
X137744355Y-82093145D01*
X137751247Y-82096000D01*
X138215253Y-82096000D01*
X138222145Y-82093145D01*
X138225000Y-82086253D01*
X138225000Y-82067190D01*
X138224859Y-82064555D01*
X138219086Y-82010856D01*
X138217687Y-82004937D01*
X138170993Y-81879748D01*
X138167669Y-81873661D01*
X138087855Y-81767041D01*
X138082959Y-81762145D01*
X137976339Y-81682331D01*
X137970252Y-81679007D01*
X137845063Y-81632313D01*
X137839144Y-81630914D01*
X137785445Y-81625141D01*
X137782810Y-81625000D01*
X137751247Y-81625000D01*
X137744355Y-81627855D01*
X137741500Y-81634747D01*
X137741500Y-82086253D01*
X137233500Y-82086253D01*
X137233500Y-81634747D01*
X137230645Y-81627855D01*
X137223753Y-81625000D01*
X137192190Y-81625000D01*
X137189555Y-81625141D01*
X137135856Y-81630914D01*
X137129937Y-81632313D01*
X137004748Y-81679007D01*
X136998661Y-81682331D01*
X136892041Y-81762145D01*
X136887145Y-81767041D01*
X136807331Y-81873661D01*
X136804007Y-81879748D01*
X136757313Y-82004937D01*
X136755914Y-82010856D01*
X136750141Y-82064555D01*
X136750000Y-82067190D01*
X136750000Y-82086253D01*
X120600500Y-82086253D01*
X120600500Y-81349500D01*
X120614852Y-81314852D01*
X120649500Y-81300500D01*
X120791790Y-81300500D01*
X120821155Y-81310274D01*
X120875203Y-81350734D01*
X120901222Y-81370212D01*
X120962807Y-81393182D01*
X121029834Y-81418182D01*
X121029836Y-81418183D01*
X121032701Y-81419251D01*
X121059620Y-81422145D01*
X121089511Y-81425359D01*
X121089518Y-81425359D01*
X121090826Y-81425500D01*
X121784174Y-81425500D01*
X121785482Y-81425359D01*
X121785489Y-81425359D01*
X121815380Y-81422145D01*
X121842299Y-81419251D01*
X121845164Y-81418183D01*
X121845166Y-81418182D01*
X121912193Y-81393182D01*
X121973778Y-81370212D01*
X121999798Y-81350734D01*
X122083312Y-81288215D01*
X122086116Y-81286116D01*
X122170212Y-81173778D01*
X122204250Y-81082519D01*
X122218182Y-81045166D01*
X122218183Y-81045164D01*
X122219251Y-81042299D01*
X122222806Y-81009231D01*
X122225359Y-80985489D01*
X122225359Y-80985482D01*
X122225500Y-80984174D01*
X122225500Y-80982810D01*
X122375000Y-80982810D01*
X122375141Y-80985445D01*
X122380914Y-81039144D01*
X122382313Y-81045063D01*
X122429007Y-81170252D01*
X122432331Y-81176339D01*
X122512145Y-81282959D01*
X122517041Y-81287855D01*
X122623661Y-81367669D01*
X122629748Y-81370993D01*
X122754937Y-81417687D01*
X122760856Y-81419086D01*
X122814555Y-81424859D01*
X122817190Y-81425000D01*
X122898753Y-81425000D01*
X122905645Y-81422145D01*
X122908500Y-81415253D01*
X123416500Y-81415253D01*
X123419355Y-81422145D01*
X123426247Y-81425000D01*
X123507810Y-81425000D01*
X123510445Y-81424859D01*
X123564144Y-81419086D01*
X123570063Y-81417687D01*
X123695252Y-81370993D01*
X123701339Y-81367669D01*
X123807959Y-81287855D01*
X123812855Y-81282959D01*
X123892669Y-81176339D01*
X123895993Y-81170252D01*
X123942687Y-81045063D01*
X123944086Y-81039144D01*
X123949859Y-80985445D01*
X123950000Y-80982810D01*
X123950000Y-80963747D01*
X123947145Y-80956855D01*
X123940253Y-80954000D01*
X123426247Y-80954000D01*
X123419355Y-80956855D01*
X123416500Y-80963747D01*
X123416500Y-81415253D01*
X122908500Y-81415253D01*
X122908500Y-80963747D01*
X122905645Y-80956855D01*
X122898753Y-80954000D01*
X122384747Y-80954000D01*
X122377855Y-80956855D01*
X122375000Y-80963747D01*
X122375000Y-80982810D01*
X122225500Y-80982810D01*
X122225500Y-80436253D01*
X122375000Y-80436253D01*
X122377855Y-80443145D01*
X122384747Y-80446000D01*
X122898753Y-80446000D01*
X122905645Y-80443145D01*
X122908500Y-80436253D01*
X123416500Y-80436253D01*
X123419355Y-80443145D01*
X123426247Y-80446000D01*
X123940253Y-80446000D01*
X123947145Y-80443145D01*
X123950000Y-80436253D01*
X123950000Y-80417190D01*
X123949859Y-80414555D01*
X123944086Y-80360856D01*
X123942687Y-80354937D01*
X123895993Y-80229748D01*
X123892669Y-80223661D01*
X123812855Y-80117041D01*
X123807959Y-80112145D01*
X123701339Y-80032331D01*
X123695252Y-80029007D01*
X123570063Y-79982313D01*
X123564144Y-79980914D01*
X123510445Y-79975141D01*
X123507810Y-79975000D01*
X123426247Y-79975000D01*
X123419355Y-79977855D01*
X123416500Y-79984747D01*
X123416500Y-80436253D01*
X122908500Y-80436253D01*
X122908500Y-79984747D01*
X122905645Y-79977855D01*
X122898753Y-79975000D01*
X122817190Y-79975000D01*
X122814555Y-79975141D01*
X122760856Y-79980914D01*
X122754937Y-79982313D01*
X122629748Y-80029007D01*
X122623661Y-80032331D01*
X122517041Y-80112145D01*
X122512145Y-80117041D01*
X122432331Y-80223661D01*
X122429007Y-80229748D01*
X122382313Y-80354937D01*
X122380914Y-80360856D01*
X122375141Y-80414555D01*
X122375000Y-80417190D01*
X122375000Y-80436253D01*
X122225500Y-80436253D01*
X122225500Y-80415826D01*
X122219251Y-80357701D01*
X122170212Y-80226222D01*
X122155130Y-80206074D01*
X122088215Y-80116688D01*
X122086116Y-80113884D01*
X121973778Y-80029788D01*
X121895714Y-80000672D01*
X121845166Y-79981818D01*
X121845164Y-79981817D01*
X121842299Y-79980749D01*
X121809231Y-79977194D01*
X121785489Y-79974641D01*
X121785482Y-79974641D01*
X121784174Y-79974500D01*
X121090826Y-79974500D01*
X121089518Y-79974641D01*
X121089511Y-79974641D01*
X121065769Y-79977194D01*
X121032701Y-79980749D01*
X121029836Y-79981817D01*
X121029834Y-79981818D01*
X120979286Y-80000672D01*
X120901222Y-80029788D01*
X120898417Y-80031888D01*
X120898415Y-80031889D01*
X120821155Y-80089726D01*
X120791790Y-80099500D01*
X120649500Y-80099500D01*
X120614852Y-80085148D01*
X120600500Y-80050500D01*
X120600500Y-76699499D01*
X120614852Y-76664851D01*
X120649500Y-76650499D01*
X121197872Y-76650499D01*
X121199179Y-76650358D01*
X121199188Y-76650358D01*
X121238540Y-76646127D01*
X121257483Y-76644091D01*
X121392331Y-76593796D01*
X121395730Y-76591252D01*
X121504742Y-76509645D01*
X121507546Y-76507546D01*
X121593796Y-76392331D01*
X121644091Y-76257483D01*
X121650500Y-76197873D01*
X121650500Y-76196508D01*
X124150000Y-76196508D01*
X124150141Y-76199143D01*
X124156075Y-76254330D01*
X124157472Y-76260243D01*
X124205423Y-76388806D01*
X124208748Y-76394896D01*
X124290712Y-76504385D01*
X124295615Y-76509288D01*
X124405104Y-76591252D01*
X124411194Y-76594577D01*
X124539757Y-76642528D01*
X124545670Y-76643925D01*
X124600857Y-76649859D01*
X124603492Y-76650000D01*
X125886253Y-76650000D01*
X125893145Y-76647145D01*
X125896000Y-76640253D01*
X126404000Y-76640253D01*
X126406855Y-76647145D01*
X126413747Y-76650000D01*
X127696508Y-76650000D01*
X127699143Y-76649859D01*
X127754330Y-76643925D01*
X127760243Y-76642528D01*
X127888806Y-76594577D01*
X127894896Y-76591252D01*
X128004385Y-76509288D01*
X128009288Y-76504385D01*
X128091252Y-76394896D01*
X128094577Y-76388806D01*
X128142528Y-76260243D01*
X128143925Y-76254330D01*
X128149859Y-76199143D01*
X128150000Y-76196508D01*
X128150000Y-75413747D01*
X128147145Y-75406855D01*
X128140253Y-75404000D01*
X126413747Y-75404000D01*
X126406855Y-75406855D01*
X126404000Y-75413747D01*
X126404000Y-76640253D01*
X125896000Y-76640253D01*
X125896000Y-75413747D01*
X125893145Y-75406855D01*
X125886253Y-75404000D01*
X124159747Y-75404000D01*
X124152855Y-75406855D01*
X124150000Y-75413747D01*
X124150000Y-76196508D01*
X121650500Y-76196508D01*
X121650499Y-75152127D01*
X130692000Y-75152127D01*
X130692001Y-77247872D01*
X130698409Y-77307483D01*
X130748704Y-77442331D01*
X130750804Y-77445136D01*
X130750805Y-77445138D01*
X130766026Y-77465470D01*
X130834954Y-77557546D01*
X130837758Y-77559645D01*
X130941934Y-77637631D01*
X130950169Y-77643796D01*
X131085017Y-77694091D01*
X131118835Y-77697727D01*
X131143312Y-77700359D01*
X131143319Y-77700359D01*
X131144627Y-77700500D01*
X132692500Y-77700500D01*
X134240372Y-77700499D01*
X134241679Y-77700358D01*
X134241688Y-77700358D01*
X134281378Y-77696091D01*
X134299983Y-77694091D01*
X134434831Y-77643796D01*
X134443067Y-77637631D01*
X134547242Y-77559645D01*
X134550046Y-77557546D01*
X134618974Y-77465470D01*
X134634195Y-77445138D01*
X134634196Y-77445136D01*
X134636296Y-77442331D01*
X134686591Y-77307483D01*
X134693000Y-77247873D01*
X134692999Y-75152128D01*
X134692999Y-75152127D01*
X137192000Y-75152127D01*
X137192001Y-77247872D01*
X137198409Y-77307483D01*
X137248704Y-77442331D01*
X137250804Y-77445136D01*
X137250805Y-77445138D01*
X137266026Y-77465470D01*
X137334954Y-77557546D01*
X137337758Y-77559645D01*
X137441934Y-77637631D01*
X137450169Y-77643796D01*
X137585017Y-77694091D01*
X137618835Y-77697727D01*
X137643312Y-77700359D01*
X137643319Y-77700359D01*
X137644627Y-77700500D01*
X138763000Y-77700500D01*
X138797648Y-77714852D01*
X138812000Y-77749500D01*
X138812000Y-81665908D01*
X138797648Y-81700556D01*
X138792377Y-81705125D01*
X138713884Y-81763884D01*
X138629788Y-81876222D01*
X138580749Y-82007701D01*
X138574500Y-82065826D01*
X138574500Y-82634174D01*
X138580749Y-82692299D01*
X138629788Y-82823778D01*
X138713884Y-82936116D01*
X138826222Y-83020212D01*
X138880123Y-83040316D01*
X138954834Y-83068182D01*
X138954836Y-83068183D01*
X138957701Y-83069251D01*
X138984620Y-83072145D01*
X139014511Y-83075359D01*
X139014518Y-83075359D01*
X139015826Y-83075500D01*
X139609174Y-83075500D01*
X139610482Y-83075359D01*
X139610489Y-83075359D01*
X139640380Y-83072145D01*
X139667299Y-83069251D01*
X139670164Y-83068183D01*
X139670166Y-83068182D01*
X139744877Y-83040316D01*
X139798778Y-83020212D01*
X139911116Y-82936116D01*
X139995212Y-82823778D01*
X140044251Y-82692299D01*
X140050500Y-82634174D01*
X140050500Y-82065826D01*
X140044251Y-82007701D01*
X139995212Y-81876222D01*
X139911116Y-81763884D01*
X139832634Y-81705133D01*
X139813499Y-81672881D01*
X139813000Y-81665908D01*
X139813000Y-77749499D01*
X139827352Y-77714851D01*
X139862000Y-77700499D01*
X140068836Y-77700499D01*
X140103484Y-77714851D01*
X141885148Y-79496515D01*
X141899500Y-79531163D01*
X141899500Y-87875500D01*
X141885148Y-87910148D01*
X141850500Y-87924500D01*
X141375326Y-87924500D01*
X141302260Y-87939034D01*
X141219399Y-87994399D01*
X141164034Y-88077260D01*
X141149500Y-88150326D01*
X141149500Y-89399674D01*
X141164034Y-89472740D01*
X141219399Y-89555601D01*
X141302260Y-89610966D01*
X141375326Y-89625500D01*
X143924674Y-89625500D01*
X143997740Y-89610966D01*
X144080601Y-89555601D01*
X144135966Y-89472740D01*
X144150500Y-89399674D01*
X144150500Y-88299674D01*
X147649500Y-88299674D01*
X147664034Y-88372740D01*
X147719399Y-88455601D01*
X147802260Y-88510966D01*
X147875326Y-88525500D01*
X150424674Y-88525500D01*
X150497740Y-88510966D01*
X150580601Y-88455601D01*
X150635966Y-88372740D01*
X150650500Y-88299674D01*
X150650500Y-87050326D01*
X150635966Y-86977260D01*
X150580601Y-86894399D01*
X150497740Y-86839034D01*
X150424674Y-86824500D01*
X149649500Y-86824500D01*
X149614852Y-86810148D01*
X149600500Y-86775500D01*
X149600500Y-85380718D01*
X149614852Y-85346070D01*
X149632376Y-85334807D01*
X149685741Y-85314903D01*
X149742331Y-85293796D01*
X149857546Y-85207546D01*
X149892843Y-85160396D01*
X149941695Y-85095138D01*
X149941696Y-85095136D01*
X149943796Y-85092331D01*
X149994091Y-84957483D01*
X150000500Y-84897873D01*
X150000499Y-83902128D01*
X149994091Y-83842517D01*
X149943796Y-83707669D01*
X149907637Y-83659366D01*
X149859645Y-83595258D01*
X149857546Y-83592454D01*
X149770135Y-83527018D01*
X149745138Y-83508305D01*
X149745136Y-83508304D01*
X149742331Y-83506204D01*
X149607483Y-83455909D01*
X149573361Y-83452240D01*
X149549188Y-83449641D01*
X149549181Y-83449641D01*
X149547873Y-83449500D01*
X149546553Y-83449500D01*
X149175001Y-83449501D01*
X148802128Y-83449501D01*
X148800821Y-83449642D01*
X148800812Y-83449642D01*
X148761460Y-83453873D01*
X148742517Y-83455909D01*
X148607669Y-83506204D01*
X148604864Y-83508304D01*
X148604862Y-83508305D01*
X148579865Y-83527018D01*
X148492454Y-83592454D01*
X148490355Y-83595258D01*
X148442364Y-83659366D01*
X148406204Y-83707669D01*
X148355909Y-83842517D01*
X148349500Y-83902127D01*
X148349501Y-84897872D01*
X148355909Y-84957483D01*
X148406204Y-85092331D01*
X148408304Y-85095136D01*
X148408305Y-85095138D01*
X148457157Y-85160396D01*
X148492454Y-85207546D01*
X148607669Y-85293796D01*
X148660827Y-85313623D01*
X148667624Y-85316158D01*
X148695072Y-85341714D01*
X148699500Y-85362069D01*
X148699500Y-86775500D01*
X148685148Y-86810148D01*
X148650500Y-86824500D01*
X147875326Y-86824500D01*
X147802260Y-86839034D01*
X147719399Y-86894399D01*
X147664034Y-86977260D01*
X147649500Y-87050326D01*
X147649500Y-88299674D01*
X144150500Y-88299674D01*
X144150500Y-88150326D01*
X144135966Y-88077260D01*
X144080601Y-87994399D01*
X143997740Y-87939034D01*
X143924674Y-87924500D01*
X143449500Y-87924500D01*
X143414852Y-87910148D01*
X143400500Y-87875500D01*
X143400500Y-82634174D01*
X144487000Y-82634174D01*
X144493249Y-82692299D01*
X144542288Y-82823778D01*
X144626384Y-82936116D01*
X144738722Y-83020212D01*
X144792623Y-83040316D01*
X144867334Y-83068182D01*
X144867336Y-83068183D01*
X144870201Y-83069251D01*
X144897120Y-83072145D01*
X144927011Y-83075359D01*
X144927018Y-83075359D01*
X144928326Y-83075500D01*
X145621674Y-83075500D01*
X145622982Y-83075359D01*
X145622989Y-83075359D01*
X145652880Y-83072145D01*
X145679799Y-83069251D01*
X145682664Y-83068183D01*
X145682666Y-83068182D01*
X145757377Y-83040316D01*
X145811278Y-83020212D01*
X145923616Y-82936116D01*
X146007712Y-82823778D01*
X146056751Y-82692299D01*
X146063000Y-82634174D01*
X146063000Y-82065826D01*
X146056751Y-82007701D01*
X146007712Y-81876222D01*
X145923616Y-81763884D01*
X145856174Y-81713397D01*
X145814085Y-81681889D01*
X145814083Y-81681888D01*
X145811278Y-81679788D01*
X145719876Y-81645697D01*
X145682666Y-81631818D01*
X145682664Y-81631817D01*
X145679799Y-81630749D01*
X145646731Y-81627194D01*
X145622989Y-81624641D01*
X145622982Y-81624641D01*
X145621674Y-81624500D01*
X144928326Y-81624500D01*
X144927018Y-81624641D01*
X144927011Y-81624641D01*
X144903269Y-81627194D01*
X144870201Y-81630749D01*
X144867336Y-81631817D01*
X144867334Y-81631818D01*
X144830124Y-81645697D01*
X144738722Y-81679788D01*
X144735917Y-81681888D01*
X144735915Y-81681889D01*
X144693826Y-81713397D01*
X144626384Y-81763884D01*
X144542288Y-81876222D01*
X144493249Y-82007701D01*
X144487000Y-82065826D01*
X144487000Y-82634174D01*
X143400500Y-82634174D01*
X143400500Y-80682810D01*
X144450000Y-80682810D01*
X144450141Y-80685445D01*
X144455914Y-80739144D01*
X144457313Y-80745063D01*
X144504007Y-80870252D01*
X144507331Y-80876339D01*
X144587145Y-80982959D01*
X144592041Y-80987855D01*
X144698661Y-81067669D01*
X144704748Y-81070993D01*
X144829937Y-81117687D01*
X144835856Y-81119086D01*
X144889555Y-81124859D01*
X144892190Y-81125000D01*
X144973753Y-81125000D01*
X144980645Y-81122145D01*
X144983500Y-81115253D01*
X145491500Y-81115253D01*
X145494355Y-81122145D01*
X145501247Y-81125000D01*
X145582810Y-81125000D01*
X145585445Y-81124859D01*
X145639144Y-81119086D01*
X145645063Y-81117687D01*
X145770252Y-81070993D01*
X145776339Y-81067669D01*
X145882959Y-80987855D01*
X145887855Y-80982959D01*
X145967669Y-80876339D01*
X145970993Y-80870252D01*
X146017687Y-80745063D01*
X146019086Y-80739144D01*
X146024859Y-80685445D01*
X146024927Y-80684174D01*
X146174500Y-80684174D01*
X146180749Y-80742299D01*
X146229788Y-80873778D01*
X146313884Y-80986116D01*
X146426222Y-81070212D01*
X146480124Y-81090316D01*
X146507572Y-81115872D01*
X146512000Y-81136227D01*
X146512000Y-81627760D01*
X146497648Y-81662408D01*
X146480125Y-81673670D01*
X146463722Y-81679788D01*
X146351384Y-81763884D01*
X146267288Y-81876222D01*
X146218249Y-82007701D01*
X146212000Y-82065826D01*
X146212000Y-82634174D01*
X146218249Y-82692299D01*
X146267288Y-82823778D01*
X146351384Y-82936116D01*
X146463722Y-83020212D01*
X146517624Y-83040316D01*
X146545072Y-83065872D01*
X146549500Y-83086227D01*
X146549500Y-83487792D01*
X146535148Y-83522440D01*
X146529866Y-83527017D01*
X146442454Y-83592454D01*
X146440355Y-83595258D01*
X146392364Y-83659366D01*
X146356204Y-83707669D01*
X146305909Y-83842517D01*
X146299500Y-83902127D01*
X146299501Y-84897872D01*
X146305909Y-84957483D01*
X146356204Y-85092331D01*
X146358304Y-85095136D01*
X146358305Y-85095138D01*
X146407157Y-85160396D01*
X146442454Y-85207546D01*
X146557669Y-85293796D01*
X146692517Y-85344091D01*
X146726639Y-85347760D01*
X146750812Y-85350359D01*
X146750819Y-85350359D01*
X146752127Y-85350500D01*
X147125000Y-85350500D01*
X147497872Y-85350499D01*
X147499179Y-85350358D01*
X147499188Y-85350358D01*
X147539073Y-85346070D01*
X147557483Y-85344091D01*
X147692331Y-85293796D01*
X147807546Y-85207546D01*
X147842843Y-85160396D01*
X147891695Y-85095138D01*
X147891696Y-85095136D01*
X147893796Y-85092331D01*
X147944091Y-84957483D01*
X147950500Y-84897873D01*
X147950499Y-83902128D01*
X147944091Y-83842517D01*
X147893796Y-83707669D01*
X147857637Y-83659366D01*
X147809645Y-83595258D01*
X147807546Y-83592454D01*
X147720135Y-83527018D01*
X147695138Y-83508305D01*
X147695136Y-83508304D01*
X147692331Y-83506204D01*
X147557483Y-83455909D01*
X147497873Y-83449500D01*
X147496838Y-83449500D01*
X147463043Y-83433327D01*
X147450500Y-83400587D01*
X147450500Y-83086227D01*
X147464852Y-83051579D01*
X147482376Y-83040316D01*
X147536278Y-83020212D01*
X147648616Y-82936116D01*
X147732712Y-82823778D01*
X147781751Y-82692299D01*
X147788000Y-82634174D01*
X147788000Y-82065826D01*
X147781751Y-82007701D01*
X147732712Y-81876222D01*
X147648616Y-81763884D01*
X147581174Y-81713397D01*
X147539085Y-81681889D01*
X147539083Y-81681888D01*
X147536278Y-81679788D01*
X147444876Y-81645697D01*
X147417428Y-81620141D01*
X147413000Y-81599786D01*
X147413000Y-81136227D01*
X147427352Y-81101579D01*
X147444876Y-81090316D01*
X147498778Y-81070212D01*
X147611116Y-80986116D01*
X147695212Y-80873778D01*
X147744251Y-80742299D01*
X147750500Y-80684174D01*
X147750500Y-80115826D01*
X147750292Y-80113884D01*
X147744578Y-80060747D01*
X147744251Y-80057701D01*
X147733384Y-80028564D01*
X147715549Y-79980749D01*
X147695212Y-79926222D01*
X147611116Y-79813884D01*
X147520135Y-79745776D01*
X147500999Y-79713523D01*
X147500500Y-79706550D01*
X147500500Y-79267578D01*
X147514852Y-79232930D01*
X147529970Y-79223214D01*
X147529917Y-79223117D01*
X147531267Y-79222380D01*
X147532375Y-79221668D01*
X147536278Y-79220212D01*
X147648616Y-79136116D01*
X147688405Y-79082965D01*
X147730611Y-79026585D01*
X147730612Y-79026583D01*
X147732712Y-79023778D01*
X147764136Y-78939528D01*
X147780682Y-78895166D01*
X147780683Y-78895164D01*
X147781751Y-78892299D01*
X147785769Y-78854927D01*
X147787859Y-78835489D01*
X147787859Y-78835482D01*
X147788000Y-78834174D01*
X147788000Y-78265826D01*
X147781751Y-78207701D01*
X147732712Y-78076222D01*
X147648616Y-77963884D01*
X147597076Y-77925301D01*
X147539085Y-77881889D01*
X147539083Y-77881888D01*
X147536278Y-77879788D01*
X147448885Y-77847192D01*
X147407666Y-77831818D01*
X147407664Y-77831817D01*
X147404799Y-77830749D01*
X147371731Y-77827194D01*
X147347989Y-77824641D01*
X147347982Y-77824641D01*
X147346674Y-77824500D01*
X146753326Y-77824500D01*
X146752018Y-77824641D01*
X146752011Y-77824641D01*
X146728269Y-77827194D01*
X146695201Y-77830749D01*
X146692336Y-77831817D01*
X146692334Y-77831818D01*
X146651115Y-77847192D01*
X146563722Y-77879788D01*
X146560917Y-77881888D01*
X146560915Y-77881889D01*
X146502924Y-77925301D01*
X146451384Y-77963884D01*
X146367288Y-78076222D01*
X146318249Y-78207701D01*
X146312000Y-78265826D01*
X146312000Y-78834174D01*
X146312141Y-78835482D01*
X146312141Y-78835489D01*
X146314231Y-78854927D01*
X146318249Y-78892299D01*
X146319317Y-78895164D01*
X146319318Y-78895166D01*
X146335864Y-78939528D01*
X146367288Y-79023778D01*
X146369388Y-79026583D01*
X146369389Y-79026585D01*
X146411595Y-79082965D01*
X146451384Y-79136116D01*
X146563722Y-79220212D01*
X146567625Y-79221668D01*
X146567902Y-79221926D01*
X146570083Y-79223117D01*
X146569779Y-79223674D01*
X146595072Y-79247223D01*
X146599500Y-79267578D01*
X146599500Y-79632494D01*
X146585148Y-79667142D01*
X146561765Y-79680182D01*
X146560755Y-79680421D01*
X146557701Y-79680749D01*
X146426222Y-79729788D01*
X146423417Y-79731888D01*
X146423415Y-79731889D01*
X146365424Y-79775301D01*
X146313884Y-79813884D01*
X146229788Y-79926222D01*
X146209451Y-79980749D01*
X146191617Y-80028564D01*
X146180749Y-80057701D01*
X146180422Y-80060747D01*
X146174709Y-80113884D01*
X146174500Y-80115826D01*
X146174500Y-80684174D01*
X146024927Y-80684174D01*
X146025000Y-80682810D01*
X146025000Y-80663747D01*
X146022145Y-80656855D01*
X146015253Y-80654000D01*
X145501247Y-80654000D01*
X145494355Y-80656855D01*
X145491500Y-80663747D01*
X145491500Y-81115253D01*
X144983500Y-81115253D01*
X144983500Y-80663747D01*
X144980645Y-80656855D01*
X144973753Y-80654000D01*
X144459747Y-80654000D01*
X144452855Y-80656855D01*
X144450000Y-80663747D01*
X144450000Y-80682810D01*
X143400500Y-80682810D01*
X143400500Y-80136253D01*
X144450000Y-80136253D01*
X144452855Y-80143145D01*
X144459747Y-80146000D01*
X144973753Y-80146000D01*
X144980645Y-80143145D01*
X144983500Y-80136253D01*
X145491500Y-80136253D01*
X145494355Y-80143145D01*
X145501247Y-80146000D01*
X146015253Y-80146000D01*
X146022145Y-80143145D01*
X146025000Y-80136253D01*
X146025000Y-80117190D01*
X146024859Y-80114555D01*
X146019086Y-80060856D01*
X146017687Y-80054937D01*
X145970993Y-79929748D01*
X145967669Y-79923661D01*
X145887855Y-79817041D01*
X145882959Y-79812145D01*
X145776339Y-79732331D01*
X145770252Y-79729007D01*
X145645063Y-79682313D01*
X145639144Y-79680914D01*
X145585445Y-79675141D01*
X145582810Y-79675000D01*
X145501247Y-79675000D01*
X145494355Y-79677855D01*
X145491500Y-79684747D01*
X145491500Y-80136253D01*
X144983500Y-80136253D01*
X144983500Y-79684747D01*
X144980645Y-79677855D01*
X144973753Y-79675000D01*
X144892190Y-79675000D01*
X144889555Y-79675141D01*
X144835856Y-79680914D01*
X144829937Y-79682313D01*
X144704748Y-79729007D01*
X144698661Y-79732331D01*
X144592041Y-79812145D01*
X144587145Y-79817041D01*
X144507331Y-79923661D01*
X144504007Y-79929748D01*
X144457313Y-80054937D01*
X144455914Y-80060856D01*
X144450141Y-80114555D01*
X144450000Y-80117190D01*
X144450000Y-80136253D01*
X143400500Y-80136253D01*
X143400500Y-79258243D01*
X143401017Y-79251141D01*
X143403593Y-79233556D01*
X143405289Y-79221977D01*
X143404738Y-79215671D01*
X143400686Y-79169362D01*
X143400500Y-79165092D01*
X143400500Y-79156291D01*
X143399851Y-79150734D01*
X143396776Y-79124434D01*
X143396631Y-79123015D01*
X143390248Y-79050047D01*
X143390248Y-79050045D01*
X143389999Y-79047203D01*
X143388098Y-79041465D01*
X143385942Y-79031742D01*
X143385572Y-79028579D01*
X143385241Y-79025745D01*
X143359212Y-78954232D01*
X143358751Y-78952904D01*
X143335712Y-78883374D01*
X143335710Y-78883369D01*
X143334814Y-78880666D01*
X143333319Y-78878242D01*
X143333317Y-78878238D01*
X143331643Y-78875524D01*
X143327305Y-78866564D01*
X143326213Y-78863564D01*
X143326212Y-78863562D01*
X143325237Y-78860883D01*
X143298531Y-78820279D01*
X143283425Y-78797310D01*
X143282659Y-78796108D01*
X143244212Y-78733776D01*
X143244210Y-78733773D01*
X143242712Y-78731345D01*
X143238441Y-78727074D01*
X143232150Y-78719351D01*
X143230401Y-78716692D01*
X143230399Y-78716690D01*
X143228830Y-78714304D01*
X143173478Y-78662082D01*
X143172456Y-78661089D01*
X141295542Y-76784174D01*
X142737000Y-76784174D01*
X142737141Y-76785482D01*
X142737141Y-76785489D01*
X142739694Y-76809231D01*
X142743249Y-76842299D01*
X142792288Y-76973778D01*
X142876384Y-77086116D01*
X142988722Y-77170212D01*
X143042623Y-77190316D01*
X143117334Y-77218182D01*
X143117336Y-77218183D01*
X143120201Y-77219251D01*
X143153269Y-77222806D01*
X143177011Y-77225359D01*
X143177018Y-77225359D01*
X143178326Y-77225500D01*
X143871674Y-77225500D01*
X143872982Y-77225359D01*
X143872989Y-77225359D01*
X143896731Y-77222806D01*
X143929799Y-77219251D01*
X143932664Y-77218183D01*
X143932666Y-77218182D01*
X144007377Y-77190316D01*
X144061278Y-77170212D01*
X144173616Y-77086116D01*
X144257712Y-76973778D01*
X144306751Y-76842299D01*
X144310306Y-76809231D01*
X144312859Y-76785489D01*
X144312859Y-76785482D01*
X144313000Y-76784174D01*
X144462000Y-76784174D01*
X144462141Y-76785482D01*
X144462141Y-76785489D01*
X144464694Y-76809231D01*
X144468249Y-76842299D01*
X144517288Y-76973778D01*
X144601384Y-77086116D01*
X144713722Y-77170212D01*
X144767624Y-77190316D01*
X144795072Y-77215872D01*
X144799500Y-77236227D01*
X144799500Y-77823097D01*
X144785148Y-77857745D01*
X144767624Y-77869007D01*
X144742011Y-77878560D01*
X144742004Y-77878564D01*
X144738722Y-77879788D01*
X144735917Y-77881888D01*
X144735915Y-77881889D01*
X144677924Y-77925301D01*
X144626384Y-77963884D01*
X144542288Y-78076222D01*
X144493249Y-78207701D01*
X144487000Y-78265826D01*
X144487000Y-78834174D01*
X144487141Y-78835482D01*
X144487141Y-78835489D01*
X144489231Y-78854927D01*
X144493249Y-78892299D01*
X144494317Y-78895164D01*
X144494318Y-78895166D01*
X144510864Y-78939528D01*
X144542288Y-79023778D01*
X144544388Y-79026583D01*
X144544389Y-79026585D01*
X144586595Y-79082965D01*
X144626384Y-79136116D01*
X144629188Y-79138215D01*
X144729823Y-79213550D01*
X144738722Y-79220212D01*
X144816786Y-79249328D01*
X144867334Y-79268182D01*
X144867336Y-79268183D01*
X144870201Y-79269251D01*
X144903269Y-79272806D01*
X144927011Y-79275359D01*
X144927018Y-79275359D01*
X144928326Y-79275500D01*
X145521674Y-79275500D01*
X145522982Y-79275359D01*
X145522989Y-79275359D01*
X145546731Y-79272806D01*
X145579799Y-79269251D01*
X145582664Y-79268183D01*
X145582666Y-79268182D01*
X145633214Y-79249328D01*
X145711278Y-79220212D01*
X145720178Y-79213550D01*
X145820812Y-79138215D01*
X145823616Y-79136116D01*
X145863405Y-79082965D01*
X145905611Y-79026585D01*
X145905612Y-79026583D01*
X145907712Y-79023778D01*
X145939136Y-78939528D01*
X145955682Y-78895166D01*
X145955683Y-78895164D01*
X145956751Y-78892299D01*
X145960769Y-78854927D01*
X145962859Y-78835489D01*
X145962859Y-78835482D01*
X145963000Y-78834174D01*
X145963000Y-78265826D01*
X145956751Y-78207701D01*
X145907712Y-78076222D01*
X145823616Y-77963884D01*
X145772076Y-77925301D01*
X145720135Y-77886418D01*
X145700999Y-77854165D01*
X145700500Y-77847192D01*
X145700500Y-77236227D01*
X145714852Y-77201579D01*
X145732376Y-77190316D01*
X145786278Y-77170212D01*
X145898616Y-77086116D01*
X145982712Y-76973778D01*
X146031751Y-76842299D01*
X146035306Y-76809231D01*
X146037859Y-76785489D01*
X146037859Y-76785482D01*
X146038000Y-76784174D01*
X146038000Y-76215826D01*
X146036207Y-76199143D01*
X146032078Y-76160747D01*
X146031751Y-76157701D01*
X145982712Y-76026222D01*
X145898616Y-75913884D01*
X145876671Y-75897456D01*
X145789085Y-75831889D01*
X145789083Y-75831888D01*
X145786278Y-75829788D01*
X145708214Y-75800672D01*
X145657666Y-75781818D01*
X145657664Y-75781817D01*
X145654799Y-75780749D01*
X145621731Y-75777194D01*
X145597989Y-75774641D01*
X145597982Y-75774641D01*
X145596674Y-75774500D01*
X144903326Y-75774500D01*
X144902018Y-75774641D01*
X144902011Y-75774641D01*
X144878269Y-75777194D01*
X144845201Y-75780749D01*
X144842336Y-75781817D01*
X144842334Y-75781818D01*
X144791786Y-75800672D01*
X144713722Y-75829788D01*
X144710917Y-75831888D01*
X144710915Y-75831889D01*
X144623329Y-75897456D01*
X144601384Y-75913884D01*
X144517288Y-76026222D01*
X144468249Y-76157701D01*
X144467922Y-76160747D01*
X144463794Y-76199143D01*
X144462000Y-76215826D01*
X144462000Y-76784174D01*
X144313000Y-76784174D01*
X144313000Y-76215826D01*
X144311207Y-76199143D01*
X144307078Y-76160747D01*
X144306751Y-76157701D01*
X144257712Y-76026222D01*
X144173616Y-75913884D01*
X144151671Y-75897456D01*
X144064085Y-75831889D01*
X144064083Y-75831888D01*
X144061278Y-75829788D01*
X143983214Y-75800672D01*
X143932666Y-75781818D01*
X143932664Y-75781817D01*
X143929799Y-75780749D01*
X143896731Y-75777194D01*
X143872989Y-75774641D01*
X143872982Y-75774641D01*
X143871674Y-75774500D01*
X143178326Y-75774500D01*
X143177018Y-75774641D01*
X143177011Y-75774641D01*
X143153269Y-75777194D01*
X143120201Y-75780749D01*
X143117336Y-75781817D01*
X143117334Y-75781818D01*
X143066786Y-75800672D01*
X142988722Y-75829788D01*
X142985917Y-75831888D01*
X142985915Y-75831889D01*
X142898329Y-75897456D01*
X142876384Y-75913884D01*
X142792288Y-76026222D01*
X142743249Y-76157701D01*
X142742922Y-76160747D01*
X142738794Y-76199143D01*
X142737000Y-76215826D01*
X142737000Y-76784174D01*
X141295542Y-76784174D01*
X141207352Y-76695984D01*
X141193000Y-76661336D01*
X141192999Y-75153448D01*
X141192999Y-75152128D01*
X141186591Y-75092517D01*
X141136296Y-74957669D01*
X141050046Y-74842454D01*
X141006708Y-74810011D01*
X140937638Y-74758305D01*
X140937636Y-74758304D01*
X140934831Y-74756204D01*
X140799983Y-74705909D01*
X140765861Y-74702240D01*
X140741688Y-74699641D01*
X140741681Y-74699641D01*
X140740373Y-74699500D01*
X140739053Y-74699500D01*
X139192501Y-74699501D01*
X137644628Y-74699501D01*
X137643321Y-74699642D01*
X137643312Y-74699642D01*
X137603960Y-74703873D01*
X137585017Y-74705909D01*
X137450169Y-74756204D01*
X137447364Y-74758304D01*
X137447362Y-74758305D01*
X137378292Y-74810011D01*
X137334954Y-74842454D01*
X137248704Y-74957669D01*
X137198409Y-75092517D01*
X137192000Y-75152127D01*
X134692999Y-75152127D01*
X134686591Y-75092517D01*
X134636296Y-74957669D01*
X134550046Y-74842454D01*
X134506708Y-74810011D01*
X134437638Y-74758305D01*
X134437636Y-74758304D01*
X134434831Y-74756204D01*
X134299983Y-74705909D01*
X134265861Y-74702240D01*
X134241688Y-74699641D01*
X134241681Y-74699641D01*
X134240373Y-74699500D01*
X134239053Y-74699500D01*
X132692501Y-74699501D01*
X131144628Y-74699501D01*
X131143321Y-74699642D01*
X131143312Y-74699642D01*
X131103960Y-74703873D01*
X131085017Y-74705909D01*
X130950169Y-74756204D01*
X130947364Y-74758304D01*
X130947362Y-74758305D01*
X130878292Y-74810011D01*
X130834954Y-74842454D01*
X130748704Y-74957669D01*
X130698409Y-75092517D01*
X130692000Y-75152127D01*
X121650499Y-75152127D01*
X121650499Y-74886253D01*
X124150000Y-74886253D01*
X124152855Y-74893145D01*
X124159747Y-74896000D01*
X125886253Y-74896000D01*
X125893145Y-74893145D01*
X125896000Y-74886253D01*
X126404000Y-74886253D01*
X126406855Y-74893145D01*
X126413747Y-74896000D01*
X128140253Y-74896000D01*
X128147145Y-74893145D01*
X128150000Y-74886253D01*
X128150000Y-74103492D01*
X128149859Y-74100857D01*
X128143925Y-74045670D01*
X128142528Y-74039757D01*
X128094577Y-73911194D01*
X128091252Y-73905104D01*
X128009288Y-73795615D01*
X128004385Y-73790712D01*
X127894896Y-73708748D01*
X127888806Y-73705423D01*
X127760243Y-73657472D01*
X127754330Y-73656075D01*
X127699143Y-73650141D01*
X127696508Y-73650000D01*
X126413747Y-73650000D01*
X126406855Y-73652855D01*
X126404000Y-73659747D01*
X126404000Y-74886253D01*
X125896000Y-74886253D01*
X125896000Y-73659747D01*
X125893145Y-73652855D01*
X125886253Y-73650000D01*
X124603492Y-73650000D01*
X124600857Y-73650141D01*
X124545670Y-73656075D01*
X124539757Y-73657472D01*
X124411194Y-73705423D01*
X124405104Y-73708748D01*
X124295615Y-73790712D01*
X124290712Y-73795615D01*
X124208748Y-73905104D01*
X124205423Y-73911194D01*
X124157472Y-74039757D01*
X124156075Y-74045670D01*
X124150141Y-74100857D01*
X124150000Y-74103492D01*
X124150000Y-74886253D01*
X121650499Y-74886253D01*
X121650499Y-74102128D01*
X121644091Y-74042517D01*
X121593796Y-73907669D01*
X121507546Y-73792454D01*
X121457978Y-73755347D01*
X121395138Y-73708305D01*
X121395136Y-73708304D01*
X121392331Y-73706204D01*
X121257483Y-73655909D01*
X121223361Y-73652240D01*
X121199188Y-73649641D01*
X121199181Y-73649641D01*
X121197873Y-73649500D01*
X121196553Y-73649500D01*
X119650001Y-73649501D01*
X118102128Y-73649501D01*
X118100821Y-73649642D01*
X118100812Y-73649642D01*
X118061460Y-73653873D01*
X118042517Y-73655909D01*
X117907669Y-73706204D01*
X117904864Y-73708304D01*
X117904862Y-73708305D01*
X117842022Y-73755347D01*
X117792454Y-73792454D01*
X117706204Y-73907669D01*
X117655909Y-74042517D01*
X117649500Y-74102127D01*
X117649501Y-76197872D01*
X117649642Y-76199179D01*
X117649642Y-76199188D01*
X117651431Y-76215826D01*
X117655909Y-76257483D01*
X117706204Y-76392331D01*
X117792454Y-76507546D01*
X117795258Y-76509645D01*
X117904271Y-76591252D01*
X117907669Y-76593796D01*
X118042517Y-76644091D01*
X118076639Y-76647760D01*
X118100812Y-76650359D01*
X118100819Y-76650359D01*
X118102127Y-76650500D01*
X118650500Y-76650500D01*
X118685148Y-76664852D01*
X118699500Y-76699500D01*
X118699500Y-90600501D01*
X118685148Y-90635149D01*
X118650500Y-90649501D01*
X118052128Y-90649501D01*
X118050821Y-90649642D01*
X118050812Y-90649642D01*
X118011460Y-90653873D01*
X117992517Y-90655909D01*
X117857669Y-90706204D01*
X117854864Y-90708304D01*
X117854862Y-90708305D01*
X117766137Y-90774725D01*
X117742454Y-90792454D01*
X117740355Y-90795258D01*
X117716106Y-90827651D01*
X117656204Y-90907669D01*
X117605909Y-91042517D01*
X117599500Y-91102127D01*
X117599501Y-93197872D01*
X117605909Y-93257483D01*
X117656204Y-93392331D01*
X117742454Y-93507546D01*
X117745258Y-93509645D01*
X117854271Y-93591252D01*
X117857669Y-93593796D01*
X117992517Y-93644091D01*
X118026639Y-93647760D01*
X118050812Y-93650359D01*
X118050819Y-93650359D01*
X118052127Y-93650500D01*
X118600500Y-93650500D01*
X118635148Y-93664852D01*
X118649500Y-93699500D01*
X118649500Y-96735994D01*
X118635148Y-96770642D01*
X117470642Y-97935148D01*
X117435994Y-97949500D01*
X96149321Y-97949500D01*
X96123526Y-97942161D01*
X96072637Y-97910652D01*
X96070523Y-97909833D01*
X96070521Y-97909832D01*
X95884571Y-97837795D01*
X95884568Y-97837794D01*
X95882456Y-97836976D01*
X95791626Y-97819997D01*
X95684198Y-97799915D01*
X95684194Y-97799915D01*
X95681976Y-97799500D01*
X95478024Y-97799500D01*
X95475806Y-97799915D01*
X95475802Y-97799915D01*
X95368374Y-97819997D01*
X95277544Y-97836976D01*
X95275432Y-97837794D01*
X95275429Y-97837795D01*
X95089479Y-97909832D01*
X95089477Y-97909833D01*
X95087363Y-97910652D01*
X95085435Y-97911846D01*
X94955384Y-97992370D01*
X94913959Y-98018019D01*
X94838597Y-98086720D01*
X94784265Y-98136251D01*
X94763236Y-98155421D01*
X94761870Y-98157230D01*
X94761869Y-98157231D01*
X94655602Y-98297952D01*
X94640327Y-98318179D01*
X94549418Y-98500750D01*
X94493603Y-98696917D01*
X94474785Y-98900000D01*
X94145215Y-98900000D01*
X94126397Y-98696917D01*
X94070582Y-98500750D01*
X93979673Y-98318179D01*
X93964398Y-98297952D01*
X93858131Y-98157231D01*
X93858130Y-98157230D01*
X93856764Y-98155421D01*
X93835736Y-98136251D01*
X93781403Y-98086720D01*
X93706041Y-98018019D01*
X93673205Y-97997688D01*
X93651302Y-97967246D01*
X93650000Y-97956027D01*
X93650000Y-96786011D01*
X93658674Y-96758176D01*
X93728536Y-96656963D01*
X93728537Y-96656962D01*
X93730220Y-96654523D01*
X93786237Y-96506818D01*
X93787587Y-96495705D01*
X93804921Y-96352940D01*
X93805278Y-96350000D01*
X93786237Y-96193182D01*
X93730220Y-96045477D01*
X93725575Y-96038747D01*
X93658674Y-95941824D01*
X93650000Y-95913989D01*
X93650000Y-93954161D01*
X93664352Y-93919513D01*
X93852169Y-93731696D01*
X93886817Y-93717344D01*
X93921465Y-93731696D01*
X93935817Y-93766344D01*
X93933067Y-93782528D01*
X93902354Y-93870301D01*
X93899500Y-93900734D01*
X93899500Y-95309266D01*
X93902354Y-95339699D01*
X93947207Y-95467882D01*
X94027850Y-95577150D01*
X94137118Y-95657793D01*
X94140583Y-95659005D01*
X94140584Y-95659006D01*
X94185346Y-95674669D01*
X94265301Y-95702646D01*
X94295734Y-95705500D01*
X94804266Y-95705500D01*
X94834699Y-95702646D01*
X94914654Y-95674669D01*
X94959416Y-95659006D01*
X94959417Y-95659005D01*
X94962882Y-95657793D01*
X95072150Y-95577150D01*
X95110576Y-95525084D01*
X95142696Y-95505729D01*
X95179097Y-95514756D01*
X95189421Y-95525080D01*
X95227850Y-95577150D01*
X95337118Y-95657793D01*
X95340583Y-95659005D01*
X95340584Y-95659006D01*
X95385346Y-95674669D01*
X95465301Y-95702646D01*
X95495734Y-95705500D01*
X96004266Y-95705500D01*
X96034699Y-95702646D01*
X96114654Y-95674669D01*
X96159416Y-95659006D01*
X96159417Y-95659005D01*
X96162882Y-95657793D01*
X96272150Y-95577150D01*
X96310576Y-95525084D01*
X96342696Y-95505729D01*
X96379097Y-95514756D01*
X96389421Y-95525080D01*
X96427850Y-95577150D01*
X96537118Y-95657793D01*
X96540583Y-95659005D01*
X96540584Y-95659006D01*
X96585346Y-95674669D01*
X96665301Y-95702646D01*
X96695734Y-95705500D01*
X97204266Y-95705500D01*
X97234699Y-95702646D01*
X97314654Y-95674669D01*
X97359416Y-95659006D01*
X97359417Y-95659005D01*
X97362882Y-95657793D01*
X97472150Y-95577150D01*
X97510576Y-95525084D01*
X97542696Y-95505729D01*
X97579097Y-95514756D01*
X97589421Y-95525080D01*
X97627850Y-95577150D01*
X97737118Y-95657793D01*
X97740583Y-95659005D01*
X97740584Y-95659006D01*
X97785346Y-95674669D01*
X97865301Y-95702646D01*
X97895734Y-95705500D01*
X98404266Y-95705500D01*
X98434699Y-95702646D01*
X98514654Y-95674669D01*
X98559416Y-95659006D01*
X98559417Y-95659005D01*
X98562882Y-95657793D01*
X98672150Y-95577150D01*
X98710576Y-95525084D01*
X98742696Y-95505729D01*
X98779097Y-95514756D01*
X98789421Y-95525080D01*
X98827850Y-95577150D01*
X98937118Y-95657793D01*
X98940583Y-95659005D01*
X98940584Y-95659006D01*
X98985346Y-95674669D01*
X99065301Y-95702646D01*
X99095734Y-95705500D01*
X99604266Y-95705500D01*
X99634699Y-95702646D01*
X99714654Y-95674669D01*
X99759416Y-95659006D01*
X99759417Y-95659005D01*
X99762882Y-95657793D01*
X99872150Y-95577150D01*
X99910576Y-95525084D01*
X99942696Y-95505729D01*
X99979097Y-95514756D01*
X99989421Y-95525080D01*
X100027850Y-95577150D01*
X100137118Y-95657793D01*
X100140583Y-95659005D01*
X100140584Y-95659006D01*
X100185346Y-95674669D01*
X100265301Y-95702646D01*
X100295734Y-95705500D01*
X100804266Y-95705500D01*
X100834699Y-95702646D01*
X100914654Y-95674669D01*
X100959416Y-95659006D01*
X100959417Y-95659005D01*
X100962882Y-95657793D01*
X101072150Y-95577150D01*
X101110576Y-95525084D01*
X101142696Y-95505729D01*
X101179097Y-95514756D01*
X101189421Y-95525080D01*
X101227850Y-95577150D01*
X101337118Y-95657793D01*
X101340583Y-95659005D01*
X101340584Y-95659006D01*
X101385346Y-95674669D01*
X101465301Y-95702646D01*
X101495734Y-95705500D01*
X102004266Y-95705500D01*
X102034699Y-95702646D01*
X102114654Y-95674669D01*
X102159416Y-95659006D01*
X102159417Y-95659005D01*
X102162882Y-95657793D01*
X102272150Y-95577150D01*
X102310576Y-95525084D01*
X102342696Y-95505729D01*
X102379097Y-95514756D01*
X102389421Y-95525080D01*
X102427850Y-95577150D01*
X102537118Y-95657793D01*
X102540583Y-95659005D01*
X102540584Y-95659006D01*
X102585346Y-95674669D01*
X102665301Y-95702646D01*
X102695734Y-95705500D01*
X103204266Y-95705500D01*
X103234699Y-95702646D01*
X103314654Y-95674669D01*
X103359416Y-95659006D01*
X103359417Y-95659005D01*
X103362882Y-95657793D01*
X103472150Y-95577150D01*
X103510576Y-95525084D01*
X103542696Y-95505729D01*
X103579097Y-95514756D01*
X103589421Y-95525080D01*
X103627850Y-95577150D01*
X103737118Y-95657793D01*
X103740583Y-95659005D01*
X103740584Y-95659006D01*
X103785346Y-95674669D01*
X103865301Y-95702646D01*
X103895734Y-95705500D01*
X104404266Y-95705500D01*
X104434699Y-95702646D01*
X104514654Y-95674669D01*
X104559416Y-95659006D01*
X104559417Y-95659005D01*
X104562882Y-95657793D01*
X104672150Y-95577150D01*
X104752793Y-95467882D01*
X104797646Y-95339699D01*
X104800500Y-95309266D01*
X104800500Y-93900734D01*
X104797646Y-93870301D01*
X104752793Y-93742118D01*
X104685176Y-93650500D01*
X104674331Y-93635805D01*
X104672150Y-93632850D01*
X104562882Y-93552207D01*
X104559417Y-93550995D01*
X104559416Y-93550994D01*
X104458922Y-93515829D01*
X104441920Y-93505630D01*
X104412164Y-93478239D01*
X104410702Y-93476836D01*
X103898211Y-92964345D01*
X103891838Y-92956498D01*
X103883795Y-92944188D01*
X103881576Y-92940791D01*
X103878372Y-92938297D01*
X103852759Y-92918361D01*
X103848207Y-92914341D01*
X103844814Y-92910948D01*
X103843166Y-92909771D01*
X103843162Y-92909768D01*
X103826541Y-92897902D01*
X103824916Y-92896691D01*
X103785358Y-92865901D01*
X103782155Y-92863408D01*
X103778313Y-92862089D01*
X103774876Y-92860229D01*
X103771391Y-92858525D01*
X103768089Y-92856168D01*
X103716144Y-92840703D01*
X103714241Y-92840093D01*
X103662994Y-92822500D01*
X103658931Y-92822500D01*
X103655089Y-92821859D01*
X103651235Y-92821379D01*
X103647340Y-92820219D01*
X103599681Y-92822190D01*
X103593211Y-92822458D01*
X103591186Y-92822500D01*
X101499000Y-92822500D01*
X101464352Y-92808148D01*
X101450000Y-92773500D01*
X101450000Y-91999500D01*
X101464352Y-91964852D01*
X101499000Y-91950500D01*
X104996544Y-91950500D01*
X105031192Y-91964852D01*
X105035969Y-91970403D01*
X105057444Y-91999500D01*
X105076930Y-92025903D01*
X105085958Y-92062303D01*
X105076930Y-92084096D01*
X104997207Y-92192118D01*
X104952354Y-92320301D01*
X104949500Y-92350734D01*
X104949500Y-92859266D01*
X104952354Y-92889699D01*
X104997207Y-93017882D01*
X105077850Y-93127150D01*
X105187118Y-93207793D01*
X105190583Y-93209005D01*
X105190584Y-93209006D01*
X105235346Y-93224669D01*
X105315301Y-93252646D01*
X105345734Y-93255500D01*
X106754266Y-93255500D01*
X106784699Y-93252646D01*
X106864654Y-93224669D01*
X106909416Y-93209006D01*
X106909417Y-93209005D01*
X106912882Y-93207793D01*
X107022150Y-93127150D01*
X107102793Y-93017882D01*
X107147646Y-92889699D01*
X107150500Y-92859266D01*
X107150500Y-92350734D01*
X107147646Y-92320301D01*
X107102793Y-92192118D01*
X107023070Y-92084096D01*
X107014042Y-92047697D01*
X107023070Y-92025903D01*
X107042557Y-91999500D01*
X107102793Y-91917882D01*
X107147646Y-91789699D01*
X107150500Y-91759266D01*
X107150500Y-91250734D01*
X107147646Y-91220301D01*
X107103242Y-91093401D01*
X107100493Y-91076887D01*
X107102173Y-90827651D01*
X107104922Y-90811797D01*
X107147646Y-90689699D01*
X107150500Y-90659266D01*
X107150500Y-90150734D01*
X107147646Y-90120301D01*
X107110517Y-90014191D01*
X107107768Y-89997679D01*
X107108195Y-89934445D01*
X107108824Y-89841071D01*
X107109735Y-89706041D01*
X107112484Y-89690188D01*
X107135284Y-89625029D01*
X107147646Y-89589699D01*
X107150500Y-89559266D01*
X107150500Y-89050734D01*
X107147646Y-89020301D01*
X107117793Y-88934985D01*
X107115044Y-88918472D01*
X107117296Y-88584433D01*
X107120045Y-88568579D01*
X107135119Y-88525500D01*
X107147646Y-88489699D01*
X107150500Y-88459266D01*
X107150500Y-87950734D01*
X107147646Y-87920301D01*
X107125068Y-87855775D01*
X107122320Y-87839268D01*
X107124857Y-87462820D01*
X107127606Y-87446969D01*
X107127946Y-87446000D01*
X107147646Y-87389699D01*
X107150500Y-87359266D01*
X107150500Y-86850734D01*
X107147646Y-86820301D01*
X107132344Y-86776570D01*
X107129595Y-86760057D01*
X107130056Y-86691765D01*
X107132419Y-86341213D01*
X107135168Y-86325360D01*
X107146660Y-86292516D01*
X107147646Y-86289699D01*
X107150500Y-86259266D01*
X107150500Y-85750734D01*
X107147646Y-85720301D01*
X107139618Y-85697358D01*
X107136871Y-85680853D01*
X107139980Y-85219602D01*
X107142728Y-85203753D01*
X107147646Y-85189699D01*
X107150500Y-85159266D01*
X107150500Y-84650734D01*
X107147646Y-84620301D01*
X107146661Y-84617486D01*
X107146025Y-84614574D01*
X107146290Y-84614516D01*
X107144146Y-84601642D01*
X107147580Y-84092378D01*
X107147793Y-84088133D01*
X107150394Y-84060396D01*
X107150500Y-84059266D01*
X107150500Y-83659366D01*
X107150501Y-83659036D01*
X107176186Y-79849170D01*
X107190771Y-79814619D01*
X107225185Y-79800500D01*
X107343100Y-79800500D01*
X107377748Y-79814852D01*
X107485148Y-79922252D01*
X107499500Y-79956900D01*
X107499500Y-90321947D01*
X107499192Y-90327432D01*
X107494730Y-90367035D01*
X107495413Y-90370644D01*
X107505617Y-90424576D01*
X107505924Y-90426380D01*
X107514652Y-90484287D01*
X107516247Y-90487599D01*
X107517328Y-90491103D01*
X107517202Y-90491142D01*
X107517958Y-90493439D01*
X107518081Y-90493396D01*
X107519294Y-90496863D01*
X107519977Y-90500472D01*
X107547354Y-90552271D01*
X107548160Y-90553865D01*
X107573575Y-90606642D01*
X107576073Y-90609334D01*
X107578141Y-90612367D01*
X107578032Y-90612441D01*
X107579432Y-90614414D01*
X107579537Y-90614336D01*
X107581718Y-90617291D01*
X107583434Y-90620538D01*
X107624841Y-90661945D01*
X107626113Y-90663265D01*
X107665945Y-90706194D01*
X107669127Y-90708031D01*
X107671996Y-90710319D01*
X107671914Y-90710422D01*
X107677948Y-90715052D01*
X108858897Y-91896000D01*
X110011284Y-93048387D01*
X110025636Y-93083035D01*
X110011284Y-93117683D01*
X109999736Y-93126247D01*
X109913550Y-93172315D01*
X109753590Y-93303590D01*
X109622315Y-93463550D01*
X109621182Y-93465669D01*
X109621181Y-93465671D01*
X109532987Y-93630669D01*
X109524768Y-93646046D01*
X109464700Y-93844066D01*
X109464465Y-93846454D01*
X109464464Y-93846458D01*
X109457269Y-93919513D01*
X109444417Y-94050000D01*
X109444653Y-94052396D01*
X109458408Y-94192048D01*
X109464700Y-94255934D01*
X109524768Y-94453954D01*
X109525900Y-94456073D01*
X109525901Y-94456074D01*
X109602565Y-94599500D01*
X109622315Y-94636450D01*
X109753590Y-94796410D01*
X109913550Y-94927685D01*
X109915669Y-94928818D01*
X109915671Y-94928819D01*
X110046541Y-94998771D01*
X110096046Y-95025232D01*
X110294066Y-95085300D01*
X110296454Y-95085535D01*
X110296458Y-95085536D01*
X110497604Y-95105347D01*
X110500000Y-95105583D01*
X110502396Y-95105347D01*
X110703542Y-95085536D01*
X110703546Y-95085535D01*
X110705934Y-95085300D01*
X110903954Y-95025232D01*
X110953459Y-94998771D01*
X111084329Y-94928819D01*
X111084331Y-94928818D01*
X111086450Y-94927685D01*
X111246410Y-94796410D01*
X111377685Y-94636450D01*
X111397436Y-94599500D01*
X111474099Y-94456074D01*
X111474100Y-94456073D01*
X111475232Y-94453954D01*
X111535300Y-94255934D01*
X111541593Y-94192048D01*
X111555347Y-94052396D01*
X111555583Y-94050000D01*
X114444417Y-94050000D01*
X114444653Y-94052396D01*
X114458408Y-94192048D01*
X114464700Y-94255934D01*
X114524768Y-94453954D01*
X114525900Y-94456073D01*
X114525901Y-94456074D01*
X114602565Y-94599500D01*
X114622315Y-94636450D01*
X114753590Y-94796410D01*
X114913550Y-94927685D01*
X114915669Y-94928818D01*
X114915671Y-94928819D01*
X115046541Y-94998771D01*
X115096046Y-95025232D01*
X115294066Y-95085300D01*
X115296454Y-95085535D01*
X115296458Y-95085536D01*
X115497604Y-95105347D01*
X115500000Y-95105583D01*
X115502396Y-95105347D01*
X115703542Y-95085536D01*
X115703546Y-95085535D01*
X115705934Y-95085300D01*
X115903954Y-95025232D01*
X115953459Y-94998771D01*
X116084329Y-94928819D01*
X116084331Y-94928818D01*
X116086450Y-94927685D01*
X116246410Y-94796410D01*
X116377685Y-94636450D01*
X116397436Y-94599500D01*
X116474099Y-94456074D01*
X116474100Y-94456073D01*
X116475232Y-94453954D01*
X116535300Y-94255934D01*
X116541593Y-94192048D01*
X116555347Y-94052396D01*
X116555583Y-94050000D01*
X116542731Y-93919513D01*
X116535536Y-93846458D01*
X116535535Y-93846454D01*
X116535300Y-93844066D01*
X116475232Y-93646046D01*
X116467013Y-93630669D01*
X116378819Y-93465671D01*
X116378818Y-93465669D01*
X116377685Y-93463550D01*
X116246410Y-93303590D01*
X116086450Y-93172315D01*
X116084331Y-93171182D01*
X116084329Y-93171181D01*
X115906074Y-93075901D01*
X115906073Y-93075900D01*
X115903954Y-93074768D01*
X115705934Y-93014700D01*
X115703546Y-93014465D01*
X115703542Y-93014464D01*
X115502396Y-92994653D01*
X115500000Y-92994417D01*
X115497604Y-92994653D01*
X115296458Y-93014464D01*
X115296454Y-93014465D01*
X115294066Y-93014700D01*
X115096046Y-93074768D01*
X115093927Y-93075900D01*
X115093926Y-93075901D01*
X114915671Y-93171181D01*
X114915669Y-93171182D01*
X114913550Y-93172315D01*
X114753590Y-93303590D01*
X114622315Y-93463550D01*
X114621182Y-93465669D01*
X114621181Y-93465671D01*
X114532987Y-93630669D01*
X114524768Y-93646046D01*
X114464700Y-93844066D01*
X114464465Y-93846454D01*
X114464464Y-93846458D01*
X114457269Y-93919513D01*
X114444417Y-94050000D01*
X111555583Y-94050000D01*
X111542731Y-93919513D01*
X111535536Y-93846458D01*
X111535535Y-93846454D01*
X111535300Y-93844066D01*
X111475232Y-93646046D01*
X111467013Y-93630669D01*
X111378819Y-93465671D01*
X111378818Y-93465669D01*
X111377685Y-93463550D01*
X111246410Y-93303590D01*
X111086450Y-93172315D01*
X110976402Y-93113493D01*
X110952610Y-93084503D01*
X110950500Y-93070279D01*
X110950500Y-92928053D01*
X110950808Y-92922567D01*
X110954859Y-92886615D01*
X110954859Y-92886613D01*
X110955270Y-92882965D01*
X110950969Y-92860229D01*
X110944379Y-92825396D01*
X110944072Y-92823591D01*
X110943902Y-92822458D01*
X110935348Y-92765713D01*
X110933755Y-92762405D01*
X110932673Y-92758898D01*
X110932799Y-92758859D01*
X110932043Y-92756563D01*
X110931920Y-92756606D01*
X110930707Y-92753140D01*
X110930024Y-92749529D01*
X110902636Y-92697709D01*
X110901849Y-92696152D01*
X110876425Y-92643358D01*
X110873928Y-92640667D01*
X110871858Y-92637631D01*
X110871967Y-92637557D01*
X110870569Y-92635588D01*
X110870464Y-92635666D01*
X110868282Y-92632709D01*
X110866566Y-92629463D01*
X110825172Y-92588069D01*
X110823900Y-92586749D01*
X110786554Y-92546499D01*
X110786553Y-92546498D01*
X110784055Y-92543806D01*
X110780874Y-92541970D01*
X110778003Y-92539680D01*
X110778085Y-92539578D01*
X110772049Y-92534946D01*
X108414852Y-90177749D01*
X108400500Y-90143101D01*
X108400500Y-82116591D01*
X108414852Y-82081943D01*
X108449500Y-82067591D01*
X108484148Y-82081943D01*
X108492819Y-82093690D01*
X108497365Y-82102292D01*
X108498159Y-82103865D01*
X108523575Y-82156642D01*
X108526073Y-82159334D01*
X108528141Y-82162367D01*
X108528032Y-82162441D01*
X108529432Y-82164414D01*
X108529537Y-82164336D01*
X108531718Y-82167291D01*
X108533434Y-82170538D01*
X108574841Y-82211945D01*
X108576113Y-82213265D01*
X108615945Y-82256194D01*
X108619127Y-82258031D01*
X108621996Y-82260319D01*
X108621914Y-82260422D01*
X108627948Y-82265052D01*
X109985148Y-83622251D01*
X109999500Y-83656899D01*
X109999500Y-85920279D01*
X109985148Y-85954927D01*
X109973598Y-85963493D01*
X109863550Y-86022315D01*
X109703590Y-86153590D01*
X109572315Y-86313550D01*
X109571182Y-86315669D01*
X109571181Y-86315671D01*
X109520424Y-86410630D01*
X109474768Y-86496046D01*
X109414700Y-86694066D01*
X109414465Y-86696454D01*
X109414464Y-86696458D01*
X109401853Y-86824500D01*
X109394417Y-86900000D01*
X109394653Y-86902396D01*
X109414165Y-87100500D01*
X109414700Y-87105934D01*
X109474768Y-87303954D01*
X109475900Y-87306073D01*
X109475901Y-87306074D01*
X109503497Y-87357701D01*
X109572315Y-87486450D01*
X109703590Y-87646410D01*
X109863550Y-87777685D01*
X109865669Y-87778818D01*
X109865671Y-87778819D01*
X110009650Y-87855778D01*
X110046046Y-87875232D01*
X110244066Y-87935300D01*
X110246454Y-87935535D01*
X110246458Y-87935536D01*
X110447604Y-87955347D01*
X110450000Y-87955583D01*
X110452396Y-87955347D01*
X110653542Y-87935536D01*
X110653546Y-87935535D01*
X110655934Y-87935300D01*
X110853954Y-87875232D01*
X110890350Y-87855778D01*
X111034329Y-87778819D01*
X111034331Y-87778818D01*
X111036450Y-87777685D01*
X111196410Y-87646410D01*
X111327685Y-87486450D01*
X111396504Y-87357701D01*
X111424099Y-87306074D01*
X111424100Y-87306073D01*
X111425232Y-87303954D01*
X111485300Y-87105934D01*
X111485836Y-87100500D01*
X111505347Y-86902396D01*
X111505583Y-86900000D01*
X114394417Y-86900000D01*
X114394653Y-86902396D01*
X114414165Y-87100500D01*
X114414700Y-87105934D01*
X114474768Y-87303954D01*
X114475900Y-87306073D01*
X114475901Y-87306074D01*
X114503497Y-87357701D01*
X114572315Y-87486450D01*
X114703590Y-87646410D01*
X114863550Y-87777685D01*
X114865669Y-87778818D01*
X114865671Y-87778819D01*
X115009650Y-87855778D01*
X115046046Y-87875232D01*
X115244066Y-87935300D01*
X115246454Y-87935535D01*
X115246458Y-87935536D01*
X115447604Y-87955347D01*
X115450000Y-87955583D01*
X115452396Y-87955347D01*
X115653542Y-87935536D01*
X115653546Y-87935535D01*
X115655934Y-87935300D01*
X115853954Y-87875232D01*
X115890350Y-87855778D01*
X116034329Y-87778819D01*
X116034331Y-87778818D01*
X116036450Y-87777685D01*
X116196410Y-87646410D01*
X116327685Y-87486450D01*
X116396504Y-87357701D01*
X116424099Y-87306074D01*
X116424100Y-87306073D01*
X116425232Y-87303954D01*
X116485300Y-87105934D01*
X116485836Y-87100500D01*
X116505347Y-86902396D01*
X116505583Y-86900000D01*
X116498147Y-86824500D01*
X116485536Y-86696458D01*
X116485535Y-86696454D01*
X116485300Y-86694066D01*
X116425232Y-86496046D01*
X116379576Y-86410630D01*
X116328819Y-86315671D01*
X116328818Y-86315669D01*
X116327685Y-86313550D01*
X116196410Y-86153590D01*
X116036450Y-86022315D01*
X116034331Y-86021182D01*
X116034329Y-86021181D01*
X115856074Y-85925901D01*
X115856073Y-85925900D01*
X115853954Y-85924768D01*
X115827318Y-85916688D01*
X115658235Y-85865398D01*
X115655934Y-85864700D01*
X115653546Y-85864465D01*
X115653542Y-85864464D01*
X115452396Y-85844653D01*
X115450000Y-85844417D01*
X115447604Y-85844653D01*
X115246458Y-85864464D01*
X115246454Y-85864465D01*
X115244066Y-85864700D01*
X115241765Y-85865398D01*
X115072683Y-85916688D01*
X115046046Y-85924768D01*
X115043927Y-85925900D01*
X115043926Y-85925901D01*
X114865671Y-86021181D01*
X114865669Y-86021182D01*
X114863550Y-86022315D01*
X114703590Y-86153590D01*
X114572315Y-86313550D01*
X114571182Y-86315669D01*
X114571181Y-86315671D01*
X114520424Y-86410630D01*
X114474768Y-86496046D01*
X114414700Y-86694066D01*
X114414465Y-86696454D01*
X114414464Y-86696458D01*
X114401853Y-86824500D01*
X114394417Y-86900000D01*
X111505583Y-86900000D01*
X111498147Y-86824500D01*
X111485536Y-86696458D01*
X111485535Y-86696454D01*
X111485300Y-86694066D01*
X111425232Y-86496046D01*
X111379576Y-86410630D01*
X111328819Y-86315671D01*
X111328818Y-86315669D01*
X111327685Y-86313550D01*
X111196410Y-86153590D01*
X111036450Y-86022315D01*
X110926402Y-85963493D01*
X110902610Y-85934503D01*
X110900500Y-85920279D01*
X110900500Y-83478053D01*
X110900808Y-83472567D01*
X110904859Y-83436615D01*
X110904859Y-83436613D01*
X110905270Y-83432965D01*
X110894383Y-83375422D01*
X110894076Y-83373618D01*
X110885896Y-83319347D01*
X110885896Y-83319345D01*
X110885348Y-83315713D01*
X110883753Y-83312401D01*
X110882672Y-83308897D01*
X110882798Y-83308858D01*
X110882042Y-83306561D01*
X110881919Y-83306604D01*
X110880706Y-83303137D01*
X110880023Y-83299528D01*
X110852646Y-83247729D01*
X110851830Y-83246114D01*
X110828018Y-83196666D01*
X110826425Y-83193358D01*
X110823927Y-83190666D01*
X110821859Y-83187633D01*
X110821968Y-83187559D01*
X110820568Y-83185586D01*
X110820463Y-83185664D01*
X110818282Y-83182709D01*
X110816566Y-83179462D01*
X110775159Y-83138055D01*
X110773887Y-83136735D01*
X110736554Y-83096499D01*
X110736553Y-83096498D01*
X110734055Y-83093806D01*
X110730873Y-83091969D01*
X110728004Y-83089681D01*
X110728086Y-83089578D01*
X110722052Y-83084948D01*
X109364852Y-81727749D01*
X109350500Y-81693101D01*
X109350500Y-80354170D01*
X109364852Y-80319522D01*
X109399500Y-80305170D01*
X109434148Y-80319522D01*
X109442714Y-80331071D01*
X109458635Y-80360856D01*
X109472315Y-80386450D01*
X109603590Y-80546410D01*
X109763550Y-80677685D01*
X109765669Y-80678818D01*
X109765671Y-80678819D01*
X109884433Y-80742299D01*
X109946046Y-80775232D01*
X110144066Y-80835300D01*
X110146454Y-80835535D01*
X110146458Y-80835536D01*
X110347604Y-80855347D01*
X110350000Y-80855583D01*
X110352396Y-80855347D01*
X110553542Y-80835536D01*
X110553546Y-80835535D01*
X110555934Y-80835300D01*
X110753954Y-80775232D01*
X110815567Y-80742299D01*
X110934329Y-80678819D01*
X110934331Y-80678818D01*
X110936450Y-80677685D01*
X111096410Y-80546410D01*
X111227685Y-80386450D01*
X111241366Y-80360856D01*
X111324099Y-80206074D01*
X111324100Y-80206073D01*
X111325232Y-80203954D01*
X111385300Y-80005934D01*
X111387627Y-79982313D01*
X111405347Y-79802396D01*
X111405583Y-79800000D01*
X114294417Y-79800000D01*
X114294653Y-79802396D01*
X114312374Y-79982313D01*
X114314700Y-80005934D01*
X114374768Y-80203954D01*
X114375900Y-80206073D01*
X114375901Y-80206074D01*
X114458635Y-80360856D01*
X114472315Y-80386450D01*
X114603590Y-80546410D01*
X114763550Y-80677685D01*
X114765669Y-80678818D01*
X114765671Y-80678819D01*
X114884433Y-80742299D01*
X114946046Y-80775232D01*
X115144066Y-80835300D01*
X115146454Y-80835535D01*
X115146458Y-80835536D01*
X115347604Y-80855347D01*
X115350000Y-80855583D01*
X115352396Y-80855347D01*
X115553542Y-80835536D01*
X115553546Y-80835535D01*
X115555934Y-80835300D01*
X115753954Y-80775232D01*
X115815567Y-80742299D01*
X115934329Y-80678819D01*
X115934331Y-80678818D01*
X115936450Y-80677685D01*
X116096410Y-80546410D01*
X116227685Y-80386450D01*
X116241366Y-80360856D01*
X116324099Y-80206074D01*
X116324100Y-80206073D01*
X116325232Y-80203954D01*
X116385300Y-80005934D01*
X116387627Y-79982313D01*
X116405347Y-79802396D01*
X116405583Y-79800000D01*
X116394719Y-79689699D01*
X116385536Y-79596458D01*
X116385535Y-79596454D01*
X116385300Y-79594066D01*
X116325232Y-79396046D01*
X116266733Y-79286603D01*
X116228819Y-79215671D01*
X116228818Y-79215669D01*
X116227685Y-79213550D01*
X116096410Y-79053590D01*
X115936450Y-78922315D01*
X115934331Y-78921182D01*
X115934329Y-78921181D01*
X115756074Y-78825901D01*
X115756073Y-78825900D01*
X115753954Y-78824768D01*
X115555934Y-78764700D01*
X115553546Y-78764465D01*
X115553542Y-78764464D01*
X115352396Y-78744653D01*
X115350000Y-78744417D01*
X115347604Y-78744653D01*
X115146458Y-78764464D01*
X115146454Y-78764465D01*
X115144066Y-78764700D01*
X114946046Y-78824768D01*
X114943927Y-78825900D01*
X114943926Y-78825901D01*
X114765671Y-78921181D01*
X114765669Y-78921182D01*
X114763550Y-78922315D01*
X114603590Y-79053590D01*
X114472315Y-79213550D01*
X114471182Y-79215669D01*
X114471181Y-79215671D01*
X114433267Y-79286603D01*
X114374768Y-79396046D01*
X114314700Y-79594066D01*
X114314465Y-79596454D01*
X114314464Y-79596458D01*
X114305281Y-79689699D01*
X114294417Y-79800000D01*
X111405583Y-79800000D01*
X111394719Y-79689699D01*
X111385536Y-79596458D01*
X111385535Y-79596454D01*
X111385300Y-79594066D01*
X111325232Y-79396046D01*
X111266733Y-79286603D01*
X111228819Y-79215671D01*
X111228818Y-79215669D01*
X111227685Y-79213550D01*
X111096410Y-79053590D01*
X110936450Y-78922315D01*
X110891909Y-78898507D01*
X110840944Y-78871266D01*
X110826402Y-78863493D01*
X110802610Y-78834503D01*
X110800500Y-78820279D01*
X110800500Y-77928053D01*
X110800808Y-77922567D01*
X110804859Y-77886615D01*
X110804859Y-77886613D01*
X110805270Y-77882965D01*
X110794383Y-77825422D01*
X110794076Y-77823618D01*
X110793998Y-77823097D01*
X110785348Y-77765713D01*
X110783753Y-77762401D01*
X110782672Y-77758897D01*
X110782798Y-77758858D01*
X110782042Y-77756559D01*
X110781918Y-77756602D01*
X110780706Y-77753139D01*
X110780023Y-77749528D01*
X110752644Y-77697725D01*
X110751820Y-77696091D01*
X110734372Y-77659859D01*
X110726425Y-77643358D01*
X110723929Y-77640668D01*
X110721859Y-77637631D01*
X110721966Y-77637558D01*
X110720567Y-77635586D01*
X110720462Y-77635664D01*
X110718282Y-77632711D01*
X110716565Y-77629462D01*
X110675172Y-77588069D01*
X110673900Y-77586749D01*
X110636554Y-77546499D01*
X110636553Y-77546498D01*
X110634055Y-77543806D01*
X110630874Y-77541970D01*
X110628003Y-77539680D01*
X110628085Y-77539578D01*
X110622049Y-77534946D01*
X109988392Y-76901289D01*
X109984730Y-76897192D01*
X109962169Y-76868901D01*
X109962167Y-76868899D01*
X109959879Y-76866030D01*
X109911505Y-76833048D01*
X109910011Y-76831989D01*
X109903837Y-76827433D01*
X109862882Y-76797207D01*
X109859416Y-76795994D01*
X109856171Y-76794279D01*
X109856232Y-76794163D01*
X109854073Y-76793073D01*
X109854016Y-76793190D01*
X109850707Y-76791596D01*
X109847673Y-76789528D01*
X109844165Y-76788446D01*
X109844163Y-76788445D01*
X109791705Y-76772265D01*
X109789963Y-76771692D01*
X109738169Y-76753568D01*
X109738168Y-76753568D01*
X109734699Y-76752354D01*
X109731027Y-76752217D01*
X109727419Y-76751534D01*
X109727443Y-76751405D01*
X109725063Y-76751000D01*
X109725043Y-76751130D01*
X109721412Y-76750583D01*
X109717902Y-76749500D01*
X109659349Y-76749500D01*
X109657517Y-76749466D01*
X109602661Y-76747413D01*
X109602659Y-76747413D01*
X109598990Y-76747276D01*
X109595441Y-76748227D01*
X109591796Y-76748638D01*
X109591781Y-76748507D01*
X109584240Y-76749500D01*
X109328053Y-76749500D01*
X109322567Y-76749192D01*
X109286615Y-76745141D01*
X109286613Y-76745141D01*
X109282965Y-76744730D01*
X109235840Y-76753646D01*
X109226733Y-76754500D01*
X107246380Y-76754500D01*
X107211732Y-76740148D01*
X107197381Y-76705170D01*
X107198062Y-76604170D01*
X107212647Y-76569619D01*
X107247061Y-76555500D01*
X108716947Y-76555500D01*
X108722433Y-76555808D01*
X108758385Y-76559859D01*
X108758387Y-76559859D01*
X108762035Y-76560270D01*
X108819578Y-76549383D01*
X108821382Y-76549076D01*
X108875653Y-76540896D01*
X108875655Y-76540896D01*
X108879287Y-76540348D01*
X108882599Y-76538753D01*
X108886103Y-76537672D01*
X108886142Y-76537798D01*
X108888439Y-76537042D01*
X108888396Y-76536919D01*
X108891863Y-76535706D01*
X108895472Y-76535023D01*
X108947271Y-76507646D01*
X108948865Y-76506840D01*
X109001642Y-76481425D01*
X109004334Y-76478927D01*
X109007367Y-76476859D01*
X109007441Y-76476968D01*
X109009414Y-76475568D01*
X109009336Y-76475463D01*
X109012291Y-76473282D01*
X109015538Y-76471566D01*
X109056945Y-76430159D01*
X109058265Y-76428887D01*
X109098501Y-76391554D01*
X109098502Y-76391553D01*
X109101194Y-76389055D01*
X109103031Y-76385873D01*
X109105319Y-76383004D01*
X109105422Y-76383086D01*
X109110052Y-76377052D01*
X110598711Y-74888392D01*
X110602808Y-74884730D01*
X110631099Y-74862169D01*
X110631101Y-74862167D01*
X110633970Y-74859879D01*
X110666952Y-74811505D01*
X110668011Y-74810011D01*
X110672567Y-74803837D01*
X110702793Y-74762882D01*
X110704006Y-74759416D01*
X110705721Y-74756171D01*
X110705837Y-74756232D01*
X110706927Y-74754073D01*
X110706810Y-74754016D01*
X110708404Y-74750707D01*
X110710472Y-74747673D01*
X110727735Y-74691705D01*
X110728308Y-74689963D01*
X110746432Y-74638169D01*
X110746432Y-74638168D01*
X110747646Y-74634699D01*
X110747783Y-74631027D01*
X110748466Y-74627419D01*
X110748595Y-74627443D01*
X110749000Y-74625063D01*
X110748870Y-74625043D01*
X110749417Y-74621412D01*
X110750500Y-74617902D01*
X110750500Y-74559349D01*
X110750534Y-74557517D01*
X110752587Y-74502661D01*
X110752587Y-74502659D01*
X110752724Y-74498990D01*
X110751773Y-74495441D01*
X110751362Y-74491796D01*
X110751493Y-74491781D01*
X110750500Y-74484240D01*
X110750500Y-73679721D01*
X110764852Y-73645073D01*
X110776402Y-73636507D01*
X110884325Y-73578821D01*
X110884328Y-73578819D01*
X110886450Y-73577685D01*
X111046410Y-73446410D01*
X111177685Y-73286450D01*
X111275232Y-73103954D01*
X111335300Y-72905934D01*
X111355583Y-72700000D01*
X114244417Y-72700000D01*
X114264700Y-72905934D01*
X114324768Y-73103954D01*
X114422315Y-73286450D01*
X114553590Y-73446410D01*
X114713550Y-73577685D01*
X114715669Y-73578818D01*
X114715671Y-73578819D01*
X114877833Y-73665497D01*
X114896046Y-73675232D01*
X115094066Y-73735300D01*
X115096454Y-73735535D01*
X115096458Y-73735536D01*
X115297604Y-73755347D01*
X115300000Y-73755583D01*
X115302396Y-73755347D01*
X115503542Y-73735536D01*
X115503546Y-73735535D01*
X115505934Y-73735300D01*
X115703954Y-73675232D01*
X115722167Y-73665497D01*
X115884329Y-73578819D01*
X115884331Y-73578818D01*
X115886450Y-73577685D01*
X116046410Y-73446410D01*
X116177685Y-73286450D01*
X116275232Y-73103954D01*
X116335300Y-72905934D01*
X116355583Y-72700000D01*
X116335300Y-72494066D01*
X116275232Y-72296046D01*
X116177685Y-72113550D01*
X116046410Y-71953590D01*
X115886450Y-71822315D01*
X115884331Y-71821182D01*
X115884329Y-71821181D01*
X115706074Y-71725901D01*
X115706073Y-71725900D01*
X115703954Y-71724768D01*
X115505934Y-71664700D01*
X115503546Y-71664465D01*
X115503542Y-71664464D01*
X115302396Y-71644653D01*
X115300000Y-71644417D01*
X115297604Y-71644653D01*
X115096458Y-71664464D01*
X115096454Y-71664465D01*
X115094066Y-71664700D01*
X114896046Y-71724768D01*
X114893927Y-71725900D01*
X114893926Y-71725901D01*
X114715671Y-71821181D01*
X114715669Y-71821182D01*
X114713550Y-71822315D01*
X114553590Y-71953590D01*
X114422315Y-72113550D01*
X114324768Y-72296046D01*
X114264700Y-72494066D01*
X114244417Y-72700000D01*
X111355583Y-72700000D01*
X111335300Y-72494066D01*
X111275232Y-72296046D01*
X111177685Y-72113550D01*
X111046410Y-71953590D01*
X110886450Y-71822315D01*
X110884331Y-71821182D01*
X110884329Y-71821181D01*
X110706074Y-71725901D01*
X110706073Y-71725900D01*
X110703954Y-71724768D01*
X110505934Y-71664700D01*
X110503546Y-71664465D01*
X110503542Y-71664464D01*
X110302396Y-71644653D01*
X110300000Y-71644417D01*
X110297604Y-71644653D01*
X110096458Y-71664464D01*
X110096454Y-71664465D01*
X110094066Y-71664700D01*
X109896046Y-71724768D01*
X109893927Y-71725900D01*
X109893926Y-71725901D01*
X109715671Y-71821181D01*
X109715669Y-71821182D01*
X109713550Y-71822315D01*
X109553590Y-71953590D01*
X109422315Y-72113550D01*
X109324768Y-72296046D01*
X109264700Y-72494066D01*
X109244417Y-72700000D01*
X109264700Y-72905934D01*
X109324768Y-73103954D01*
X109422315Y-73286450D01*
X109553590Y-73446410D01*
X109713550Y-73577685D01*
X109715672Y-73578819D01*
X109715675Y-73578821D01*
X109823598Y-73636507D01*
X109847390Y-73665497D01*
X109849500Y-73679721D01*
X109849500Y-74343100D01*
X109835148Y-74377748D01*
X108572749Y-75640148D01*
X108538101Y-75654500D01*
X107253796Y-75654500D01*
X107219148Y-75640148D01*
X107204797Y-75605170D01*
X107210861Y-74705582D01*
X107212590Y-74449170D01*
X107227175Y-74414619D01*
X107261589Y-74400500D01*
X107570503Y-74400500D01*
X107580060Y-74401442D01*
X107600000Y-74405408D01*
X107697740Y-74385966D01*
X107780601Y-74330601D01*
X107835966Y-74247740D01*
X107850500Y-74174674D01*
X107855408Y-74150000D01*
X107851442Y-74130060D01*
X107850500Y-74120503D01*
X107850500Y-69149500D01*
X107864852Y-69114852D01*
X107899500Y-69100500D01*
X150851426Y-69100500D01*
X150886074Y-69114852D01*
G37*
G04 #@! TD.AperFunction*
G04 #@! TA.AperFunction,Conductor*
G36*
X87788149Y-90414352D02*
G01*
X87802501Y-90449000D01*
X87788149Y-90483648D01*
X87782598Y-90488425D01*
X87702601Y-90547465D01*
X87697465Y-90552601D01*
X87623511Y-90652806D01*
X87620117Y-90659227D01*
X87578756Y-90777431D01*
X87577493Y-90783212D01*
X87575106Y-90808666D01*
X87575000Y-90810932D01*
X87575000Y-90898753D01*
X87577855Y-90905645D01*
X87584747Y-90908500D01*
X88915253Y-90908500D01*
X88922145Y-90905645D01*
X88925000Y-90898753D01*
X88925000Y-90810932D01*
X88924894Y-90808666D01*
X88922507Y-90783212D01*
X88921244Y-90777431D01*
X88879883Y-90659227D01*
X88876489Y-90652806D01*
X88802535Y-90552601D01*
X88797399Y-90547465D01*
X88717402Y-90488425D01*
X88698046Y-90456303D01*
X88707074Y-90419903D01*
X88739196Y-90400547D01*
X88746499Y-90400000D01*
X89591165Y-90400000D01*
X89625813Y-90414352D01*
X89640165Y-90449000D01*
X89625813Y-90483648D01*
X89608293Y-90494908D01*
X89524285Y-90526242D01*
X89521482Y-90528341D01*
X89521479Y-90528342D01*
X89495934Y-90547465D01*
X89411026Y-90611026D01*
X89408927Y-90613830D01*
X89328342Y-90721479D01*
X89328341Y-90721482D01*
X89326242Y-90724285D01*
X89276800Y-90856843D01*
X89276473Y-90859887D01*
X89276472Y-90859890D01*
X89272294Y-90898753D01*
X89270500Y-90915443D01*
X89270501Y-91509556D01*
X89270642Y-91510864D01*
X89270642Y-91510872D01*
X89273966Y-91541788D01*
X89276800Y-91568157D01*
X89326242Y-91700715D01*
X89328341Y-91703518D01*
X89328342Y-91703521D01*
X89383748Y-91777535D01*
X89411026Y-91813974D01*
X89413830Y-91816073D01*
X89521479Y-91896658D01*
X89521482Y-91896659D01*
X89524285Y-91898758D01*
X89588551Y-91922728D01*
X89653971Y-91947129D01*
X89653973Y-91947129D01*
X89656843Y-91948200D01*
X89659887Y-91948527D01*
X89659890Y-91948528D01*
X89714128Y-91954359D01*
X89714135Y-91954359D01*
X89715443Y-91954500D01*
X90000000Y-91954500D01*
X90284556Y-91954499D01*
X90285864Y-91954358D01*
X90285872Y-91954358D01*
X90319788Y-91950712D01*
X90343157Y-91948200D01*
X90475715Y-91898758D01*
X90478518Y-91896659D01*
X90478521Y-91896658D01*
X90586170Y-91816073D01*
X90588974Y-91813974D01*
X90616252Y-91777535D01*
X90671658Y-91703521D01*
X90671659Y-91703518D01*
X90673758Y-91700715D01*
X90723200Y-91568157D01*
X90723529Y-91565103D01*
X90729359Y-91510872D01*
X90729359Y-91510865D01*
X90729500Y-91509557D01*
X90729499Y-91146057D01*
X90743851Y-91111409D01*
X90981408Y-90873852D01*
X91016056Y-90859500D01*
X91498215Y-90859500D01*
X91532863Y-90873852D01*
X91537640Y-90879403D01*
X91563269Y-90914128D01*
X91571959Y-90925903D01*
X91580987Y-90962303D01*
X91571959Y-90984097D01*
X91493631Y-91090227D01*
X91448379Y-91219549D01*
X91445500Y-91250251D01*
X91445501Y-91759748D01*
X91448379Y-91790451D01*
X91449362Y-91793262D01*
X91449363Y-91793264D01*
X91485713Y-91897145D01*
X91493631Y-91919773D01*
X91574990Y-92030010D01*
X91600388Y-92048755D01*
X91606457Y-92053234D01*
X91625812Y-92085357D01*
X91616784Y-92121757D01*
X91612007Y-92127307D01*
X91575085Y-92164229D01*
X91570609Y-92170389D01*
X91516585Y-92276418D01*
X91514232Y-92283658D01*
X91500301Y-92371621D01*
X91500000Y-92375443D01*
X91500001Y-92834556D01*
X91500302Y-92838379D01*
X91514232Y-92926342D01*
X91516585Y-92933582D01*
X91570609Y-93039611D01*
X91575085Y-93045771D01*
X91658264Y-93128950D01*
X91665860Y-93129547D01*
X91666848Y-93128942D01*
X92515352Y-92280438D01*
X92550000Y-92266086D01*
X92584648Y-92280438D01*
X92874562Y-92570352D01*
X92888914Y-92605000D01*
X92874562Y-92639648D01*
X92316103Y-93198107D01*
X92314084Y-93202981D01*
X92318957Y-93205000D01*
X93187183Y-93204999D01*
X93221831Y-93219351D01*
X93236183Y-93253999D01*
X93221831Y-93288646D01*
X92911809Y-93598668D01*
X92903961Y-93605041D01*
X92888044Y-93615440D01*
X92871553Y-93636628D01*
X92865359Y-93644586D01*
X92861339Y-93649138D01*
X92857886Y-93652591D01*
X92856710Y-93654237D01*
X92856710Y-93654238D01*
X92844677Y-93671090D01*
X92843467Y-93672712D01*
X92812337Y-93712709D01*
X92809842Y-93715915D01*
X92808522Y-93719759D01*
X92806625Y-93723266D01*
X92804885Y-93726825D01*
X92802525Y-93730130D01*
X92789316Y-93774499D01*
X92786897Y-93782623D01*
X92786283Y-93784539D01*
X92768500Y-93836339D01*
X92768500Y-93840403D01*
X92767845Y-93844329D01*
X92767354Y-93848265D01*
X92766195Y-93852159D01*
X92766363Y-93856217D01*
X92768458Y-93906869D01*
X92768500Y-93908894D01*
X92768500Y-95791524D01*
X92751993Y-95828201D01*
X92656502Y-95912799D01*
X92654817Y-95915240D01*
X92576463Y-96028756D01*
X92566213Y-96043605D01*
X92509851Y-96192218D01*
X92490693Y-96350000D01*
X92491050Y-96352940D01*
X92498800Y-96416764D01*
X92509851Y-96507782D01*
X92566213Y-96656395D01*
X92656502Y-96787201D01*
X92775471Y-96892599D01*
X92778092Y-96893975D01*
X92778094Y-96893976D01*
X92913577Y-96965083D01*
X92913579Y-96965084D01*
X92916207Y-96966463D01*
X92919087Y-96967173D01*
X92919090Y-96967174D01*
X93067647Y-97003790D01*
X93067650Y-97003790D01*
X93070529Y-97004500D01*
X93229471Y-97004500D01*
X93232349Y-97003791D01*
X93232354Y-97003790D01*
X93270167Y-96994470D01*
X93307243Y-97000113D01*
X93329469Y-97030320D01*
X93330892Y-97041818D01*
X93334581Y-97834914D01*
X93320391Y-97869629D01*
X93298707Y-97879946D01*
X93294000Y-97885682D01*
X93294000Y-99910451D01*
X93296855Y-99917343D01*
X93312752Y-99923928D01*
X93311739Y-99926374D01*
X93324710Y-99929628D01*
X93343979Y-99961802D01*
X93344506Y-99968747D01*
X93348587Y-100846272D01*
X93334397Y-100880987D01*
X93299588Y-100895500D01*
X86153500Y-100895500D01*
X86118852Y-100881148D01*
X86104500Y-100846500D01*
X86104500Y-93888354D01*
X86118852Y-93853706D01*
X86153500Y-93839354D01*
X86188148Y-93853706D01*
X86193141Y-93859552D01*
X86200996Y-93870363D01*
X86203530Y-93874220D01*
X86228733Y-93916836D01*
X86248046Y-93936149D01*
X86253040Y-93941996D01*
X86267286Y-93961604D01*
X86267289Y-93961607D01*
X86269098Y-93964097D01*
X86271471Y-93966060D01*
X86307246Y-93995656D01*
X86310660Y-93998763D01*
X86406149Y-94094252D01*
X86420501Y-94128900D01*
X86420501Y-94798254D01*
X86420642Y-94799561D01*
X86420642Y-94799570D01*
X86424357Y-94834128D01*
X86426960Y-94858342D01*
X86477658Y-94994267D01*
X86479757Y-94997070D01*
X86479758Y-94997073D01*
X86533480Y-95068837D01*
X86564596Y-95110404D01*
X86567400Y-95112503D01*
X86677927Y-95195242D01*
X86677930Y-95195243D01*
X86680733Y-95197342D01*
X86684016Y-95198567D01*
X86684017Y-95198567D01*
X86701125Y-95204948D01*
X86728572Y-95230504D01*
X86733000Y-95250858D01*
X86733000Y-96165552D01*
X86723227Y-96194916D01*
X86717000Y-96203234D01*
X86701242Y-96224285D01*
X86651800Y-96356843D01*
X86651473Y-96359887D01*
X86651472Y-96359890D01*
X86645985Y-96410932D01*
X86645500Y-96415443D01*
X86645501Y-96984556D01*
X86645642Y-96985864D01*
X86645642Y-96985872D01*
X86647173Y-97000113D01*
X86651800Y-97043157D01*
X86701242Y-97175715D01*
X86703343Y-97178521D01*
X86723227Y-97205084D01*
X86733000Y-97234448D01*
X86733000Y-97609834D01*
X86731820Y-97620522D01*
X86730726Y-97625417D01*
X86730823Y-97628493D01*
X86732976Y-97697016D01*
X86733000Y-97698555D01*
X86733000Y-97728678D01*
X86734004Y-97736631D01*
X86734364Y-97741207D01*
X86735920Y-97790700D01*
X86743542Y-97816936D01*
X86745099Y-97824451D01*
X86748524Y-97851561D01*
X86766747Y-97897587D01*
X86768242Y-97901955D01*
X86782055Y-97949499D01*
X86783622Y-97952149D01*
X86783624Y-97952153D01*
X86795962Y-97973015D01*
X86799345Y-97979920D01*
X86809399Y-98005314D01*
X86811209Y-98007805D01*
X86811211Y-98007809D01*
X86838497Y-98045364D01*
X86841030Y-98049220D01*
X86866233Y-98091836D01*
X86885546Y-98111149D01*
X86890540Y-98116996D01*
X86904786Y-98136604D01*
X86904789Y-98136607D01*
X86906598Y-98139097D01*
X86908971Y-98141060D01*
X86944746Y-98170656D01*
X86948160Y-98173763D01*
X88082278Y-99307881D01*
X88089002Y-99316273D01*
X88091691Y-99320510D01*
X88093938Y-99322620D01*
X88143907Y-99369544D01*
X88145012Y-99370615D01*
X88166316Y-99391919D01*
X88167537Y-99392866D01*
X88167538Y-99392867D01*
X88172636Y-99396822D01*
X88176144Y-99399818D01*
X88209987Y-99431598D01*
X88209991Y-99431601D01*
X88212237Y-99433710D01*
X88236176Y-99446871D01*
X88242595Y-99451088D01*
X88251421Y-99457933D01*
X88261748Y-99465944D01*
X88261751Y-99465946D01*
X88264184Y-99467833D01*
X88267012Y-99469057D01*
X88267014Y-99469058D01*
X88309620Y-99487495D01*
X88313766Y-99489526D01*
X88354444Y-99511889D01*
X88357147Y-99513375D01*
X88383614Y-99520171D01*
X88390874Y-99522657D01*
X88413122Y-99532285D01*
X88413124Y-99532286D01*
X88415949Y-99533508D01*
X88418989Y-99533990D01*
X88418991Y-99533990D01*
X88449718Y-99538856D01*
X88464847Y-99541252D01*
X88469366Y-99542188D01*
X88514332Y-99553734D01*
X88514335Y-99553734D01*
X88517317Y-99554500D01*
X88544633Y-99554500D01*
X88552298Y-99555103D01*
X88576234Y-99558894D01*
X88576235Y-99558894D01*
X88579278Y-99559376D01*
X88628567Y-99554717D01*
X88633177Y-99554500D01*
X89346501Y-99554500D01*
X89381149Y-99568852D01*
X89395501Y-99603500D01*
X89395501Y-99775066D01*
X89410266Y-99849301D01*
X89466516Y-99933484D01*
X89550699Y-99989734D01*
X89624933Y-100004500D01*
X89627343Y-100004500D01*
X90501272Y-100004499D01*
X91375066Y-100004499D01*
X91377418Y-100004031D01*
X91377420Y-100004031D01*
X91413403Y-99996874D01*
X91449301Y-99989734D01*
X91453312Y-99987054D01*
X91453314Y-99987053D01*
X91529473Y-99936164D01*
X91533484Y-99933484D01*
X91589734Y-99849301D01*
X91604500Y-99775067D01*
X91604500Y-99159627D01*
X92021509Y-99159627D01*
X92064531Y-99301453D01*
X92066370Y-99305892D01*
X92161596Y-99484048D01*
X92164261Y-99488035D01*
X92292416Y-99644192D01*
X92295808Y-99647584D01*
X92451965Y-99775739D01*
X92455952Y-99778404D01*
X92634108Y-99873630D01*
X92638547Y-99875469D01*
X92776673Y-99917369D01*
X92784097Y-99916637D01*
X92786000Y-99914318D01*
X92786000Y-99163747D01*
X92783145Y-99156855D01*
X92776253Y-99154000D01*
X92029549Y-99154000D01*
X92022657Y-99156855D01*
X92021509Y-99159627D01*
X91604500Y-99159627D01*
X91604500Y-98636673D01*
X92022631Y-98636673D01*
X92023363Y-98644097D01*
X92025682Y-98646000D01*
X92776253Y-98646000D01*
X92783145Y-98643145D01*
X92786000Y-98636253D01*
X92786000Y-97889549D01*
X92783145Y-97882657D01*
X92780373Y-97881509D01*
X92638547Y-97924531D01*
X92634108Y-97926370D01*
X92455952Y-98021596D01*
X92451965Y-98024261D01*
X92295808Y-98152416D01*
X92292416Y-98155808D01*
X92164261Y-98311965D01*
X92161596Y-98315952D01*
X92066370Y-98494108D01*
X92064531Y-98498547D01*
X92022631Y-98636673D01*
X91604500Y-98636673D01*
X91604499Y-98024934D01*
X91600027Y-98002447D01*
X91594832Y-97976333D01*
X91589734Y-97950699D01*
X91586955Y-97946539D01*
X91536164Y-97870527D01*
X91533484Y-97866516D01*
X91449301Y-97810266D01*
X91375067Y-97795500D01*
X91372657Y-97795500D01*
X90498728Y-97795501D01*
X89624934Y-97795501D01*
X89622582Y-97795969D01*
X89622580Y-97795969D01*
X89586597Y-97803126D01*
X89550699Y-97810266D01*
X89546688Y-97812946D01*
X89546686Y-97812947D01*
X89535179Y-97820636D01*
X89466516Y-97866516D01*
X89410266Y-97950699D01*
X89395500Y-98024933D01*
X89395500Y-98196500D01*
X89381148Y-98231148D01*
X89346500Y-98245500D01*
X88891399Y-98245500D01*
X88856751Y-98231148D01*
X88056352Y-97430749D01*
X88042000Y-97396101D01*
X88042000Y-97234448D01*
X88051773Y-97205084D01*
X88071657Y-97178521D01*
X88073758Y-97175715D01*
X88123200Y-97043157D01*
X88123529Y-97040103D01*
X88129015Y-96989068D01*
X88525000Y-96989068D01*
X88525106Y-96991334D01*
X88527493Y-97016788D01*
X88528756Y-97022569D01*
X88570117Y-97140773D01*
X88573511Y-97147194D01*
X88647465Y-97247399D01*
X88652601Y-97252535D01*
X88752806Y-97326489D01*
X88759227Y-97329883D01*
X88877431Y-97371244D01*
X88883212Y-97372507D01*
X88908666Y-97374894D01*
X88910932Y-97375000D01*
X88948753Y-97375000D01*
X88955645Y-97372145D01*
X88958500Y-97365253D01*
X89466500Y-97365253D01*
X89469355Y-97372145D01*
X89476247Y-97375000D01*
X89514068Y-97375000D01*
X89516334Y-97374894D01*
X89541788Y-97372507D01*
X89547569Y-97371244D01*
X89665773Y-97329883D01*
X89672194Y-97326489D01*
X89772399Y-97252535D01*
X89777535Y-97247399D01*
X89851489Y-97147194D01*
X89854883Y-97140773D01*
X89896244Y-97022569D01*
X89897507Y-97016788D01*
X89899894Y-96991334D01*
X89900000Y-96989068D01*
X89900000Y-96963747D01*
X89897145Y-96956855D01*
X89890253Y-96954000D01*
X89476247Y-96954000D01*
X89469355Y-96956855D01*
X89466500Y-96963747D01*
X89466500Y-97365253D01*
X88958500Y-97365253D01*
X88958500Y-96963747D01*
X88955645Y-96956855D01*
X88948753Y-96954000D01*
X88534747Y-96954000D01*
X88527855Y-96956855D01*
X88525000Y-96963747D01*
X88525000Y-96989068D01*
X88129015Y-96989068D01*
X88129359Y-96985872D01*
X88129359Y-96985865D01*
X88129500Y-96984557D01*
X88129499Y-96436253D01*
X88525000Y-96436253D01*
X88527855Y-96443145D01*
X88534747Y-96446000D01*
X88948753Y-96446000D01*
X88955645Y-96443145D01*
X88958500Y-96436253D01*
X89466500Y-96436253D01*
X89469355Y-96443145D01*
X89476247Y-96446000D01*
X89890253Y-96446000D01*
X89897145Y-96443145D01*
X89900000Y-96436253D01*
X89900000Y-96410932D01*
X89899894Y-96408666D01*
X89897507Y-96383212D01*
X89896244Y-96377431D01*
X89854883Y-96259227D01*
X89851489Y-96252806D01*
X89777535Y-96152601D01*
X89772399Y-96147465D01*
X89672194Y-96073511D01*
X89665773Y-96070117D01*
X89547569Y-96028756D01*
X89541788Y-96027493D01*
X89516334Y-96025106D01*
X89514068Y-96025000D01*
X89476247Y-96025000D01*
X89469355Y-96027855D01*
X89466500Y-96034747D01*
X89466500Y-96436253D01*
X88958500Y-96436253D01*
X88958500Y-96034747D01*
X88955645Y-96027855D01*
X88948753Y-96025000D01*
X88910932Y-96025000D01*
X88908666Y-96025106D01*
X88883212Y-96027493D01*
X88877431Y-96028756D01*
X88759227Y-96070117D01*
X88752806Y-96073511D01*
X88652601Y-96147465D01*
X88647465Y-96152601D01*
X88573511Y-96252806D01*
X88570117Y-96259227D01*
X88528756Y-96377431D01*
X88527493Y-96383212D01*
X88525106Y-96408666D01*
X88525000Y-96410932D01*
X88525000Y-96436253D01*
X88129499Y-96436253D01*
X88129499Y-96415444D01*
X88128771Y-96408666D01*
X88123528Y-96359897D01*
X88123200Y-96356843D01*
X88073758Y-96224285D01*
X88058000Y-96203234D01*
X88051773Y-96194916D01*
X88042000Y-96165552D01*
X88042000Y-95186138D01*
X88056352Y-95151490D01*
X88061636Y-95146911D01*
X88107600Y-95112503D01*
X88110404Y-95110404D01*
X88141520Y-95068837D01*
X88195242Y-94997073D01*
X88195243Y-94997070D01*
X88197342Y-94994267D01*
X88248040Y-94858342D01*
X88248369Y-94855288D01*
X88253983Y-94803065D01*
X89600001Y-94803065D01*
X89600107Y-94805335D01*
X89602573Y-94831638D01*
X89603835Y-94837418D01*
X89646441Y-94959180D01*
X89649835Y-94965601D01*
X89726027Y-95068837D01*
X89731163Y-95073973D01*
X89834399Y-95150165D01*
X89840820Y-95153559D01*
X89962581Y-95196164D01*
X89968362Y-95197427D01*
X89994667Y-95199894D01*
X89996933Y-95200000D01*
X90198753Y-95200000D01*
X90205645Y-95197145D01*
X90208500Y-95190253D01*
X90208500Y-95190252D01*
X90716500Y-95190252D01*
X90719355Y-95197144D01*
X90726247Y-95199999D01*
X90928065Y-95199999D01*
X90930335Y-95199893D01*
X90956638Y-95197427D01*
X90962418Y-95196165D01*
X91084180Y-95153559D01*
X91090601Y-95150165D01*
X91193837Y-95073973D01*
X91198973Y-95068837D01*
X91275165Y-94965601D01*
X91278559Y-94959180D01*
X91321164Y-94837419D01*
X91322427Y-94831638D01*
X91324894Y-94805333D01*
X91325000Y-94803067D01*
X91325000Y-94363747D01*
X91322145Y-94356855D01*
X91315253Y-94354000D01*
X90726247Y-94354000D01*
X90719355Y-94356855D01*
X90716500Y-94363747D01*
X90716500Y-95190252D01*
X90208500Y-95190252D01*
X90208500Y-94363747D01*
X90205645Y-94356855D01*
X90198753Y-94354000D01*
X89609748Y-94354000D01*
X89602856Y-94356855D01*
X89600001Y-94363747D01*
X89600001Y-94803065D01*
X88253983Y-94803065D01*
X88254359Y-94799570D01*
X88254359Y-94799563D01*
X88254500Y-94798255D01*
X88254499Y-93836253D01*
X89600000Y-93836253D01*
X89602855Y-93843145D01*
X89609747Y-93846000D01*
X90198753Y-93846000D01*
X90205645Y-93843145D01*
X90208500Y-93836253D01*
X90716500Y-93836253D01*
X90719355Y-93843145D01*
X90726247Y-93846000D01*
X91315252Y-93846000D01*
X91322144Y-93843145D01*
X91324999Y-93836253D01*
X91324999Y-93396935D01*
X91324893Y-93394665D01*
X91322427Y-93368362D01*
X91321165Y-93362582D01*
X91278559Y-93240820D01*
X91275165Y-93234399D01*
X91198973Y-93131163D01*
X91193837Y-93126027D01*
X91090601Y-93049835D01*
X91084180Y-93046441D01*
X90962419Y-93003836D01*
X90956638Y-93002573D01*
X90930333Y-93000106D01*
X90928067Y-93000000D01*
X90726247Y-93000000D01*
X90719355Y-93002855D01*
X90716500Y-93009747D01*
X90716500Y-93836253D01*
X90208500Y-93836253D01*
X90208500Y-93009748D01*
X90205645Y-93002856D01*
X90198753Y-93000001D01*
X89996935Y-93000001D01*
X89994665Y-93000107D01*
X89968362Y-93002573D01*
X89962582Y-93003835D01*
X89840820Y-93046441D01*
X89834399Y-93049835D01*
X89731163Y-93126027D01*
X89726027Y-93131163D01*
X89649835Y-93234399D01*
X89646441Y-93240820D01*
X89603836Y-93362581D01*
X89602573Y-93368362D01*
X89600106Y-93394667D01*
X89600000Y-93396933D01*
X89600000Y-93836253D01*
X88254499Y-93836253D01*
X88254499Y-93401746D01*
X88250911Y-93368362D01*
X88248368Y-93344712D01*
X88248040Y-93341658D01*
X88197342Y-93205733D01*
X88195243Y-93202930D01*
X88195242Y-93202927D01*
X88112503Y-93092400D01*
X88110404Y-93089596D01*
X88043631Y-93039611D01*
X87997073Y-93004758D01*
X87997070Y-93004757D01*
X87994267Y-93002658D01*
X87894064Y-92965284D01*
X87861214Y-92953031D01*
X87861212Y-92953031D01*
X87858342Y-92951960D01*
X87855298Y-92951633D01*
X87855295Y-92951632D01*
X87799570Y-92945641D01*
X87799563Y-92945641D01*
X87798255Y-92945500D01*
X87453500Y-92945500D01*
X87418852Y-92931148D01*
X87404500Y-92896500D01*
X87404500Y-91514068D01*
X87575000Y-91514068D01*
X87575106Y-91516334D01*
X87577493Y-91541788D01*
X87578756Y-91547569D01*
X87620117Y-91665773D01*
X87623511Y-91672194D01*
X87697465Y-91772399D01*
X87702601Y-91777535D01*
X87802806Y-91851489D01*
X87809227Y-91854883D01*
X87927431Y-91896244D01*
X87933212Y-91897507D01*
X87958666Y-91899894D01*
X87960932Y-91900000D01*
X87986253Y-91900000D01*
X87993145Y-91897145D01*
X87996000Y-91890253D01*
X88504000Y-91890253D01*
X88506855Y-91897145D01*
X88513747Y-91900000D01*
X88539068Y-91900000D01*
X88541334Y-91899894D01*
X88566788Y-91897507D01*
X88572569Y-91896244D01*
X88690773Y-91854883D01*
X88697194Y-91851489D01*
X88797399Y-91777535D01*
X88802535Y-91772399D01*
X88876489Y-91672194D01*
X88879883Y-91665773D01*
X88921244Y-91547569D01*
X88922507Y-91541788D01*
X88924894Y-91516334D01*
X88925000Y-91514068D01*
X88925000Y-91426247D01*
X88922145Y-91419355D01*
X88915253Y-91416500D01*
X88513747Y-91416500D01*
X88506855Y-91419355D01*
X88504000Y-91426247D01*
X88504000Y-91890253D01*
X87996000Y-91890253D01*
X87996000Y-91426247D01*
X87993145Y-91419355D01*
X87986253Y-91416500D01*
X87584747Y-91416500D01*
X87577855Y-91419355D01*
X87575000Y-91426247D01*
X87575000Y-91514068D01*
X87404500Y-91514068D01*
X87404500Y-90449000D01*
X87418852Y-90414352D01*
X87453500Y-90400000D01*
X87753501Y-90400000D01*
X87788149Y-90414352D01*
G37*
G04 #@! TD.AperFunction*
M02*
