G04 #@! TF.GenerationSoftware,KiCad,Pcbnew,6.99.0-unknown-455e330f3b~148~ubuntu20.04.1*
G04 #@! TF.CreationDate,2022-04-21T17:09:55+05:30*
G04 #@! TF.ProjectId,aptx_headset,61707478-5f68-4656-9164-7365742e6b69,rev?*
G04 #@! TF.SameCoordinates,Original*
G04 #@! TF.FileFunction,Legend,Bot*
G04 #@! TF.FilePolarity,Positive*
%FSLAX46Y46*%
G04 Gerber Fmt 4.6, Leading zero omitted, Abs format (unit mm)*
G04 Created by KiCad (PCBNEW 6.99.0-unknown-455e330f3b~148~ubuntu20.04.1) date 2022-04-21 17:09:55*
%MOMM*%
%LPD*%
G01*
G04 APERTURE LIST*
G04 Aperture macros list*
%AMRoundRect*
0 Rectangle with rounded corners*
0 $1 Rounding radius*
0 $2 $3 $4 $5 $6 $7 $8 $9 X,Y pos of 4 corners*
0 Add a 4 corners polygon primitive as box body*
4,1,4,$2,$3,$4,$5,$6,$7,$8,$9,$2,$3,0*
0 Add four circle primitives for the rounded corners*
1,1,$1+$1,$2,$3*
1,1,$1+$1,$4,$5*
1,1,$1+$1,$6,$7*
1,1,$1+$1,$8,$9*
0 Add four rect primitives between the rounded corners*
20,1,$1+$1,$2,$3,$4,$5,0*
20,1,$1+$1,$4,$5,$6,$7,0*
20,1,$1+$1,$6,$7,$8,$9,0*
20,1,$1+$1,$8,$9,$2,$3,0*%
G04 Aperture macros list end*
%ADD10C,0.150000*%
%ADD11C,0.120000*%
%ADD12R,1.700000X1.700000*%
%ADD13O,1.700000X1.700000*%
%ADD14RoundRect,0.150000X0.825000X0.150000X-0.825000X0.150000X-0.825000X-0.150000X0.825000X-0.150000X0*%
%ADD15C,1.500000*%
%ADD16C,1.600000*%
%ADD17RoundRect,0.237500X-0.300000X-0.237500X0.300000X-0.237500X0.300000X0.237500X-0.300000X0.237500X0*%
%ADD18RoundRect,0.237500X-0.250000X-0.237500X0.250000X-0.237500X0.250000X0.237500X-0.250000X0.237500X0*%
%ADD19RoundRect,0.500000X-0.500000X-0.500000X0.500000X-0.500000X0.500000X0.500000X-0.500000X0.500000X0*%
%ADD20RoundRect,0.237500X-0.237500X0.250000X-0.237500X-0.250000X0.237500X-0.250000X0.237500X0.250000X0*%
%ADD21RoundRect,0.150000X-0.825000X-0.150000X0.825000X-0.150000X0.825000X0.150000X-0.825000X0.150000X0*%
%ADD22RoundRect,0.249999X-0.450001X-1.425001X0.450001X-1.425001X0.450001X1.425001X-0.450001X1.425001X0*%
%ADD23RoundRect,0.237500X0.237500X-0.300000X0.237500X0.300000X-0.237500X0.300000X-0.237500X-0.300000X0*%
%ADD24RoundRect,0.237500X0.237500X-0.250000X0.237500X0.250000X-0.237500X0.250000X-0.237500X-0.250000X0*%
%ADD25RoundRect,0.237500X-0.237500X0.300000X-0.237500X-0.300000X0.237500X-0.300000X0.237500X0.300000X0*%
%ADD26RoundRect,0.237500X0.250000X0.237500X-0.250000X0.237500X-0.250000X-0.237500X0.250000X-0.237500X0*%
G04 APERTURE END LIST*
D10*
X95916666Y-95652380D02*
X95916666Y-94652380D01*
X95916666Y-94652380D02*
X95583333Y-95366666D01*
X95583333Y-95366666D02*
X95250000Y-94652380D01*
X95250000Y-94652380D02*
X95250000Y-95652380D01*
X94916666Y-94652380D02*
X94345238Y-94652380D01*
X94630952Y-95652380D02*
X94630952Y-94652380D01*
X94011904Y-95128571D02*
X93678571Y-95128571D01*
X93535714Y-95652380D02*
X94011904Y-95652380D01*
X94011904Y-95652380D02*
X94011904Y-94652380D01*
X94011904Y-94652380D02*
X93535714Y-94652380D01*
X98485713Y-92152380D02*
X98485713Y-91152380D01*
X98485713Y-91152380D02*
X98104761Y-91152380D01*
X98104761Y-91152380D02*
X98009523Y-91200000D01*
X98009523Y-91200000D02*
X97961904Y-91247619D01*
X97961904Y-91247619D02*
X97914285Y-91342857D01*
X97914285Y-91342857D02*
X97914285Y-91485714D01*
X97914285Y-91485714D02*
X97961904Y-91580952D01*
X97961904Y-91580952D02*
X98009523Y-91628571D01*
X98009523Y-91628571D02*
X98104761Y-91676190D01*
X98104761Y-91676190D02*
X98485713Y-91676190D01*
X96771428Y-91104761D02*
X97628570Y-92390476D01*
X95866666Y-92057142D02*
X95914285Y-92104761D01*
X95914285Y-92104761D02*
X96057142Y-92152380D01*
X96057142Y-92152380D02*
X96152380Y-92152380D01*
X96152380Y-92152380D02*
X96295237Y-92104761D01*
X96295237Y-92104761D02*
X96390475Y-92009523D01*
X96390475Y-92009523D02*
X96438094Y-91914285D01*
X96438094Y-91914285D02*
X96485713Y-91723809D01*
X96485713Y-91723809D02*
X96485713Y-91580952D01*
X96485713Y-91580952D02*
X96438094Y-91390476D01*
X96438094Y-91390476D02*
X96390475Y-91295238D01*
X96390475Y-91295238D02*
X96295237Y-91200000D01*
X96295237Y-91200000D02*
X96152380Y-91152380D01*
X96152380Y-91152380D02*
X96057142Y-91152380D01*
X96057142Y-91152380D02*
X95914285Y-91200000D01*
X95914285Y-91200000D02*
X95866666Y-91247619D01*
X98490475Y-89402380D02*
X98490475Y-88402380D01*
X98490475Y-88402380D02*
X98109523Y-88402380D01*
X98109523Y-88402380D02*
X98014285Y-88450000D01*
X98014285Y-88450000D02*
X97966666Y-88497619D01*
X97966666Y-88497619D02*
X97919047Y-88592857D01*
X97919047Y-88592857D02*
X97919047Y-88735714D01*
X97919047Y-88735714D02*
X97966666Y-88830952D01*
X97966666Y-88830952D02*
X98014285Y-88878571D01*
X98014285Y-88878571D02*
X98109523Y-88926190D01*
X98109523Y-88926190D02*
X98490475Y-88926190D01*
X96919047Y-89402380D02*
X97252380Y-88926190D01*
X97490475Y-89402380D02*
X97490475Y-88402380D01*
X97490475Y-88402380D02*
X97109523Y-88402380D01*
X97109523Y-88402380D02*
X97014285Y-88450000D01*
X97014285Y-88450000D02*
X96966666Y-88497619D01*
X96966666Y-88497619D02*
X96919047Y-88592857D01*
X96919047Y-88592857D02*
X96919047Y-88735714D01*
X96919047Y-88735714D02*
X96966666Y-88830952D01*
X96966666Y-88830952D02*
X97014285Y-88878571D01*
X97014285Y-88878571D02*
X97109523Y-88926190D01*
X97109523Y-88926190D02*
X97490475Y-88926190D01*
X96633332Y-88402380D02*
X96299999Y-89402380D01*
X96299999Y-89402380D02*
X95966666Y-88402380D01*
X98342856Y-85752380D02*
X98342856Y-84752380D01*
X98342856Y-84752380D02*
X97771428Y-85752380D01*
X97771428Y-85752380D02*
X97771428Y-84752380D01*
X97390475Y-84752380D02*
X96723809Y-85752380D01*
X96723809Y-84752380D02*
X97390475Y-85752380D01*
X96485713Y-84752380D02*
X95914285Y-84752380D01*
X96199999Y-85752380D02*
X96199999Y-84752380D01*
X99330951Y-80902380D02*
X98997618Y-81902380D01*
X98997618Y-81902380D02*
X98664285Y-80902380D01*
X98140475Y-80902380D02*
X97949999Y-80902380D01*
X97949999Y-80902380D02*
X97854761Y-80950000D01*
X97854761Y-80950000D02*
X97759523Y-81045238D01*
X97759523Y-81045238D02*
X97711904Y-81235714D01*
X97711904Y-81235714D02*
X97711904Y-81569047D01*
X97711904Y-81569047D02*
X97759523Y-81759523D01*
X97759523Y-81759523D02*
X97854761Y-81854761D01*
X97854761Y-81854761D02*
X97949999Y-81902380D01*
X97949999Y-81902380D02*
X98140475Y-81902380D01*
X98140475Y-81902380D02*
X98235713Y-81854761D01*
X98235713Y-81854761D02*
X98330951Y-81759523D01*
X98330951Y-81759523D02*
X98378570Y-81569047D01*
X98378570Y-81569047D02*
X98378570Y-81235714D01*
X98378570Y-81235714D02*
X98330951Y-81045238D01*
X98330951Y-81045238D02*
X98235713Y-80950000D01*
X98235713Y-80950000D02*
X98140475Y-80902380D01*
X96807142Y-81902380D02*
X97283332Y-81902380D01*
X97283332Y-81902380D02*
X97283332Y-80902380D01*
X96473808Y-81521428D02*
X95711904Y-81521428D01*
X99430951Y-77152380D02*
X99097618Y-78152380D01*
X99097618Y-78152380D02*
X98764285Y-77152380D01*
X98240475Y-77152380D02*
X98049999Y-77152380D01*
X98049999Y-77152380D02*
X97954761Y-77200000D01*
X97954761Y-77200000D02*
X97859523Y-77295238D01*
X97859523Y-77295238D02*
X97811904Y-77485714D01*
X97811904Y-77485714D02*
X97811904Y-77819047D01*
X97811904Y-77819047D02*
X97859523Y-78009523D01*
X97859523Y-78009523D02*
X97954761Y-78104761D01*
X97954761Y-78104761D02*
X98049999Y-78152380D01*
X98049999Y-78152380D02*
X98240475Y-78152380D01*
X98240475Y-78152380D02*
X98335713Y-78104761D01*
X98335713Y-78104761D02*
X98430951Y-78009523D01*
X98430951Y-78009523D02*
X98478570Y-77819047D01*
X98478570Y-77819047D02*
X98478570Y-77485714D01*
X98478570Y-77485714D02*
X98430951Y-77295238D01*
X98430951Y-77295238D02*
X98335713Y-77200000D01*
X98335713Y-77200000D02*
X98240475Y-77152380D01*
X96907142Y-78152380D02*
X97383332Y-78152380D01*
X97383332Y-78152380D02*
X97383332Y-77152380D01*
X96573808Y-77771428D02*
X95811904Y-77771428D01*
X96192856Y-78152380D02*
X96192856Y-77390476D01*
X106261904Y-95102380D02*
X106261904Y-95911904D01*
X106261904Y-95911904D02*
X106214285Y-96007142D01*
X106214285Y-96007142D02*
X106166666Y-96054761D01*
X106166666Y-96054761D02*
X106071428Y-96102380D01*
X106071428Y-96102380D02*
X105880952Y-96102380D01*
X105880952Y-96102380D02*
X105785714Y-96054761D01*
X105785714Y-96054761D02*
X105738095Y-96007142D01*
X105738095Y-96007142D02*
X105690476Y-95911904D01*
X105690476Y-95911904D02*
X105690476Y-95102380D01*
X104785714Y-95435714D02*
X104785714Y-96102380D01*
X105023809Y-95054761D02*
X105261904Y-95769047D01*
X105261904Y-95769047D02*
X104642857Y-95769047D01*
X122542857Y-98257142D02*
X122590476Y-98304761D01*
X122590476Y-98304761D02*
X122733333Y-98352380D01*
X122733333Y-98352380D02*
X122828571Y-98352380D01*
X122828571Y-98352380D02*
X122971428Y-98304761D01*
X122971428Y-98304761D02*
X123066666Y-98209523D01*
X123066666Y-98209523D02*
X123114285Y-98114285D01*
X123114285Y-98114285D02*
X123161904Y-97923809D01*
X123161904Y-97923809D02*
X123161904Y-97780952D01*
X123161904Y-97780952D02*
X123114285Y-97590476D01*
X123114285Y-97590476D02*
X123066666Y-97495238D01*
X123066666Y-97495238D02*
X122971428Y-97400000D01*
X122971428Y-97400000D02*
X122828571Y-97352380D01*
X122828571Y-97352380D02*
X122733333Y-97352380D01*
X122733333Y-97352380D02*
X122590476Y-97400000D01*
X122590476Y-97400000D02*
X122542857Y-97447619D01*
X121590476Y-98352380D02*
X122161904Y-98352380D01*
X121876190Y-98352380D02*
X121876190Y-97352380D01*
X121876190Y-97352380D02*
X121971428Y-97495238D01*
X121971428Y-97495238D02*
X122066666Y-97590476D01*
X122066666Y-97590476D02*
X122161904Y-97638095D01*
X121257142Y-97352380D02*
X120590476Y-97352380D01*
X120590476Y-97352380D02*
X121019047Y-98352380D01*
X109642857Y-91902380D02*
X109976190Y-91426190D01*
X110214285Y-91902380D02*
X110214285Y-90902380D01*
X110214285Y-90902380D02*
X109833333Y-90902380D01*
X109833333Y-90902380D02*
X109738095Y-90950000D01*
X109738095Y-90950000D02*
X109690476Y-90997619D01*
X109690476Y-90997619D02*
X109642857Y-91092857D01*
X109642857Y-91092857D02*
X109642857Y-91235714D01*
X109642857Y-91235714D02*
X109690476Y-91330952D01*
X109690476Y-91330952D02*
X109738095Y-91378571D01*
X109738095Y-91378571D02*
X109833333Y-91426190D01*
X109833333Y-91426190D02*
X110214285Y-91426190D01*
X108690476Y-91902380D02*
X109261904Y-91902380D01*
X108976190Y-91902380D02*
X108976190Y-90902380D01*
X108976190Y-90902380D02*
X109071428Y-91045238D01*
X109071428Y-91045238D02*
X109166666Y-91140476D01*
X109166666Y-91140476D02*
X109261904Y-91188095D01*
X108357142Y-90902380D02*
X107738095Y-90902380D01*
X107738095Y-90902380D02*
X108071428Y-91283333D01*
X108071428Y-91283333D02*
X107928571Y-91283333D01*
X107928571Y-91283333D02*
X107833333Y-91330952D01*
X107833333Y-91330952D02*
X107785714Y-91378571D01*
X107785714Y-91378571D02*
X107738095Y-91473809D01*
X107738095Y-91473809D02*
X107738095Y-91711904D01*
X107738095Y-91711904D02*
X107785714Y-91807142D01*
X107785714Y-91807142D02*
X107833333Y-91854761D01*
X107833333Y-91854761D02*
X107928571Y-91902380D01*
X107928571Y-91902380D02*
X108214285Y-91902380D01*
X108214285Y-91902380D02*
X108309523Y-91854761D01*
X108309523Y-91854761D02*
X108357142Y-91807142D01*
X89923809Y-76783332D02*
X89961904Y-76897618D01*
X89961904Y-76897618D02*
X89961904Y-77088094D01*
X89961904Y-77088094D02*
X89923809Y-77164285D01*
X89923809Y-77164285D02*
X89885714Y-77202380D01*
X89885714Y-77202380D02*
X89809523Y-77240475D01*
X89809523Y-77240475D02*
X89733333Y-77240475D01*
X89733333Y-77240475D02*
X89657142Y-77202380D01*
X89657142Y-77202380D02*
X89619047Y-77164285D01*
X89619047Y-77164285D02*
X89580952Y-77088094D01*
X89580952Y-77088094D02*
X89542857Y-76935713D01*
X89542857Y-76935713D02*
X89504761Y-76859523D01*
X89504761Y-76859523D02*
X89466666Y-76821428D01*
X89466666Y-76821428D02*
X89390476Y-76783332D01*
X89390476Y-76783332D02*
X89314285Y-76783332D01*
X89314285Y-76783332D02*
X89238095Y-76821428D01*
X89238095Y-76821428D02*
X89200000Y-76859523D01*
X89200000Y-76859523D02*
X89161904Y-76935713D01*
X89161904Y-76935713D02*
X89161904Y-77126190D01*
X89161904Y-77126190D02*
X89200000Y-77240475D01*
X89161904Y-77507142D02*
X89961904Y-77697618D01*
X89961904Y-77697618D02*
X89390476Y-77849999D01*
X89390476Y-77849999D02*
X89961904Y-78002380D01*
X89961904Y-78002380D02*
X89161904Y-78192857D01*
X89961904Y-78916666D02*
X89961904Y-78459523D01*
X89961904Y-78688095D02*
X89161904Y-78688095D01*
X89161904Y-78688095D02*
X89276190Y-78611904D01*
X89276190Y-78611904D02*
X89352380Y-78535714D01*
X89352380Y-78535714D02*
X89390476Y-78459523D01*
X89873809Y-87983332D02*
X89911904Y-88097618D01*
X89911904Y-88097618D02*
X89911904Y-88288094D01*
X89911904Y-88288094D02*
X89873809Y-88364285D01*
X89873809Y-88364285D02*
X89835714Y-88402380D01*
X89835714Y-88402380D02*
X89759523Y-88440475D01*
X89759523Y-88440475D02*
X89683333Y-88440475D01*
X89683333Y-88440475D02*
X89607142Y-88402380D01*
X89607142Y-88402380D02*
X89569047Y-88364285D01*
X89569047Y-88364285D02*
X89530952Y-88288094D01*
X89530952Y-88288094D02*
X89492857Y-88135713D01*
X89492857Y-88135713D02*
X89454761Y-88059523D01*
X89454761Y-88059523D02*
X89416666Y-88021428D01*
X89416666Y-88021428D02*
X89340476Y-87983332D01*
X89340476Y-87983332D02*
X89264285Y-87983332D01*
X89264285Y-87983332D02*
X89188095Y-88021428D01*
X89188095Y-88021428D02*
X89150000Y-88059523D01*
X89150000Y-88059523D02*
X89111904Y-88135713D01*
X89111904Y-88135713D02*
X89111904Y-88326190D01*
X89111904Y-88326190D02*
X89150000Y-88440475D01*
X89111904Y-88707142D02*
X89911904Y-88897618D01*
X89911904Y-88897618D02*
X89340476Y-89049999D01*
X89340476Y-89049999D02*
X89911904Y-89202380D01*
X89911904Y-89202380D02*
X89111904Y-89392857D01*
X89378571Y-90040476D02*
X89911904Y-90040476D01*
X89073809Y-89850000D02*
X89645238Y-89659523D01*
X89645238Y-89659523D02*
X89645238Y-90154762D01*
X89823809Y-95483332D02*
X89861904Y-95597618D01*
X89861904Y-95597618D02*
X89861904Y-95788094D01*
X89861904Y-95788094D02*
X89823809Y-95864285D01*
X89823809Y-95864285D02*
X89785714Y-95902380D01*
X89785714Y-95902380D02*
X89709523Y-95940475D01*
X89709523Y-95940475D02*
X89633333Y-95940475D01*
X89633333Y-95940475D02*
X89557142Y-95902380D01*
X89557142Y-95902380D02*
X89519047Y-95864285D01*
X89519047Y-95864285D02*
X89480952Y-95788094D01*
X89480952Y-95788094D02*
X89442857Y-95635713D01*
X89442857Y-95635713D02*
X89404761Y-95559523D01*
X89404761Y-95559523D02*
X89366666Y-95521428D01*
X89366666Y-95521428D02*
X89290476Y-95483332D01*
X89290476Y-95483332D02*
X89214285Y-95483332D01*
X89214285Y-95483332D02*
X89138095Y-95521428D01*
X89138095Y-95521428D02*
X89100000Y-95559523D01*
X89100000Y-95559523D02*
X89061904Y-95635713D01*
X89061904Y-95635713D02*
X89061904Y-95826190D01*
X89061904Y-95826190D02*
X89100000Y-95940475D01*
X89061904Y-96207142D02*
X89861904Y-96397618D01*
X89861904Y-96397618D02*
X89290476Y-96549999D01*
X89290476Y-96549999D02*
X89861904Y-96702380D01*
X89861904Y-96702380D02*
X89061904Y-96892857D01*
X89061904Y-97540476D02*
X89061904Y-97388095D01*
X89061904Y-97388095D02*
X89100000Y-97311904D01*
X89100000Y-97311904D02*
X89138095Y-97273809D01*
X89138095Y-97273809D02*
X89252380Y-97197619D01*
X89252380Y-97197619D02*
X89404761Y-97159523D01*
X89404761Y-97159523D02*
X89709523Y-97159523D01*
X89709523Y-97159523D02*
X89785714Y-97197619D01*
X89785714Y-97197619D02*
X89823809Y-97235714D01*
X89823809Y-97235714D02*
X89861904Y-97311904D01*
X89861904Y-97311904D02*
X89861904Y-97464285D01*
X89861904Y-97464285D02*
X89823809Y-97540476D01*
X89823809Y-97540476D02*
X89785714Y-97578571D01*
X89785714Y-97578571D02*
X89709523Y-97616666D01*
X89709523Y-97616666D02*
X89519047Y-97616666D01*
X89519047Y-97616666D02*
X89442857Y-97578571D01*
X89442857Y-97578571D02*
X89404761Y-97540476D01*
X89404761Y-97540476D02*
X89366666Y-97464285D01*
X89366666Y-97464285D02*
X89366666Y-97311904D01*
X89366666Y-97311904D02*
X89404761Y-97235714D01*
X89404761Y-97235714D02*
X89442857Y-97197619D01*
X89442857Y-97197619D02*
X89519047Y-97159523D01*
X101892857Y-90907142D02*
X101940476Y-90954761D01*
X101940476Y-90954761D02*
X102083333Y-91002380D01*
X102083333Y-91002380D02*
X102178571Y-91002380D01*
X102178571Y-91002380D02*
X102321428Y-90954761D01*
X102321428Y-90954761D02*
X102416666Y-90859523D01*
X102416666Y-90859523D02*
X102464285Y-90764285D01*
X102464285Y-90764285D02*
X102511904Y-90573809D01*
X102511904Y-90573809D02*
X102511904Y-90430952D01*
X102511904Y-90430952D02*
X102464285Y-90240476D01*
X102464285Y-90240476D02*
X102416666Y-90145238D01*
X102416666Y-90145238D02*
X102321428Y-90050000D01*
X102321428Y-90050000D02*
X102178571Y-90002380D01*
X102178571Y-90002380D02*
X102083333Y-90002380D01*
X102083333Y-90002380D02*
X101940476Y-90050000D01*
X101940476Y-90050000D02*
X101892857Y-90097619D01*
X101511904Y-90097619D02*
X101464285Y-90050000D01*
X101464285Y-90050000D02*
X101369047Y-90002380D01*
X101369047Y-90002380D02*
X101130952Y-90002380D01*
X101130952Y-90002380D02*
X101035714Y-90050000D01*
X101035714Y-90050000D02*
X100988095Y-90097619D01*
X100988095Y-90097619D02*
X100940476Y-90192857D01*
X100940476Y-90192857D02*
X100940476Y-90288095D01*
X100940476Y-90288095D02*
X100988095Y-90430952D01*
X100988095Y-90430952D02*
X101559523Y-91002380D01*
X101559523Y-91002380D02*
X100940476Y-91002380D01*
X100321428Y-90002380D02*
X100226190Y-90002380D01*
X100226190Y-90002380D02*
X100130952Y-90050000D01*
X100130952Y-90050000D02*
X100083333Y-90097619D01*
X100083333Y-90097619D02*
X100035714Y-90192857D01*
X100035714Y-90192857D02*
X99988095Y-90383333D01*
X99988095Y-90383333D02*
X99988095Y-90621428D01*
X99988095Y-90621428D02*
X100035714Y-90811904D01*
X100035714Y-90811904D02*
X100083333Y-90907142D01*
X100083333Y-90907142D02*
X100130952Y-90954761D01*
X100130952Y-90954761D02*
X100226190Y-91002380D01*
X100226190Y-91002380D02*
X100321428Y-91002380D01*
X100321428Y-91002380D02*
X100416666Y-90954761D01*
X100416666Y-90954761D02*
X100464285Y-90907142D01*
X100464285Y-90907142D02*
X100511904Y-90811904D01*
X100511904Y-90811904D02*
X100559523Y-90621428D01*
X100559523Y-90621428D02*
X100559523Y-90383333D01*
X100559523Y-90383333D02*
X100511904Y-90192857D01*
X100511904Y-90192857D02*
X100464285Y-90097619D01*
X100464285Y-90097619D02*
X100416666Y-90050000D01*
X100416666Y-90050000D02*
X100321428Y-90002380D01*
X89873809Y-84233332D02*
X89911904Y-84347618D01*
X89911904Y-84347618D02*
X89911904Y-84538094D01*
X89911904Y-84538094D02*
X89873809Y-84614285D01*
X89873809Y-84614285D02*
X89835714Y-84652380D01*
X89835714Y-84652380D02*
X89759523Y-84690475D01*
X89759523Y-84690475D02*
X89683333Y-84690475D01*
X89683333Y-84690475D02*
X89607142Y-84652380D01*
X89607142Y-84652380D02*
X89569047Y-84614285D01*
X89569047Y-84614285D02*
X89530952Y-84538094D01*
X89530952Y-84538094D02*
X89492857Y-84385713D01*
X89492857Y-84385713D02*
X89454761Y-84309523D01*
X89454761Y-84309523D02*
X89416666Y-84271428D01*
X89416666Y-84271428D02*
X89340476Y-84233332D01*
X89340476Y-84233332D02*
X89264285Y-84233332D01*
X89264285Y-84233332D02*
X89188095Y-84271428D01*
X89188095Y-84271428D02*
X89150000Y-84309523D01*
X89150000Y-84309523D02*
X89111904Y-84385713D01*
X89111904Y-84385713D02*
X89111904Y-84576190D01*
X89111904Y-84576190D02*
X89150000Y-84690475D01*
X89111904Y-84957142D02*
X89911904Y-85147618D01*
X89911904Y-85147618D02*
X89340476Y-85299999D01*
X89340476Y-85299999D02*
X89911904Y-85452380D01*
X89911904Y-85452380D02*
X89111904Y-85642857D01*
X89111904Y-85871428D02*
X89111904Y-86366666D01*
X89111904Y-86366666D02*
X89416666Y-86100000D01*
X89416666Y-86100000D02*
X89416666Y-86214285D01*
X89416666Y-86214285D02*
X89454761Y-86290476D01*
X89454761Y-86290476D02*
X89492857Y-86328571D01*
X89492857Y-86328571D02*
X89569047Y-86366666D01*
X89569047Y-86366666D02*
X89759523Y-86366666D01*
X89759523Y-86366666D02*
X89835714Y-86328571D01*
X89835714Y-86328571D02*
X89873809Y-86290476D01*
X89873809Y-86290476D02*
X89911904Y-86214285D01*
X89911904Y-86214285D02*
X89911904Y-85985714D01*
X89911904Y-85985714D02*
X89873809Y-85909523D01*
X89873809Y-85909523D02*
X89835714Y-85871428D01*
X98892857Y-94652380D02*
X99226190Y-94176190D01*
X99464285Y-94652380D02*
X99464285Y-93652380D01*
X99464285Y-93652380D02*
X99083333Y-93652380D01*
X99083333Y-93652380D02*
X98988095Y-93700000D01*
X98988095Y-93700000D02*
X98940476Y-93747619D01*
X98940476Y-93747619D02*
X98892857Y-93842857D01*
X98892857Y-93842857D02*
X98892857Y-93985714D01*
X98892857Y-93985714D02*
X98940476Y-94080952D01*
X98940476Y-94080952D02*
X98988095Y-94128571D01*
X98988095Y-94128571D02*
X99083333Y-94176190D01*
X99083333Y-94176190D02*
X99464285Y-94176190D01*
X98511904Y-93747619D02*
X98464285Y-93700000D01*
X98464285Y-93700000D02*
X98369047Y-93652380D01*
X98369047Y-93652380D02*
X98130952Y-93652380D01*
X98130952Y-93652380D02*
X98035714Y-93700000D01*
X98035714Y-93700000D02*
X97988095Y-93747619D01*
X97988095Y-93747619D02*
X97940476Y-93842857D01*
X97940476Y-93842857D02*
X97940476Y-93938095D01*
X97940476Y-93938095D02*
X97988095Y-94080952D01*
X97988095Y-94080952D02*
X98559523Y-94652380D01*
X98559523Y-94652380D02*
X97940476Y-94652380D01*
X97607142Y-93652380D02*
X96988095Y-93652380D01*
X96988095Y-93652380D02*
X97321428Y-94033333D01*
X97321428Y-94033333D02*
X97178571Y-94033333D01*
X97178571Y-94033333D02*
X97083333Y-94080952D01*
X97083333Y-94080952D02*
X97035714Y-94128571D01*
X97035714Y-94128571D02*
X96988095Y-94223809D01*
X96988095Y-94223809D02*
X96988095Y-94461904D01*
X96988095Y-94461904D02*
X97035714Y-94557142D01*
X97035714Y-94557142D02*
X97083333Y-94604761D01*
X97083333Y-94604761D02*
X97178571Y-94652380D01*
X97178571Y-94652380D02*
X97464285Y-94652380D01*
X97464285Y-94652380D02*
X97559523Y-94604761D01*
X97559523Y-94604761D02*
X97607142Y-94557142D01*
X122711904Y-77502380D02*
X122711904Y-78311904D01*
X122711904Y-78311904D02*
X122664285Y-78407142D01*
X122664285Y-78407142D02*
X122616666Y-78454761D01*
X122616666Y-78454761D02*
X122521428Y-78502380D01*
X122521428Y-78502380D02*
X122330952Y-78502380D01*
X122330952Y-78502380D02*
X122235714Y-78454761D01*
X122235714Y-78454761D02*
X122188095Y-78407142D01*
X122188095Y-78407142D02*
X122140476Y-78311904D01*
X122140476Y-78311904D02*
X122140476Y-77502380D01*
X121140476Y-78502380D02*
X121711904Y-78502380D01*
X121426190Y-78502380D02*
X121426190Y-77502380D01*
X121426190Y-77502380D02*
X121521428Y-77645238D01*
X121521428Y-77645238D02*
X121616666Y-77740476D01*
X121616666Y-77740476D02*
X121711904Y-77788095D01*
X121366666Y-80957142D02*
X121414285Y-81004761D01*
X121414285Y-81004761D02*
X121557142Y-81052380D01*
X121557142Y-81052380D02*
X121652380Y-81052380D01*
X121652380Y-81052380D02*
X121795237Y-81004761D01*
X121795237Y-81004761D02*
X121890475Y-80909523D01*
X121890475Y-80909523D02*
X121938094Y-80814285D01*
X121938094Y-80814285D02*
X121985713Y-80623809D01*
X121985713Y-80623809D02*
X121985713Y-80480952D01*
X121985713Y-80480952D02*
X121938094Y-80290476D01*
X121938094Y-80290476D02*
X121890475Y-80195238D01*
X121890475Y-80195238D02*
X121795237Y-80100000D01*
X121795237Y-80100000D02*
X121652380Y-80052380D01*
X121652380Y-80052380D02*
X121557142Y-80052380D01*
X121557142Y-80052380D02*
X121414285Y-80100000D01*
X121414285Y-80100000D02*
X121366666Y-80147619D01*
X121033332Y-80052380D02*
X120366666Y-80052380D01*
X120366666Y-80052380D02*
X120795237Y-81052380D01*
X137342857Y-81302380D02*
X137676190Y-80826190D01*
X137914285Y-81302380D02*
X137914285Y-80302380D01*
X137914285Y-80302380D02*
X137533333Y-80302380D01*
X137533333Y-80302380D02*
X137438095Y-80350000D01*
X137438095Y-80350000D02*
X137390476Y-80397619D01*
X137390476Y-80397619D02*
X137342857Y-80492857D01*
X137342857Y-80492857D02*
X137342857Y-80635714D01*
X137342857Y-80635714D02*
X137390476Y-80730952D01*
X137390476Y-80730952D02*
X137438095Y-80778571D01*
X137438095Y-80778571D02*
X137533333Y-80826190D01*
X137533333Y-80826190D02*
X137914285Y-80826190D01*
X136390476Y-81302380D02*
X136961904Y-81302380D01*
X136676190Y-81302380D02*
X136676190Y-80302380D01*
X136676190Y-80302380D02*
X136771428Y-80445238D01*
X136771428Y-80445238D02*
X136866666Y-80540476D01*
X136866666Y-80540476D02*
X136961904Y-80588095D01*
X135771428Y-80302380D02*
X135676190Y-80302380D01*
X135676190Y-80302380D02*
X135580952Y-80350000D01*
X135580952Y-80350000D02*
X135533333Y-80397619D01*
X135533333Y-80397619D02*
X135485714Y-80492857D01*
X135485714Y-80492857D02*
X135438095Y-80683333D01*
X135438095Y-80683333D02*
X135438095Y-80921428D01*
X135438095Y-80921428D02*
X135485714Y-81111904D01*
X135485714Y-81111904D02*
X135533333Y-81207142D01*
X135533333Y-81207142D02*
X135580952Y-81254761D01*
X135580952Y-81254761D02*
X135676190Y-81302380D01*
X135676190Y-81302380D02*
X135771428Y-81302380D01*
X135771428Y-81302380D02*
X135866666Y-81254761D01*
X135866666Y-81254761D02*
X135914285Y-81207142D01*
X135914285Y-81207142D02*
X135961904Y-81111904D01*
X135961904Y-81111904D02*
X136009523Y-80921428D01*
X136009523Y-80921428D02*
X136009523Y-80683333D01*
X136009523Y-80683333D02*
X135961904Y-80492857D01*
X135961904Y-80492857D02*
X135914285Y-80397619D01*
X135914285Y-80397619D02*
X135866666Y-80350000D01*
X135866666Y-80350000D02*
X135771428Y-80302380D01*
X137292857Y-90002380D02*
X137626190Y-89526190D01*
X137864285Y-90002380D02*
X137864285Y-89002380D01*
X137864285Y-89002380D02*
X137483333Y-89002380D01*
X137483333Y-89002380D02*
X137388095Y-89050000D01*
X137388095Y-89050000D02*
X137340476Y-89097619D01*
X137340476Y-89097619D02*
X137292857Y-89192857D01*
X137292857Y-89192857D02*
X137292857Y-89335714D01*
X137292857Y-89335714D02*
X137340476Y-89430952D01*
X137340476Y-89430952D02*
X137388095Y-89478571D01*
X137388095Y-89478571D02*
X137483333Y-89526190D01*
X137483333Y-89526190D02*
X137864285Y-89526190D01*
X136340476Y-90002380D02*
X136911904Y-90002380D01*
X136626190Y-90002380D02*
X136626190Y-89002380D01*
X136626190Y-89002380D02*
X136721428Y-89145238D01*
X136721428Y-89145238D02*
X136816666Y-89240476D01*
X136816666Y-89240476D02*
X136911904Y-89288095D01*
X135483333Y-89335714D02*
X135483333Y-90002380D01*
X135721428Y-88954761D02*
X135959523Y-89669047D01*
X135959523Y-89669047D02*
X135340476Y-89669047D01*
X89923809Y-91683332D02*
X89961904Y-91797618D01*
X89961904Y-91797618D02*
X89961904Y-91988094D01*
X89961904Y-91988094D02*
X89923809Y-92064285D01*
X89923809Y-92064285D02*
X89885714Y-92102380D01*
X89885714Y-92102380D02*
X89809523Y-92140475D01*
X89809523Y-92140475D02*
X89733333Y-92140475D01*
X89733333Y-92140475D02*
X89657142Y-92102380D01*
X89657142Y-92102380D02*
X89619047Y-92064285D01*
X89619047Y-92064285D02*
X89580952Y-91988094D01*
X89580952Y-91988094D02*
X89542857Y-91835713D01*
X89542857Y-91835713D02*
X89504761Y-91759523D01*
X89504761Y-91759523D02*
X89466666Y-91721428D01*
X89466666Y-91721428D02*
X89390476Y-91683332D01*
X89390476Y-91683332D02*
X89314285Y-91683332D01*
X89314285Y-91683332D02*
X89238095Y-91721428D01*
X89238095Y-91721428D02*
X89200000Y-91759523D01*
X89200000Y-91759523D02*
X89161904Y-91835713D01*
X89161904Y-91835713D02*
X89161904Y-92026190D01*
X89161904Y-92026190D02*
X89200000Y-92140475D01*
X89161904Y-92407142D02*
X89961904Y-92597618D01*
X89961904Y-92597618D02*
X89390476Y-92749999D01*
X89390476Y-92749999D02*
X89961904Y-92902380D01*
X89961904Y-92902380D02*
X89161904Y-93092857D01*
X89161904Y-93778571D02*
X89161904Y-93397619D01*
X89161904Y-93397619D02*
X89542857Y-93359523D01*
X89542857Y-93359523D02*
X89504761Y-93397619D01*
X89504761Y-93397619D02*
X89466666Y-93473809D01*
X89466666Y-93473809D02*
X89466666Y-93664285D01*
X89466666Y-93664285D02*
X89504761Y-93740476D01*
X89504761Y-93740476D02*
X89542857Y-93778571D01*
X89542857Y-93778571D02*
X89619047Y-93816666D01*
X89619047Y-93816666D02*
X89809523Y-93816666D01*
X89809523Y-93816666D02*
X89885714Y-93778571D01*
X89885714Y-93778571D02*
X89923809Y-93740476D01*
X89923809Y-93740476D02*
X89961904Y-93664285D01*
X89961904Y-93664285D02*
X89961904Y-93473809D01*
X89961904Y-93473809D02*
X89923809Y-93397619D01*
X89923809Y-93397619D02*
X89885714Y-93359523D01*
X122811904Y-93902380D02*
X122811904Y-94711904D01*
X122811904Y-94711904D02*
X122764285Y-94807142D01*
X122764285Y-94807142D02*
X122716666Y-94854761D01*
X122716666Y-94854761D02*
X122621428Y-94902380D01*
X122621428Y-94902380D02*
X122430952Y-94902380D01*
X122430952Y-94902380D02*
X122335714Y-94854761D01*
X122335714Y-94854761D02*
X122288095Y-94807142D01*
X122288095Y-94807142D02*
X122240476Y-94711904D01*
X122240476Y-94711904D02*
X122240476Y-93902380D01*
X121859523Y-93902380D02*
X121240476Y-93902380D01*
X121240476Y-93902380D02*
X121573809Y-94283333D01*
X121573809Y-94283333D02*
X121430952Y-94283333D01*
X121430952Y-94283333D02*
X121335714Y-94330952D01*
X121335714Y-94330952D02*
X121288095Y-94378571D01*
X121288095Y-94378571D02*
X121240476Y-94473809D01*
X121240476Y-94473809D02*
X121240476Y-94711904D01*
X121240476Y-94711904D02*
X121288095Y-94807142D01*
X121288095Y-94807142D02*
X121335714Y-94854761D01*
X121335714Y-94854761D02*
X121430952Y-94902380D01*
X121430952Y-94902380D02*
X121716666Y-94902380D01*
X121716666Y-94902380D02*
X121811904Y-94854761D01*
X121811904Y-94854761D02*
X121859523Y-94807142D01*
X90023809Y-80533332D02*
X90061904Y-80647618D01*
X90061904Y-80647618D02*
X90061904Y-80838094D01*
X90061904Y-80838094D02*
X90023809Y-80914285D01*
X90023809Y-80914285D02*
X89985714Y-80952380D01*
X89985714Y-80952380D02*
X89909523Y-80990475D01*
X89909523Y-80990475D02*
X89833333Y-80990475D01*
X89833333Y-80990475D02*
X89757142Y-80952380D01*
X89757142Y-80952380D02*
X89719047Y-80914285D01*
X89719047Y-80914285D02*
X89680952Y-80838094D01*
X89680952Y-80838094D02*
X89642857Y-80685713D01*
X89642857Y-80685713D02*
X89604761Y-80609523D01*
X89604761Y-80609523D02*
X89566666Y-80571428D01*
X89566666Y-80571428D02*
X89490476Y-80533332D01*
X89490476Y-80533332D02*
X89414285Y-80533332D01*
X89414285Y-80533332D02*
X89338095Y-80571428D01*
X89338095Y-80571428D02*
X89300000Y-80609523D01*
X89300000Y-80609523D02*
X89261904Y-80685713D01*
X89261904Y-80685713D02*
X89261904Y-80876190D01*
X89261904Y-80876190D02*
X89300000Y-80990475D01*
X89261904Y-81257142D02*
X90061904Y-81447618D01*
X90061904Y-81447618D02*
X89490476Y-81599999D01*
X89490476Y-81599999D02*
X90061904Y-81752380D01*
X90061904Y-81752380D02*
X89261904Y-81942857D01*
X89338095Y-82209523D02*
X89300000Y-82247619D01*
X89300000Y-82247619D02*
X89261904Y-82323809D01*
X89261904Y-82323809D02*
X89261904Y-82514285D01*
X89261904Y-82514285D02*
X89300000Y-82590476D01*
X89300000Y-82590476D02*
X89338095Y-82628571D01*
X89338095Y-82628571D02*
X89414285Y-82666666D01*
X89414285Y-82666666D02*
X89490476Y-82666666D01*
X89490476Y-82666666D02*
X89604761Y-82628571D01*
X89604761Y-82628571D02*
X90061904Y-82171428D01*
X90061904Y-82171428D02*
X90061904Y-82666666D01*
X136616666Y-76902380D02*
X136949999Y-76426190D01*
X137188094Y-76902380D02*
X137188094Y-75902380D01*
X137188094Y-75902380D02*
X136807142Y-75902380D01*
X136807142Y-75902380D02*
X136711904Y-75950000D01*
X136711904Y-75950000D02*
X136664285Y-75997619D01*
X136664285Y-75997619D02*
X136616666Y-76092857D01*
X136616666Y-76092857D02*
X136616666Y-76235714D01*
X136616666Y-76235714D02*
X136664285Y-76330952D01*
X136664285Y-76330952D02*
X136711904Y-76378571D01*
X136711904Y-76378571D02*
X136807142Y-76426190D01*
X136807142Y-76426190D02*
X137188094Y-76426190D01*
X136283332Y-75902380D02*
X135616666Y-75902380D01*
X135616666Y-75902380D02*
X136045237Y-76902380D01*
X115892857Y-99852380D02*
X116226190Y-99376190D01*
X116464285Y-99852380D02*
X116464285Y-98852380D01*
X116464285Y-98852380D02*
X116083333Y-98852380D01*
X116083333Y-98852380D02*
X115988095Y-98900000D01*
X115988095Y-98900000D02*
X115940476Y-98947619D01*
X115940476Y-98947619D02*
X115892857Y-99042857D01*
X115892857Y-99042857D02*
X115892857Y-99185714D01*
X115892857Y-99185714D02*
X115940476Y-99280952D01*
X115940476Y-99280952D02*
X115988095Y-99328571D01*
X115988095Y-99328571D02*
X116083333Y-99376190D01*
X116083333Y-99376190D02*
X116464285Y-99376190D01*
X115511904Y-98947619D02*
X115464285Y-98900000D01*
X115464285Y-98900000D02*
X115369047Y-98852380D01*
X115369047Y-98852380D02*
X115130952Y-98852380D01*
X115130952Y-98852380D02*
X115035714Y-98900000D01*
X115035714Y-98900000D02*
X114988095Y-98947619D01*
X114988095Y-98947619D02*
X114940476Y-99042857D01*
X114940476Y-99042857D02*
X114940476Y-99138095D01*
X114940476Y-99138095D02*
X114988095Y-99280952D01*
X114988095Y-99280952D02*
X115559523Y-99852380D01*
X115559523Y-99852380D02*
X114940476Y-99852380D01*
X114321428Y-98852380D02*
X114226190Y-98852380D01*
X114226190Y-98852380D02*
X114130952Y-98900000D01*
X114130952Y-98900000D02*
X114083333Y-98947619D01*
X114083333Y-98947619D02*
X114035714Y-99042857D01*
X114035714Y-99042857D02*
X113988095Y-99233333D01*
X113988095Y-99233333D02*
X113988095Y-99471428D01*
X113988095Y-99471428D02*
X114035714Y-99661904D01*
X114035714Y-99661904D02*
X114083333Y-99757142D01*
X114083333Y-99757142D02*
X114130952Y-99804761D01*
X114130952Y-99804761D02*
X114226190Y-99852380D01*
X114226190Y-99852380D02*
X114321428Y-99852380D01*
X114321428Y-99852380D02*
X114416666Y-99804761D01*
X114416666Y-99804761D02*
X114464285Y-99757142D01*
X114464285Y-99757142D02*
X114511904Y-99661904D01*
X114511904Y-99661904D02*
X114559523Y-99471428D01*
X114559523Y-99471428D02*
X114559523Y-99233333D01*
X114559523Y-99233333D02*
X114511904Y-99042857D01*
X114511904Y-99042857D02*
X114464285Y-98947619D01*
X114464285Y-98947619D02*
X114416666Y-98900000D01*
X114416666Y-98900000D02*
X114321428Y-98852380D01*
X116342857Y-92852380D02*
X116676190Y-92376190D01*
X116914285Y-92852380D02*
X116914285Y-91852380D01*
X116914285Y-91852380D02*
X116533333Y-91852380D01*
X116533333Y-91852380D02*
X116438095Y-91900000D01*
X116438095Y-91900000D02*
X116390476Y-91947619D01*
X116390476Y-91947619D02*
X116342857Y-92042857D01*
X116342857Y-92042857D02*
X116342857Y-92185714D01*
X116342857Y-92185714D02*
X116390476Y-92280952D01*
X116390476Y-92280952D02*
X116438095Y-92328571D01*
X116438095Y-92328571D02*
X116533333Y-92376190D01*
X116533333Y-92376190D02*
X116914285Y-92376190D01*
X115390476Y-92852380D02*
X115961904Y-92852380D01*
X115676190Y-92852380D02*
X115676190Y-91852380D01*
X115676190Y-91852380D02*
X115771428Y-91995238D01*
X115771428Y-91995238D02*
X115866666Y-92090476D01*
X115866666Y-92090476D02*
X115961904Y-92138095D01*
X114485714Y-91852380D02*
X114961904Y-91852380D01*
X114961904Y-91852380D02*
X115009523Y-92328571D01*
X115009523Y-92328571D02*
X114961904Y-92280952D01*
X114961904Y-92280952D02*
X114866666Y-92233333D01*
X114866666Y-92233333D02*
X114628571Y-92233333D01*
X114628571Y-92233333D02*
X114533333Y-92280952D01*
X114533333Y-92280952D02*
X114485714Y-92328571D01*
X114485714Y-92328571D02*
X114438095Y-92423809D01*
X114438095Y-92423809D02*
X114438095Y-92661904D01*
X114438095Y-92661904D02*
X114485714Y-92757142D01*
X114485714Y-92757142D02*
X114533333Y-92804761D01*
X114533333Y-92804761D02*
X114628571Y-92852380D01*
X114628571Y-92852380D02*
X114866666Y-92852380D01*
X114866666Y-92852380D02*
X114961904Y-92804761D01*
X114961904Y-92804761D02*
X115009523Y-92757142D01*
X115616666Y-82902380D02*
X115949999Y-82426190D01*
X116188094Y-82902380D02*
X116188094Y-81902380D01*
X116188094Y-81902380D02*
X115807142Y-81902380D01*
X115807142Y-81902380D02*
X115711904Y-81950000D01*
X115711904Y-81950000D02*
X115664285Y-81997619D01*
X115664285Y-81997619D02*
X115616666Y-82092857D01*
X115616666Y-82092857D02*
X115616666Y-82235714D01*
X115616666Y-82235714D02*
X115664285Y-82330952D01*
X115664285Y-82330952D02*
X115711904Y-82378571D01*
X115711904Y-82378571D02*
X115807142Y-82426190D01*
X115807142Y-82426190D02*
X116188094Y-82426190D01*
X115140475Y-82902380D02*
X114949999Y-82902380D01*
X114949999Y-82902380D02*
X114854761Y-82854761D01*
X114854761Y-82854761D02*
X114807142Y-82807142D01*
X114807142Y-82807142D02*
X114711904Y-82664285D01*
X114711904Y-82664285D02*
X114664285Y-82473809D01*
X114664285Y-82473809D02*
X114664285Y-82092857D01*
X114664285Y-82092857D02*
X114711904Y-81997619D01*
X114711904Y-81997619D02*
X114759523Y-81950000D01*
X114759523Y-81950000D02*
X114854761Y-81902380D01*
X114854761Y-81902380D02*
X115045237Y-81902380D01*
X115045237Y-81902380D02*
X115140475Y-81950000D01*
X115140475Y-81950000D02*
X115188094Y-81997619D01*
X115188094Y-81997619D02*
X115235713Y-82092857D01*
X115235713Y-82092857D02*
X115235713Y-82330952D01*
X115235713Y-82330952D02*
X115188094Y-82426190D01*
X115188094Y-82426190D02*
X115140475Y-82473809D01*
X115140475Y-82473809D02*
X115045237Y-82521428D01*
X115045237Y-82521428D02*
X114854761Y-82521428D01*
X114854761Y-82521428D02*
X114759523Y-82473809D01*
X114759523Y-82473809D02*
X114711904Y-82426190D01*
X114711904Y-82426190D02*
X114664285Y-82330952D01*
X95566666Y-97602380D02*
X96042856Y-97602380D01*
X96042856Y-97602380D02*
X96042856Y-96602380D01*
X95280951Y-96697619D02*
X95233332Y-96650000D01*
X95233332Y-96650000D02*
X95138094Y-96602380D01*
X95138094Y-96602380D02*
X94899999Y-96602380D01*
X94899999Y-96602380D02*
X94804761Y-96650000D01*
X94804761Y-96650000D02*
X94757142Y-96697619D01*
X94757142Y-96697619D02*
X94709523Y-96792857D01*
X94709523Y-96792857D02*
X94709523Y-96888095D01*
X94709523Y-96888095D02*
X94757142Y-97030952D01*
X94757142Y-97030952D02*
X95328570Y-97602380D01*
X95328570Y-97602380D02*
X94709523Y-97602380D01*
X117416666Y-73052380D02*
X117749999Y-72576190D01*
X117988094Y-73052380D02*
X117988094Y-72052380D01*
X117988094Y-72052380D02*
X117607142Y-72052380D01*
X117607142Y-72052380D02*
X117511904Y-72100000D01*
X117511904Y-72100000D02*
X117464285Y-72147619D01*
X117464285Y-72147619D02*
X117416666Y-72242857D01*
X117416666Y-72242857D02*
X117416666Y-72385714D01*
X117416666Y-72385714D02*
X117464285Y-72480952D01*
X117464285Y-72480952D02*
X117511904Y-72528571D01*
X117511904Y-72528571D02*
X117607142Y-72576190D01*
X117607142Y-72576190D02*
X117988094Y-72576190D01*
X116511904Y-72052380D02*
X116988094Y-72052380D01*
X116988094Y-72052380D02*
X117035713Y-72528571D01*
X117035713Y-72528571D02*
X116988094Y-72480952D01*
X116988094Y-72480952D02*
X116892856Y-72433333D01*
X116892856Y-72433333D02*
X116654761Y-72433333D01*
X116654761Y-72433333D02*
X116559523Y-72480952D01*
X116559523Y-72480952D02*
X116511904Y-72528571D01*
X116511904Y-72528571D02*
X116464285Y-72623809D01*
X116464285Y-72623809D02*
X116464285Y-72861904D01*
X116464285Y-72861904D02*
X116511904Y-72957142D01*
X116511904Y-72957142D02*
X116559523Y-73004761D01*
X116559523Y-73004761D02*
X116654761Y-73052380D01*
X116654761Y-73052380D02*
X116892856Y-73052380D01*
X116892856Y-73052380D02*
X116988094Y-73004761D01*
X116988094Y-73004761D02*
X117035713Y-72957142D01*
X110366666Y-74857142D02*
X110414285Y-74904761D01*
X110414285Y-74904761D02*
X110557142Y-74952380D01*
X110557142Y-74952380D02*
X110652380Y-74952380D01*
X110652380Y-74952380D02*
X110795237Y-74904761D01*
X110795237Y-74904761D02*
X110890475Y-74809523D01*
X110890475Y-74809523D02*
X110938094Y-74714285D01*
X110938094Y-74714285D02*
X110985713Y-74523809D01*
X110985713Y-74523809D02*
X110985713Y-74380952D01*
X110985713Y-74380952D02*
X110938094Y-74190476D01*
X110938094Y-74190476D02*
X110890475Y-74095238D01*
X110890475Y-74095238D02*
X110795237Y-74000000D01*
X110795237Y-74000000D02*
X110652380Y-73952380D01*
X110652380Y-73952380D02*
X110557142Y-73952380D01*
X110557142Y-73952380D02*
X110414285Y-74000000D01*
X110414285Y-74000000D02*
X110366666Y-74047619D01*
X110033332Y-73952380D02*
X109414285Y-73952380D01*
X109414285Y-73952380D02*
X109747618Y-74333333D01*
X109747618Y-74333333D02*
X109604761Y-74333333D01*
X109604761Y-74333333D02*
X109509523Y-74380952D01*
X109509523Y-74380952D02*
X109461904Y-74428571D01*
X109461904Y-74428571D02*
X109414285Y-74523809D01*
X109414285Y-74523809D02*
X109414285Y-74761904D01*
X109414285Y-74761904D02*
X109461904Y-74857142D01*
X109461904Y-74857142D02*
X109509523Y-74904761D01*
X109509523Y-74904761D02*
X109604761Y-74952380D01*
X109604761Y-74952380D02*
X109890475Y-74952380D01*
X109890475Y-74952380D02*
X109985713Y-74904761D01*
X109985713Y-74904761D02*
X110033332Y-74857142D01*
X136416666Y-72452380D02*
X136749999Y-71976190D01*
X136988094Y-72452380D02*
X136988094Y-71452380D01*
X136988094Y-71452380D02*
X136607142Y-71452380D01*
X136607142Y-71452380D02*
X136511904Y-71500000D01*
X136511904Y-71500000D02*
X136464285Y-71547619D01*
X136464285Y-71547619D02*
X136416666Y-71642857D01*
X136416666Y-71642857D02*
X136416666Y-71785714D01*
X136416666Y-71785714D02*
X136464285Y-71880952D01*
X136464285Y-71880952D02*
X136511904Y-71928571D01*
X136511904Y-71928571D02*
X136607142Y-71976190D01*
X136607142Y-71976190D02*
X136988094Y-71976190D01*
X136083332Y-71452380D02*
X135464285Y-71452380D01*
X135464285Y-71452380D02*
X135797618Y-71833333D01*
X135797618Y-71833333D02*
X135654761Y-71833333D01*
X135654761Y-71833333D02*
X135559523Y-71880952D01*
X135559523Y-71880952D02*
X135511904Y-71928571D01*
X135511904Y-71928571D02*
X135464285Y-72023809D01*
X135464285Y-72023809D02*
X135464285Y-72261904D01*
X135464285Y-72261904D02*
X135511904Y-72357142D01*
X135511904Y-72357142D02*
X135559523Y-72404761D01*
X135559523Y-72404761D02*
X135654761Y-72452380D01*
X135654761Y-72452380D02*
X135940475Y-72452380D01*
X135940475Y-72452380D02*
X136035713Y-72404761D01*
X136035713Y-72404761D02*
X136083332Y-72357142D01*
X110366666Y-76802380D02*
X110699999Y-76326190D01*
X110938094Y-76802380D02*
X110938094Y-75802380D01*
X110938094Y-75802380D02*
X110557142Y-75802380D01*
X110557142Y-75802380D02*
X110461904Y-75850000D01*
X110461904Y-75850000D02*
X110414285Y-75897619D01*
X110414285Y-75897619D02*
X110366666Y-75992857D01*
X110366666Y-75992857D02*
X110366666Y-76135714D01*
X110366666Y-76135714D02*
X110414285Y-76230952D01*
X110414285Y-76230952D02*
X110461904Y-76278571D01*
X110461904Y-76278571D02*
X110557142Y-76326190D01*
X110557142Y-76326190D02*
X110938094Y-76326190D01*
X109414285Y-76802380D02*
X109985713Y-76802380D01*
X109699999Y-76802380D02*
X109699999Y-75802380D01*
X109699999Y-75802380D02*
X109795237Y-75945238D01*
X109795237Y-75945238D02*
X109890475Y-76040476D01*
X109890475Y-76040476D02*
X109985713Y-76088095D01*
X113116666Y-78302380D02*
X113449999Y-77826190D01*
X113688094Y-78302380D02*
X113688094Y-77302380D01*
X113688094Y-77302380D02*
X113307142Y-77302380D01*
X113307142Y-77302380D02*
X113211904Y-77350000D01*
X113211904Y-77350000D02*
X113164285Y-77397619D01*
X113164285Y-77397619D02*
X113116666Y-77492857D01*
X113116666Y-77492857D02*
X113116666Y-77635714D01*
X113116666Y-77635714D02*
X113164285Y-77730952D01*
X113164285Y-77730952D02*
X113211904Y-77778571D01*
X113211904Y-77778571D02*
X113307142Y-77826190D01*
X113307142Y-77826190D02*
X113688094Y-77826190D01*
X112259523Y-77302380D02*
X112449999Y-77302380D01*
X112449999Y-77302380D02*
X112545237Y-77350000D01*
X112545237Y-77350000D02*
X112592856Y-77397619D01*
X112592856Y-77397619D02*
X112688094Y-77540476D01*
X112688094Y-77540476D02*
X112735713Y-77730952D01*
X112735713Y-77730952D02*
X112735713Y-78111904D01*
X112735713Y-78111904D02*
X112688094Y-78207142D01*
X112688094Y-78207142D02*
X112640475Y-78254761D01*
X112640475Y-78254761D02*
X112545237Y-78302380D01*
X112545237Y-78302380D02*
X112354761Y-78302380D01*
X112354761Y-78302380D02*
X112259523Y-78254761D01*
X112259523Y-78254761D02*
X112211904Y-78207142D01*
X112211904Y-78207142D02*
X112164285Y-78111904D01*
X112164285Y-78111904D02*
X112164285Y-77873809D01*
X112164285Y-77873809D02*
X112211904Y-77778571D01*
X112211904Y-77778571D02*
X112259523Y-77730952D01*
X112259523Y-77730952D02*
X112354761Y-77683333D01*
X112354761Y-77683333D02*
X112545237Y-77683333D01*
X112545237Y-77683333D02*
X112640475Y-77730952D01*
X112640475Y-77730952D02*
X112688094Y-77778571D01*
X112688094Y-77778571D02*
X112735713Y-77873809D01*
X106942857Y-88702380D02*
X107276190Y-88226190D01*
X107514285Y-88702380D02*
X107514285Y-87702380D01*
X107514285Y-87702380D02*
X107133333Y-87702380D01*
X107133333Y-87702380D02*
X107038095Y-87750000D01*
X107038095Y-87750000D02*
X106990476Y-87797619D01*
X106990476Y-87797619D02*
X106942857Y-87892857D01*
X106942857Y-87892857D02*
X106942857Y-88035714D01*
X106942857Y-88035714D02*
X106990476Y-88130952D01*
X106990476Y-88130952D02*
X107038095Y-88178571D01*
X107038095Y-88178571D02*
X107133333Y-88226190D01*
X107133333Y-88226190D02*
X107514285Y-88226190D01*
X106561904Y-87797619D02*
X106514285Y-87750000D01*
X106514285Y-87750000D02*
X106419047Y-87702380D01*
X106419047Y-87702380D02*
X106180952Y-87702380D01*
X106180952Y-87702380D02*
X106085714Y-87750000D01*
X106085714Y-87750000D02*
X106038095Y-87797619D01*
X106038095Y-87797619D02*
X105990476Y-87892857D01*
X105990476Y-87892857D02*
X105990476Y-87988095D01*
X105990476Y-87988095D02*
X106038095Y-88130952D01*
X106038095Y-88130952D02*
X106609523Y-88702380D01*
X106609523Y-88702380D02*
X105990476Y-88702380D01*
X105085714Y-87702380D02*
X105561904Y-87702380D01*
X105561904Y-87702380D02*
X105609523Y-88178571D01*
X105609523Y-88178571D02*
X105561904Y-88130952D01*
X105561904Y-88130952D02*
X105466666Y-88083333D01*
X105466666Y-88083333D02*
X105228571Y-88083333D01*
X105228571Y-88083333D02*
X105133333Y-88130952D01*
X105133333Y-88130952D02*
X105085714Y-88178571D01*
X105085714Y-88178571D02*
X105038095Y-88273809D01*
X105038095Y-88273809D02*
X105038095Y-88511904D01*
X105038095Y-88511904D02*
X105085714Y-88607142D01*
X105085714Y-88607142D02*
X105133333Y-88654761D01*
X105133333Y-88654761D02*
X105228571Y-88702380D01*
X105228571Y-88702380D02*
X105466666Y-88702380D01*
X105466666Y-88702380D02*
X105561904Y-88654761D01*
X105561904Y-88654761D02*
X105609523Y-88607142D01*
X103742857Y-88752380D02*
X104076190Y-88276190D01*
X104314285Y-88752380D02*
X104314285Y-87752380D01*
X104314285Y-87752380D02*
X103933333Y-87752380D01*
X103933333Y-87752380D02*
X103838095Y-87800000D01*
X103838095Y-87800000D02*
X103790476Y-87847619D01*
X103790476Y-87847619D02*
X103742857Y-87942857D01*
X103742857Y-87942857D02*
X103742857Y-88085714D01*
X103742857Y-88085714D02*
X103790476Y-88180952D01*
X103790476Y-88180952D02*
X103838095Y-88228571D01*
X103838095Y-88228571D02*
X103933333Y-88276190D01*
X103933333Y-88276190D02*
X104314285Y-88276190D01*
X103361904Y-87847619D02*
X103314285Y-87800000D01*
X103314285Y-87800000D02*
X103219047Y-87752380D01*
X103219047Y-87752380D02*
X102980952Y-87752380D01*
X102980952Y-87752380D02*
X102885714Y-87800000D01*
X102885714Y-87800000D02*
X102838095Y-87847619D01*
X102838095Y-87847619D02*
X102790476Y-87942857D01*
X102790476Y-87942857D02*
X102790476Y-88038095D01*
X102790476Y-88038095D02*
X102838095Y-88180952D01*
X102838095Y-88180952D02*
X103409523Y-88752380D01*
X103409523Y-88752380D02*
X102790476Y-88752380D01*
X102219047Y-88180952D02*
X102314285Y-88133333D01*
X102314285Y-88133333D02*
X102361904Y-88085714D01*
X102361904Y-88085714D02*
X102409523Y-87990476D01*
X102409523Y-87990476D02*
X102409523Y-87942857D01*
X102409523Y-87942857D02*
X102361904Y-87847619D01*
X102361904Y-87847619D02*
X102314285Y-87800000D01*
X102314285Y-87800000D02*
X102219047Y-87752380D01*
X102219047Y-87752380D02*
X102028571Y-87752380D01*
X102028571Y-87752380D02*
X101933333Y-87800000D01*
X101933333Y-87800000D02*
X101885714Y-87847619D01*
X101885714Y-87847619D02*
X101838095Y-87942857D01*
X101838095Y-87942857D02*
X101838095Y-87990476D01*
X101838095Y-87990476D02*
X101885714Y-88085714D01*
X101885714Y-88085714D02*
X101933333Y-88133333D01*
X101933333Y-88133333D02*
X102028571Y-88180952D01*
X102028571Y-88180952D02*
X102219047Y-88180952D01*
X102219047Y-88180952D02*
X102314285Y-88228571D01*
X102314285Y-88228571D02*
X102361904Y-88276190D01*
X102361904Y-88276190D02*
X102409523Y-88371428D01*
X102409523Y-88371428D02*
X102409523Y-88561904D01*
X102409523Y-88561904D02*
X102361904Y-88657142D01*
X102361904Y-88657142D02*
X102314285Y-88704761D01*
X102314285Y-88704761D02*
X102219047Y-88752380D01*
X102219047Y-88752380D02*
X102028571Y-88752380D01*
X102028571Y-88752380D02*
X101933333Y-88704761D01*
X101933333Y-88704761D02*
X101885714Y-88657142D01*
X101885714Y-88657142D02*
X101838095Y-88561904D01*
X101838095Y-88561904D02*
X101838095Y-88371428D01*
X101838095Y-88371428D02*
X101885714Y-88276190D01*
X101885714Y-88276190D02*
X101933333Y-88228571D01*
X101933333Y-88228571D02*
X102028571Y-88180952D01*
X137342857Y-94552380D02*
X137676190Y-94076190D01*
X137914285Y-94552380D02*
X137914285Y-93552380D01*
X137914285Y-93552380D02*
X137533333Y-93552380D01*
X137533333Y-93552380D02*
X137438095Y-93600000D01*
X137438095Y-93600000D02*
X137390476Y-93647619D01*
X137390476Y-93647619D02*
X137342857Y-93742857D01*
X137342857Y-93742857D02*
X137342857Y-93885714D01*
X137342857Y-93885714D02*
X137390476Y-93980952D01*
X137390476Y-93980952D02*
X137438095Y-94028571D01*
X137438095Y-94028571D02*
X137533333Y-94076190D01*
X137533333Y-94076190D02*
X137914285Y-94076190D01*
X136390476Y-94552380D02*
X136961904Y-94552380D01*
X136676190Y-94552380D02*
X136676190Y-93552380D01*
X136676190Y-93552380D02*
X136771428Y-93695238D01*
X136771428Y-93695238D02*
X136866666Y-93790476D01*
X136866666Y-93790476D02*
X136961904Y-93838095D01*
X135819047Y-93980952D02*
X135914285Y-93933333D01*
X135914285Y-93933333D02*
X135961904Y-93885714D01*
X135961904Y-93885714D02*
X136009523Y-93790476D01*
X136009523Y-93790476D02*
X136009523Y-93742857D01*
X136009523Y-93742857D02*
X135961904Y-93647619D01*
X135961904Y-93647619D02*
X135914285Y-93600000D01*
X135914285Y-93600000D02*
X135819047Y-93552380D01*
X135819047Y-93552380D02*
X135628571Y-93552380D01*
X135628571Y-93552380D02*
X135533333Y-93600000D01*
X135533333Y-93600000D02*
X135485714Y-93647619D01*
X135485714Y-93647619D02*
X135438095Y-93742857D01*
X135438095Y-93742857D02*
X135438095Y-93790476D01*
X135438095Y-93790476D02*
X135485714Y-93885714D01*
X135485714Y-93885714D02*
X135533333Y-93933333D01*
X135533333Y-93933333D02*
X135628571Y-93980952D01*
X135628571Y-93980952D02*
X135819047Y-93980952D01*
X135819047Y-93980952D02*
X135914285Y-94028571D01*
X135914285Y-94028571D02*
X135961904Y-94076190D01*
X135961904Y-94076190D02*
X136009523Y-94171428D01*
X136009523Y-94171428D02*
X136009523Y-94361904D01*
X136009523Y-94361904D02*
X135961904Y-94457142D01*
X135961904Y-94457142D02*
X135914285Y-94504761D01*
X135914285Y-94504761D02*
X135819047Y-94552380D01*
X135819047Y-94552380D02*
X135628571Y-94552380D01*
X135628571Y-94552380D02*
X135533333Y-94504761D01*
X135533333Y-94504761D02*
X135485714Y-94457142D01*
X135485714Y-94457142D02*
X135438095Y-94361904D01*
X135438095Y-94361904D02*
X135438095Y-94171428D01*
X135438095Y-94171428D02*
X135485714Y-94076190D01*
X135485714Y-94076190D02*
X135533333Y-94028571D01*
X135533333Y-94028571D02*
X135628571Y-93980952D01*
X113292857Y-96502380D02*
X113626190Y-96026190D01*
X113864285Y-96502380D02*
X113864285Y-95502380D01*
X113864285Y-95502380D02*
X113483333Y-95502380D01*
X113483333Y-95502380D02*
X113388095Y-95550000D01*
X113388095Y-95550000D02*
X113340476Y-95597619D01*
X113340476Y-95597619D02*
X113292857Y-95692857D01*
X113292857Y-95692857D02*
X113292857Y-95835714D01*
X113292857Y-95835714D02*
X113340476Y-95930952D01*
X113340476Y-95930952D02*
X113388095Y-95978571D01*
X113388095Y-95978571D02*
X113483333Y-96026190D01*
X113483333Y-96026190D02*
X113864285Y-96026190D01*
X112340476Y-96502380D02*
X112911904Y-96502380D01*
X112626190Y-96502380D02*
X112626190Y-95502380D01*
X112626190Y-95502380D02*
X112721428Y-95645238D01*
X112721428Y-95645238D02*
X112816666Y-95740476D01*
X112816666Y-95740476D02*
X112911904Y-95788095D01*
X112007142Y-95502380D02*
X111340476Y-95502380D01*
X111340476Y-95502380D02*
X111769047Y-96502380D01*
X99092857Y-96557142D02*
X99140476Y-96604761D01*
X99140476Y-96604761D02*
X99283333Y-96652380D01*
X99283333Y-96652380D02*
X99378571Y-96652380D01*
X99378571Y-96652380D02*
X99521428Y-96604761D01*
X99521428Y-96604761D02*
X99616666Y-96509523D01*
X99616666Y-96509523D02*
X99664285Y-96414285D01*
X99664285Y-96414285D02*
X99711904Y-96223809D01*
X99711904Y-96223809D02*
X99711904Y-96080952D01*
X99711904Y-96080952D02*
X99664285Y-95890476D01*
X99664285Y-95890476D02*
X99616666Y-95795238D01*
X99616666Y-95795238D02*
X99521428Y-95700000D01*
X99521428Y-95700000D02*
X99378571Y-95652380D01*
X99378571Y-95652380D02*
X99283333Y-95652380D01*
X99283333Y-95652380D02*
X99140476Y-95700000D01*
X99140476Y-95700000D02*
X99092857Y-95747619D01*
X98711904Y-95747619D02*
X98664285Y-95700000D01*
X98664285Y-95700000D02*
X98569047Y-95652380D01*
X98569047Y-95652380D02*
X98330952Y-95652380D01*
X98330952Y-95652380D02*
X98235714Y-95700000D01*
X98235714Y-95700000D02*
X98188095Y-95747619D01*
X98188095Y-95747619D02*
X98140476Y-95842857D01*
X98140476Y-95842857D02*
X98140476Y-95938095D01*
X98140476Y-95938095D02*
X98188095Y-96080952D01*
X98188095Y-96080952D02*
X98759523Y-96652380D01*
X98759523Y-96652380D02*
X98140476Y-96652380D01*
X97188095Y-96652380D02*
X97759523Y-96652380D01*
X97473809Y-96652380D02*
X97473809Y-95652380D01*
X97473809Y-95652380D02*
X97569047Y-95795238D01*
X97569047Y-95795238D02*
X97664285Y-95890476D01*
X97664285Y-95890476D02*
X97759523Y-95938095D01*
X103542857Y-100052380D02*
X103876190Y-99576190D01*
X104114285Y-100052380D02*
X104114285Y-99052380D01*
X104114285Y-99052380D02*
X103733333Y-99052380D01*
X103733333Y-99052380D02*
X103638095Y-99100000D01*
X103638095Y-99100000D02*
X103590476Y-99147619D01*
X103590476Y-99147619D02*
X103542857Y-99242857D01*
X103542857Y-99242857D02*
X103542857Y-99385714D01*
X103542857Y-99385714D02*
X103590476Y-99480952D01*
X103590476Y-99480952D02*
X103638095Y-99528571D01*
X103638095Y-99528571D02*
X103733333Y-99576190D01*
X103733333Y-99576190D02*
X104114285Y-99576190D01*
X103161904Y-99147619D02*
X103114285Y-99100000D01*
X103114285Y-99100000D02*
X103019047Y-99052380D01*
X103019047Y-99052380D02*
X102780952Y-99052380D01*
X102780952Y-99052380D02*
X102685714Y-99100000D01*
X102685714Y-99100000D02*
X102638095Y-99147619D01*
X102638095Y-99147619D02*
X102590476Y-99242857D01*
X102590476Y-99242857D02*
X102590476Y-99338095D01*
X102590476Y-99338095D02*
X102638095Y-99480952D01*
X102638095Y-99480952D02*
X103209523Y-100052380D01*
X103209523Y-100052380D02*
X102590476Y-100052380D01*
X101733333Y-99385714D02*
X101733333Y-100052380D01*
X101971428Y-99004761D02*
X102209523Y-99719047D01*
X102209523Y-99719047D02*
X101590476Y-99719047D01*
X88342857Y-100752380D02*
X88676190Y-100276190D01*
X88914285Y-100752380D02*
X88914285Y-99752380D01*
X88914285Y-99752380D02*
X88533333Y-99752380D01*
X88533333Y-99752380D02*
X88438095Y-99800000D01*
X88438095Y-99800000D02*
X88390476Y-99847619D01*
X88390476Y-99847619D02*
X88342857Y-99942857D01*
X88342857Y-99942857D02*
X88342857Y-100085714D01*
X88342857Y-100085714D02*
X88390476Y-100180952D01*
X88390476Y-100180952D02*
X88438095Y-100228571D01*
X88438095Y-100228571D02*
X88533333Y-100276190D01*
X88533333Y-100276190D02*
X88914285Y-100276190D01*
X87961904Y-99847619D02*
X87914285Y-99800000D01*
X87914285Y-99800000D02*
X87819047Y-99752380D01*
X87819047Y-99752380D02*
X87580952Y-99752380D01*
X87580952Y-99752380D02*
X87485714Y-99800000D01*
X87485714Y-99800000D02*
X87438095Y-99847619D01*
X87438095Y-99847619D02*
X87390476Y-99942857D01*
X87390476Y-99942857D02*
X87390476Y-100038095D01*
X87390476Y-100038095D02*
X87438095Y-100180952D01*
X87438095Y-100180952D02*
X88009523Y-100752380D01*
X88009523Y-100752380D02*
X87390476Y-100752380D01*
X86438095Y-100752380D02*
X87009523Y-100752380D01*
X86723809Y-100752380D02*
X86723809Y-99752380D01*
X86723809Y-99752380D02*
X86819047Y-99895238D01*
X86819047Y-99895238D02*
X86914285Y-99990476D01*
X86914285Y-99990476D02*
X87009523Y-100038095D01*
X137442857Y-98652380D02*
X137776190Y-98176190D01*
X138014285Y-98652380D02*
X138014285Y-97652380D01*
X138014285Y-97652380D02*
X137633333Y-97652380D01*
X137633333Y-97652380D02*
X137538095Y-97700000D01*
X137538095Y-97700000D02*
X137490476Y-97747619D01*
X137490476Y-97747619D02*
X137442857Y-97842857D01*
X137442857Y-97842857D02*
X137442857Y-97985714D01*
X137442857Y-97985714D02*
X137490476Y-98080952D01*
X137490476Y-98080952D02*
X137538095Y-98128571D01*
X137538095Y-98128571D02*
X137633333Y-98176190D01*
X137633333Y-98176190D02*
X138014285Y-98176190D01*
X137061904Y-97747619D02*
X137014285Y-97700000D01*
X137014285Y-97700000D02*
X136919047Y-97652380D01*
X136919047Y-97652380D02*
X136680952Y-97652380D01*
X136680952Y-97652380D02*
X136585714Y-97700000D01*
X136585714Y-97700000D02*
X136538095Y-97747619D01*
X136538095Y-97747619D02*
X136490476Y-97842857D01*
X136490476Y-97842857D02*
X136490476Y-97938095D01*
X136490476Y-97938095D02*
X136538095Y-98080952D01*
X136538095Y-98080952D02*
X137109523Y-98652380D01*
X137109523Y-98652380D02*
X136490476Y-98652380D01*
X136109523Y-97747619D02*
X136061904Y-97700000D01*
X136061904Y-97700000D02*
X135966666Y-97652380D01*
X135966666Y-97652380D02*
X135728571Y-97652380D01*
X135728571Y-97652380D02*
X135633333Y-97700000D01*
X135633333Y-97700000D02*
X135585714Y-97747619D01*
X135585714Y-97747619D02*
X135538095Y-97842857D01*
X135538095Y-97842857D02*
X135538095Y-97938095D01*
X135538095Y-97938095D02*
X135585714Y-98080952D01*
X135585714Y-98080952D02*
X136157142Y-98652380D01*
X136157142Y-98652380D02*
X135538095Y-98652380D01*
X109742857Y-89957142D02*
X109790476Y-90004761D01*
X109790476Y-90004761D02*
X109933333Y-90052380D01*
X109933333Y-90052380D02*
X110028571Y-90052380D01*
X110028571Y-90052380D02*
X110171428Y-90004761D01*
X110171428Y-90004761D02*
X110266666Y-89909523D01*
X110266666Y-89909523D02*
X110314285Y-89814285D01*
X110314285Y-89814285D02*
X110361904Y-89623809D01*
X110361904Y-89623809D02*
X110361904Y-89480952D01*
X110361904Y-89480952D02*
X110314285Y-89290476D01*
X110314285Y-89290476D02*
X110266666Y-89195238D01*
X110266666Y-89195238D02*
X110171428Y-89100000D01*
X110171428Y-89100000D02*
X110028571Y-89052380D01*
X110028571Y-89052380D02*
X109933333Y-89052380D01*
X109933333Y-89052380D02*
X109790476Y-89100000D01*
X109790476Y-89100000D02*
X109742857Y-89147619D01*
X108790476Y-90052380D02*
X109361904Y-90052380D01*
X109076190Y-90052380D02*
X109076190Y-89052380D01*
X109076190Y-89052380D02*
X109171428Y-89195238D01*
X109171428Y-89195238D02*
X109266666Y-89290476D01*
X109266666Y-89290476D02*
X109361904Y-89338095D01*
X108171428Y-89052380D02*
X108076190Y-89052380D01*
X108076190Y-89052380D02*
X107980952Y-89100000D01*
X107980952Y-89100000D02*
X107933333Y-89147619D01*
X107933333Y-89147619D02*
X107885714Y-89242857D01*
X107885714Y-89242857D02*
X107838095Y-89433333D01*
X107838095Y-89433333D02*
X107838095Y-89671428D01*
X107838095Y-89671428D02*
X107885714Y-89861904D01*
X107885714Y-89861904D02*
X107933333Y-89957142D01*
X107933333Y-89957142D02*
X107980952Y-90004761D01*
X107980952Y-90004761D02*
X108076190Y-90052380D01*
X108076190Y-90052380D02*
X108171428Y-90052380D01*
X108171428Y-90052380D02*
X108266666Y-90004761D01*
X108266666Y-90004761D02*
X108314285Y-89957142D01*
X108314285Y-89957142D02*
X108361904Y-89861904D01*
X108361904Y-89861904D02*
X108409523Y-89671428D01*
X108409523Y-89671428D02*
X108409523Y-89433333D01*
X108409523Y-89433333D02*
X108361904Y-89242857D01*
X108361904Y-89242857D02*
X108314285Y-89147619D01*
X108314285Y-89147619D02*
X108266666Y-89100000D01*
X108266666Y-89100000D02*
X108171428Y-89052380D01*
D11*
X105400000Y-93140000D02*
X108850000Y-93140000D01*
X105400000Y-93140000D02*
X103450000Y-93140000D01*
X105400000Y-98260000D02*
X107350000Y-98260000D01*
X105400000Y-98260000D02*
X103450000Y-98260000D01*
X118503733Y-98260000D02*
X118796267Y-98260000D01*
X118503733Y-97240000D02*
X118796267Y-97240000D01*
X111945276Y-92022500D02*
X112454724Y-92022500D01*
X111945276Y-90977500D02*
X112454724Y-90977500D01*
X87580000Y-79420000D02*
X91720000Y-79420000D01*
X87580000Y-79120000D02*
X87580000Y-79420000D01*
X87580000Y-76280000D02*
X87580000Y-76580000D01*
X91720000Y-79420000D02*
X91720000Y-79120000D01*
X91720000Y-76580000D02*
X91720000Y-76280000D01*
X91720000Y-76280000D02*
X87580000Y-76280000D01*
X87580000Y-90570000D02*
X91720000Y-90570000D01*
X87580000Y-90270000D02*
X87580000Y-90570000D01*
X87580000Y-87430000D02*
X87580000Y-87730000D01*
X91720000Y-90570000D02*
X91720000Y-90270000D01*
X91720000Y-87730000D02*
X91720000Y-87430000D01*
X91720000Y-87430000D02*
X87580000Y-87430000D01*
X87580000Y-97970000D02*
X91720000Y-97970000D01*
X87580000Y-97670000D02*
X87580000Y-97970000D01*
X87580000Y-94830000D02*
X87580000Y-95130000D01*
X91720000Y-97970000D02*
X91720000Y-97670000D01*
X91720000Y-95130000D02*
X91720000Y-94830000D01*
X91720000Y-94830000D02*
X87580000Y-94830000D01*
X101303733Y-92760000D02*
X101596267Y-92760000D01*
X101303733Y-91740000D02*
X101596267Y-91740000D01*
X87580000Y-86870000D02*
X91720000Y-86870000D01*
X87580000Y-86570000D02*
X87580000Y-86870000D01*
X87580000Y-83730000D02*
X87580000Y-84030000D01*
X91720000Y-86870000D02*
X91720000Y-86570000D01*
X91720000Y-84030000D02*
X91720000Y-83730000D01*
X91720000Y-83730000D02*
X87580000Y-83730000D01*
X100027500Y-94395276D02*
X100027500Y-94904724D01*
X101072500Y-94395276D02*
X101072500Y-94904724D01*
X122000000Y-79335000D02*
X118550000Y-79335000D01*
X122000000Y-79335000D02*
X123950000Y-79335000D01*
X122000000Y-70465000D02*
X120050000Y-70465000D01*
X122000000Y-70465000D02*
X123950000Y-70465000D01*
X118191233Y-81060000D02*
X118483767Y-81060000D01*
X118191233Y-80040000D02*
X118483767Y-80040000D01*
X128922936Y-82160000D02*
X133277064Y-82160000D01*
X128922936Y-78740000D02*
X133277064Y-78740000D01*
X128922936Y-91310000D02*
X133277064Y-91310000D01*
X128922936Y-87890000D02*
X133277064Y-87890000D01*
X87580000Y-94320000D02*
X91720000Y-94320000D01*
X87580000Y-94020000D02*
X87580000Y-94320000D01*
X87580000Y-91180000D02*
X87580000Y-91480000D01*
X91720000Y-94320000D02*
X91720000Y-94020000D01*
X91720000Y-91480000D02*
X91720000Y-91180000D01*
X91720000Y-91180000D02*
X87580000Y-91180000D01*
X122000000Y-96435000D02*
X118550000Y-96435000D01*
X122000000Y-96435000D02*
X123950000Y-96435000D01*
X122000000Y-87565000D02*
X120050000Y-87565000D01*
X122000000Y-87565000D02*
X123950000Y-87565000D01*
X87580000Y-83120000D02*
X91720000Y-83120000D01*
X87580000Y-82820000D02*
X87580000Y-83120000D01*
X87580000Y-79980000D02*
X87580000Y-80280000D01*
X91720000Y-83120000D02*
X91720000Y-82820000D01*
X91720000Y-80280000D02*
X91720000Y-79980000D01*
X91720000Y-79980000D02*
X87580000Y-79980000D01*
X128972936Y-77860000D02*
X133327064Y-77860000D01*
X128972936Y-74440000D02*
X133327064Y-74440000D01*
X118395276Y-99922500D02*
X118904724Y-99922500D01*
X118395276Y-98877500D02*
X118904724Y-98877500D01*
X115027500Y-89745276D02*
X115027500Y-90254724D01*
X116072500Y-89745276D02*
X116072500Y-90254724D01*
X117995276Y-82772500D02*
X118504724Y-82772500D01*
X117995276Y-81727500D02*
X118504724Y-81727500D01*
X98010000Y-98946267D02*
X98010000Y-98653733D01*
X96990000Y-98946267D02*
X96990000Y-98653733D01*
X116177500Y-74895276D02*
X116177500Y-75404724D01*
X117222500Y-74895276D02*
X117222500Y-75404724D01*
X112703733Y-74960000D02*
X112996267Y-74960000D01*
X112703733Y-73940000D02*
X112996267Y-73940000D01*
X128922936Y-73410000D02*
X133277064Y-73410000D01*
X128922936Y-69990000D02*
X133277064Y-69990000D01*
X112645276Y-76622500D02*
X113154724Y-76622500D01*
X112645276Y-75577500D02*
X113154724Y-75577500D01*
X115445276Y-78372500D02*
X115954724Y-78372500D01*
X115445276Y-77327500D02*
X115954724Y-77327500D01*
X106722500Y-91004724D02*
X106722500Y-90495276D01*
X105677500Y-91004724D02*
X105677500Y-90495276D01*
X105022500Y-91054724D02*
X105022500Y-90545276D01*
X103977500Y-91054724D02*
X103977500Y-90545276D01*
X128922936Y-95610000D02*
X133277064Y-95610000D01*
X128922936Y-92190000D02*
X133277064Y-92190000D01*
X115845276Y-96572500D02*
X116354724Y-96572500D01*
X115845276Y-95527500D02*
X116354724Y-95527500D01*
X98540000Y-98303733D02*
X98540000Y-98596267D01*
X99560000Y-98303733D02*
X99560000Y-98596267D01*
X100077500Y-98195276D02*
X100077500Y-98704724D01*
X101122500Y-98195276D02*
X101122500Y-98704724D01*
X88004724Y-98427500D02*
X87495276Y-98427500D01*
X88004724Y-99472500D02*
X87495276Y-99472500D01*
X128972936Y-99860000D02*
X133327064Y-99860000D01*
X128972936Y-96440000D02*
X133327064Y-96440000D01*
X112053733Y-90160000D02*
X112346267Y-90160000D01*
X112053733Y-89140000D02*
X112346267Y-89140000D01*
%LPC*%
D12*
X90499999Y-98899999D03*
D13*
X93039999Y-98899999D03*
X95579999Y-98899999D03*
D14*
X107875000Y-93795000D03*
X107875000Y-95065000D03*
X107875000Y-96335000D03*
X107875000Y-97605000D03*
X102925000Y-97605000D03*
X102925000Y-96335000D03*
X102925000Y-95065000D03*
X102925000Y-93795000D03*
D15*
X145900000Y-97375000D03*
X145900000Y-90375000D03*
D16*
X110300000Y-72700000D03*
X115300000Y-72700000D03*
X110350000Y-79800000D03*
X115350000Y-79800000D03*
X110450000Y-86900000D03*
X115450000Y-86900000D03*
X110500000Y-94050000D03*
X115500000Y-94050000D03*
D17*
X117787500Y-97750000D03*
X119512500Y-97750000D03*
D18*
X111287500Y-91500000D03*
X113112500Y-91500000D03*
D19*
X87550000Y-77850000D03*
X91750000Y-77850000D03*
X87550000Y-89000000D03*
X91750000Y-89000000D03*
X87550000Y-96400000D03*
X91750000Y-96400000D03*
D17*
X100587500Y-92250000D03*
X102312500Y-92250000D03*
D19*
X87550000Y-85300000D03*
X91750000Y-85300000D03*
D20*
X100550000Y-93737500D03*
X100550000Y-95562500D03*
D21*
X119525000Y-78710000D03*
X119525000Y-77440000D03*
X119525000Y-76170000D03*
X119525000Y-74900000D03*
X119525000Y-73630000D03*
X119525000Y-72360000D03*
X119525000Y-71090000D03*
X124475000Y-71090000D03*
X124475000Y-72360000D03*
X124475000Y-73630000D03*
X124475000Y-74900000D03*
X124475000Y-76170000D03*
X124475000Y-77440000D03*
X124475000Y-78710000D03*
D17*
X117475000Y-80550000D03*
X119200000Y-80550000D03*
D22*
X128050000Y-80450000D03*
X134150000Y-80450000D03*
X128050000Y-89600000D03*
X134150000Y-89600000D03*
D19*
X87550000Y-92750000D03*
X91750000Y-92750000D03*
D21*
X119525000Y-95810000D03*
X119525000Y-94540000D03*
X119525000Y-93270000D03*
X119525000Y-92000000D03*
X119525000Y-90730000D03*
X119525000Y-89460000D03*
X119525000Y-88190000D03*
X124475000Y-88190000D03*
X124475000Y-89460000D03*
X124475000Y-90730000D03*
X124475000Y-92000000D03*
X124475000Y-93270000D03*
X124475000Y-94540000D03*
X124475000Y-95810000D03*
D19*
X87550000Y-81550000D03*
X91750000Y-81550000D03*
D22*
X128100000Y-76150000D03*
X134200000Y-76150000D03*
D18*
X117737500Y-99400000D03*
X119562500Y-99400000D03*
D20*
X115550000Y-89087500D03*
X115550000Y-90912500D03*
D18*
X117337500Y-82250000D03*
X119162500Y-82250000D03*
D23*
X97500000Y-99662500D03*
X97500000Y-97937500D03*
D20*
X116700000Y-74237500D03*
X116700000Y-76062500D03*
D17*
X111987500Y-74450000D03*
X113712500Y-74450000D03*
D22*
X128050000Y-71700000D03*
X134150000Y-71700000D03*
D18*
X111987500Y-76100000D03*
X113812500Y-76100000D03*
X114787500Y-77850000D03*
X116612500Y-77850000D03*
D24*
X106200000Y-91662500D03*
X106200000Y-89837500D03*
X104500000Y-91712500D03*
X104500000Y-89887500D03*
D22*
X128050000Y-93900000D03*
X134150000Y-93900000D03*
D18*
X115187500Y-96050000D03*
X117012500Y-96050000D03*
D25*
X99050000Y-97587500D03*
X99050000Y-99312500D03*
D20*
X100600000Y-97537500D03*
X100600000Y-99362500D03*
D26*
X88662500Y-98950000D03*
X86837500Y-98950000D03*
D22*
X128100000Y-98150000D03*
X134200000Y-98150000D03*
D17*
X111337500Y-89650000D03*
X113062500Y-89650000D03*
M02*
